<?xml version="1.0" encoding="UTF-8" standalone="no"?>
<!-- Created with Inkscape (http://www.inkscape.org/) -->

<svg
   xmlns:dc="http://purl.org/dc/elements/1.1/"
   xmlns:cc="http://creativecommons.org/ns#"
   xmlns:rdf="http://www.w3.org/1999/02/22-rdf-syntax-ns#"
   xmlns:svg="http://www.w3.org/2000/svg"
   xmlns="http://www.w3.org/2000/svg"
   xmlns:sodipodi="http://sodipodi.sourceforge.net/DTD/sodipodi-0.dtd"
   xmlns:inkscape="http://www.inkscape.org/namespaces/inkscape"
   sodipodi:docname="banana-label.svg"
   id="svg8"
   version="1.1"
   viewBox="0 0 29.000002 37.198613"
   height="37.198612mm"
   width="29.000002mm"
   inkscape:version="0.92.4 (5da689c313, 2019-01-14)">
  <defs
     id="defs2">
    <clipPath
       id="clipPath831"
       clipPathUnits="userSpaceOnUse">
      <path
         inkscape:connector-curvature="0"
         id="path829"
         d="M 0,288 H 288 V 0 H 0 Z" />
    </clipPath>
  </defs>
  <sodipodi:namedview
     id="base"
     pagecolor="#ffffff"
     bordercolor="#666666"
     borderopacity="1.0"
     inkscape:pageopacity="0.0"
     inkscape:pageshadow="2"
     inkscape:zoom="3.959798"
     inkscape:cx="43.899103"
     inkscape:cy="93.915084"
     inkscape:document-units="mm"
     inkscape:current-layer="g1482"
     showgrid="true"
     inkscape:window-width="1920"
     inkscape:window-height="1177"
     inkscape:window-x="1912"
     inkscape:window-y="-8"
     inkscape:window-maximized="1"
     borderlayer="true"
     fit-margin-top="0"
     fit-margin-left="0"
     fit-margin-right="0"
     fit-margin-bottom="0">
    <inkscape:grid
       id="grid1460"
       units="mm"
       type="xygrid"
       empspacing="1"
       spacingy="2.54"
       spacingx="2.54"
       originx="40.882031"
       originy="-124.13266" />
  </sodipodi:namedview>
  <metadata
     id="metadata5">
    <rdf:RDF>
      <cc:Work
         rdf:about="">
        <dc:format>image/svg+xml</dc:format>
        <dc:type
           rdf:resource="http://purl.org/dc/dcmitype/StillImage" />
        <dc:title></dc:title>
      </cc:Work>
    </rdf:RDF>
    <rdf:RDF>
      <cc:Work
         rdf:about="">
        <dc:title />
      </cc:Work>
    </rdf:RDF>
  </metadata>
  <g
     id="g1466"
     sodipodi:insensitive="true"
     inkscape:groupmode="layer"
     inkscape:label="[fixed] BG"
     transform="translate(40.882035,157.43127)">
    <rect
       id="rect1464"
       style="fill:#ffffff;fill-opacity:1;stroke:none"
       height="3.9000001"
       width="20"
       y="0"
       x="0" />
  </g>
  <g
     id="g1468"
     inkscape:groupmode="layer"
     inkscape:label="F.Cu-disabled"
     transform="translate(40.882035,157.43127)" />
  <g
     id="g1470"
     inkscape:groupmode="layer"
     inkscape:label="B.Cu-disabled"
     transform="translate(40.882035,157.43127)" />
  <g
     id="g1472"
     inkscape:groupmode="layer"
     inkscape:label="B.Adhes-disabled"
     transform="translate(40.882035,157.43127)" />
  <g
     id="g1474"
     inkscape:groupmode="layer"
     inkscape:label="F.Adhes-disabled"
     transform="translate(40.882035,157.43127)" />
  <g
     id="g1476"
     inkscape:groupmode="layer"
     inkscape:label="B.Paste-disabled"
     transform="translate(40.882035,157.43127)" />
  <g
     id="g1478"
     inkscape:groupmode="layer"
     inkscape:label="F.Paste-disabled"
     transform="translate(40.882035,157.43127)" />
  <g
     id="g1480"
     inkscape:groupmode="layer"
     inkscape:label="B.SilkS-disabled"
     transform="translate(40.882035,157.43127)" />
  <g
     id="g1482"
     inkscape:groupmode="layer"
     inkscape:label="F.SilkS"
     transform="translate(40.882035,157.43127)"
     style="display:inline">
    <g
       id="g841"
       transform="matrix(1.0740738,0,0,1.0740738,3.0282858,8.9060842)">
      <path
         d="m -14.147271,-141.3065 -2.067381,-0.002 2.067657,8.3e-4 c 0,2.7e-4 -2.76e-4,5.6e-4 -2.76e-4,8.2e-4 m -13.23461,-13.559 h -0.09201 l -0.0047,2.8e-4 c -6.058737,0.0381 -10.722639,3.41193 -12.487181,9.03878 -0.409773,1.27962 -0.663154,2.66616 -0.753508,4.12178 -0.103894,0.94693 -0.163302,2.45532 -0.162749,4.15632 -5.53e-4,1.69988 0.05885,3.20828 0.162749,4.1552 0.09035,1.45562 0.343735,2.84189 0.753508,4.12178 1.763988,5.62493 6.424853,8.99844 12.480826,9.03851 l 0.0042,5.5e-4 h 0.09892 0.09367 l 0.0049,-5.5e-4 c 6.05763,-0.0387 10.720705,-3.41248 12.48497,-9.03851 0.409773,-1.27989 0.663152,-2.66616 0.753508,-4.12178 0.103893,-0.94692 0.163301,-2.45532 0.162748,-4.15631 5.53e-4,-1.46585 -0.04366,-2.78939 -0.122407,-3.73328 0,-0.008 2.77e-4,-0.0158 2.77e-4,-0.0237 h -0.0022 c 0,-2.7e-4 0,-5.6e-4 0,-8.3e-4 h 0.0022 c 0,-0.0506 -0.003,-0.15335 -0.01105,-0.2799 -0.0075,-0.11246 -0.01879,-0.25836 -0.02901,-0.37579 -0.01078,-0.11882 -0.02653,-0.23099 -0.04697,-0.3371 -0.116328,-1.23899 -0.353405,-2.42218 -0.707086,-3.52633 -1.763713,-5.62464 -6.424024,-8.99787 -12.478615,-9.03878 l -0.0044,-2.7e-4 z m 11.114176,12.93868 c 0,0.0431 0.0055,0.16634 0.0199,0.41227 0.01851,0.16136 0.02791,0.22298 0.0315,0.22298 0.0011,0 0.0016,-0.006 0.0016,-0.0165 0,0.0107 -5.53e-4,0.0165 -0.0016,0.0165 -0.0036,0 -0.01299,-0.0616 -0.0315,-0.22298 -0.01437,-0.24593 -0.0199,-0.36916 -0.0199,-0.41227 m 0.0014,-0.0183 c 0.0081,0 0.05167,0.53439 0.05167,0.63691 0,-0.10252 -0.04366,-0.63691 -0.05167,-0.63691 m 0,0 c -8.28e-4,0 -0.0014,0.006 -0.0014,0.0183 0,-0.0125 5.53e-4,-0.0183 0.0014,-0.0183 m -11.115558,-10.70993 c 0.003,0 0.0061,0 0.0067,0 5.000177,0.004 8.933507,2.58823 10.469537,7.49557 0.355062,1.10636 0.580258,2.3238 0.657902,3.64486 0.103894,0.90438 0.155841,2.43322 0.155288,3.96566 5.53e-4,1.53216 -0.05139,3.06101 -0.155288,3.96538 -0.07765,1.32105 -0.30284,2.5385 -0.657902,3.64486 -1.53603,4.90761 -5.46936,7.49087 -10.469537,7.49585 -5.53e-4,0 -0.0036,0 -0.0067,0 -0.0033,0 -0.0063,0 -0.0069,0 -5.000178,-0.005 -8.933232,-2.58824 -10.469537,-7.49585 -0.355063,-1.10636 -0.580259,-2.32381 -0.657903,-3.64486 -0.103894,-0.90437 -0.155842,-2.43322 -0.155288,-3.96538 -5.54e-4,-1.53244 0.05139,-3.06128 0.155288,-3.96566 0.07765,-1.32106 0.30284,-2.5385 0.657903,-3.64486 1.536305,-4.90734 5.469359,-7.49087 10.469537,-7.49557 5.52e-4,0 0.0036,0 0.0069,0"
         style="fill:#000017;fill-opacity:1;fill-rule:nonzero;stroke:none;stroke-width:0.27631399"
         id="path839"
         inkscape:connector-curvature="0" />
      <path
         inkscape:connector-curvature="0"
         id="path843"
         d="m -27.387846,-151.22674 c -4.353327,0.004 -7.777359,2.34356 -9.114719,6.78697 -0.309194,1.00162 -0.505032,2.10422 -0.57273,3.30039 -0.09063,0.81872 -0.135869,2.20282 -0.135594,3.59019 -2.75e-4,1.38738 0.04496,2.7716 0.135594,3.59059 0.0677,1.1959 0.263536,2.29835 0.57273,3.29998 1.33736,4.44342 4.761392,6.78283 9.114719,6.78697 h 0.01174 c 4.353051,-0.004 7.777358,-2.34355 9.114718,-6.78697 0.309196,-1.00163 0.505033,-2.10408 0.572731,-3.29998 0.09063,-0.81899 0.13587,-2.20321 0.135594,-3.59059 2.76e-4,-1.38737 -0.04496,-2.77147 -0.135594,-3.59019 -0.0677,-1.19617 -0.263535,-2.29877 -0.572731,-3.30039 -1.33736,-4.44341 -4.761667,-6.78254 -9.114718,-6.78697 z m 9.699188,10.08736 c 0.01133,0.10234 0.019,0.16018 0.02347,0.18578 0.01343,0.0768 2.72e-4,-0.13855 -0.01457,-0.32745 -0.0099,-0.12594 -0.02078,-0.24023 -0.02469,-0.24811 -0.0039,-0.008 -0.0011,0.0907 0.01578,0.38978 z m -12.509009,-7.60983 c 0.04773,-0.002 0.09477,-0.002 0.14126,0 0.53964,0.0223 1.007392,0.0912 1.429601,0.21087 0.80876,0.22852 1.548876,0.66631 2.199043,1.3013 0.02653,0.0257 0.05281,0.0514 0.07934,0.0769 0.103617,0.10002 0.210983,0.20288 0.304378,0.31368 0.111354,0.13126 0.215133,0.27363 0.315711,0.41124 0.02901,0.0398 0.05802,0.0799 0.08702,0.11941 0.150873,0.20392 0.282639,0.42591 0.410019,0.64032 0.04089,0.0685 0.0816,0.13683 0.123045,0.2048 0.07847,0.12959 0.150043,0.27903 0.21857,0.45697 0.204471,0.52859 0.435949,1.12742 0.532659,1.75908 0.133736,0.87287 0.06374,1.6468 -0.209259,2.36742 -0.348708,0.92096 -0.855384,2.44083 -1.177842,2.31399 -0.08069,-0.0229 -0.201363,-0.46152 -0.23314,-0.54965 -0.365563,-1.01629 -1.355586,-1.67224 -1.577742,-1.80846 -0.183472,-0.12849 -0.37916,-0.24233 -0.590541,-0.33959 -0.219393,-0.10085 -0.445792,-0.18806 -0.675134,-0.26349 -0.217736,-0.0716 -0.739069,-0.0676 -0.722491,-0.22788 l -4.04e-4,-0.032 c -0.0061,-0.34816 -0.120621,-0.70725 -0.178093,-1.00704 -0.02266,-0.11827 -0.191955,-0.54196 -0.245282,-0.64639 -0.03122,-0.061 -0.05886,-0.12564 -0.08621,-0.18781 -0.01686,-0.0387 -0.03372,-0.077 -0.0514,-0.11536 -0.02929,-0.0629 -0.01649,-0.11324 0.0421,-0.16352 0.07433,-0.0638 0.148842,-0.12855 0.222617,-0.19347 l 0.0068,-0.006 c 0.02708,-0.0237 0.05526,-0.0486 0.08095,-0.0757 0.09477,-0.1014 0.102109,-0.17733 0.02833,-0.29061 l -0.01538,-0.0235 c -0.02017,-0.0315 -0.04079,-0.064 -0.0676,-0.0919 -0.09063,-0.0931 -0.177215,-0.19416 -0.260663,-0.29142 -0.130419,-0.15226 -0.264958,-0.30946 -0.421352,-0.44403 -0.121303,-0.10444 -0.201388,-0.22078 -0.243663,-0.35618 -0.02183,-0.0696 -0.04863,-0.13875 -0.07488,-0.20562 -0.03426,-0.089 -0.06986,-0.18116 -0.0939,-0.27483 -0.01271,-0.0494 -0.06204,-0.34001 -0.109284,-0.6213 -0.03067,-0.18125 -0.05988,-0.35705 -0.07812,-0.45818 -0.04117,-0.22879 -0.05973,-0.4708 -0.05585,-0.73909 l 4.04e-4,-0.0113 c 0,-0.0279 1.98e-4,-0.0568 0.0032,-0.0842 0.03648,-0.34705 0.174355,-0.51414 0.489351,-0.59621 0.160816,-0.0418 0.310518,-0.0654 0.453732,-0.0713 z m 2.105949,0.89167 c -0.08482,0.009 -0.162329,0.0603 -0.218974,0.14369 -0.08455,0.12434 -0.114872,0.26813 -0.08945,0.42702 0.0069,0.0434 0.01903,0.0859 0.03036,0.12709 0.01078,0.0392 0.0221,0.08 0.02874,0.11981 0.0373,0.22299 0.161887,0.37345 0.381281,0.46021 0.08925,0.0353 0.180096,0.0358 0.255806,0.002 0.0019,-8.3e-4 0.0036,-0.002 0.0053,-0.003 0.06853,-0.0323 0.119662,-0.0908 0.148952,-0.16959 0.03924,-0.10555 0.05019,-0.2131 0.03279,-0.31976 -0.01796,-0.10969 -0.04488,-0.23863 -0.104832,-0.36104 -0.05416,-0.12849 -0.13436,-0.24312 -0.238807,-0.34121 -0.06825,-0.0643 -0.150432,-0.0947 -0.231116,-0.0858 z m 1.854191,1.72669 c -0.02507,0.002 -0.05064,0.008 -0.07731,0.0191 l -0.02469,0.0101 c -0.05223,0.021 -0.105799,0.0432 -0.156641,0.0708 -0.155289,0.0851 -0.317247,0.10597 -0.51647,0.0692 -0.272446,-0.0503 -0.51703,-0.0725 -0.746371,-0.0672 -0.226024,0.005 -0.44318,-0.005 -0.703467,-0.019 -0.515327,-0.0285 -0.933574,-0.0261 -1.31627,0.008 l -0.03603,0.003 c -0.03343,0.003 -0.06814,0.005 -0.102403,0.0113 -0.04919,0.009 -0.08901,0.0342 -0.113332,0.072 -0.02349,0.0365 -0.0301,0.0822 -0.01822,0.12871 0.0074,0.0295 0.02036,0.057 0.03279,0.0838 0.0044,0.009 0.0088,0.019 0.01295,0.0283 l 0.05505,0.12548 c 0.04449,0.10224 0.08877,0.20459 0.135189,0.30599 0.03648,0.0804 0.06967,0.16352 0.101998,0.24448 0.06079,0.15253 0.123801,0.31056 0.212498,0.45535 0.02929,0.048 0.04928,0.10096 0.07083,0.15705 0.01216,0.0307 0.0241,0.0622 0.03765,0.0923 0.03785,0.0846 0.02255,0.15674 -0.04736,0.2214 -0.04062,0.0373 -0.08226,0.0733 -0.12426,0.10888 -0.02735,0.0235 -0.05508,0.0468 -0.08217,0.0708 -0.01133,0.01 -0.02321,0.0197 -0.03481,0.0292 -0.03896,0.0315 -0.07911,0.0644 -0.105641,0.11253 l -0.01052,0.0194 0.01822,0.0118 c 0.177946,0.11383 0.706477,0.22691 1.067343,0.22747 h 0.0089 l 0.0068,-0.006 c 0.364182,-0.31611 0.709512,-0.63862 1.027272,-0.95887 0.106934,-0.10777 0.213654,-0.21589 0.319758,-0.32421 0.08123,-0.0832 0.162152,-0.16591 0.243664,-0.24852 0.09699,-0.0981 0.194034,-0.19604 0.29102,-0.29385 0.179052,-0.18071 0.358228,-0.36109 0.535898,-0.54319 l 0.01984,-0.0198 c 0.04338,-0.0431 0.09243,-0.0916 0.109284,-0.16919 l 0.0048,-0.0215 -0.02105,-0.006 c -0.02528,-0.008 -0.0498,-0.0106 -0.07488,-0.009 z m 4.283946,0.43228 c 0.268474,0.003 0.542987,0.0231 0.827728,0.0611 0.218287,0.0293 0.439437,0.0877 0.675134,0.17891 0.178775,0.0693 0.341896,0.18425 0.485303,0.3412 0.105553,0.11578 0.160293,0.2584 0.211687,0.40679 0.02736,0.0787 0.0098,0.11878 -0.07002,0.15663 -0.0016,8.7e-4 -0.0033,0.002 -0.0053,0.003 -0.181263,0.0829 -0.371404,0.13568 -0.516469,0.17243 -0.08842,0.0223 -0.177579,0.0552 -0.280091,0.1024 -0.114395,0.0525 -0.22958,0.10038 -0.341211,0.14653 -0.161644,0.0668 -0.327911,0.13541 -0.503922,0.22382 -0.213038,0.10749 -0.417307,0.23028 -0.607135,0.36428 -0.259458,0.18376 -0.532341,0.39806 -0.833799,0.65531 -0.172696,0.14728 -0.319194,0.29312 -0.446851,0.44563 -0.05554,0.0661 -0.100526,0.11362 -0.146118,0.15341 -0.108591,0.0953 -0.207153,0.20014 -0.302758,0.30681 -0.02017,-0.65874 -0.0055,-1.29077 -0.184569,-1.94729 -0.0011,-0.003 -0.0025,-0.008 -0.0036,-0.0118 0.0044,-0.003 0.0077,-0.007 0.01214,-0.0101 0.124893,-0.0942 0.259731,-0.19442 0.403137,-0.2809 0.07018,-0.0459 0.14428,-0.085 0.21695,-0.12426 0.07157,-0.0415 0.146746,-0.072 0.217759,-0.10605 0.07101,-0.0351 0.142797,-0.0602 0.209664,-0.0878 0.06659,-0.0287 0.130809,-0.052 0.191046,-0.0717 0.118262,-0.0472 0.221073,-0.0738 0.292639,-0.0967 0.07156,-0.0221 0.236783,-0.079 0.236783,-0.079 0,0 -0.194944,-0.0403 -0.270378,-0.0348 -0.07598,0.003 -0.183601,0.0144 -0.311258,0.0401 -0.06411,0.0116 -0.133389,0.0259 -0.204402,0.0494 -0.07129,0.0224 -0.148416,0.042 -0.223021,0.0749 -0.07543,0.0309 -0.155386,0.0586 -0.231926,0.0975 -0.07765,0.0365 -0.157025,0.0733 -0.232735,0.11697 -0.139263,0.0743 -0.266622,0.15919 -0.386543,0.24651 -0.113288,-0.37054 -0.249465,-0.73783 -0.422161,-1.08516 0.106933,-0.0246 0.212131,-0.0611 0.314091,-0.0959 0.08566,-0.0295 0.174673,-0.0597 0.263092,-0.0829 0.310578,-0.0807 0.641746,-0.16047 0.978297,-0.16959 0.0652,-0.002 0.132016,-0.007 0.198331,-0.015 0.259736,-0.0325 0.522016,-0.0473 0.79049,-0.0445 z m -8.411656,2.76935 c 8.32e-4,8.7e-4 0.0013,0.003 0.0024,0.003 0.221051,0.34014 0.327102,0.65513 0.324614,1.05965 -5.52e-4,0.0738 -0.109708,0.15066 -0.183759,0.14652 -0.07406,-0.006 -0.152457,-0.0108 -0.233141,-0.009 -0.161643,-0.003 -0.333463,0.009 -0.503112,0.0332 -0.340419,0.0431 -0.667181,0.14389 -0.908679,0.22707 -0.381867,0.1318 -0.62373,0.36185 -0.62373,0.36185 0,0 0.286922,-0.081 0.35821,-0.10119 0.07156,-0.0183 0.171979,-0.0489 0.294662,-0.0757 0.120751,-0.0337 0.264653,-0.0601 0.4169,-0.0919 0.153355,-0.0271 0.317112,-0.0521 0.482066,-0.0631 0.08234,-0.007 0.164726,-0.0116 0.245687,-0.0113 0.08096,-0.004 0.16118,-0.003 0.237996,8.1e-4 0.07709,5.6e-4 0.151089,0.008 0.220998,0.0154 0.07018,0.006 0.1362,0.0132 0.196712,0.0243 0.121579,0.0163 0.221139,0.0378 0.29021,0.0566 0.06935,0.0169 0.108475,0.0268 0.108475,0.0268 l 0.0024,-0.007 0.01093,0.003 c 0.01271,0.003 0.02521,0.005 0.03765,0.008 0.559536,0.12986 1.096654,0.34225 1.595956,0.63182 0.01519,0.009 0.0308,0.0172 0.04655,0.0255 0.05664,0.0295 0.582001,0.42576 0.612397,0.47963 0.496536,0.30395 1.397875,1.65139 0.990035,1.66963 -0.103617,0.0575 -0.840342,-0.71377 -2.374708,-0.95361 -0.552904,-0.0862 -1.154966,-0.15129 -1.900738,-0.16068 -0.864586,-0.0105 -1.574912,0.028 -2.236686,0.12142 -0.570036,0.0807 -1.122501,0.21584 -1.641693,0.40152 l -0.05546,0.0206 c -0.08925,0.0332 -0.15963,0.0198 -0.227878,-0.0437 -0.02294,-0.0213 -0.04641,-0.0427 -0.06962,-0.064 -0.09063,-0.0826 -0.184322,-0.16796 -0.2639,-0.26633 -0.161091,-0.19951 -0.327564,-0.40521 -0.472352,-0.62212 -0.04891,-0.0735 -0.05133,-0.12313 -0.0085,-0.18861 0.533009,-0.81789 1.086408,-1.38914 1.741264,-1.79752 0.106106,-0.0663 0.220582,-0.12879 0.347686,-0.18902 0.128209,-0.061 0.269627,-0.11978 0.428232,-0.17891 0.771192,-0.28764 1.57434,-0.45297 2.387256,-0.49137 0.09726,-0.004 0.209392,-0.005 0.324615,-8.7e-4 z m 7.496905,2.1278 c 0.116337,-0.002 0.233669,0.013 0.349306,0.0283 0.295932,0.0392 0.595461,0.0818 0.869012,0.20115 0.09505,0.0415 0.194689,0.10182 0.223426,0.20158 -0.20613,0.0831 -0.412338,0.16615 -0.618468,0.24932 0.384352,0.0299 0.755714,0.20415 1.024844,0.48045 l -0.84837,0.31085 c -0.641602,0.23488 -1.285892,0.47055 -1.954571,0.61119 -0.251998,0.0531 -0.509913,0.0927 -0.766609,0.0728 -0.03978,-0.003 -0.08098,-0.009 -0.114142,-0.0307 -0.06355,-0.0431 -0.07409,-0.13122 -0.07326,-0.20804 0.0039,-0.36004 0.121139,-0.72642 0.323401,-1.02484 0.176564,-0.26028 0.516164,-0.41893 0.776728,-0.58002 0.216077,-0.13374 0.440945,-0.27042 0.692943,-0.30357 0.03855,-0.005 0.07698,-0.008 0.115761,-0.009 z m 0.322997,3.25182 c 0.021,0 0.04242,8.6e-4 0.06315,0.003 l 0.18295,0.0191 c 0.05554,0.006 0.106224,0.0132 0.156236,0.0222 0.03261,0.006 0.06456,0.0129 0.09633,0.0215 0.136776,0.0357 0.263223,0.0946 0.42459,0.19793 0.0362,0.0255 0.05186,0.0375 0.06678,0.0502 0.01382,0.0119 0.0279,0.0249 0.04088,0.0384 0.06521,0.0674 0.106655,0.14365 0.121022,0.22019 0.0025,0.0155 0.0044,0.0306 0.0053,0.0461 l 8.09e-4,0.0307 -0.02023,0.44483 -0.0032,0.0295 -0.0077,0.03 -0.0089,0.0242 -0.01862,0.0239 -0.0255,0.0126 -0.03521,8e-4 -0.02833,-0.006 -0.02671,-0.0101 -0.051,-0.0271 c -0.07046,-0.0442 -0.131696,-0.0786 -0.188617,-0.10767 -0.09367,-0.0467 -0.17868,-0.0792 -0.268757,-0.1024 -0.03454,-0.009 -0.06893,-0.0159 -0.104023,-0.0222 -0.103619,-0.0177 -0.213912,-0.0254 -0.349305,-0.0348 l -0.03441,-0.002 c -0.04808,0.003 -0.08698,0.0106 -0.123451,0.0267 -0.0362,0.0158 -0.06993,0.0382 -0.102809,0.068 -0.0097,0.009 -0.01843,0.0176 -0.02671,0.0267 -0.02403,0.026 -0.0443,0.0555 -0.0595,0.0878 -0.0105,0.0224 -0.01822,0.0449 -0.02347,0.0676 -0.0053,0.0229 -0.0082,0.0472 -0.0093,0.0728 -0.0014,0.0149 -0.0014,0.0282 -8.09e-4,0.0401 5.52e-4,0.0202 0.0031,0.0399 0.0073,0.0595 0.0091,0.0409 0.02483,0.0771 0.04776,0.11171 0.01078,0.0163 0.02365,0.033 0.03886,0.049 0.01492,0.0169 0.03119,0.0317 0.04776,0.0449 0.05223,0.0415 0.110544,0.0651 0.177689,0.072 l 0.02874,0.002 c 0.02846,8.7e-4 0.05644,0.004 0.08297,0.009 0.03896,0.006 0.07724,0.0137 0.114547,0.0222 0.07543,0.0169 0.147318,0.0384 0.216949,0.0652 0.175735,0.0675 0.331279,0.16646 0.461423,0.29466 0.155011,0.15308 0.257404,0.33658 0.304377,0.54602 0.0152,0.0672 0.02421,0.13782 0.02752,0.20967 0.0014,0.0339 0.0017,0.0682 0.0012,0.10442 -0.0067,0.12296 -0.03049,0.23926 -0.07083,0.34647 -0.03316,0.0892 -0.07868,0.17461 -0.135594,0.25419 -0.0572,0.0793 -0.126443,0.15437 -0.206021,0.22262 -0.05581,0.0481 -0.114066,0.0906 -0.174855,0.1279 -0.06051,0.0371 -0.123959,0.0687 -0.188617,0.0947 -0.06604,0.026 -0.134128,0.047 -0.202378,0.0611 -0.07101,0.0146 -0.143618,0.0233 -0.215735,0.0263 l -0.03157,8.7e-4 h -0.04048 c -0.02487,-8.3e-4 -0.03827,-0.002 -0.05181,-0.003 -0.115223,-2.8e-4 -0.251971,-0.019 -0.392614,-0.0522 -0.05333,-0.0121 -0.112731,-0.0336 -0.167165,-0.0554 0.01188,-0.13789 -0.0011,-0.47136 -0.0166,-0.68081 -0.0055,-0.13539 -0.07087,-0.25397 -0.172831,-0.3319 0.132907,0.0265 0.223518,0.0705 0.311662,0.11333 0.08842,0.0425 0.172162,0.0827 0.281307,0.102 0.04669,0.009 0.09334,0.0113 0.134783,0.0113 0.07903,0 0.143262,-0.0104 0.161498,-0.0145 0.0594,-0.013 0.112423,-0.041 0.162713,-0.0866 0.03841,-0.0348 0.067,-0.0724 0.08662,-0.11495 0.0099,-0.0216 0.01742,-0.0441 0.02267,-0.0684 0.0053,-0.0227 0.0089,-0.0468 0.0097,-0.0728 l 8.09e-4,-0.006 v -0.0271 c -0.0033,-0.0854 -0.03525,-0.16058 -0.09714,-0.22828 -0.01547,-0.0172 -0.03172,-0.032 -0.04857,-0.0454 -0.03426,-0.0262 -0.07082,-0.0448 -0.111713,-0.0566 -0.02017,-0.006 -0.04104,-0.01 -0.06315,-0.0126 l -0.02793,-0.002 c -0.03039,-0.002 -0.05753,-0.005 -0.08379,-0.009 -0.03924,-0.006 -0.0775,-0.0134 -0.115356,-0.0223 -0.113565,-0.0255 -0.220856,-0.0627 -0.318948,-0.1097 -0.133736,-0.0638 -0.254405,-0.14867 -0.360234,-0.25257 -0.02791,-0.0271 -0.0775,-0.0835 -0.09795,-0.11332 8.28e-4,-0.15862 -0.02903,-0.28259 -0.160283,-0.37158 -0.01686,-0.01 -0.04245,-0.0252 -0.05019,-0.0316 -0.01216,-0.0494 -0.01346,-0.0936 -0.01457,-0.12871 -0.0014,-0.0299 -0.0014,-0.0546 -8.1e-4,-0.0777 0.02957,-0.002 0.0645,-0.003 0.07528,-0.004 0.118262,-0.0163 0.396554,-0.0981 0.424186,-0.50755 0.0033,-0.0401 0.0053,-0.0583 0.0053,-0.0773 l -0.01295,-0.442 c 0.09643,-0.0796 0.152236,-0.10126 0.276854,-0.15016 0.03288,-0.0132 0.06626,-0.0248 0.09997,-0.0344 0.101131,-0.0301 0.208571,-0.0476 0.318544,-0.0518 0.02045,-8.7e-4 0.04014,-0.002 0.06031,-0.002 z m -6.423491,0.0551 h 0.05909 l 0.03642,0.002 0.07448,0.009 0.07569,0.017 0.07407,0.023 0.07286,0.0304 0.07002,0.0365 0.0676,0.0417 0.06314,0.0462 0.06153,0.0526 0.0425,0.0413 0.03441,0.0368 0.03238,0.0377 0.04978,0.0667 0.03966,0.0628 0.03683,0.0696 c 0.0069,0.0144 0.03036,0.0713 0.03036,0.0713 l 0.02307,0.072 c 0.01465,0.0536 0.02395,0.10725 0.02671,0.15947 5.51e-4,0.0132 5.72e-4,0.0259 -8.09e-4,0.038 -0.003,0.0359 -0.01584,0.066 -0.03683,0.0886 -0.01713,0.0183 -0.03853,0.0315 -0.06395,0.0393 -0.01077,0.003 -0.02238,0.006 -0.03481,0.008 l -0.500685,0.0292 c 0,0 -0.02294,-0.0454 -0.034,-0.0648 l -0.03279,-0.0554 -0.03279,-0.0474 -0.034,-0.0413 -0.02105,-0.0203 -0.02469,-0.021 -0.02347,-0.0162 -0.03966,-0.0174 -0.04048,-0.006 -0.310852,0.019 c -0.13318,0.0185 -0.226357,0.14008 -0.297093,0.36306 -0.07598,0.2404 -0.10592,0.53119 -0.08824,0.86416 0.0061,0.0995 0.01575,0.19384 0.02874,0.28171 l 0.01255,0.0789 c 0.0086,0.0478 0.01824,0.0931 0.02874,0.13762 l 0.0077,0.0324 c 0.01686,0.0666 0.03592,0.13027 0.05747,0.19024 0.01575,0.0442 0.03249,0.0865 0.051,0.12709 l 0.04048,0.0838 0.02995,0.0539 0.03562,0.053 0.04088,0.0498 0.02105,0.021 0.02308,0.0194 0.02185,0.0154 0.02955,0.0154 0.02833,0.0109 0.02631,0.005 0.03076,0.003 0.311259,-0.0166 c 0.0315,-0.004 0.04081,-0.006 0.04938,-0.009 0.0141,-0.004 0.02944,-0.0113 0.04573,-0.0215 l 0.02267,-0.0166 0.01943,-0.0158 -0.04493,-0.82813 -0.451305,0.0251 -0.03319,-0.002 -0.03279,-0.006 -0.02752,-0.009 -0.02671,-0.0162 -0.02509,-0.0271 -0.01498,-0.028 c -0.0083,-0.0216 -0.01061,-0.0324 -0.01255,-0.0437 l -0.0041,-0.0304 -0.01902,-0.30154 c -0.0025,-0.0685 0.01999,-0.15584 0.139641,-0.17242 l 1.102558,-0.0611 0.02874,4e-4 0.02914,0.003 c 0.07046,0.0146 0.109031,0.0582 0.119808,0.13034 l 0.0935,1.63521 c -0.07405,-0.004 -0.150709,-0.007 -0.231117,-0.007 h -4.04e-4 c -0.04808,0 -0.123861,0.006 -0.163927,0.0421 -0.03205,0.0295 -0.05444,0.10701 -0.06881,0.17527 -0.235145,-0.12104 -0.489038,-0.18296 -0.755681,-0.18296 -0.249788,0.003 -0.413653,0.0236 -0.626968,0.11779 l -0.522541,-2.71795 c 0.01492,-0.0213 0.02146,-0.0494 0.02671,-0.0728 0.0074,-0.0312 0.01145,-0.0502 0.04128,-0.10524 0.102235,-0.18623 0.220761,-0.3343 0.351734,-0.43875 0.06493,-0.052 0.13394,-0.0938 0.204403,-0.12507 0.07184,-0.0315 0.147272,-0.0527 0.224639,-0.0636 0.02431,-0.003 0.04903,-0.006 0.07528,-0.008 z m -3.52948,0.0243 c 0.112737,0.004 0.16328,0.055 0.167975,0.14814 l 0.17364,3.5056 c -0.0033,0.0873 -0.03139,0.13093 -0.085,0.15137 -0.01962,0.008 -0.04194,0.0119 -0.06598,0.013 l -0.446852,0.021 c -0.112736,-0.004 -0.162871,-0.0554 -0.167569,-0.14854 l -0.08096,-1.59434 -0.09876,-0.006 -0.270782,1.62144 c -0.01768,0.0431 -0.03945,0.0758 -0.06598,0.10119 -0.04338,0.0417 -0.09936,0.0645 -0.165951,0.0684 l -0.283734,0.0182 c -0.111907,-0.004 -0.185608,-0.0521 -0.239211,-0.14328 l -0.453328,-1.54699 -0.09755,0.0166 0.0765,1.54455 c -0.0055,0.13401 -0.08401,0.16115 -0.148951,0.16473 l -0.44766,0.021 h -0.0012 c -0.04476,-0.002 -0.06595,-0.005 -0.08419,-0.013 -0.01686,-0.007 -0.0313,-0.0164 -0.0429,-0.028 -0.02459,-0.0249 -0.03867,-0.061 -0.04088,-0.10767 l -0.173236,-3.5052 c 0.0049,-0.13401 0.08611,-0.16141 0.153808,-0.16473 l 0.721277,-0.0433 c 0.0572,0.002 0.11033,0.0491 0.169188,0.14328 l 0.667039,2.00153 0.467089,-2.04241 c 0.04753,-0.11191 0.09639,-0.16453 0.15138,-0.16676 z m 8.684462,0.0145 c 0.01741,0 0.03469,0.002 0.051,0.003 0.02542,0.003 0.04876,0.0112 0.06921,0.0223 0.04256,0.0229 0.07317,0.0629 0.08864,0.11535 0.0097,0.0401 0.01132,0.0552 0.01215,0.0704 l 0.01214,0.42661 c 0,0.0177 -0.0013,0.0333 -0.0032,0.0481 -0.01436,0.0964 -0.0757,0.15702 -0.173236,0.17 -0.01078,0.002 -0.02278,0.003 -0.03521,0.003 l -1.34784,0.0392 0.01943,0.70671 1.067343,-0.0319 0.02509,8.7e-4 c 0.05416,0.007 0.07985,0.0164 0.103617,0.0316 0.02625,0.0165 0.04715,0.0378 0.06153,0.0636 0.0063,0.0108 0.01096,0.0221 0.01538,0.034 0.0083,0.0237 0.01359,0.0509 0.01498,0.0814 l 0.0073,0.28494 c 0,0.0169 -0.0016,0.034 -0.0041,0.0506 -0.01382,0.0945 -0.07632,0.15443 -0.176069,0.16798 l -0.03157,0.003 -1.06451,0.0319 0.02267,0.70468 1.349459,-0.0392 0.04735,0.003 c 0.0141,0.003 0.0271,0.005 0.03927,0.009 0.01078,0.003 0.02175,0.008 0.03197,0.0133 0.02073,0.0111 0.03825,0.0256 0.05262,0.0425 0.03011,0.0359 0.04758,0.0856 0.04978,0.14368 l 0.01255,0.42905 c -2.76e-4,0.0174 -0.0017,0.0337 -0.0036,0.0486 -0.0141,0.0945 -0.07544,0.15419 -0.172426,0.16717 -0.0116,0.002 -0.02346,0.003 -0.03562,0.003 l -0.318545,0.009 c -0.276037,-0.29041 -0.675069,-0.45009 -1.126842,-0.45009 -0.290682,0 -0.549972,0.0526 -0.772681,0.15705 l -0.02793,-0.93135 c 0.259183,-0.0406 0.404707,-0.22234 0.401114,-0.50474 l 0.0068,-0.28292 c 0.0058,-0.23514 -0.141797,-0.48451 -0.435517,-0.51242 l -4.06e-4,-0.10564 c 0.08759,0.003 0.265243,0.006 0.265521,0.006 0.148931,0 0.296055,-0.0804 0.374805,-0.15503 0.08842,-0.0846 0.123245,-0.24865 0.126284,-0.36387 l 0.01052,-0.42702 c 0.0019,-0.0746 0.0039,-0.1675 -0.03643,-0.23962 z m 2.428541,0.002 1.967119,0.11819 c 0.03315,0.005 0.04785,0.009 0.06112,0.013 0.0257,0.009 0.04881,0.0208 0.06759,0.0368 0.0478,0.0398 0.0704,0.10131 0.06598,0.17729 l -0.02671,0.43633 -0.0032,0.0235 c -0.0023,0.0138 -0.0055,0.0274 -0.0097,0.0405 l -0.01498,0.0344 -0.02064,0.0307 -0.02388,0.023 -0.03036,0.0194 -0.03279,0.013 -0.03683,0.008 -0.04573,0.003 -0.573945,-0.0332 -0.16676,2.77583 c -0.0053,0.0332 -0.0086,0.0469 -0.01295,0.0599 l -0.01538,0.0356 -0.02064,0.0304 -0.02509,0.0251 -0.02955,0.0198 -0.03319,0.013 -0.03927,0.009 -0.04533,0.002 -0.4424,-0.0263 c -0.04753,-0.008 -0.07449,-0.016 -0.09714,-0.0287 -0.0116,-0.006 -0.02178,-0.0133 -0.03117,-0.021 -0.01823,-0.0149 -0.03294,-0.034 -0.04372,-0.0558 -0.01768,-0.0348 -0.02543,-0.0756 -0.02267,-0.12142 l 0.166761,-2.77097 -0.07893,-0.004 -0.136807,-0.0109 0.01012,-0.31207 c -0.0019,-0.21221 -0.123035,-0.44076 -0.278877,-0.56261 z m -6.325943,0.0182 1.994641,0.0494 c 0.143409,0.0121 0.214727,0.0943 0.211688,0.2214 l -0.01052,0.42702 c -5.53e-4,0.0179 -0.0023,0.0345 -0.0053,0.0502 -0.0083,0.0442 -0.02753,0.0804 -0.05626,0.10807 -0.03758,0.0351 -0.08851,0.0534 -0.151784,0.0534 l -1.358364,-0.0336 -0.017,0.70589 1.064106,0.0259 c 0.0373,0.003 0.05216,0.005 0.06598,0.009 0.02708,0.007 0.05053,0.0181 0.07043,0.0336 0.01022,0.007 0.0191,0.016 0.02712,0.0251 0.03288,0.0378 0.04955,0.0912 0.04817,0.15421 l -0.0073,0.28454 c -0.003,0.12462 -0.07225,0.20137 -0.190236,0.20967 l -0.03076,0.002 -1.06532,-0.0267 -0.02874,1.16449 c -0.02901,-0.009 -0.05682,-0.0165 -0.085,-0.0259 -0.08732,-0.0274 -0.177241,-0.0563 -0.299925,-0.0729 l -0.09714,-1.68419 c -0.02404,-0.16607 -0.166982,-0.338 -0.312877,-0.38857 v -0.0356 c 0.144236,-0.0583 0.25512,-0.27693 0.244068,-0.49826 -0.0033,-0.0674 -0.01507,-0.13732 -0.03441,-0.20723 -0.03067,-0.11081 -0.05925,-0.16652 -0.116166,-0.25742 l -0.05869,-0.0959 c 0.0025,-0.071 0.01076,-0.11547 0.04088,-0.14449 0.0086,-0.008 0.01903,-0.0155 0.03036,-0.0227 l 0.03603,-0.0166 0.04331,-0.0106 z m -3.678026,0.0287 h 0.514851 c 0.107762,0.003 0.188625,0.0545 0.240021,0.15583 l 0.655706,3.4461 c -0.105001,0.0649 -0.199477,0.13996 -0.282925,0.22424 h -0.178498 c -0.409498,-0.45067 -1.167166,-0.48611 -1.392363,-0.48611 h -0.02995 l -0.0676,-1.54172 0.307615,-1.63967 c 0.03924,-0.0788 0.09286,-0.12702 0.160284,-0.14773 0.02238,-0.006 0.04688,-0.0101 0.07286,-0.0109 z m 0.253783,1.51663 c -0.02294,0 -0.04384,0.0127 -0.06153,0.0384 l -0.01174,0.0206 -0.114547,0.35174 h -0.339186 l -0.02023,0.002 c -0.03924,0.007 -0.05343,0.0343 -0.05343,0.0575 0,0.0141 0.0048,0.0289 0.01498,0.0449 0.0074,0.0111 0.01816,0.0238 0.03197,0.0384 l 0.252164,0.18335 -0.148951,0.44888 c -0.003,0.004 -0.0068,0.0138 -0.0093,0.0218 l -0.002,0.006 -0.0029,0.0223 c 0,0.0304 0.02221,0.0518 0.05343,0.0518 h 0.0073 l 0.03319,-0.0101 0.02267,-0.0109 0.348091,-0.29345 0.347686,0.29345 c 0.01962,0.0105 0.02816,0.014 0.03562,0.0162 l 0.0061,0.002 0.02145,0.003 c 0.01464,0 0.02798,-0.005 0.03765,-0.0145 l 0.01174,-0.0117 0.0029,-0.0255 c 0,-0.009 -0.0016,-0.0176 -0.0048,-0.0275 -0.0023,-0.008 -0.0057,-0.0174 -0.01093,-0.028 l -0.145713,-0.44362 0.245283,-0.17889 0.02347,-0.0239 c 0.02072,-0.0243 0.03036,-0.045 0.03036,-0.0652 0,-0.01 -0.0036,-0.0583 -0.07731,-0.0583 h -0.335948 l -0.113737,-0.35093 -0.01214,-0.021 c -0.02072,-0.0323 -0.04495,-0.0389 -0.06153,-0.0389 z m -0.645992,2.12942 c 0.01133,0 0.02359,8.7e-4 0.03603,0.002 0.605403,0.042 0.973683,0.20419 1.118748,0.48328 0.266643,0.51283 -0.264721,1.30427 -0.287378,1.33771 l -0.180117,0.26026 h 0.909085 c -5.52e-4,0 0.04637,8.6e-4 0.08256,0.004 0.0023,0.0171 0.0026,0.0442 0.0012,0.0672 v 0.31693 c 0.0025,0.0439 -1.43e-4,0.0918 -0.0056,0.10888 -0.0011,-0.003 -0.01045,-0.003 -0.02509,-0.003 -0.01132,0 -1.786321,4.1e-4 -1.786596,4.1e-4 -0.04228,0 -0.0794,-0.006 -0.08824,-0.0113 0.0014,-0.002 0.0042,-0.0197 0.04534,-0.0805 0.07267,-0.10831 0.152282,-0.21418 0.240425,-0.33189 l 0.02185,-0.03 c 0.428288,-0.5739 0.650619,-0.97698 0.435923,-1.21184 -0.154183,-0.1727 -0.323754,-0.21395 -0.49866,-0.24407 -0.0724,-0.0125 -0.103599,-0.0186 -0.133166,-0.0481 -0.0088,-0.0121 -0.01768,-0.0703 -0.0174,-0.12143 l 0.04614,-0.37764 c 0.01023,-0.0417 0.02932,-0.0953 0.03927,-0.10604 0.01243,-0.0108 0.02474,-0.0146 0.04573,-0.0146 z m 3.86219,0 c 0.01133,0 0.02359,8.7e-4 0.03602,0.002 0.605679,0.042 0.973961,0.20419 1.118748,0.48328 0.266643,0.51283 -0.264315,1.30427 -0.286973,1.33771 l -0.180521,0.26026 h 0.909488 c -5.53e-4,0 0.04637,8.6e-4 0.08258,0.004 0.0019,0.0171 0.0023,0.0442 0.0012,0.0672 v 0.31693 c 0.0023,0.0439 -3.96e-4,0.0918 -0.0065,0.10888 -8.28e-4,-0.003 -0.0091,-0.003 -0.02429,-0.003 -0.01133,0 -1.814652,4.1e-4 -1.81493,4.1e-4 -0.04228,0 -0.07871,-0.006 -0.08783,-0.0113 -5.52e-4,-0.007 0.0047,-0.0325 0.04169,-0.0761 0.09312,-0.10888 0.19576,-0.2345 0.293853,-0.36631 0.310849,-0.41695 0.376478,-0.82421 0.333924,-1.06653 -0.02155,-0.12379 -0.07281,-0.21786 -0.144093,-0.26511 -0.06659,-0.0439 -0.120414,-0.0609 -0.209664,-0.0882 l -0.05667,-0.0182 c -0.0221,-0.007 -0.04167,-0.0116 -0.05991,-0.0158 -0.04062,-0.0102 -0.06122,-0.0156 -0.07973,-0.0344 -0.0072,-0.0102 -0.01036,-0.0552 -0.0056,-0.0919 l 0.06516,-0.43591 c 0.0061,-0.0385 0.0199,-0.0829 0.02874,-0.0931 0.01243,-0.0108 0.02433,-0.0145 0.04534,-0.0145 z m -1.153153,0.0478 c 0.25725,0 0.527532,0.084 0.746372,0.23152 -0.01824,0.0959 -0.0625,0.37692 -0.0036,0.55128 0.02431,0.0721 0.149197,0.11541 0.201973,0.13033 0.0199,0.009 0.05269,0.018 0.09026,0.0271 0.0525,0.0127 0.111901,0.0273 0.167165,0.0563 0.04089,0.0216 0.04938,0.0804 0.04938,0.16798 -2.77e-4,0.002 -0.01797,0.38674 -0.25864,0.72936 -0.02735,0.0368 -0.05716,0.0753 -0.08783,0.11374 -0.269406,0.30699 -0.565721,0.45698 -0.905036,0.45698 -0.272997,0 -0.531194,-0.0821 -0.749205,-0.23679 0.0097,-0.10086 0.0253,-0.36408 -0.06395,-0.45332 -0.0478,-0.0475 -0.158046,-0.072 -0.328257,-0.072 -0.0099,0 -0.0191,1.2e-4 -0.02712,4e-4 -0.05167,-0.12987 -0.07812,-0.26564 -0.07812,-0.40435 v -0.13236 c 0,-0.019 5.15e-4,-0.038 0.0016,-0.0571 0.01686,-0.0696 0.02992,-0.14976 0.03683,-0.23071 0.136775,-0.5134 0.634296,-0.87833 1.208199,-0.87833 z m 3.879594,0 c 0.273276,0 0.53307,0.0822 0.751634,0.238 0.0016,0.002 0.397676,0.32305 0.469518,0.69496 0.01658,0.0777 0.02509,0.15578 0.02509,0.23315 v 0.13235 c 0,0.22187 -0.06823,0.43855 -0.196711,0.62616 -0.02735,0.0362 -0.05716,0.0746 -0.08783,0.11333 -0.237077,0.27023 -0.588402,0.42662 -0.961703,0.42662 -0.272997,0 -0.53132,-0.0817 -0.749609,-0.23679 0.0072,-0.0987 0.01665,-0.35641 -0.07205,-0.44483 -0.06521,-0.0658 -0.237751,-0.0785 -0.346067,-0.0793 -0.0536,-0.13539 -0.08662,-0.30084 -0.08662,-0.44038 0.0014,-0.0726 0.01304,-0.28352 0.04372,-0.37277 0.139817,-0.52555 0.637001,-0.89048 1.210628,-0.89048 z m -3.858546,0.71683 c -0.256697,0 -0.46547,0.19722 -0.46547,0.43956 v 0.10888 c 0,0.24234 0.208773,0.43916 0.46547,0.43916 0.256694,0 0.465065,-0.19682 0.465065,-0.43916 v -0.10888 c 0,-0.24234 -0.208371,-0.43956 -0.465065,-0.43956 z m 3.879593,0 c -0.256695,0 -0.46547,0.19722 -0.46547,0.43956 v 0.10888 c 0,0.24234 0.208775,0.43916 0.46547,0.43916 0.256696,0 0.465066,-0.19682 0.465066,-0.43916 v -0.10888 c 0,-0.24234 -0.20837,-0.43956 -0.465066,-0.43956 z m 4.373398,2.66127 c 0.06935,-0.009 0.138837,0.003 0.20764,0.0352 0.08732,0.0409 0.147511,0.1003 0.180117,0.17849 0.03288,0.0782 0.03288,0.17164 0,0.28051 0.05333,-0.0371 0.105394,-0.0636 0.156236,-0.0802 0.0514,-0.016 0.134877,-0.0311 0.251757,-0.0449 l 0.293854,-0.0356 -0.131544,0.2809 -0.333116,0.051 c -0.119092,0.018 -0.19551,0.0324 -0.229497,0.0437 -0.03398,0.0113 -0.06091,0.0274 -0.08135,0.0481 -0.02017,0.021 -0.04298,0.0581 -0.0684,0.11252 l -0.02226,0.0474 0.485707,0.22748 -0.110498,0.23516 -1.163676,-0.54561 0.231926,-0.49461 c 0.05831,-0.12462 0.11101,-0.20992 0.15826,-0.25662 0.04725,-0.0467 0.105776,-0.0741 0.174855,-0.0829 z m -5.16753,0.0623 c 0.225472,0 0.400756,0.0577 0.525374,0.17324 0.124617,0.1155 0.186998,0.26163 0.186998,0.43876 0,0.10997 -0.02861,0.20819 -0.08581,0.29385 -0.0572,0.0859 -0.137618,0.15139 -0.241235,0.19671 0.131801,0.0531 0.231803,0.13012 0.300329,0.23152 0.06853,0.10141 0.102809,0.21882 0.102809,0.35174 0,0.2191 -0.06985,0.39681 -0.209664,0.53387 -0.139816,0.13704 -0.325652,0.20561 -0.557755,0.20561 -0.216077,0 -0.395729,-0.0567 -0.539137,-0.16999 -0.169656,-0.13374 -0.254187,-0.31726 -0.254187,-0.55047 0,-0.12849 0.03198,-0.24616 0.09552,-0.35336 0.06383,-0.10749 0.164085,-0.19063 0.301139,-0.24892 -0.11771,-0.0494 -0.203013,-0.11805 -0.256616,-0.2048 -0.05333,-0.0868 -0.08014,-0.18214 -0.08014,-0.28576 0,-0.17713 0.06186,-0.32326 0.185378,-0.43876 0.12379,-0.1155 0.299034,-0.17324 0.526994,-0.17324 z m -3.384577,0.0785 h 0.332306 l -0.11738,0.5784 h 0.328258 l 0.114546,-0.5784 h 0.344043 l -0.118593,0.5784 h 0.204807 v 0.32826 h -0.271592 l -0.08905,0.43754 h 0.360639 v 0.32664 h -0.427829 l -0.116974,0.5788 h -0.330687 l 0.114142,-0.5788 h -0.329877 l -0.116974,0.5788 h -0.335544 l 0.11738,-0.5788 h -0.201974 v -0.32664 h 0.267139 l 0.08905,-0.43754 h -0.356186 v -0.32826 h 0.422971 z m 1.981285,0.028 h 0.338377 v 2.18447 h -0.4169 v -1.57127 c -0.152526,0.1423 -0.332049,0.24746 -0.538732,0.31571 v -0.37844 c 0.108593,-0.0357 0.226633,-0.10318 0.354567,-0.20238 0.127379,-0.0998 0.215438,-0.21574 0.262688,-0.34809 z m -6.552203,0.028 0.126284,0.21857 -0.479636,0.8856 0.743133,-0.43026 0.120618,0.20886 -1.113082,0.64356 -0.130332,-0.22544 0.46628,-0.8682 -0.725729,0.41972 -0.120617,-0.20885 z m 13.175238,0.0708 c -0.01834,-0.003 -0.03603,-7.9e-4 -0.05302,0.004 -0.03371,0.01 -0.06271,0.0317 -0.08702,0.0667 -0.0116,0.0177 -0.03971,0.074 -0.08419,0.16959 l -0.0858,0.18336 0.295472,0.13843 0.08135,-0.17405 c 0.05277,-0.11245 0.08141,-0.18515 0.085,-0.21775 0.0033,-0.0323 -0.0026,-0.0621 -0.01862,-0.0887 -0.01575,-0.0271 -0.04101,-0.0482 -0.0761,-0.0648 -0.01962,-0.009 -0.03873,-0.0148 -0.05708,-0.017 z m -5.214887,0.15583 c -0.08732,0 -0.156906,0.0258 -0.208853,0.0777 -0.05167,0.0517 -0.07772,0.12024 -0.07772,0.20561 0,0.0906 0.02578,0.16166 0.0769,0.21251 0.05139,0.0506 0.119425,0.0757 0.204807,0.0757 0.08621,0 0.155287,-0.0258 0.207234,-0.0769 0.05167,-0.0514 0.07772,-0.12227 0.07772,-0.2129 0,-0.0851 -0.02551,-0.15369 -0.0769,-0.20481 -0.05112,-0.0514 -0.118914,-0.0769 -0.203188,-0.0769 z m -3.239673,0.62414 -0.08743,0.43754 h 0.329472 l 0.08581,-0.43754 z m 7.934448,0.12223 c 0.122982,0.0101 0.247976,0.0612 0.374805,0.1534 0.167999,0.12214 0.266479,0.26325 0.294663,0.42378 0.02901,0.15999 -0.01237,0.31604 -0.123451,0.46912 -0.111907,0.15445 -0.248671,0.24353 -0.40921,0.26673 -0.160815,0.0227 -0.32369,-0.0266 -0.489755,-0.14652 -0.106104,-0.0774 -0.183146,-0.15723 -0.23233,-0.24123 -0.03592,-0.0622 -0.05961,-0.12907 -0.07205,-0.20036 -0.01243,-0.0716 -0.01128,-0.1391 0.0036,-0.20238 0.01962,-0.0848 0.06022,-0.16976 0.121832,-0.25459 0.111078,-0.15308 0.247694,-0.24111 0.409614,-0.2643 0.04055,-0.006 0.08124,-0.007 0.122237,-0.003 z m -4.693155,0.18943 c -0.111079,0 -0.194086,0.0384 -0.24852,0.11495 -0.05471,0.0768 -0.08176,0.15954 -0.08176,0.24933 0,0.12517 0.03223,0.22286 0.09633,0.29304 0.06438,0.0702 0.144544,0.10524 0.240426,0.10524 0.09395,0 0.171521,-0.0338 0.233139,-0.10119 0.06162,-0.0674 0.09229,-0.16485 0.09229,-0.29223 0,-0.11109 -0.03118,-0.20012 -0.0939,-0.26754 -0.06244,-0.0677 -0.141839,-0.1016 -0.237998,-0.1016 z m 4.581441,0.0628 c -0.09699,0.01 -0.176212,0.0576 -0.23921,0.14409 -0.06272,0.0868 -0.08374,0.17787 -0.06274,0.27402 0.021,0.0959 0.09123,0.18767 0.210878,0.27443 0.117986,0.0856 0.226465,0.12315 0.327043,0.11293 0.100578,-0.0102 0.180851,-0.0572 0.24164,-0.14126 0.06051,-0.0835 0.08038,-0.17393 0.05909,-0.27119 -0.02127,-0.0973 -0.0923,-0.18992 -0.212497,-0.27807 -0.119368,-0.0862 -0.227501,-0.1249 -0.324211,-0.11495 z m -11.684923,0.12021 0.172831,0.21372 -0.675539,1.20901 -0.177688,-0.21939 0.156236,-0.27118 -0.323401,-0.39909 -0.293853,0.10119 -0.173236,-0.21412 z m -0.14895,0.29345 -0.480042,0.16555 0.220997,0.27199 z m 0.54885,0.20603 0.753252,0.69011 -0.147331,0.16068 -0.280092,-0.25742 -0.722086,0.78765 -0.191045,-0.17525 0.721276,-0.78767 -0.280901,-0.25782 z m 10.424511,0.15218 c 0.02421,0.003 0.04894,0.007 0.07366,0.015 0.04946,0.0158 0.09235,0.044 0.129928,0.0854 0.04006,0.0448 0.06508,0.097 0.07448,0.15583 0.0094,0.0591 0.0021,0.11633 -0.02226,0.17243 0.0735,-0.0357 0.144248,-0.047 0.212497,-0.034 0.0677,0.0127 0.126332,0.0466 0.176069,0.1016 0.03896,0.0436 0.0668,0.0951 0.08338,0.15421 0.01686,0.0594 0.01878,0.11686 0.0061,0.17323 -0.01299,0.0559 -0.04222,0.10956 -0.08864,0.1615 -0.02874,0.0324 -0.10481,0.10438 -0.226664,0.21574 l -0.325425,0.29263 -0.859703,-0.95603 0.38209,-0.34283 c 0.07571,-0.0682 0.13486,-0.1158 0.177689,-0.14288 0.04283,-0.0274 0.08807,-0.044 0.135593,-0.0506 0.02349,-0.003 0.04702,-0.003 0.07124,-8.7e-4 z m -0.04857,0.2469 c -0.03344,-0.003 -0.06785,0.007 -0.103213,0.0319 -0.02127,0.0149 -0.07735,0.0634 -0.167975,0.14491 l -0.110903,0.0992 0.198736,0.2214 0.126689,-0.11373 c 0.07543,-0.0677 0.12091,-0.11129 0.137212,-0.12952 0.02957,-0.0334 0.04557,-0.068 0.04695,-0.10363 0.0019,-0.0362 -0.0111,-0.0694 -0.03845,-0.10037 -0.0268,-0.0299 -0.05617,-0.0461 -0.08905,-0.0502 z m -9.527975,0.33878 0.210878,0.15098 -0.74961,1.04427 -0.211283,-0.15137 z m 9.878089,0.0239 c -0.01661,0.002 -0.03332,0.006 -0.05059,0.0133 -0.03454,0.0149 -0.09589,0.0615 -0.18376,0.14044 l -0.155831,0.14005 0.229497,0.25581 0.178902,-0.16069 c 0.06935,-0.0627 0.112174,-0.10394 0.127095,-0.12466 0.02403,-0.0315 0.03603,-0.0651 0.03603,-0.1016 -2.76e-4,-0.0362 -0.0152,-0.0717 -0.04614,-0.10564 -0.0257,-0.0287 -0.05471,-0.0465 -0.08621,-0.0542 -0.01603,-0.003 -0.03236,-0.004 -0.04897,-0.003 z m -1.254341,0.15179 c 0.03178,0.005 0.06322,0.0156 0.09431,0.0316 0.06217,0.0318 0.112694,0.081 0.151379,0.14653 0.04891,0.0832 0.06434,0.16631 0.04776,0.24892 -0.01713,0.0832 -0.06982,0.16023 -0.15907,0.23152 0.06521,-2.7e-4 0.122927,0.007 0.174046,0.0222 0.05167,0.0155 0.129374,0.0506 0.233545,0.10523 l 0.262282,0.13641 -0.267544,0.15745 -0.303163,-0.14571 c -0.108591,-0.0528 -0.179853,-0.0836 -0.214117,-0.0935 -0.03426,-0.0102 -0.06585,-0.0124 -0.09431,-0.007 -0.02874,0.005 -0.06814,0.0235 -0.119808,0.0538 l -0.04534,0.0268 0.271997,0.46223 -0.223831,0.13195 -0.651658,-1.10823 0.470733,-0.27725 c 0.118539,-0.0696 0.210557,-0.11022 0.276044,-0.12183 0.03275,-0.006 0.06496,-0.006 0.09674,-8.7e-4 z m -0.112117,0.24852 c -0.0183,8.7e-4 -0.03758,0.005 -0.05747,0.0126 -0.01962,0.009 -0.07491,0.0392 -0.165546,0.0923 l -0.17445,0.1024 0.165141,0.28131 0.16595,-0.0976 c 0.107209,-0.063 0.171792,-0.10668 0.193068,-0.13155 0.021,-0.0249 0.03301,-0.053 0.03521,-0.0834 0.0019,-0.0309 -0.0074,-0.0633 -0.02671,-0.0967 -0.02155,-0.0373 -0.04914,-0.0611 -0.08257,-0.0725 -0.01686,-0.005 -0.03431,-0.008 -0.05262,-0.007 z m -7.911377,0.0121 c 0.08649,0.007 0.176321,0.0341 0.269164,0.0822 0.168828,0.087 0.276021,0.2091 0.322995,0.36549 0.04725,0.15695 0.02262,0.32809 -0.07326,0.51404 -0.0956,0.18403 -0.220622,0.30247 -0.374805,0.35498 -0.153907,0.0519 -0.314746,0.0348 -0.48247,-0.0522 -0.169934,-0.0876 -0.278324,-0.20912 -0.32502,-0.36468 -0.04642,-0.15556 -0.02258,-0.32441 0.07164,-0.50595 0.06051,-0.11632 0.128156,-0.20445 0.203593,-0.26552 0.05609,-0.0448 0.118599,-0.0786 0.187402,-0.10159 0.0688,-0.0232 0.135826,-0.0322 0.20076,-0.0268 z m 0.02874,0.23841 c -0.04666,-0.003 -0.09323,0.003 -0.139236,0.021 -0.09201,0.0354 -0.171642,0.11807 -0.239615,0.24932 -0.06715,0.12932 -0.08761,0.24314 -0.06274,0.3404 0.02542,0.0978 0.08365,0.17066 0.175664,0.21817 0.09201,0.0475 0.184543,0.0538 0.277663,0.0178 0.09312,-0.0357 0.174328,-0.11993 0.242854,-0.25256 0.0677,-0.13098 0.08948,-0.24294 0.06516,-0.33716 -0.02376,-0.0942 -0.08345,-0.16548 -0.178498,-0.21493 -0.04753,-0.0246 -0.0946,-0.0386 -0.14126,-0.0421 z m 6.610489,0.11252 0.920821,1.03496 -0.265925,0.0955 -0.204402,-0.23637 -0.483684,0.17445 -4.05e-4,0.31045 -0.259449,0.0935 0.03481,-1.37941 z m -5.708285,0.0696 0.242449,0.0708 0.265925,0.97142 0.239212,-0.8249 0.231925,0.0676 -0.359019,1.23451 -0.249735,-0.0725 -0.263902,-0.94996 -0.233949,0.80506 -0.231521,-0.0672 z m 4.911724,0.19793 0.238806,1.26284 -0.254188,0.0486 -0.104832,-0.55249 -0.500279,0.0951 0.105237,0.55209 -0.254997,0.0481 -0.239616,-1.26243 0.254997,-0.049 0.0939,0.49704 0.499875,-0.0947 -0.09431,-0.49703 z m 0.766609,0.0623 -0.002,0.50757 0.330282,-0.11859 z m -4.129734,0.10807 0.272401,0.0328 0.356996,1.33772 -0.280092,-0.0336 -0.0765,-0.30357 -0.510398,-0.0611 -0.140046,0.27686 -0.273616,-0.0324 z m 1.135343,0.0931 0.01012,1.05803 0.645587,-0.006 0.002,0.21655 -0.905037,0.009 -0.01255,-1.27499 z m -1.038606,0.22059 -0.229497,0.45333 0.3489,0.0416 z"
         style="fill:#000017;fill-opacity:1;fill-rule:nonzero;stroke:none;stroke-width:0.27631399" />
    </g>
  </g>
  <g
     id="g1484"
     inkscape:groupmode="layer"
     inkscape:label="B.Mask-disabled"
     transform="translate(40.882035,157.43127)" />
  <g
     id="g1486"
     inkscape:groupmode="layer"
     inkscape:label="F.Mask-disabled"
     transform="translate(40.882035,157.43127)" />
  <g
     id="g1488"
     inkscape:groupmode="layer"
     inkscape:label="Dwgs.User-disabled"
     transform="translate(40.882035,157.43127)" />
  <g
     id="g1490"
     inkscape:groupmode="layer"
     inkscape:label="Cmts.User-disabled"
     transform="translate(40.882035,157.43127)" />
  <g
     id="g1492"
     inkscape:groupmode="layer"
     inkscape:label="Eco1.User-disabled"
     transform="translate(40.882035,157.43127)" />
  <g
     id="g1494"
     inkscape:groupmode="layer"
     inkscape:label="Eco2.User-disabled"
     transform="translate(40.882035,157.43127)" />
  <g
     id="g1496"
     inkscape:groupmode="layer"
     inkscape:label="Edge.Cuts"
     transform="translate(40.882035,157.43127)" />
  <g
     id="g1498"
     inkscape:groupmode="layer"
     inkscape:label="Margin-disabled"
     transform="translate(40.882035,157.43127)" />
  <g
     id="g1500"
     inkscape:groupmode="layer"
     inkscape:label="B.CrtYd-disabled"
     transform="translate(40.882035,157.43127)" />
  <g
     id="g1502"
     inkscape:groupmode="layer"
     inkscape:label="F.CrtYd-disabled"
     transform="translate(40.882035,157.43127)" />
  <g
     id="g1504"
     inkscape:groupmode="layer"
     inkscape:label="B.Fab-disabled"
     transform="translate(40.882035,157.43127)" />
  <g
     id="g1506"
     inkscape:groupmode="layer"
     inkscape:label="F.Fab-disabled"
     transform="translate(40.882035,157.43127)" />
  <g
     id="g1508"
     inkscape:groupmode="layer"
     inkscape:label="Drill"
     transform="translate(40.882035,157.43127)" />
</svg>
