<?xml version="1.0" encoding="UTF-8" standalone="no"?>
<!-- Created with Inkscape (http://www.inkscape.org/) -->

<svg
   xmlns:dc="http://purl.org/dc/elements/1.1/"
   xmlns:cc="http://creativecommons.org/ns#"
   xmlns:rdf="http://www.w3.org/1999/02/22-rdf-syntax-ns#"
   xmlns:svg="http://www.w3.org/2000/svg"
   xmlns="http://www.w3.org/2000/svg"
   xmlns:sodipodi="http://sodipodi.sourceforge.net/DTD/sodipodi-0.dtd"
   xmlns:inkscape="http://www.inkscape.org/namespaces/inkscape"
   width="27.568853mm"
   height="24.999989mm"
   viewBox="0 0 27.568853 24.999989"
   version="1.1"
   id="svg8"
   inkscape:version="0.92.4 (5da689c313, 2019-01-14)"
   sodipodi:docname="bananaraptor.svg">
  <defs
     id="defs2" />
  <sodipodi:namedview
     id="base"
     pagecolor="#ffffff"
     bordercolor="#666666"
     borderopacity="1.0"
     inkscape:pageopacity="0.0"
     inkscape:pageshadow="2"
     inkscape:zoom="3.959798"
     inkscape:cx="-5.3342109"
     inkscape:cy="23.033096"
     inkscape:document-units="mm"
     inkscape:current-layer="g3767"
     showgrid="true"
     inkscape:window-width="1920"
     inkscape:window-height="1177"
     inkscape:window-x="1912"
     inkscape:window-y="-8"
     inkscape:window-maximized="1"
     borderlayer="true"
     fit-margin-top="0"
     fit-margin-left="0"
     fit-margin-right="0"
     fit-margin-bottom="0">
    <inkscape:grid
       id="grid3745"
       units="mm"
       type="xygrid"
       empspacing="1"
       spacingy="2.54"
       spacingx="2.54"
       originx="-2.3539656e-10"
       originy="-1.0927749e-05" />
  </sodipodi:namedview>
  <metadata
     id="metadata5">
    <rdf:RDF>
      <cc:Work
         rdf:about="">
        <dc:format>image/svg+xml</dc:format>
        <dc:type
           rdf:resource="http://purl.org/dc/dcmitype/StillImage" />
        <dc:title></dc:title>
      </cc:Work>
    </rdf:RDF>
  </metadata>
  <g
     id="g3751"
     sodipodi:insensitive="true"
     inkscape:groupmode="layer"
     inkscape:label="[fixed] BG"
     transform="translate(0,8)">
    <rect
       id="rect3749"
       style="fill:#ffffff;fill-opacity:1;stroke:none"
       height="17"
       width="18.747"
       y="0"
       x="0" />
  </g>
  <g
     id="g3753"
     inkscape:groupmode="layer"
     inkscape:label="F.Cu-disabled"
     transform="translate(0,8)" />
  <g
     id="g3755"
     inkscape:groupmode="layer"
     inkscape:label="B.Cu-disabled"
     transform="translate(0,8)" />
  <g
     id="g3757"
     inkscape:groupmode="layer"
     inkscape:label="B.Adhes-disabled"
     transform="translate(0,8)" />
  <g
     id="g3759"
     inkscape:groupmode="layer"
     inkscape:label="F.Adhes-disabled"
     transform="translate(0,8)" />
  <g
     id="g3761"
     inkscape:groupmode="layer"
     inkscape:label="B.Paste-disabled"
     transform="translate(0,8)" />
  <g
     id="g3763"
     inkscape:groupmode="layer"
     inkscape:label="F.Paste-disabled"
     transform="translate(0,8)" />
  <g
     id="g3765"
     inkscape:groupmode="layer"
     inkscape:label="B.SilkS-disabled"
     transform="translate(0,8)" />
  <g
     id="g3767"
     inkscape:groupmode="layer"
     inkscape:label="F.SilkS"
     style="display:inline"
     transform="translate(0,8)">
    <path
       style="fill:#000000;stroke-width:0.02264412"
       d="m 18.590623,16.960275 c -0.04735,-0.04735 -0.04765,-0.055 -0.03353,-0.834801 0.0103,-0.594887 0.0074,-0.828521 -0.015,-0.956875 -0.01603,-0.09338 -0.02824,-0.195311 -0.02706,-0.226443 0.0015,-0.05074 -0.03368,-0.07485 -0.347223,-0.234355 -0.71055,-0.361531 -1.212333,-0.71655 -1.699323,-1.202289 -0.175501,-0.175061 -0.38815,-0.411886 -0.472533,-0.526299 l -0.153427,-0.208016 -0.206796,0.175619 c -0.113678,0.09662 -0.345812,0.278988 -0.515725,0.405341 -0.169898,0.126325 -0.322856,0.24365 -0.33987,0.260679 -0.02382,0.02382 -0.02735,0.07206 -0.015,0.210266 0.02897,0.326782 0.0478,0.840581 0.0328,0.900362 -0.01868,0.07456 -0.06691,0.09985 -0.294619,0.154 -0.10103,0.02412 -0.290826,0.07809 -0.421592,0.120148 -0.130736,0.04191 -0.416093,0.119854 -0.634036,0.173222 -0.325913,0.07971 -1.323421,0.400856 -1.964882,0.632637 -0.114854,0.04147 -0.152633,0.04647 -0.197516,0.02603 -0.0875,-0.03985 -0.09427,-0.122207 -0.02,-0.247237 0.03529,-0.05941 0.116177,-0.214914 0.179795,-0.34568 0.06368,-0.130736 0.165752,-0.314193 0.226958,-0.407591 0.06118,-0.09338 0.119119,-0.181943 0.128678,-0.196752 0.01323,-0.02059 -0.123531,-0.02382 -0.589299,-0.01323 -0.672403,0.01485 -0.763933,0.0029 -0.789727,-0.09941 -0.01324,-0.05015 0.01985,-0.09162 0.266075,-0.339767 0.312988,-0.315444 0.597785,-0.539328 1.012376,-0.795845 0.253546,-0.156883 0.274252,-0.174589 0.226443,-0.193604 -0.02897,-0.01177 -0.236046,-0.110001 -0.460224,-0.21884 C 10.485044,12.495062 9.8036123,11.953984 9.4570801,11.376112 9.3447262,11.188772 9.2451813,10.928888 9.198078,10.700077 9.163666,10.532517 9.1619012,10.477281 9.1848426,10.27384 9.2291077,9.8809251 9.3515792,9.4783778 9.5069775,9.2148168 9.544772,9.1508457 9.5756546,9.085404 9.5756546,9.0696686 9.5756546,9.041286 9.4588889,8.9380499 8.9139139,8.4845168 8.7610157,8.3573099 8.5543964,8.1805144 8.4547632,8.0917049 8.1010398,7.7764523 8.0366422,7.7341284 7.6838746,7.5849214 7.1974443,7.3791991 6.8999713,7.2664041 6.4573648,7.1198588 L 6.0676999,6.9908872 5.6262845,7.1742842 C 4.7841307,7.5241856 4.4474368,7.6108627 3.9146237,7.6149363 3.6322097,7.6164069 3.6017977,7.6134657 3.5153558,7.5636124 3.4616789,7.5328768 3.4002078,7.4715528 3.3709429,7.4196406 3.2935893,7.2821395 3.3140306,7.0602113 3.4237374,6.8431066 3.5503561,6.5926479 3.7253281,6.3029102 3.8928294,6.0660996 3.9765066,5.9477163 4.0785515,5.7898326 4.1195665,5.7151113 4.1691258,5.6248165 4.2897738,5.4841243 4.4789077,5.2959757 4.7387039,5.0375469 4.7835278,5.0029438 4.9901177,4.9014726 5.1146775,4.8402956 5.3477529,4.7471328 5.5080924,4.6944413 L 5.7996374,4.5985582 5.5451662,4.3237322 C 5.119779,3.8643177 4.5052446,3.3377989 4.050388,3.0430316 3.7682828,2.8602066 3.6602673,2.8084563 3.320941,2.6934995 2.3833599,2.3758794 1.5201177,2.3203643 0.52922729,2.5139685 0.18159214,2.5819102 0.1633714,2.5832338 0.07945896,2.5479408 -0.00480642,2.5124979 -0.0074535,2.5079405 0.00622308,2.4260281 0.02739972,2.2986741 0.3785349,1.6049918 0.56219814,1.3276661 0.90915682,0.8038234 1.5169412,0.28756895 2.3005651,-0.14889044 c 0.127354,-0.0708829 0.2852523,-0.14932459 0.3509734,-0.17425126 0.602549,-0.22847228 0.9349782,-0.32235539 1.3890259,-0.39228257 0.4658273,-0.0717653 1.271775,-0.0188252 1.4669089,0.0963243 l 0.074118,0.0436768 0.027206,-0.46653303 C 5.7114452,-2.8002652 6.037389,-4.312557 6.5684095,-5.4938607 6.9500449,-6.3428821 7.6330651,-7.235051 8.1786563,-7.597201 c 0.2308106,-0.1532218 0.3830486,-0.22084 0.7289764,-0.323782 0.2402975,-0.071471 0.2992377,-0.080589 0.5094894,-0.078824 0.2830611,0.00294 0.5016217,0.057795 0.6418729,0.1627804 0.05177,0.038677 0.152001,0.1130892 0.222826,0.1651484 0.145295,0.1069126 0.200854,0.178075 0.422606,0.5409897 0.260384,0.4261652 0.382503,0.6601818 0.526666,1.0092875 0.150472,0.3643706 0.509578,1.1165971 0.636196,1.3326283 0.04382,0.074853 0.0925,0.1761631 0.108089,0.2251194 0.01559,0.048971 0.04456,0.1144127 0.06441,0.1455894 0.01985,0.031177 0.07029,0.1275011 0.112059,0.213987 l 0.07588,0.157384 0.127207,-0.1460306 c 0.261002,-0.2996055 0.705197,-0.6875351 0.820698,-0.7167706 0.03088,-0.00735 0.128383,-0.062795 0.216693,-0.1220599 0.205149,-0.1377952 0.510019,-0.2905463 0.832139,-0.4168857 0.13956,-0.054706 0.315576,-0.125148 0.391165,-0.1565012 0.178752,-0.074118 0.741168,-0.1869131 1.142833,-0.2291929 0.360473,-0.037941 0.703314,-0.0525 1.40307,-0.059412 0.422033,-0.00441 0.524534,0.00147 0.769903,0.046618 0.506725,0.09206 1.193716,0.2797668 1.38582,0.3785617 0.03368,0.017353 0.07588,0.031471 0.09397,0.031471 0.03206,0 0.177781,0.086913 0.423885,0.2526933 0.279032,0.1880456 0.558784,0.561328 0.607932,0.8112124 0.02985,0.1517806 0.01471,0.2025016 -0.07868,0.2636786 -0.0503,0.032941 -0.138237,0.035441 -0.831375,0.022941 -0.426312,-0.00735 -0.8293,-0.013235 -0.895551,-0.013235 -0.135442,0.00105 -0.220546,-0.040441 -0.469768,-0.2290756 -0.124119,-0.093971 -0.163825,-0.1120598 -0.245414,-0.1120598 -0.131178,0 -0.191531,0.046912 -0.672167,0.5227838 -0.551019,0.5455632 -0.879493,0.9920962 -1.20251,1.6347192 -0.126325,0.251443 -0.339988,0.7438295 -0.327914,0.7559033 0.0029,0.00296 0.116765,-0.00588 0.253516,-0.018972 0.283017,-0.027206 1.361702,-0.010294 1.731764,0.026766 0.606652,0.061177 1.256731,0.1928692 1.694382,0.3433404 0.48318,0.1661044 0.870183,0.3833267 1.487482,0.83486004 0.435077,0.31823756 0.721771,0.59194579 0.936669,0.89421337 0.227679,0.3202667 0.261429,0.40819417 0.262341,0.68350509 l 7.78e-4,0.2311782 -0.113237,0.1161774 c -0.266355,0.2732522 -0.856021,0.6938 -1.120876,0.7994038 -0.08088,0.032353 -0.144707,0.069118 -0.141472,0.081912 0.01324,0.056324 -0.413371,0.00296 -0.507754,-0.063089 C 20.127972,2.34882 19.72519,2.255731 19.30523,2.1940102 18.374179,2.0572444 17.23167,2.0697445 16.265574,2.2270987 c -0.490651,0.079854 -0.46871,0.058677 -0.274856,0.2649874 0.144266,0.1535159 0.188046,0.184634 0.378298,0.2690608 0.220384,0.097795 0.283722,0.1380894 0.441562,0.2808408 0.04985,0.045 0.126472,0.1008832 0.170384,0.1241187 0.112942,0.059853 0.286958,0.2533698 0.341811,0.3803264 0.04485,0.1038244 0.04779,0.223958 0.0074,0.3274735 -0.02206,0.057354 0.653256,0.6965645 1.325232,1.2544363 2.026089,1.6820137 4.131268,2.7294045 6.544155,3.2559087 0.512387,0.1117656 0.831816,0.1637808 1.342334,0.2184724 0.239385,0.025588 0.495504,0.053824 0.569167,0.062501 l 0.133971,0.015883 0.110148,0.3283408 c 0.225488,0.6718128 0.231355,0.7003586 0.199928,0.9721682 -0.04485,0.3886063 -0.08647,0.5971503 -0.145148,0.7277983 -0.03029,0.06765 -0.06177,0.164443 -0.06985,0.215239 l -0.01471,0.09235 -0.400606,0.148929 c -1.342849,0.499224 -2.8202,0.876684 -4.260579,1.088583 l -0.350135,0.05147 -0.0275,0.219282 c -0.09588,0.763874 -0.348428,1.557616 -0.622446,1.956781 -0.03574,0.05206 -0.065,0.10353 -0.065,0.11456 0,0.02353 0.179722,0.440121 0.40793,0.9457 0.322724,0.714989 0.416341,0.99664 0.363857,1.094698 -0.04721,0.08824 -0.10103,0.09941 -0.302724,0.0628 -0.102354,-0.01853 -0.328678,-0.05559 -0.503032,-0.08221 -0.331754,-0.05059 -0.682976,-0.125589 -0.950979,-0.203001 -0.296798,-0.08574 -0.2919,-0.08706 -1.222864,0.315973 -0.323795,0.140148 -0.625768,0.259956 -0.671018,0.266208 -0.06353,0.0088 -0.09324,4.28e-4 -0.130001,-0.03647 z m 0.811168,-0.515326 c 0.619344,-0.268223 0.83514,-0.347946 0.941817,-0.347946 0.03971,0 0.228972,0.04059 0.420606,0.09029 0.32337,0.08382 1.304893,0.262781 1.325952,0.241722 0.01324,-0.01324 -0.0925,-0.271913 -0.286532,-0.705696 -0.08912,-0.199267 -0.19606,-0.443813 -0.237649,-0.543446 -0.04162,-0.09971 -0.09677,-0.230164 -0.122795,-0.290045 l -0.04706,-0.108824 -0.07544,0.0575 c -0.174339,0.132942 -0.594872,0.267179 -0.716373,0.22862 l -0.04809,-0.0153 0.05176,-0.03927 c 0.02853,-0.02162 0.137501,-0.08897 0.242502,-0.149868 0.582696,-0.33793 0.865816,-0.854228 1.100612,-2.007061 0.07456,-0.365767 0.09088,-0.626549 0.08441,-1.344069 -0.0059,-0.637345 -0.01691,-0.741449 -0.106178,-0.985024 -0.02971,-0.08088 -0.09618,-0.279647 -0.147898,-0.44156 C 21.729825,9.9230902 21.652765,9.7337195 21.610471,9.6641763 21.568118,9.5946169 21.476941,9.4264965 21.407866,9.2905557 21.253792,8.9872738 21.025922,8.6786978 20.873377,8.5667101 20.656654,8.4076206 20.298387,8.2507532 19.991781,8.1807085 c -0.240413,-0.055 -0.32909,-0.064412 -0.58874,-0.062795 -0.323517,0.00147 -0.441341,0.015294 -1.109376,0.1245598 -0.512681,0.083824 -1.006714,0.2099296 -1.381482,0.352547 -0.01868,0.00735 -0.0088,-0.015 0.02265,-0.049118 0.07265,-0.079707 0.417004,-0.2523976 0.7378,-0.3701485 0.440151,-0.1615616 0.94689,-0.2709008 1.492645,-0.3220615 0.353723,-0.033235 0.651255,-0.00735 0.940757,0.080589 0.105295,0.032059 0.237311,0.068236 0.293356,0.080148 0.05603,0.011765 0.152839,0.056177 0.215119,0.098236 0.06221,0.042059 0.147442,0.093824 0.189266,0.1148539 0.151296,0.07603 0.456254,0.3972694 0.62955,0.6631083 0.587666,0.9015234 0.87886,1.8169705 0.89661,2.8188905 l 0.0059,0.311267 0.06588,7.4e-5 c 0.177031,2.64e-4 1.447791,-0.228929 2.085223,-0.376062 0.899963,-0.207723 1.364716,-0.354078 1.528483,-0.481328 0.03118,-0.02426 0.158515,-0.110001 0.283062,-0.190604 0.12456,-0.08059 0.295222,-0.209884 0.379281,-0.28721 0.127207,-0.11706 0.152795,-0.152575 0.152501,-0.212162 -7.78e-4,-0.155339 -0.04015,-0.159911 -0.622372,-0.0725 -0.556314,0.08353 -1.217143,0.115295 -1.698308,0.08177 -0.211722,-0.01485 -0.394619,-0.03647 -0.406459,-0.04824 -0.01324,-0.01323 -0.0044,-0.02147 0.02265,-0.02162 0.03971,-2.51e-4 0.506386,-0.04191 1.266937,-0.113089 0.464621,-0.04353 1.233348,-0.187487 1.528482,-0.28637 l 0.12456,-0.041765 0.0059,-0.2537535 c 0.0058,-0.243308 0.0044,-0.255014 -0.04533,-0.2848966 -0.02839,-0.017206 -0.134269,-0.077942 -0.23524,-0.1352952 C 26.57157,9.1844975 26.626967,9.1962623 25.730504,9.0779966 25.368839,9.0303492 24.998675,8.9295263 25.038557,8.8896422 c 0.01809,-0.017941 0.08868,-0.017059 0.257164,0.00294 0.127795,0.015441 0.364812,0.037353 0.526709,0.04853 0.161913,0.011765 0.378151,0.0275 0.480549,0.036177 0.178134,0.015 0.188046,0.013235 0.230002,-0.03853 0.02412,-0.029853 0.04,-0.060295 0.0353,-0.067942 -0.0044,-0.00735 -0.09294,-0.020736 -0.196046,-0.029265 C 25.454781,8.7659647 24.031285,8.4278002 22.987717,8.0376794 21.107599,7.3348061 19.410453,6.2571357 17.664704,4.6576377 l -0.345488,-0.3165319 -0.05544,0.065883 c -0.03059,0.036322 -0.11956,0.094413 -0.197987,0.1292658 -0.07838,0.034852 -0.167942,0.080589 -0.199075,0.1017655 -0.114854,0.078089 -0.751006,0.2775175 -1.449232,0.4545187 -0.205487,0.052059 -0.409283,0.112795 -0.452871,0.135001 -0.08662,0.043971 -0.361724,0.2530313 -0.864243,0.6566522 -0.178516,0.1433835 -0.385724,0.3057378 -0.460445,0.3607974 -0.07471,0.055 -0.282532,0.2166339 -0.461812,0.3590467 -0.383004,0.3042667 -0.477916,0.3663407 -0.477916,0.3125462 0,-0.088677 0.468533,-0.5597247 0.939831,-0.9447572 0.161854,-0.1322069 0.416548,-0.3446056 0.566005,-0.4719303 0.308868,-0.2631464 0.556444,-0.4533096 0.658372,-0.5056777 0.03823,-0.019707 0.22681,-0.077942 0.418915,-0.1294128 0.852977,-0.2286194 1.537733,-0.4402975 1.639101,-0.5067244 0.03044,-0.02 0.08029,-0.079706 0.110589,-0.1326481 0.06088,-0.1064715 0.09191,-0.32112 0.05118,-0.3547379 C 17.003153,3.8037815 16.342515,3.652089 15.847732,3.5866473 15.704496,3.5676751 15.531288,3.534441 15.462788,3.5128231 l -0.12456,-0.039412 0.12456,-0.013235 c 0.06853,-0.00735 0.149001,-0.026178 0.178913,-0.042795 0.136766,-0.07603 1.080391,0.081471 1.369805,0.2287813 l 0.08809,0.044853 -0.015,-0.075295 C 17.06283,3.5066025 16.973123,3.3826458 16.861784,3.3077038 16.721783,3.2134384 16.124102,2.9224507 16.017557,2.8966711 15.967704,2.8849063 15.881085,2.8577002 15.825085,2.8368177 15.643804,2.7694642 15.392743,2.7365228 14.94196,2.7213756 14.416323,2.7035828 14.382029,2.7110814 13.962452,2.9249803 13.419183,3.2023795 13.044385,3.4775142 12.586088,3.935356 c -0.467342,0.4668862 -0.821242,0.9450812 -1.236481,1.6707781 -0.119266,0.2084871 -0.226796,0.391327 -0.238914,0.4063123 -0.03132,0.038677 -0.185325,0.5069745 -0.233119,0.7086827 -0.02221,0.093383 -0.05353,0.2055017 -0.06971,0.2490903 -0.05368,0.1445599 -0.145442,0.6670347 -0.14603,0.8319331 -8.56e-4,0.2335901 -0.0678,0.244502 -0.341415,0.055736 C 10.215716,7.7856818 10.068876,7.6895634 9.9941403,7.6444013 9.9194338,7.5992538 9.7458148,7.4723852 9.6083431,7.3625166 9.470842,7.2526628 9.3180319,7.1328824 9.2686786,7.0963821 9.2192664,7.0599113 9.0821477,6.9471309 8.9638379,6.8458213 8.8456016,6.744497 8.7130565,6.6369074 8.6694679,6.6066866 8.6259381,6.5763922 8.5385845,6.5058034 8.4753928,6.4496559 8.412304,6.393479 8.2084494,6.2304628 8.0225068,6.0873439 7.5150233,5.696749 7.0971082,5.3297898 6.6296779,4.8643892 6.0044229,4.2418402 5.960849,4.2039134 5.4540067,3.841043 5.0438269,3.5473787 5.0263415,3.5370257 5.1935928,3.6868356 5.3986827,3.8705282 5.8336421,4.3115468 5.9902316,4.4945481 6.2952635,4.8510361 7.1305349,6.0090162 7.3167717,6.3336069 7.3783897,6.4409607 7.4383903,6.5406675 7.4503022,6.555256 7.4658902,6.574521 7.4591222,6.578344 7.4245662,6.569964 7.398537,6.5626105 7.3394189,6.5104042 7.2933891,6.4529037 7.2473594,6.3952562 7.1370202,6.2666815 7.0482254,6.1670336 6.9594012,6.067474 6.8293413,5.8926344 6.7591495,5.778663 6.686796,5.6611621 6.540414,5.4748663 6.4211483,5.3484241 6.3054121,5.2257761 6.1779405,5.0733925 6.137821,5.0098037 6.0073788,4.8030668 6.0209083,4.8065522 5.7119794,4.900097 5.1498866,5.0701866 4.9298128,5.1909231 4.6335589,5.4917047 4.3965438,5.7323537 4.3419551,5.7999424 4.1063635,6.1444455 3.9706271,6.3429321 3.7443018,6.7445072 3.7681696,6.7445072 c 0.00441,0 0.1083832,-0.07 0.2301798,-0.1556612 0.2215606,-0.1556779 0.3949443,-0.2519287 0.453811,-0.2519287 0.032941,0 -0.00735,0.045295 -0.4813421,0.5427087 C 3.8089052,7.049495 3.6582864,7.2206287 3.636095,7.2599085 l -0.040294,0.071471 0.071471,0.036912 C 3.7913904,7.4325569 4.144305,7.3840271 4.6789725,7.2291729 4.9560027,7.1490252 5.1064451,7.0881424 5.4359492,6.9227734 5.8328774,6.7236409 5.8523334,6.7165232 5.9959522,6.7180806 c 0.1180892,0.00128 0.2241357,0.027206 0.5137983,0.1258833 0.5571368,0.1895883 0.892816,0.3211188 1.2653631,0.4958408 0.4748288,0.2226782 0.5831679,0.2955465 0.9299207,0.6255197 0.2197812,0.2091355 0.8085212,0.6549185 1.2439218,0.9418605 1.2077449,0.795977 3.0152599,1.7068531 4.4269179,2.2309151 0.35665,0.132354 0.888377,0.316429 0.914156,0.316386 0.01765,-1.6e-5 0.02618,-0.09735 0.02735,-0.315693 0.0015,-0.318282 0.01779,-0.386226 0.09074,-0.386226 0.05221,0 0.0725,0.07162 0.09632,0.340091 0.01603,0.180634 0.04338,0.318709 0.08956,0.452445 0.177017,0.513196 0.225296,0.629727 0.360062,0.869082 0.353135,0.627151 0.918169,1.183788 1.807074,1.780191 0.331532,0.222458 0.780579,0.498253 0.811227,0.498283 0.01471,0 0.08779,0.02897 0.162663,0.06441 0.07485,0.03544 0.175104,0.07162 0.22281,0.08059 0.05309,0.01029 0.123384,0.04971 0.180958,0.102206 0.05176,0.04721 0.109559,0.09162 0.128236,0.09868 0.04882,0.01838 -0.121766,0.01691 -0.29637,-0.0029 l -0.149192,-0.01662 0.0015,0.832962 c 0.0011,0.458138 0.0059,0.832964 0.01177,0.832977 0.0059,0 0.260298,-0.108383 0.566094,-0.240796 z M 12.28144,15.271173 c 0.336252,-0.11603 0.728564,-0.24312 0.871786,-0.282576 0.143236,-0.03941 0.423445,-0.118383 0.622726,-0.175398 0.199266,-0.05706 0.456562,-0.129266 0.571754,-0.160678 l 0.209458,-0.05706 v -0.136325 c 0,-0.075 -0.01662,-0.286091 -0.03706,-0.469048 -0.04897,-0.439827 -0.04309,-0.465445 0.138971,-0.610402 0.168164,-0.133824 0.716212,-0.6973 0.863802,-0.888139 l 0.100295,-0.12956 -0.03853,-0.07412 c -0.02118,-0.04074 -0.07191,-0.169855 -0.112795,-0.286812 -0.04074,-0.116912 -0.0825,-0.220134 -0.0925,-0.229296 -0.01029,-0.0088 -0.105001,-0.04485 -0.210796,-0.07927 C 13.58961,11.178228 11.552432,10.210207 10.161906,9.3134206 10.042347,9.2363611 9.9123749,9.1661694 9.8730952,9.157537 9.8017711,9.1418015 9.801624,9.1419486 9.6996673,9.3531268 9.5570191,9.6486586 9.4596801,10.037309 9.4455182,10.368503 c -0.010294,0.247397 -0.00735,0.271559 0.060442,0.475531 0.266208,0.798507 0.9454058,1.359217 2.7420968,2.263666 0.293046,0.147516 0.557328,0.288075 0.587299,0.31234 l 0.05456,0.04412 -0.134413,-0.01868 c -0.07397,-0.01029 -0.228709,-0.04853 -0.343958,-0.08485 l -0.209546,-0.06603 -0.345238,0.226899 c -0.469475,0.308561 -0.721228,0.501886 -0.922669,0.708594 l -0.169825,0.174266 0.650387,-0.01471 c 0.633241,-0.01471 0.651594,-0.01323 0.696298,0.03132 0.06044,0.06029 0.05794,0.113089 -0.0088,0.206737 -0.269413,0.374106 -0.450033,0.675711 -0.499019,0.833286 -0.01471,0.04677 -0.01029,0.05206 0.02529,0.03779 0.02324,-0.0088 0.317371,-0.111471 0.65364,-0.227384 z M 10.328836,6.8182093 c 0.01956,-0.8321835 0.129118,-1.3075988 0.605681,-2.6275358 0.0653,-0.1807812 0.327311,-0.7166088 0.429915,-0.8790806 0.04971,-0.078824 0.09044,-0.1520748 0.09044,-0.1628396 0,-0.038528 0.286429,-0.4515185 0.46421,-0.6693144 0.09956,-0.1220598 0.20281,-0.254458 0.229266,-0.2942229 0.150472,-0.2260607 0.908125,-0.857551 1.407409,-1.1730684 0.262222,-0.16570724 0.424047,-0.27431105 0.658284,-0.44176828 0.03368,-0.0239723 0.0303,-0.0342635 -0.03279,-0.10191259 -0.03853,-0.0413239 -0.145148,-0.17961894 -0.236678,-0.30728174 -0.09162,-0.12764808 -0.180252,-0.23210495 -0.197046,-0.23210495 -0.01676,0 -0.06103,-0.01573542 -0.09838,-0.03499881 -0.03735,-0.0192649 -0.146325,-0.0445592 -0.242296,-0.0561769 -0.319062,-0.0386768 -0.625652,-0.0870595 -0.774551,-0.12235392 -0.08088,-0.0191163 -0.180295,-0.0349988 -0.220781,-0.0351473 -0.04191,-1.6192e-4 -0.09221,-0.0189722 -0.116765,-0.0435298 -0.04118,-0.0411768 -0.04324,-0.0916184 -0.04529,-1.09258231 -0.0011,-0.5771519 -0.01177,-1.1994068 -0.02235,-1.3827907 -0.01176,-0.1833839 -0.01912,-0.3464296 -0.0175,-0.3623116 0.0029,-0.030296 -0.05324,-0.2293697 -0.113531,-0.4025034 -0.01956,-0.05603 -0.06412,-0.1847664 -0.09897,-0.2860464 -0.035,-0.1013259 -0.10353,-0.2643273 -0.152559,-0.3623135 -0.04897,-0.097942 -0.101765,-0.2188987 -0.117353,-0.2687226 -0.03662,-0.1170598 -1.285218,-2.6351978 -1.327688,-2.6776834 -0.01765,-0.017647 -0.05956,-0.069559 -0.09294,-0.115148 C 10.201866,-7.456465 10.133878,-7.5230097 10.01226,-7.6014074 9.7480665,-7.7717029 9.3888725,-7.7990707 8.9866045,-7.6794964 8.3912321,-7.5025833 8.004626,-7.2000367 7.4976367,-6.5143253 c -0.4704891,0.6363875 -0.8055065,1.3570696 -1.0828323,2.32946 -0.2848405,0.9986993 -0.4471948,2.0562374 -0.5109159,3.32801224 -0.050589,1.00856708 0.049853,2.28960666 0.2651639,3.38370366 0.1439718,0.73155 0.5589766,2.1207816 0.6720496,2.2496503 0.1507659,0.1718398 1.0429642,0.9395224 1.2510689,1.0764649 0.062206,0.04103 0.2049281,0.1564275 0.3170172,0.2565607 0.1120597,0.1001479 0.2161782,0.1821928 0.231296,0.182369 0.015147,1.767e-4 0.037353,0.018825 0.049412,0.041324 0.011765,0.022649 0.15256,0.1302952 0.3121642,0.2392667 0.1595896,0.1089714 0.361503,0.2540614 0.4486801,0.3223561 0.087207,0.068236 0.2946789,0.2146341 0.4611214,0.3252232 l 0.3026052,0.2010751 0.05132,-0.055295 c 0.04912,-0.053089 0.05176,-0.075589 0.06294,-0.5475191 z M 9.8415376,1.2518997 C 9.8341846,1.2445467 9.7560957,1.2296936 9.6679185,1.2185156 9.5796825,1.2067508 9.3317394,1.1561621 9.1169141,1.1046911 L 8.726308,1.0110139 8.1749654,0.46442111 C 7.8717276,0.16378634 7.4593419,-0.26049708 7.2585462,-0.47845442 7.0577652,-0.69639735 6.7887336,-0.97869374 6.6607032,-1.1057534 6.4868047,-1.2783434 6.4279219,-1.3513732 6.4279219,-1.3944618 c 0,-0.068971 0.039412,-0.073677 0.1839721,-0.022646 0.1865456,0.065883 0.5141953,0.1042656 0.6991526,0.082059 0.3504293,-0.042206 0.7855946,-0.1913545 1.5171593,-0.520063 0.1930457,-0.086765 0.452886,-0.1956045 0.5774164,-0.2419284 0.1245598,-0.046324 0.2875906,-0.1100009 0.3623118,-0.1414717 0.130001,-0.054853 0.8750509,-0.3311202 1.4492319,-0.5374747 0.149443,-0.053677 0.303238,-0.1032361 0.341768,-0.1101479 l 0.07,-0.013235 -0.01029,1.2837896 c -0.0059,0.80202116 -0.0015,1.34418758 0.01324,1.44476192 0.02662,0.18733975 0.08015,0.27975211 0.229045,0.39547363 0.09515,0.0739712 0.247944,0.26138431 0.226385,0.27770811 -0.0088,0.005882 -0.30765,0.12867751 -1.288422,0.52697484 C 10.605861,1.1077216 10.36702,1.1927224 10.268152,1.218237 10.097459,1.262208 9.8707076,1.279855 9.8421927,1.251326 Z M 7.3042378,-2.6878969 C 7.2099723,-2.7177486 7.1835015,-2.7408385 7.1053979,-2.8617518 6.9734851,-3.065827 6.9374995,-3.205195 6.9401907,-3.5014771 c 0.00588,-0.581034 0.2233253,-1.125171 0.5823576,-1.453306 0.3965473,-0.3624294 0.8597275,-0.194281 0.9670078,0.351047 0.064706,0.3285467 -0.011765,0.6954025 -0.2414578,1.1588624 -0.3081348,0.6218139 -0.6088873,0.8630068 -0.9438605,0.7569768 z m 3.4124392,9.2517218 c 0.03118,-0.1183833 0.102942,-0.3272087 0.159442,-0.4641951 0.05662,-0.1370599 0.102942,-0.265899 0.10309,-0.2864433 3.38e-4,-0.056765 0.263663,-0.5986226 0.3734,-0.7682562 0.05338,-0.082354 0.237707,-0.3373409 0.409782,-0.5665486 0.56227,-0.7489473 1.129436,-1.2675398 1.821044,-1.6650873 0.118384,-0.068089 0.241591,-0.1444129 0.27387,-0.1696922 0.06294,-0.049412 0.962347,-0.3714737 1.25732,-0.4503125 0.09824,-0.026178 0.30587,-0.067648 0.461547,-0.091912 0.155678,-0.024265 0.357092,-0.064559 0.447592,-0.089265 0.740153,-0.2025752 2.294975,-0.2232369 3.239497,-0.043089 0.323929,0.061765 0.633181,0.1461777 0.853051,0.2325457 0.378047,0.1486044 0.647064,0.065148 1.211466,-0.3760471 0.168133,-0.1314717 0.356194,-0.2841345 0.417915,-0.3393703 L 21.857899,1.3857096 21.857277,1.229164 C 21.856616,1.0452951 21.825807,0.9756767 21.627246,0.70777778 21.421921,0.43086378 21.229772,0.23758252 20.953564,0.03012497 19.848482,-0.79991112 19.22733,-1.0492658 17.851847,-1.2150612 c -0.412223,-0.049706 -1.524055,-0.069559 -1.923472,-0.034559 -0.347385,0.030587 -1.178522,0.16756 -1.220318,0.2011631 -0.01471,0.011765 -0.06059,0.028528 -0.102354,0.037502 -0.246723,0.0527946 -0.939861,0.35238596 -1.105612,0.47785741 -0.03971,0.0299988 -0.100295,0.0545593 -0.134707,0.0545593 -0.135736,0 0.08279,0.0813242 0.365327,0.13603051 0.153604,0.0297076 0.294664,0.11058912 0.317281,0.18181028 0.01324,0.0436768 0.241385,0.35379712 0.383283,0.52243068 l 0.05824,0.0691182 0.175398,-0.0569122 c 0.696213,-0.22591358 0.987464,-0.29675239 1.364232,-0.33182635 0.271178,-0.02529579 0.932582,-0.0029559 0.968009,0.03220614 0.03206,0.03205761 -0.03794,0.04382389 -0.373179,0.06294169 -0.196384,0.0117648 -0.418857,0.0351473 -0.494372,0.0532357 -0.07559,0.0180898 -0.160663,0.0327929 -0.189207,0.0327929 -0.07382,0 -0.280887,0.0545593 -0.653006,0.1722805 -0.359856,0.11382445 -0.538961,0.18764872 -0.673492,0.27776695 -0.04985,0.0333841 -0.151722,0.0901478 -0.226443,0.12603042 -0.166619,0.0801477 -0.612226,0.35867907 -0.871801,0.54491617 -0.105884,0.075883 -0.25362,0.178222 -0.328341,0.2272663 -0.158046,0.1036773 -0.701418,0.6370787 -0.933361,0.9161249 -0.144266,0.1736191 -0.368091,0.4851657 -0.63074,0.8780811 -0.05221,0.078236 -0.143531,0.2565019 -0.202855,0.3962676 -0.05926,0.139854 -0.176531,0.4069885 -0.260472,0.593799 -0.237561,0.5286219 -0.346106,0.8857274 -0.496372,1.6330426 -0.08662,0.4304446 -0.09147,0.4765919 -0.08941,0.8378304 l 0.0029,0.3822825 0.04191,-0.2151194 c 0.02309,-0.1182363 0.06735,-0.3119143 0.09853,-0.4302389 z M 6.2498616,4.0460985 C 6.0683896,3.4971973 5.8659762,2.6282931 5.7813873,2.0350385 L 5.7443281,1.7746684 5.6231507,1.6367261 C 5.4649435,1.4565188 5.2279563,1.2649733 5.0580138,1.1799433 4.9127185,1.1072957 4.6418046,1.0166182 4.4296411,0.96972091 4.3580229,0.95383843 4.299493,0.93310297 4.299493,0.92354407 c 0,-0.0277929 0.2424416,-0.0504416 0.3823413,-0.0358826 C 4.9856162,0.91942786 5.2793082,1.060119 5.5400471,1.2988121 L 5.6881512,1.4344014 5.6718276,1.2761649 C 5.6381508,0.94969164 5.5909446,0.20431784 5.5905034,-0.00590429 l -3.53e-4,-0.2181047 -0.078824,-0.0601475 C 5.3502353,-0.4070987 4.9857926,-0.49807002 4.5825526,-0.51618752 4.3207285,-0.52795232 4.2551382,-0.52206992 3.9894317,-0.46883419 3.1933958,-0.3074651 2.1246667,0.18023015 1.5223089,0.65698384 1.3783371,0.77080828 0.89086255,1.3106069 0.74290548,1.5198142 0.63761051,1.6687568 0.40996162,2.113716 0.39175559,2.206261 L 0.37852019,2.2755263 0.62536042,2.22582 C 1.5126617,2.0472302 2.4349486,2.1193485 3.4350007,2.4455275 c 0.480151,0.1565893 1.3467168,0.6099756 1.849912,0.9678462 0.09956,0.070883 0.2270165,0.1568689 0.2830611,0.1911339 0.05603,0.034264 0.2496491,0.2125309 0.4302387,0.3961501 0.180575,0.1836192 0.3319439,0.3316937 0.336341,0.3290614 0.00441,-0.00296 -0.03353,-0.1302951 -0.084118,-0.2836052 z m 9.2955164,-1.60016 -0.06191,-0.064559 -0.15181,0.036322 -0.15181,0.036322 0.181163,0.025443 c 0.09956,0.014707 0.195796,0.026766 0.213693,0.028237 0.02015,0.00149 0.0088,-0.021766 -0.02941,-0.061765 z m -2.630154,-2.94668516 c 0.02971,-0.0480886 0.356076,-0.24189959 0.67102,-0.3985035 0.3174,-0.15785434 0.399798,-0.18728094 1.241584,-0.44351794 0.117795,-0.035883 0.316267,-0.08603 0.44118,-0.1114715 0.124854,-0.025443 0.231855,-0.05103 0.237634,-0.056765 0.0059,-0.00588 0.02765,-0.073824 0.04838,-0.1513397 0.266826,-0.990743 1.078921,-2.1510469 1.99109,-2.8448468 0.688035,-0.5232983 1.078332,-0.700785 1.55113,-0.7053586 0.09956,-9.572e-4 0.201531,-0.010294 0.226443,-0.020147 0.04044,-0.016471 0.03809,-0.02 -0.02265,-0.033236 -0.03735,-0.00882 -0.113825,-0.029265 -0.169837,-0.047059 -0.611786,-0.1942809 -1.724589,-0.3706206 -2.173122,-0.3443704 -0.248736,0.014706 -0.523048,0.088089 -0.830212,0.2225165 -0.359959,0.1575307 -0.681418,0.3714442 -1.140541,0.7589326 -0.09294,0.078383 -0.126324,0.09603 -0.131618,0.069559 -0.03794,-0.1921633 0.636273,-0.7246823 1.242702,-0.9814638 0.110442,-0.046765 0.196839,-0.089118 0.191943,-0.093971 -0.015,-0.015 -0.684505,0.087206 -1.010304,0.1541041 -0.588371,0.1208834 -1.679189,0.5828577 -2.126604,0.900522 -0.180016,0.1277951 -0.608461,0.5396664 -0.726462,0.6983441 l -0.08632,0.1160304 0.03265,0.1083832 c 0.01794,0.059559 0.03294,0.180561 0.03338,0.2688851 4.28e-4,0.088383 0.01588,0.2217078 0.03412,0.2964287 0.02632,0.1070597 0.03647,0.3994588 0.04809,1.3761142 0.01471,1.2337161 0.015,1.24030424 0.06206,1.25021608 0.02603,0.005882 0.06765,0.014706 0.09265,0.0195605 0.08971,0.0189722 0.258031,0.0147075 0.271487,-0.007353 z m 7.285368,-3.87253174 c -0.01603,-0.2588696 -0.20581,-0.4590477 -0.530107,-0.5589897 -0.16306,-0.050294 -0.215473,-0.056324 -0.392018,-0.045589 -0.37868,0.022941 -0.651344,0.100442 -0.964302,0.2738405 l -0.136766,0.075736 0.09765,0.057795 c 0.05368,0.031765 0.143089,0.1044126 0.198575,0.161472 l 0.100883,0.1036773 0.668947,0.00147 c 0.367915,9.26e-4 0.7148,0.010294 0.770844,0.020147 0.179869,0.032647 0.193355,0.026177 0.186193,-0.089854 z"
       id="path3724"
       inkscape:connector-curvature="0" />
  </g>
  <g
     id="g3769"
     inkscape:groupmode="layer"
     inkscape:label="B.Mask-disabled"
     transform="translate(0,8)" />
  <g
     id="g3771"
     inkscape:groupmode="layer"
     inkscape:label="F.Mask-disabled"
     transform="translate(0,8)" />
  <g
     id="g3773"
     inkscape:groupmode="layer"
     inkscape:label="Dwgs.User-disabled"
     transform="translate(0,8)" />
  <g
     id="g3775"
     inkscape:groupmode="layer"
     inkscape:label="Cmts.User-disabled"
     transform="translate(0,8)" />
  <g
     id="g3777"
     inkscape:groupmode="layer"
     inkscape:label="Eco1.User-disabled"
     transform="translate(0,8)" />
  <g
     id="g3779"
     inkscape:groupmode="layer"
     inkscape:label="Eco2.User-disabled"
     transform="translate(0,8)" />
  <g
     id="g3781"
     inkscape:groupmode="layer"
     inkscape:label="Edge.Cuts"
     transform="translate(0,8)" />
  <g
     id="g3783"
     inkscape:groupmode="layer"
     inkscape:label="Margin-disabled"
     transform="translate(0,8)" />
  <g
     id="g3785"
     inkscape:groupmode="layer"
     inkscape:label="B.CrtYd-disabled"
     transform="translate(0,8)" />
  <g
     id="g3787"
     inkscape:groupmode="layer"
     inkscape:label="F.CrtYd-disabled"
     transform="translate(0,8)" />
  <g
     id="g3789"
     inkscape:groupmode="layer"
     inkscape:label="B.Fab-disabled"
     transform="translate(0,8)" />
  <g
     id="g3791"
     inkscape:groupmode="layer"
     inkscape:label="F.Fab-disabled"
     transform="translate(0,8)" />
  <g
     id="g3793"
     inkscape:groupmode="layer"
     inkscape:label="Drill"
     transform="translate(0,8)" />
</svg>
