<?xml version="1.0" encoding="UTF-8" standalone="no"?>
<!-- Created with Inkscape (http://www.inkscape.org/) -->

<svg
   xmlns:dc="http://purl.org/dc/elements/1.1/"
   xmlns:cc="http://creativecommons.org/ns#"
   xmlns:rdf="http://www.w3.org/1999/02/22-rdf-syntax-ns#"
   xmlns:svg="http://www.w3.org/2000/svg"
   xmlns="http://www.w3.org/2000/svg"
   xmlns:sodipodi="http://sodipodi.sourceforge.net/DTD/sodipodi-0.dtd"
   xmlns:inkscape="http://www.inkscape.org/namespaces/inkscape"
   width="18.7469997406mm"
   height="17.0mm"
   viewBox="0 0 18.7469997406 17.0"
   version="1.1"
   id="svg8"
   inkscape:version="0.92.4 (5da689c313, 2019-01-14)"
   sodipodi:docname="br.svg">
  <defs
     id="defs2" />
  <sodipodi:namedview
     id="base"
     pagecolor="#ffffff"
     bordercolor="#666666"
     borderopacity="1.0"
     inkscape:pageopacity="0.0"
     inkscape:pageshadow="2"
     inkscape:zoom="3.959798"
     inkscape:cx="35.703236"
     inkscape:cy="23.033137"
     inkscape:document-units="mm"
     inkscape:current-layer="g3767"
     showgrid="true"
     inkscape:window-width="1858"
     inkscape:window-height="1177"
     inkscape:window-x="54"
     inkscape:window-y="-8"
     inkscape:window-maximized="1"
     borderlayer="true">
    <inkscape:grid
       id="grid3745"
       units="mm"
       type="xygrid"
       empspacing="1"
       spacingy="2.54"
       spacingx="2.54" />
  </sodipodi:namedview>
  <metadata
     id="metadata5">
    <rdf:RDF>
      <cc:Work
         rdf:about="">
        <dc:format>image/svg+xml</dc:format>
        <dc:type
           rdf:resource="http://purl.org/dc/dcmitype/StillImage" />
        <dc:title></dc:title>
      </cc:Work>
    </rdf:RDF>
  </metadata>
  <g
     id="g3751"
     sodipodi:insensitive="true"
     inkscape:groupmode="layer"
     inkscape:label="[fixed] BG">
    <rect
       id="rect3749"
       style="stroke:none;fill-opacity:1;fill:#FFFFFF"
       height="17.0"
       width="18.7469997406"
       y="0"
       x="0" />
  </g>
  <g
     id="g3753"
     inkscape:groupmode="layer"
     inkscape:label="F.Cu-disabled" />
  <g
     id="g3755"
     inkscape:groupmode="layer"
     inkscape:label="B.Cu-disabled" />
  <g
     id="g3757"
     inkscape:groupmode="layer"
     inkscape:label="B.Adhes-disabled" />
  <g
     id="g3759"
     inkscape:groupmode="layer"
     inkscape:label="F.Adhes-disabled" />
  <g
     id="g3761"
     inkscape:groupmode="layer"
     inkscape:label="B.Paste-disabled" />
  <g
     id="g3763"
     inkscape:groupmode="layer"
     inkscape:label="F.Paste-disabled" />
  <g
     id="g3765"
     inkscape:groupmode="layer"
     inkscape:label="B.SilkS-disabled" />
  <g
     id="g3767"
     inkscape:groupmode="layer"
     inkscape:label="F.SilkS"
     style="display:inline">
    <path
       style="fill:#000000;stroke-width:0.01539788"
       d="m 12.641522,16.972987 c -0.0322,-0.0322 -0.0324,-0.0374 -0.0228,-0.56766 0.007,-0.40452 0.005,-0.56339 -0.0102,-0.65067 -0.0109,-0.0635 -0.0192,-0.13281 -0.0184,-0.15398 0.001,-0.0345 -0.0229,-0.0509 -0.23611,-0.15936 -0.48317,-0.245839 -0.82438,-0.48725 -1.15553,-0.81755 -0.11934,-0.11904 -0.26394,-0.28008 -0.32132,-0.35788 l -0.10433,-0.14145 -0.14062,0.11942 c -0.0773,0.0657 -0.23515,0.18971 -0.35069,0.27563 -0.11553,0.0859 -0.21954,0.16568 -0.23111,0.17726 -0.0162,0.0162 -0.0186,0.049 -0.0102,0.14298 0.0197,0.22221 0.0325,0.57159 0.0223,0.612241 -0.0127,0.0507 -0.0455,0.0679 -0.2003393,0.104719 -0.0687,0.0164 -0.19776,0.0531 -0.28668,0.0817 -0.0889,0.0285 -0.282941,0.0815 -0.431141,0.11779 -0.221619,0.0542 -0.899919,0.27258 -1.336109,0.43019 -0.0781,0.0282 -0.10379,0.0316 -0.13431,0.0177 -0.0595,-0.0271 -0.0641,-0.0831 -0.0136,-0.16812 0.024,-0.0404 0.079,-0.14614 0.12226,-0.23506 0.0433,-0.0889 0.11271,-0.21365 0.15433,-0.27716 0.0416,-0.0635 0.081,-0.12372 0.0875,-0.13379 0.009,-0.014 -0.084,-0.0162 -0.40072,-0.009 -0.45723,0.0101 -0.51947,0.002 -0.53701,-0.0676 -0.009,-0.0341 0.0135,-0.0623 0.18093,-0.23104 0.21283,-0.2145 0.40649,-0.36674 0.68841,-0.54117 0.17241,-0.10668 0.18649,-0.11872 0.15398,-0.13165 -0.0197,-0.008 -0.16051,-0.0748 -0.31295,-0.14881 -0.66729,-0.324 -1.13066,-0.69193 -1.3663,-1.08488 -0.0764,-0.12739 -0.14409,-0.30411 -0.17612,-0.4597 -0.0234,-0.11394 -0.0246,-0.1515 -0.009,-0.289839 0.0301,-0.26718 0.11338,-0.54091 0.21905,-0.72013 0.0257,-0.0435 0.0467,-0.088 0.0467,-0.0987 0,-0.0193 -0.0794,-0.0895 -0.44998,-0.3979 -0.10397,-0.0865 -0.24447,-0.20672 -0.31222,-0.26711 -0.24053,-0.21437 -0.28432,-0.24315 -0.5242,-0.34461 -0.33077,-0.13989 -0.53305,-0.21659 -0.83402,-0.31624 l -0.26497,-0.0877 -0.30016,0.124709 c -0.57266,0.237931 -0.80161,0.296871 -1.16392,0.299641 -0.19204,0.001 -0.21272,-10e-4 -0.2715,-0.0349 -0.0365,-0.0209 -0.0783,-0.0626 -0.0982,-0.0979 -0.0526,-0.0935 -0.0387,-0.24441 0.0359,-0.39204 0.0861,-0.1703105 0.20508,-0.3673306 0.31898,-0.5283605 0.0569,-0.0805 0.12629,-0.18786 0.15418,-0.2386701 0.0337,-0.0614 0.11574,-0.1570699 0.24435,-0.2850099 0.17666,-0.1757302 0.20714,-0.1992601 0.34762,-0.26826 0.0847,-0.0416 0.24319,-0.1049502 0.35222,-0.1407801 l 0.198249,-0.0652 -0.173039,-0.1868802 C 3.4814217,8.0678079 3.0635417,7.709778 2.7542417,7.5093378 2.5624117,7.3850178 2.4889617,7.3498279 2.2582217,7.2716579 1.6206717,7.055678 1.0336717,7.017928 0.35987166,7.1495778 c -0.23639,0.0462 -0.24878,0.0471 -0.30584,0.023101 -0.0573,-0.024101 -0.0591,-0.0272 -0.0498,-0.0829 0.0144,-0.0866 0.25317,-0.5583002 0.37806,-0.7468801 0.23593,-0.3562102 0.64922004,-0.7072604 1.18208004,-1.0040504 0.0866,-0.0482 0.19397,-0.1015399 0.23866,-0.1184899 0.40973,-0.1553599 0.63578,-0.2191999 0.94453,-0.26675 0.31676,-0.0488 0.8648,-0.012801 0.99749,0.0655 l 0.0504,0.0297 0.0185,-0.3172399 c 0.0698,-1.1956405 0.29144,-2.2239907 0.652531,-3.0272707 0.25951,-0.5773299 0.72396,-1.18399993 1.094959,-1.43025993 0.15695,-0.10419 0.260471,-0.15017 0.4957,-0.22017 0.163401,-0.0486 0.20348,-0.0547999981 0.34645,-0.0535999981 0.19248,0.001999998 0.3411,0.0392999981 0.43647,0.11068979806 0.0352,0.0263 0.10336,0.0769 0.15152,0.1123 0.0988,0.0727 0.13658,0.12109 0.28737,0.36787 0.17706,0.28979 0.2601,0.44892003 0.35813,0.68631003 0.10232,0.24777 0.34651,0.7592799 0.43261,0.9061799 0.0298,0.0509 0.0629,0.11979 0.0735,0.15308 0.0106,0.0333 0.0303,0.0778 0.0438,0.099 0.0135,0.0212 0.0478,0.0867 0.0762,0.14551 l 0.0516,0.1070202 0.0865,-0.0993 c 0.17748,-0.2037301 0.47953,-0.4675201 0.55807,-0.4874001 0.021,-0.005 0.0873,-0.0427 0.14735,-0.083 0.1395,-0.0937 0.34681,-0.1975699 0.56585,-0.28348 0.0949,-0.0372 0.21459,-0.0851 0.26599,-0.10642 0.1215503,-0.0504 0.5039903,-0.1270999 0.7771203,-0.1558499 0.24512,-0.0258 0.47825,-0.0357 0.95408,-0.0404 0.28698,-0.003 0.35668,10e-4 0.52353,0.0317 0.34457,0.0626 0.81172,0.1902399 0.94235,0.2574199 0.0229,0.0118 0.0516,0.0214 0.0639,0.0214 0.0218,0 0.12089,0.0591 0.28824,0.17183 0.18974,0.12787 0.37997,0.3817 0.41339,0.55162 0.0203,0.10321 0.01,0.1377 -0.0535,0.1793 -0.0342,0.0224 -0.094,0.0241 -0.56533,0.0156 -0.28989,-0.005 -0.56392,-0.009 -0.60897,-0.009 -0.0921,7.143e-4 -0.14997,-0.0275 -0.31944,-0.1557702 -0.0844,-0.0639 -0.1114,-0.0762 -0.16688,-0.0762 -0.0892,0 -0.13024,0.0319 -0.45707,0.3554901 -0.37469,0.37098 -0.59805,0.67462 -0.8177,1.1116001 -0.0859,0.1709799 -0.23119,0.5058 -0.22298,0.5140101 0.002,0.00201 0.0794,-0.004 0.17239,-0.012901 0.19245,-0.0185 0.92595,-0.007 1.17759,0.018201 0.41252,0.0416 0.85457,0.13115 1.15217,0.2334696 0.32856,0.1129501 0.59172,0.2606601 1.01148,0.5677003 0.29585,0.2163998 0.4908,0.4025199 0.63693,0.6080602 0.15482,0.2177796 0.17777,0.2775698 0.17839,0.4647797 l 5.29e-4,0.1571999 -0.077,0.079 c -0.18112,0.18581 -0.58209,0.4717802 -0.76219,0.5435902 -0.055,0.022 -0.0984,0.047 -0.0962,0.0557 0.009,0.0383 -0.28109,0.00201 -0.34527,-0.0429 -0.0512,-0.036 -0.32509,-0.0993 -0.61066,-0.1412698 -0.63311,-0.093 -1.41001,-0.0845 -2.06695,0.0225 -0.33364,0.0543 -0.31872,0.0399 -0.1869,0.18019 0.0981,0.10439 0.12787,0.1255501 0.25724,0.1829599 0.14986,0.0665 0.19293,0.0939 0.30026,0.1909702 0.0339,0.0306 0.086,0.0686 0.11586,0.0844 0.0768,0.0407 0.19513,0.1722901 0.23243,0.2586199 0.0305,0.0706 0.0325,0.1522902 0.005,0.2226802 -0.015,0.039 0.44421,0.47366 0.90115,0.8530098 1.37773,1.1437601 2.80924,1.8559801 4.44999,2.2140001 0.34842,0.076 0.56563,0.11137 0.91278,0.14856 0.16278,0.0174 0.33694,0.0366 0.38703,0.0425 l 0.0911,0.0108 0.0749,0.22327 c 0.15333,0.456829 0.15732,0.47624 0.13595,0.661069 -0.0305,0.26425 -0.0588,0.406059 -0.0987,0.494899 -0.0206,0.046 -0.042,0.11182 -0.0475,0.146361 l -0.01,0.0628 -0.27241,0.101271 c -0.91313,0.339469 -1.91772,0.59614 -2.89717,0.74023 l -0.23809,0.035 -0.0187,0.149111 c -0.0652,0.51943 -0.236929,1.05917 -0.42326,1.3306 -0.0243,0.0354 -0.0442,0.0704 -0.0442,0.0779 0,0.016 0.12221,0.29928 0.27739,0.643071 0.219451,0.486189 0.28311,0.67771 0.247421,0.744389 -0.0321,0.06 -0.0687,0.0676 -0.205851,0.0427 -0.0696,-0.0126 -0.223499,-0.0378 -0.342059,-0.0559 -0.225591,-0.0344 -0.46442,-0.0854 -0.64666,-0.13804 -0.201821,-0.0583 -0.198491,-0.0592 -0.831541,0.21486 -0.220179,0.0953 -0.425519,0.176769 -0.456289,0.18102 -0.0432,0.006 -0.0634,2.91e-4 -0.0884,-0.0248 z m 0.55159,-0.350419 c 0.42115,-0.18239 0.56789,-0.236601 0.64043,-0.236601 0.027,0 0.1557,0.0276 0.28601,0.0614 0.21989,0.057 0.88732,0.17869 0.90164,0.16437 0.009,-0.009 -0.0629,-0.1849 -0.19484,-0.47987 -0.0606,-0.1355 -0.13332,-0.30179 -0.1616,-0.36954 -0.0283,-0.0678 -0.0658,-0.15651 -0.0835,-0.197229 l -0.032,-0.074 -0.0513,0.0391 c -0.11855,0.0904 -0.40451,0.18168 -0.48713,0.15546 l -0.0327,-0.0104 0.0352,-0.0267 c 0.0194,-0.0147 0.0935,-0.0605 0.1649,-0.10191 0.39623,-0.22979 0.58875,-0.58087 0.74841,-1.36479 0.0507,-0.24872 0.0618,-0.42605 0.0574,-0.91396 -0.004,-0.433391 -0.0115,-0.504181 -0.0722,-0.669811 -0.0202,-0.055 -0.0654,-0.190158 -0.10057,-0.300258 -0.0351,-0.110089 -0.0875,-0.23886 -0.11626,-0.286149 -0.0288,-0.0473 -0.0908,-0.161621 -0.13777,-0.25406 -0.10477,-0.20623 -0.25972,-0.41606 -0.36345,-0.492211 -0.14737,-0.10818 -0.39099,-0.214849 -0.59948,-0.262479 -0.16348,-0.0374 -0.22378,-0.0438 -0.40034,-0.0427 -0.21999,0.001 -0.30011,0.0104 -0.75437,0.0847 -0.34862,0.057 -0.68456,0.142751 -0.9394,0.23973 -0.0127,0.005 -0.006,-0.0102 0.0154,-0.0334 0.0494,-0.0542 0.28356,-0.171629 0.5017,-0.251699 0.2993,-0.109861 0.64388,-0.184211 1.01499,-0.219 0.24053,-0.0226 0.44285,-0.005 0.63971,0.0548 0.0716,0.0218 0.16137,0.0464 0.19948,0.0545 0.0381,0.008 0.10393,0.0382 0.14628,0.0668 0.0423,0.0286 0.10026,0.0638 0.1287,0.0781 0.10288,0.0517 0.31025,0.270141 0.42809,0.45091 0.39961,0.613031 0.59762,1.23553 0.60969,1.91683 l 0.004,0.21166 0.0448,5e-5 c 0.12038,1.8e-4 0.98449,-0.15567 1.41794,-0.25572 0.61197,-0.14125 0.928,-0.240771 1.03936,-0.3273 0.0212,-0.0165 0.10779,-0.0748 0.192481,-0.12961 0.0847,-0.0548 0.200749,-0.14272 0.257909,-0.195301 0.0865,-0.0796 0.1039,-0.10375 0.1037,-0.144269 -5.29e-4,-0.10563 -0.0273,-0.108739 -0.42321,-0.0493 -0.37829,0.0568 -0.82765,0.0784 -1.15484,0.0556 -0.14397,-0.0101 -0.268339,-0.0248 -0.27639,-0.0328 -0.009,-0.009 -0.003,-0.0146 0.0154,-0.0147 0.027,-1.71e-4 0.34434,-0.0285 0.86151,-0.0769 0.31594,-0.0296 0.83867,-0.12749 1.03936,-0.19473 l 0.0847,-0.0284 0.004,-0.172551 c 0.004,-0.165449 0.003,-0.173409 -0.0308,-0.193729 -0.0193,-0.0117 -0.0913,-0.053 -0.15996,-0.092 -0.13567,-0.077 -0.098,-0.069 -0.70759,-0.14942 -0.24593,-0.0324 -0.49764,-0.100959 -0.47052,-0.12808 0.0123,-0.0122 0.0603,-0.0116 0.17487,0.002 0.0869,0.0105 0.24807,0.0254 0.358159,0.033 0.1101,0.008 0.257141,0.0187 0.326771,0.0246 0.12113,0.0102 0.12787,0.009 0.1564,-0.0262 0.0164,-0.0203 0.0272,-0.041 0.024,-0.0462 -0.003,-0.005 -0.0632,-0.0141 -0.13331,-0.0199 -0.62386,-0.0514 -1.59183,-0.28135 -2.30145,-0.54663 -1.27847,-0.47795 -2.43252,-1.21076 -3.61962,-2.2984099 l -0.23493,-0.2152399 -0.0377,0.0448 c -0.0208,0.024699 -0.0813,0.0642 -0.13463,0.0879 -0.0533,0.023699 -0.1142,0.0548 -0.13537,0.0692 -0.0781,0.0531 -0.51068,0.1887104 -0.98547,0.3090702 -0.13973,0.0354 -0.27831,0.0767 -0.30795,0.0918 -0.0589,0.0299 -0.2459703,0.1720599 -0.5876803,0.4465199 -0.12139,0.0975 -0.26229,0.2079 -0.3131,0.2453402 -0.0508,0.0374 -0.19212,0.1473099 -0.31403,0.2441498 -0.26044,0.2068997 -0.32498,0.2491097 -0.32498,0.2125297 0,-0.0603 0.3186,-0.3806097 0.63908,-0.6424297 0.11006,-0.0899 0.28325,-0.2343299 0.38488,-0.32091 0.210029,-0.1789381 0.3783793,-0.3082481 0.4476893,-0.3438581 0.026,-0.013401 0.15423,-0.053 0.28486,-0.088 0.58002,-0.1554599 1.04565,-0.2993999 1.11458,-0.3445698 0.0207,-0.0136 0.0546,-0.0542 0.0752,-0.0902 0.0414,-0.0724 0.0625,-0.2183598 0.0348,-0.2412198 -0.0551,-0.0455 -0.50433,-0.1486501 -0.84078,-0.1931501 -0.0974,-0.012901 -0.21518,-0.0355 -0.26176,-0.0502 l -0.0847,-0.0268 0.0847,-0.009 c 0.0466,-0.005 0.10132,-0.017801 0.12166,-0.0291 0.093,-0.0517 0.73466,0.0554 0.93146,0.15557 l 0.0599,0.0305 -0.0102,-0.0512 c -0.0148,-0.0742 -0.0758,-0.1584899 -0.15151,-0.20945 -0.0952,-0.0641 -0.50162,-0.26197 -0.57407,-0.2795 -0.0339,-0.008 -0.0928,-0.0265 -0.13088,-0.0407 -0.12327,-0.0458 -0.29399,-0.0682 -0.60052,-0.0785 -0.3574303,-0.012099 -0.3807503,-0.007 -0.6660603,0.1384501 -0.36942,0.1886299 -0.62428,0.37572 -0.93592,0.6870499 -0.31779,0.3174801 -0.55844,0.6426501 -0.8408,1.13612 -0.0811,0.1417701 -0.15422,0.2661002 -0.16246,0.2762901 -0.0213,0.0263 -0.12602,0.3447399 -0.15852,0.4819004 -0.0151,0.0635 -0.0364,0.13974 -0.0474,0.16938 -0.0365,0.0983 -0.0989,0.45358 -0.0993,0.56571 -5.82e-4,0.15884 -0.0461,0.16626 -0.23216,0.0379 -0.0712,-0.0491 -0.17105,-0.11446 -0.22187,-0.14517 -0.0508,-0.0307 -0.16886,-0.11697 -0.26234,-0.19168 -0.0935,-0.0747 -0.19741,-0.15615 -0.23097,-0.18097 -0.0336,-0.0248 -0.12684,-0.10149 -0.20729,-0.17038 -0.0804,-0.0689 -0.17053,-0.1420603 -0.20017,-0.1626103 -0.0296,-0.0206 -0.089,-0.0686 -0.13197,-0.10678 -0.0429,-0.0382 -0.18152,-0.1490501 -0.30796,-0.2463702 -0.345086,-0.2656024 -0.629266,-0.5151326 -0.947116,-0.8316025 -0.42517,-0.4233299 -0.4548,-0.4491199 -0.79945,-0.6958698 -0.27892,-0.1996901 -0.29081,-0.2067301 -0.17708,-0.1048602 0.13946,0.12491 0.43523,0.4248002 0.54171,0.5492401 0.20742,0.2424099 0.7754,1.02983 0.90204,1.2505499 0.0419,0.073 0.0827,0.1408001 0.0908,0.1507202 0.0106,0.0131 0.006,0.0157 -0.0175,0.010001 -0.0177,-0.005 -0.0579,-0.0405 -0.0892,-0.0796 -0.0313,-0.0392 -0.10633,-0.1266301 -0.16671,-0.1943901 -0.0604,-0.0677 -0.14884,-0.18659 -0.19657,-0.2640899 -0.0492,-0.0799 -0.148739,-0.2065801 -0.229839,-0.2925601 -0.0787,-0.0834 -0.16538,-0.18702 -0.192661,-0.23026 -0.0887,-0.14058 -0.0795,-0.1382099 -0.28957,-0.0746 -0.38222,0.11566 -0.531869,0.1977602 -0.73332,0.40229 -0.161169,0.16364 -0.198289,0.2096 -0.35849,0.4438602 -0.0923,0.1349698 -0.2462,0.4080387 -0.22997,0.4080387 0.003,0 0.0737,-0.0476 0.156521,-0.1058488 0.15066,-0.1058601 0.26856,-0.1713101 0.308589,-0.1713101 0.0224,0 -0.005,0.0308 -0.32731,0.3690389 -0.1101,0.11551 -0.21252,0.23188 -0.22761,0.25859 l -0.0274,0.0486 0.0486,0.0251 c 0.0844,0.0437 0.32438,0.0107 0.687951,-0.0946 0.188379,-0.0545 0.290679,-0.0959 0.51474,-0.20835 0.269909,-0.135409 0.283139,-0.140249 0.380799,-0.13919 0.0803,8.73e-4 0.152411,0.0185 0.34938,0.0856 0.37885,0.128919 0.60711,0.218359 0.86044,0.337169 0.322881,0.15142 0.396551,0.20097 0.632341,0.42535 0.14945,0.142211 0.54979,0.445341 0.84586,0.64046 0.82126,0.54126 2.05036,1.160651 3.01028,1.51701 0.2425203,0.09 0.6040913,0.21517 0.6216213,0.215141 0.012,-1.1e-5 0.0178,-0.0662 0.0186,-0.21467 10e-4,-0.21643 0.0121,-0.262631 0.0617,-0.262631 0.0355,0 0.0493,0.0487 0.0655,0.23126 0.0109,0.12283 0.0295,0.21672 0.0609,0.30766 0.12037,0.34897 0.1532,0.428211 0.24484,0.590971 0.24013,0.426459 0.62435,0.804969 1.2288,1.21052 0.22544,0.15127 0.53079,0.338809 0.55163,0.33883 0.01,0 0.0597,0.0197 0.11061,0.0438 0.0509,0.0241 0.11907,0.0487 0.15151,0.0548 0.0361,0.007 0.0839,0.0338 0.12305,0.0695 0.0352,0.0321 0.0745,0.0623 0.0872,0.0671 0.0332,0.0125 -0.0828,0.0115 -0.20153,-0.002 l -0.10145,-0.0113 0.001,0.56641 c 7.41e-4,0.311531 0.004,0.566411 0.008,0.56642 0.004,0 0.177001,-0.0737 0.384941,-0.16374 z M 8.3513117,15.824407 c 0.22865,-0.0789 0.49542,-0.16532 0.59281,-0.19215 0.0974,-0.0268 0.28794,-0.0805 0.42345,-0.11927 0.1355,-0.0388 0.31046,-0.0879 0.38879,-0.10926 l 0.14243,-0.0388 v -0.0927 c 0,-0.051 -0.0113,-0.19454 -0.0252,-0.31895 -0.0333,-0.29908 -0.0293,-0.3165 0.0945,-0.41507 0.1143503,-0.091 0.4870203,-0.47416 0.5873803,-0.60393 l 0.0682,-0.0881 -0.0262,-0.0504 c -0.0144,-0.0277 -0.0489,-0.1155 -0.0767,-0.19503 -0.0277,-0.0795 -0.0561,-0.14969 -0.0629,-0.15592 -0.007,-0.006 -0.0714,-0.0305 -0.14334,-0.0539 -1.0736713,-0.3497 -2.4589413,-1.007949 -3.4044913,-1.617759 -0.0813,-0.0524 -0.16968,-0.10013 -0.19639,-0.106 -0.0485,-0.0107 -0.0486,-0.0106 -0.11793,0.133 -0.097,0.20096 -0.16319,0.46524 -0.17282,0.69045 -0.007,0.168229 -0.005,0.184659 0.0411,0.323359 0.18102,0.54298 0.642871,0.92426 1.864611,1.53928 0.19927,0.10031 0.37898,0.19589 0.39936,0.21239 l 0.0371,0.03 -0.0914,-0.0127 c -0.0503,-0.007 -0.155521,-0.033 -0.23389,-0.0577 l -0.14249,-0.0449 -0.23476,0.15429 c -0.31924,0.20982 -0.490431,0.34128 -0.62741,0.48184 l -0.11548,0.1185 0.44226,-0.01 c 0.4306,-0.01 0.44308,-0.009 0.473479,0.0213 0.0411,0.041 0.0394,0.0769 -0.006,0.14058 -0.183199,0.25439 -0.30602,0.45948 -0.33933,0.56663 -0.01,0.0318 -0.007,0.0354 0.0172,0.0257 0.0158,-0.006 0.21581,-0.0758 0.444471,-0.15462 z m -1.32776,-5.747969 c 0.0133,-0.5658802 0.0878,-0.88916 0.41186,-1.78671 0.0444,-0.1229302 0.22257,-0.48729 0.29234,-0.59777 0.0338,-0.0536 0.0615,-0.10341 0.0615,-0.11073 0,-0.026199 0.19477,-0.3070301 0.31566,-0.4551301 0.0677,-0.083 0.13791,-0.1730301 0.1559,-0.20007 0.10232,-0.15372 0.61752,-0.58313 0.95703,-0.7976801 0.17831,-0.11268 0.28835,-0.18653 0.44763,-0.3004 0.0229,-0.016301 0.0206,-0.023299 -0.0223,-0.0693 -0.0262,-0.0281 -0.0987,-0.1221399 -0.16094,-0.2089499 -0.0623,-0.0868 -0.12257,-0.1578301 -0.13399,-0.1578301 -0.0114,0 -0.0415,-0.0107 -0.0669,-0.023799 -0.0254,-0.0131 -0.0995,-0.0303 -0.16476,-0.0382 -0.21696,-0.0263 -0.42544,-0.0592 -0.52669,-0.0832 -0.055,-0.012999 -0.1226,-0.023799 -0.15013,-0.0239 -0.0285,-1.101e-4 -0.0627,-0.012901 -0.0794,-0.0296 -0.028,-0.028 -0.0294,-0.0623 -0.0308,-0.74295 -7.41e-4,-0.3924601 -0.008,-0.81559 -0.0152,-0.9402901 -0.008,-0.1247 -0.013,-0.2355702 -0.0119,-0.2463699 0.002,-0.020601 -0.0362,-0.1559701 -0.0772,-0.2737001 -0.0133,-0.0381 -0.0436,-0.1256401 -0.0673,-0.19451 -0.0238,-0.068901 -0.0704,-0.1797411 -0.103739,-0.2463712 -0.0333,-0.0666 -0.0692,-0.1488499 -0.0798,-0.1827299 -0.0249,-0.0796 -0.873941,-1.79192003 -0.90282,-1.82081003 -0.012,-0.012 -0.0405,-0.0473 -0.0632,-0.0783 -0.0712,-0.0974 -0.117431,-0.14265 -0.200131,-0.19596 -0.17965,-0.1158 -0.4239,-0.13441 -0.69744,-0.0531 -0.40485,0.1203 -0.66774,0.32603 -1.01249,0.79231003 -0.31993,0.43274 -0.54774,0.9227999 -0.73632,1.58402 -0.19369,0.6791101 -0.30409,1.3982302 -0.34742,2.2630301 -0.0344,0.6858201 0.0339,1.55692 0.18031,2.3009 0.0979,0.49745 0.380101,1.4421199 0.45699,1.5297499 0.10252,0.1168501 0.70921,0.6388701 0.85072,0.7319902 0.0423,0.0279 0.13935,0.1063699 0.21557,0.1744599 0.0762,0.0681 0.147,0.1238901 0.15728,0.1240099 0.0103,1.202e-4 0.0254,0.012801 0.0336,0.0281 0.008,0.015401 0.10374,0.0886 0.21227,0.1627 0.10852,0.0741 0.24582,0.1727604 0.3051,0.2192004 0.0593,0.0464 0.20038,0.14595 0.31356,0.22115 l 0.20577,0.13673 0.0349,-0.0376 c 0.0334,-0.0361 0.0352,-0.0514 0.0428,-0.37231 z m -0.33136,-3.7850601 c -0.005,-0.005 -0.0581,-0.0151 -0.11806,-0.022701 -0.06,-0.008 -0.2286,-0.0424 -0.37468,-0.0774 l -0.26561,-0.0637 -0.37491,-0.3716801 c -0.2062,-0.20443 -0.48662,-0.4929404 -0.62316,-0.6411502 -0.13653,-0.1482 -0.31947,-0.34016 -0.40653,-0.4265599 -0.11825,-0.1173602 -0.15829,-0.1670201 -0.15829,-0.1963201 0,-0.0469 0.0268,-0.0501 0.1251,-0.015399 0.12685,0.0448 0.34965,0.0709 0.47542,0.0558 0.23829,-0.0287 0.5342,-0.13012 1.03166,-0.35364 0.13127,-0.059 0.30796,-0.13301 0.39264,-0.16451 0.0847,-0.0315 0.19556,-0.0748 0.24637,-0.0962 0.0884,-0.0373 0.59503,-0.2251599 0.98547,-0.3654798 0.10162,-0.0365 0.2062,-0.0702 0.2324,-0.0749 l 0.0476,-0.009 -0.007,0.8729699 c -0.004,0.54537 -10e-4,0.9140402 0.009,0.9824302 0.0181,0.12739 0.0545,0.1902299 0.15575,0.2689199 0.0647,0.0503 0.1686,0.1777399 0.15394,0.18884 -0.006,0.004 -0.2092,0.0875 -0.87612,0.35834 -0.13126,0.0533 -0.29367,0.1111001 -0.3609,0.1284499 -0.11607,0.0299 -0.27026,0.0419 -0.28965,0.0225 z m -1.72535,-2.6790401 c -0.0641,-0.020299 -0.0821,-0.036 -0.13521,-0.1182204 -0.0897,-0.13877 -0.11417,-0.2335395 -0.11234,-0.4350097 0.004,-0.3950999 0.15186,-0.7651101 0.396,-0.9882401 0.26965,-0.24645 0.58461,-0.13211 0.65756,0.23871 0.044,0.22341 -0.008,0.4728699 -0.16419,0.7880201 -0.20953,0.4228301 -0.41404,0.5868399 -0.64182,0.5147401 z m 2.32044,6.2911202 c 0.0212,-0.0805 0.07,-0.2225001 0.10842,-0.3156501 0.0385,-0.0932 0.07,-0.1808099 0.0701,-0.1947799 2.3e-4,-0.0386 0.17929,-0.4070601 0.25391,-0.52241 0.0363,-0.056 0.16164,-0.22939 0.27865,-0.38525 0.38234,-0.50928 0.76801,-0.8619201 1.2383,-1.1322502 0.0805,-0.0463 0.16428,-0.0982 0.18623,-0.1153898 0.0428,-0.0336 0.6543903,-0.2526001 0.8549703,-0.30621 0.0668,-0.017801 0.20799,-0.046 0.31385,-0.0625 0.10586,-0.0165 0.24282,-0.0439 0.30436,-0.0607 0.5033,-0.13775 1.56057,-0.1517999 2.20284,-0.0293 0.22027,0.042 0.43056,0.0994 0.58007,0.1581298 0.25707,0.1010502 0.44,0.0443 0.82379,-0.25571 0.11433,-0.0894 0.24221,-0.1932099 0.28418,-0.2307699 l 0.0763,-0.0683 -4.23e-4,-0.1064501 c -4.5e-4,-0.1250299 -0.0214,-0.17237 -0.15642,-0.3545398 -0.13962,-0.1883 -0.27028,-0.3197302 -0.4581,-0.4608002 -0.75145,-0.56442 -1.17383,-0.7339798 -2.109151,-0.8467198 -0.280309,-0.0338 -1.036349,-0.0473 -1.30795,-0.0235 -0.23622,0.020799 -0.801389,0.1139399 -0.82981,0.1367898 -0.01,0.008 -0.0412,0.019399 -0.0696,0.025501 -0.16777,0.0359 -0.6391,0.2396205 -0.75181,0.3249404 -0.027,0.020399 -0.0682,0.0371 -0.0916,0.0371 -0.0923,0 0.0563,0.0553 0.24842,0.0925 0.10445,0.020201 0.20037,0.0752 0.21575,0.12363 0.009,0.0297 0.16414,0.2405801 0.26063,0.35525 l 0.0396,0.047 0.11927,-0.0387 c 0.473421,-0.15362 0.67147,-0.20179 0.92767,-0.2256401 0.1844,-0.017201 0.634151,-0.00201 0.658241,0.0219 0.0218,0.021799 -0.0258,0.0298 -0.25376,0.0428 -0.13354,0.008 -0.28482,0.0239 -0.33617,0.0362 -0.0514,0.012301 -0.10925,0.022299 -0.12866,0.022299 -0.0502,0 -0.191001,0.0371 -0.44404,0.1171498 -0.2447,0.0774 -0.366491,0.1276001 -0.4579713,0.18888 -0.0339,0.022701 -0.10317,0.0613 -0.15398,0.0857 -0.1133,0.0545 -0.41631,0.2438998 -0.59282,0.37054 -0.072,0.0516 -0.17246,0.12119 -0.22327,0.1545399 -0.10747,0.0705 -0.47696,0.43321 -0.63468,0.6229599 -0.0981,0.11806 -0.2503,0.32991 -0.4289,0.5970903 -0.0355,0.0532 -0.0976,0.1744199 -0.13794,0.2694598 -0.0403,0.0951 -0.12004,0.27675 -0.17712,0.4037801 -0.16154,0.35946 -0.23535,0.6022898 -0.33753,1.11046 -0.0589,0.2927 -0.0622,0.3240799 -0.0608,0.5697201 l 0.002,0.25995 0.0285,-0.14628 c 0.0157,-0.0804 0.0458,-0.2121 0.067,-0.2925601 z M 4.2498717,8.1914178 C 4.1264717,7.818168 3.9888317,7.2273179 3.9313117,6.823908 l -0.0252,-0.1770502 -0.0824,-0.0938 c -0.10758,-0.12254 -0.26873,-0.2527899 -0.38429,-0.3106098 -0.0988,-0.0494 -0.28302,-0.1110602 -0.42729,-0.1429501 -0.0487,-0.0108 -0.0885,-0.0249 -0.0885,-0.0314 0,-0.018899 0.164859,-0.0343 0.25999,-0.0244 0.20657,0.021601 0.406279,0.1172702 0.58358,0.2795802 l 0.10071,0.0922 -0.0111,-0.1076 c -0.0229,-0.222 -0.055,-0.7288501 -0.0553,-0.8718 l -2.4e-4,-0.14831 -0.0536,-0.0409 c -0.109541,-0.0836 -0.35736,-0.14546 -0.631561,-0.1577798 -0.178039,-0.008 -0.22264,-0.004 -0.403319,0.0322 -0.5413,0.1097301 -1.26803,0.4413602 -1.67763,0.7655501 -0.0979,0.0774 -0.42938004,0.4444601 -0.52999004,0.5867199 -0.0716,0.1012802 -0.2264,0.40385 -0.23878,0.4667801 l -0.009,0.0471 0.16785,-0.0338 c 0.60336004,-0.1214401 1.23051004,-0.0724 1.91054004,0.1493999 0.3265,0.1064799 0.91576,0.4147801 1.25793,0.6581301 0.0677,0.0482 0.15437,0.10667 0.19248,0.12997 0.0381,0.023299 0.16976,0.1445199 0.29256,0.2693799 0.12279,0.1248601 0.22572,0.2255499 0.22871,0.22376 0.003,-0.00201 -0.0228,-0.0886 -0.0572,-0.19285 z m 6.3209003,-1.0881 -0.0421,-0.0439 -0.10323,0.024699 -0.10323,0.024699 0.12319,0.017301 c 0.0677,0.010001 0.13314,0.018201 0.14531,0.019201 0.0137,0.00101 0.006,-0.014801 -0.02,-0.042 z M 8.7822817,5.099588 c 0.0202,-0.0327 0.24213,-0.1644904 0.45629,-0.2709802 0.21583,-0.1073401 0.27186,-0.12735 0.8442703,-0.3015898 0.0801,-0.0244 0.21506,-0.0585 0.3,-0.0758 0.0849,-0.017301 0.15766,-0.0347 0.16159,-0.0386 0.004,-0.004 0.0188,-0.0502 0.0329,-0.1029102 0.18144,-0.6736998 0.73366,-1.4627001 1.35393,-1.9344802 0.46786,-0.35584 0.73326,-0.47653 1.05476,-0.47964 0.0677,-6.509e-4 0.13704,-0.007 0.15398,-0.0137 0.0275,-0.0112 0.0259,-0.0136 -0.0154,-0.0226 -0.0254,-0.006 -0.0774,-0.0199 -0.115488,-0.032 -0.416011,-0.13211 -1.172711,-0.25202 -1.477711,-0.23417 -0.169139,0.01 -0.35567,0.0599 -0.56454,0.15131 -0.24477,0.10712 -0.46336,0.25258 -0.775561,0.51607 -0.0632,0.0533 -0.0859,0.0653 -0.0895,0.0473 -0.0258,-0.13067 0.432662,-0.49278 0.845031,-0.66739 0.0751,-0.0318 0.133849,-0.0606 0.13052,-0.0639 -0.0102,-0.0102 -0.46546,0.0593 -0.687001,0.10479 -0.4000893,0.0822 -1.1418393,0.39634 -1.4460793,0.61235 -0.12241,0.0869 -0.41375,0.3669702 -0.49399,0.4748702 l -0.0587,0.0789 0.0222,0.0737 c 0.0122,0.0405 0.0224,0.1227805 0.0227,0.1828404 2.91e-4,0.0601 0.0108,0.1507601 0.0232,0.2015699 0.0179,0.0728 0.0248,0.2716298 0.0327,0.9357501 0.01,0.8389202 0.0102,0.8434001 0.0422,0.8501401 0.0177,0.004 0.046,0.01 0.063,0.013301 0.061,0.012901 0.17546,0.010001 0.18461,-0.005 z M 13.736292,2.4662876 c -0.0109,-0.1760299 -0.13995,-0.3121499 -0.36047,-0.3801099 -0.11088,-0.0342 -0.14652,-0.0383 -0.26657,-0.031 -0.2575,0.0156 -0.44291,0.0683 -0.65572,0.18621 l -0.093,0.0515 0.0664,0.0393 c 0.0365,0.0216 0.0973,0.071 0.13503,0.1098001 l 0.0686,0.0705 0.45488,10e-4 c 0.25018,6.297e-4 0.48606,0.007 0.52417,0.0137 0.12231,0.0222 0.13148,0.0178 0.12661,-0.0611 z"
       id="path3724"
       inkscape:connector-curvature="0" />
  </g>
  <g
     id="g3769"
     inkscape:groupmode="layer"
     inkscape:label="B.Mask-disabled" />
  <g
     id="g3771"
     inkscape:groupmode="layer"
     inkscape:label="F.Mask-disabled" />
  <g
     id="g3773"
     inkscape:groupmode="layer"
     inkscape:label="Dwgs.User-disabled" />
  <g
     id="g3775"
     inkscape:groupmode="layer"
     inkscape:label="Cmts.User-disabled" />
  <g
     id="g3777"
     inkscape:groupmode="layer"
     inkscape:label="Eco1.User-disabled" />
  <g
     id="g3779"
     inkscape:groupmode="layer"
     inkscape:label="Eco2.User-disabled" />
  <g
     id="g3781"
     inkscape:groupmode="layer"
     inkscape:label="Edge.Cuts" />
  <g
     id="g3783"
     inkscape:groupmode="layer"
     inkscape:label="Margin-disabled" />
  <g
     id="g3785"
     inkscape:groupmode="layer"
     inkscape:label="B.CrtYd-disabled" />
  <g
     id="g3787"
     inkscape:groupmode="layer"
     inkscape:label="F.CrtYd-disabled" />
  <g
     id="g3789"
     inkscape:groupmode="layer"
     inkscape:label="B.Fab-disabled" />
  <g
     id="g3791"
     inkscape:groupmode="layer"
     inkscape:label="F.Fab-disabled" />
  <g
     id="g3793"
     inkscape:groupmode="layer"
     inkscape:label="Drill" />
</svg>
