<?xml version="1.0" encoding="UTF-8" standalone="no"?>
<!-- Created with Inkscape (http://www.inkscape.org/) -->

<svg
   xmlns:dc="http://purl.org/dc/elements/1.1/"
   xmlns:cc="http://creativecommons.org/ns#"
   xmlns:rdf="http://www.w3.org/1999/02/22-rdf-syntax-ns#"
   xmlns:svg="http://www.w3.org/2000/svg"
   xmlns="http://www.w3.org/2000/svg"
   xmlns:sodipodi="http://sodipodi.sourceforge.net/DTD/sodipodi-0.dtd"
   xmlns:inkscape="http://www.inkscape.org/namespaces/inkscape"
   sodipodi:docname="barrel-silk.svg"
   id="svg8"
   version="1.1"
   viewBox="0 0 70.54419 89.745446"
   height="89.745445mm"
   width="70.544189mm"
   inkscape:version="0.92.4 (5da689c313, 2019-01-14)">
  <defs
     id="defs2" />
  <sodipodi:namedview
     id="base"
     pagecolor="#ffffff"
     bordercolor="#666666"
     borderopacity="1.0"
     inkscape:pageopacity="0.0"
     inkscape:pageshadow="2"
     inkscape:zoom="2"
     inkscape:cx="16.091911"
     inkscape:cy="168.714"
     inkscape:document-units="mm"
     inkscape:current-layer="g838"
     showgrid="false"
     inkscape:window-width="1858"
     inkscape:window-height="1177"
     inkscape:window-x="54"
     inkscape:window-y="-8"
     inkscape:window-maximized="1"
     borderlayer="true"
     fit-margin-top="0"
     fit-margin-left="0"
     fit-margin-right="0"
     fit-margin-bottom="0">
    <inkscape:grid
       id="grid816"
       units="mm"
       type="xygrid"
       empspacing="1"
       spacingy="2.54"
       spacingx="2.54"
       originx="-29.385477"
       originy="-12.306968" />
  </sodipodi:namedview>
  <metadata
     id="metadata5">
    <rdf:RDF>
      <cc:Work
         rdf:about="">
        <dc:format>image/svg+xml</dc:format>
        <dc:type
           rdf:resource="http://purl.org/dc/dcmitype/StillImage" />
        <dc:title></dc:title>
      </cc:Work>
    </rdf:RDF>
  </metadata>
  <g
     id="g822"
     sodipodi:insensitive="true"
     inkscape:groupmode="layer"
     inkscape:label="[fixed] BG"
     transform="translate(-13.63668,-5.8387008)">
    <rect
       id="rect820"
       style="fill:#ffffff;fill-opacity:1;stroke:none"
       height="100"
       width="100"
       y="0"
       x="0" />
  </g>
  <g
     id="g824"
     inkscape:groupmode="layer"
     inkscape:label="Edge.Cuts"
     transform="translate(-13.63668,-5.8387008)" />
  <g
     id="g826"
     inkscape:groupmode="layer"
     inkscape:label="B.Cu-disabled"
     transform="translate(-13.63668,-5.8387008)" />
  <g
     id="g828"
     inkscape:groupmode="layer"
     inkscape:label="B.Mask-disabled"
     transform="translate(-13.63668,-5.8387008)" />
  <g
     id="g830"
     inkscape:groupmode="layer"
     inkscape:label="B.Silk-disabled"
     transform="translate(-13.63668,-5.8387008)" />
  <g
     id="g832"
     inkscape:groupmode="layer"
     inkscape:label="F.Cu"
     transform="translate(-13.63668,-5.8387008)" />
  <g
     id="g834"
     inkscape:groupmode="layer"
     inkscape:label="F.Mask-disabled"
     transform="translate(-13.63668,-5.8387008)" />
  <g
     id="g836"
     inkscape:groupmode="layer"
     inkscape:label="F.Silk-disabled"
     transform="translate(-13.63668,-5.8387008)" />
  <g
     id="g838"
     inkscape:groupmode="layer"
     inkscape:label="Drill"
     transform="translate(-13.63668,-5.8387008)">
    <g
       id="g1303">
      <path
         style="fill:#000000;fill-opacity:1;stroke:none;stroke-width:1;stroke-miterlimit:4;stroke-dasharray:none;stroke-opacity:0.97989951"
         d="m 47.52654,78.437954 c -6.30798,0.0051 -10.837194,-0.168926 -16.278526,-0.605626 -3.04654,-0.244499 -6.736637,-0.590623 -7.433896,-0.697132 -0.271074,-0.04141 -1.528044,-0.20855 -2.793068,-0.371323 -1.265014,-0.162775 -2.909881,-0.397259 -3.655339,-0.521104 l -1.355377,-0.225154 -0.09747,-0.489318 c -0.459141,-2.303122 -1.051243,-6.217872 -1.335891,-8.832035 -0.09106,-0.836331 -0.184394,-1.655069 -0.207443,-1.819288 l -0.0421,-0.298358 0.595142,0.115827 c 1.211881,0.236275 2.501124,0.445544 4.966201,0.806218 8.87864,1.299067 18.420474,1.934152 29.061502,1.934152 11.725643,0 21.956193,-0.75983 31.995108,-2.37627 0.564751,-0.09093 1.368419,-0.235543 1.785914,-0.321476 l 0.759037,-0.156284 -0.04164,0.297395 c -0.02293,0.16359 -0.116131,0.981753 -0.2072,1.818084 -0.305046,2.801471 -1.254379,8.942925 -1.403043,9.076454 -0.07199,0.06467 -4.218569,0.723691 -5.986093,0.951423 -1.061722,0.136791 -2.337,0.303729 -2.833979,0.371083 -1.128801,0.152983 -3.610562,0.402197 -5.708861,0.573117 -0.881002,0.07176 -2.248866,0.183209 -3.039505,0.247789 -1.543457,0.126073 -3.402872,0.237263 -6.284036,0.375658 -0.993941,0.04774 -4.431689,0.107675 -7.639417,0.133165 -0.981591,0.0078 -1.918872,0.01228 -2.820015,0.013 z"
         id="path1153-8-8-6"
         inkscape:connector-curvature="0"
         sodipodi:nodetypes="sccccccccccsscccccccccsccs" />
      <path
         sodipodi:nodetypes="sccccccccccsscccccccccsccs"
         inkscape:connector-curvature="0"
         id="path1153-8-8"
         d="m 50.291202,23.442727 c 6.307979,-0.0051 10.837194,0.168926 16.278526,0.605627 3.04654,0.244499 6.736637,0.590622 7.433896,0.697132 0.271073,0.04141 1.528044,0.208549 2.793067,0.371323 1.265014,0.162774 2.909882,0.397258 3.65534,0.521103 l 1.355377,0.225155 0.09747,0.489317 c 0.45914,2.303122 1.051243,6.217873 1.335891,8.832035 0.09106,0.836332 0.184393,1.65507 0.207442,1.819288 l 0.0421,0.298358 -0.595143,-0.115827 c -1.211881,-0.236275 -2.501123,-0.445544 -4.9662,-0.806218 -8.87864,-1.299066 -18.420474,-1.934152 -29.061502,-1.934152 -11.725644,0 -21.956193,0.75983 -31.995108,2.376271 -0.564751,0.09093 -1.368419,0.235542 -1.785914,0.321476 l -0.759037,0.156283 0.04164,-0.297395 c 0.02293,-0.16359 0.116132,-0.981752 0.2072,-1.818084 0.305047,-2.801471 1.25438,-8.942924 1.403044,-9.076454 0.07199,-0.06467 4.218568,-0.72369 5.986093,-0.951423 1.061722,-0.136791 2.336999,-0.303729 2.833979,-0.371082 1.128801,-0.152984 3.610562,-0.402198 5.708865,-0.573118 0.880997,-0.07176 2.248861,-0.183208 3.039501,-0.247789 1.543457,-0.126073 3.402871,-0.237263 6.284036,-0.375658 0.99394,-0.04774 4.431688,-0.107675 7.639417,-0.133165 0.98159,-0.0078 1.918871,-0.01228 2.820015,-0.013 z"
         style="fill:#000000;fill-opacity:1;stroke:none;stroke-width:1;stroke-miterlimit:4;stroke-dasharray:none;stroke-opacity:0.97989951" />
    </g>
  </g>
</svg>
