<?xml version="1.0" encoding="UTF-8" standalone="no"?>
<!-- Created with Inkscape (http://www.inkscape.org/) -->

<svg
   xmlns:dc="http://purl.org/dc/elements/1.1/"
   xmlns:cc="http://creativecommons.org/ns#"
   xmlns:rdf="http://www.w3.org/1999/02/22-rdf-syntax-ns#"
   xmlns:svg="http://www.w3.org/2000/svg"
   xmlns="http://www.w3.org/2000/svg"
   xmlns:sodipodi="http://sodipodi.sourceforge.net/DTD/sodipodi-0.dtd"
   xmlns:inkscape="http://www.inkscape.org/namespaces/inkscape"
   sodipodi:docname="barrel-outline.svg"
   id="svg8"
   version="1.1"
   viewBox="0 0 70.54419 89.745446"
   height="89.745445mm"
   width="70.544189mm"
   inkscape:version="0.92.4 (5da689c313, 2019-01-14)">
  <defs
     id="defs2" />
  <sodipodi:namedview
     id="base"
     pagecolor="#ffffff"
     bordercolor="#666666"
     borderopacity="1.0"
     inkscape:pageopacity="0.0"
     inkscape:pageshadow="2"
     inkscape:zoom="2.8284271"
     inkscape:cx="132.71606"
     inkscape:cy="178.23329"
     inkscape:document-units="mm"
     inkscape:current-layer="g838"
     showgrid="false"
     inkscape:window-width="1858"
     inkscape:window-height="1177"
     inkscape:window-x="54"
     inkscape:window-y="-8"
     inkscape:window-maximized="1"
     borderlayer="true"
     fit-margin-top="0"
     fit-margin-left="0"
     fit-margin-right="0"
     fit-margin-bottom="0">
    <inkscape:grid
       id="grid816"
       units="mm"
       type="xygrid"
       empspacing="1"
       spacingy="2.54"
       spacingx="2.54"
       originx="-29.385477"
       originy="-12.306968" />
  </sodipodi:namedview>
  <metadata
     id="metadata5">
    <rdf:RDF>
      <cc:Work
         rdf:about="">
        <dc:format>image/svg+xml</dc:format>
        <dc:type
           rdf:resource="http://purl.org/dc/dcmitype/StillImage" />
        <dc:title></dc:title>
      </cc:Work>
    </rdf:RDF>
  </metadata>
  <g
     id="g822"
     sodipodi:insensitive="true"
     inkscape:groupmode="layer"
     inkscape:label="[fixed] BG"
     transform="translate(-13.63668,-5.8387008)">
    <rect
       id="rect820"
       style="fill:#ffffff;fill-opacity:1;stroke:none"
       height="100"
       width="100"
       y="0"
       x="0" />
  </g>
  <g
     id="g824"
     inkscape:groupmode="layer"
     inkscape:label="Edge.Cuts"
     transform="translate(-13.63668,-5.8387008)" />
  <g
     id="g826"
     inkscape:groupmode="layer"
     inkscape:label="B.Cu-disabled"
     transform="translate(-13.63668,-5.8387008)" />
  <g
     id="g828"
     inkscape:groupmode="layer"
     inkscape:label="B.Mask-disabled"
     transform="translate(-13.63668,-5.8387008)" />
  <g
     id="g830"
     inkscape:groupmode="layer"
     inkscape:label="B.Silk-disabled"
     transform="translate(-13.63668,-5.8387008)" />
  <g
     id="g832"
     inkscape:groupmode="layer"
     inkscape:label="F.Cu"
     transform="translate(-13.63668,-5.8387008)" />
  <g
     id="g834"
     inkscape:groupmode="layer"
     inkscape:label="F.Mask-disabled"
     transform="translate(-13.63668,-5.8387008)" />
  <g
     id="g836"
     inkscape:groupmode="layer"
     inkscape:label="F.Silk-disabled"
     transform="translate(-13.63668,-5.8387008)" />
  <g
     id="g838"
     inkscape:groupmode="layer"
     inkscape:label="Drill"
     transform="translate(-13.63668,-5.8387008)">
    <path
       id="path2580"
       style="display:inline;fill:none;stroke:#000000;stroke-width:0.1;stroke-linecap:round;stroke-linejoin:miter;stroke-miterlimit:4;stroke-dasharray:none;stroke-opacity:1"
       d="m 38.758866,87.131317 v 8.04477 l 0.354992,0.355 H 49.60386 l 0.355,-0.355 v -7.095 c 5.03e-4,-1.2664 1.90063,-1.2664 1.9,0 v 7.095 l 0.355,0.355 h 6.49 l 0.355,-0.355 v -8.04477 l 2.5,-2.2e-4 v 8.399991 c 0.06966,-0.0041 0.140243,-0.0044 0.213733,-0.0087 0.146979,-0.0085 0.301022,-0.01744 0.459736,-0.02654 0.634857,-0.03656 1.344448,-0.07704 1.975531,-0.112641 1.262171,-0.07119 2.711551,-0.166064 3.220844,-0.210834 0.509298,-0.04477 1.487628,-0.119994 2.174069,-0.167174 0.686441,-0.04718 1.483601,-0.119864 1.771464,-0.161554 0.475278,-0.06882 0.978912,-0.125705 3.502667,-0.395658 1.013339,-0.10839 1.218022,-0.190676 1.409904,-0.566868 0.639989,-1.254692 2.296946,-5.928415 3.268635,-9.219711 0.59628,-2.019708 1.997875,-7.619677 2.358352,-9.422588 0.740014,-3.701207 1.24906,-7.253305 1.621552,-11.315156 0.481764,-5.253411 0.595606,-7.754871 0.595606,-13.086924 0,-4.619948 -0.05988,-6.347703 -0.355864,-10.268202 -0.08528,-1.129502 -0.174666,-2.336136 -0.198656,-2.681408 -0.193015,-2.778208 -1.196151,-9.531983 -1.728011,-11.634085 -0.08679,-0.343053 -0.324093,-1.384788 -0.52733,-2.314967 C 80.207325,18.840599 78.578343,13.439612 76.854784,9.1297997 76.122355,7.2983395 76.192902,7.3662588 74.876905,7.2254955 72.351361,6.955355 71.849512,6.8986373 71.374238,6.8296303 71.086375,6.7878353 70.271095,6.7148995 69.562513,6.6675505 68.853927,6.6202014 67.875597,6.5448517 67.388445,6.5001037 66.901293,6.4553577 65.470032,6.360716 64.207861,6.289791 62.945695,6.2188651 61.369498,6.1282963 60.705198,6.0885243 57.882322,5.9195228 48.969223,5.8347628 43.614603,5.9260028 40.702758,5.9756188 37.77682,6.0487523 37.112521,6.0885243 36.448226,6.1282953 34.872024,6.218865 33.609858,6.289791 c -1.262166,0.070925 -2.693432,0.1655687 -3.180584,0.2103127 -0.487152,0.044747 -1.465482,0.1200978 -2.174068,0.1674468 -0.708587,0.047349 -1.523857,0.1202858 -1.81172,0.1620798 -0.475283,0.069007 -0.977128,0.1257247 -3.502667,0.3958652 -1.012835,0.108335 -1.218063,0.1907626 -1.409519,0.5661071 -0.636192,1.2472629 -2.27845,5.8706414 -3.260867,9.1802054 -0.671453,2.261981 -1.90243,7.287355 -2.544818,10.389004 -0.500997,2.418993 -1.332644,8.319326 -1.483679,10.526318 -0.02362,0.345272 -0.112966,1.551906 -0.198546,2.681408 -0.296525,3.913889 -0.356625,5.644293 -0.356625,10.268202 0,5.356246 0.106078,7.681248 0.597105,13.086924 0.435816,4.797807 1.185347,9.667534 2.014293,13.086924 1.584254,6.535043 2.101976,8.382428 3.396744,12.120508 0.540372,1.560092 1.571652,4.231766 1.825877,4.730162 0.203054,0.398094 0.393983,0.476986 1.420035,0.586729 2.523745,0.269953 3.027379,0.326838 3.502667,0.395658 0.287863,0.04168 1.085019,0.114384 1.771459,0.161554 0.686441,0.04718 1.664771,0.122404 2.174069,0.167174 0.509296,0.04476 1.958678,0.13939 3.220844,0.210279 0.631082,0.03545 1.345204,0.07651 1.987359,0.114118 0.160539,0.0094 0.31658,0.01859 0.465702,0.02742 0.07456,0.0044 0.125141,0.0027 0.19594,0.0069 l 0,-8.399993 z"
       inkscape:connector-curvature="0"
       sodipodi:nodetypes="cccccccccccccccccccccccccccccccccccccccccccccccccccccccccccccccc" />
  </g>
</svg>
