<?xml version="1.0" encoding="UTF-8" standalone="no"?>
<!-- Generator: Adobe Illustrator 13.0.2, SVG Export Plug-In . SVG Version: 6.00 Build 14948)  -->

<svg
   xmlns:dc="http://purl.org/dc/elements/1.1/"
   xmlns:cc="http://creativecommons.org/ns#"
   xmlns:rdf="http://www.w3.org/1999/02/22-rdf-syntax-ns#"
   xmlns:svg="http://www.w3.org/2000/svg"
   xmlns="http://www.w3.org/2000/svg"
   xmlns:sodipodi="http://sodipodi.sourceforge.net/DTD/sodipodi-0.dtd"
   xmlns:inkscape="http://www.inkscape.org/namespaces/inkscape"
   version="1.0"
   id="svg2"
   sodipodi:docname="big-banana.svg"
   inkscape:version="0.92.4 (5da689c313, 2019-01-14)"
   sodipodi:version="0.32"
   inkscape:output_extension="org.inkscape.output.svg.inkscape"
   x="0px"
   y="0px"
   width="321.70956"
   height="655.13049"
   viewBox="0 0 321.70956 655.13049"
   enable-background="new 0 0 300 300"
   xml:space="preserve"><metadata
   id="metadata44"><rdf:RDF><cc:Work
       rdf:about=""><dc:format>image/svg+xml</dc:format><dc:type
         rdf:resource="http://purl.org/dc/dcmitype/StillImage" /><dc:title></dc:title></cc:Work></rdf:RDF></metadata><defs
   id="defs42"><inkscape:perspective
   sodipodi:type="inkscape:persp3d"
   inkscape:vp_x="0 : 150 : 1"
   inkscape:vp_y="0 : 1000 : 0"
   inkscape:vp_z="300 : 150 : 1"
   inkscape:persp3d-origin="150 : 100 : 1"
   id="perspective46" />
	
	
	
	
	
	
	
	
	
	
	
	
	
	
	
</defs><sodipodi:namedview
   id="base"
   gridtolerance="10000"
   objecttolerance="10"
   showgrid="false"
   guidetolerance="10"
   borderopacity="1.0"
   bordercolor="#666666"
   inkscape:cy="176.98521"
   inkscape:cx="398.22757"
   inkscape:zoom="0.70710678"
   pagecolor="#ffffff"
   inkscape:document-units="px"
   inkscape:current-layer="svg2"
   inkscape:window-width="1858"
   inkscape:window-height="1177"
   inkscape:window-x="54"
   inkscape:window-y="-8"
   inkscape:pageopacity="0.0"
   inkscape:pageshadow="2"
   fit-margin-top="0"
   fit-margin-left="0"
   fit-margin-right="0"
   fit-margin-bottom="0"
   inkscape:window-maximized="1">
	</sodipodi:namedview>
<path
   style="fill:none;stroke:#000000;stroke-width:0.5;stroke-miterlimit:4;stroke-dasharray:none"
   inkscape:connector-curvature="0"
   id="path12"
   d="M 164.45047,572.59105 C 154.95737,530.81948 144.7063,475.18611 144.11994,417.97743 142.9367,303.56547 228.28043,108.2085 250.9618,88.151458 c 22.684,-20.06499 51.58028,-35.68788 51.58028,-35.68788 0,0 12.67153,-6.155425 16.89084,-5.475786 4.21931,0.67965 1.8069,-22.122058 -6.84262,-32.99303 C 303.94344,3.1237584 295.72415,3.0950674 288.62069,1.5249294 c -7.10882,-1.57534499 -13.09922,-4.692178 -19.78865,12.7717336 -7.71602,20.147555 -52.69911,45.418252 -52.69911,45.418252 0,0 -21.07433,-19.763095 -67.30017,-1.322973 C -10.251166,121.85789 -21.800596,409.53056 22.891944,530.49667 c 12.85634,34.14944 38.44325,73.14562 77.143706,92.63663 v 30.40543 l 1.34171,1.34174 h 39.64724 l 1.34173,-1.34174 v -26.81574 c 0.002,-4.7864 7.18351,-4.7864 7.18111,0 v 26.81574 l 1.34173,1.34174 h 24.52913 l 1.34174,-1.34174 1.1e-4,-30.40561 c -3.06472,-12.41907 -7.56314,-29.65628 -12.30968,-50.54207 z"
   sodipodi:nodetypes="sccccccccccccccccccccccs" />
</svg>