<?xml version="1.0" encoding="UTF-8" standalone="no"?>
<!-- Created with Inkscape (http://www.inkscape.org/) -->

<svg
   xmlns:dc="http://purl.org/dc/elements/1.1/"
   xmlns:cc="http://creativecommons.org/ns#"
   xmlns:rdf="http://www.w3.org/1999/02/22-rdf-syntax-ns#"
   xmlns:svg="http://www.w3.org/2000/svg"
   xmlns="http://www.w3.org/2000/svg"
   xmlns:sodipodi="http://sodipodi.sourceforge.net/DTD/sodipodi-0.dtd"
   xmlns:inkscape="http://www.inkscape.org/namespaces/inkscape"
   sodipodi:docname="metal.svg"
   inkscape:version="0.92.2 (5c3e80d, 2017-08-06)"
   id="svg840"
   version="1.1"
   viewBox="0 0 23.405552 4.5"
   height="4.5mm"
   width="23.405552mm">
  <defs
     id="defs834" />
  <sodipodi:namedview
     fit-margin-bottom="0"
     fit-margin-right="0"
     fit-margin-left="0"
     fit-margin-top="0"
     inkscape:window-maximized="1"
     inkscape:window-y="-8"
     inkscape:window-x="55"
     inkscape:window-height="1057"
     inkscape:window-width="1857"
     showgrid="false"
     inkscape:current-layer="layer1"
     inkscape:document-units="mm"
     inkscape:cy="-4.3020092"
     inkscape:cx="53.204162"
     inkscape:zoom="15.839192"
     inkscape:pageshadow="2"
     inkscape:pageopacity="0.0"
     borderopacity="1.0"
     bordercolor="#666666"
     pagecolor="#ffffff"
     id="base" />
  <metadata
     id="metadata837">
    <rdf:RDF>
      <cc:Work
         rdf:about="">
        <dc:format>image/svg+xml</dc:format>
        <dc:type
           rdf:resource="http://purl.org/dc/dcmitype/StillImage" />
        <dc:title></dc:title>
      </cc:Work>
    </rdf:RDF>
  </metadata>
  <g
     inkscape:label="Layer 1"
     inkscape:groupmode="layer"
     id="layer1"
     transform="translate(-4.797224,-292.24999)">
    <path
       inkscape:connector-curvature="0"
       id="path1437"
       style="fill:#000000;fill-opacity:1;fill-rule:nonzero;stroke:none;stroke-width:0.03527777"
       d="M 6.983251,292.36149 C 6.983251,292.29989 6.9333237,292.24999 6.8717198,292.24999 H 6.4711645 C 6.4095899,292.24999 6.3596516,292.29989 6.3596516,292.36149 V 294.38695 H 6.983251 Z"
       sodipodi:nodetypes="ssssccs" />
    <path
       inkscape:connector-curvature="0"
       id="path1439"
       style="fill:#000000;fill-opacity:1;fill-rule:nonzero;stroke:none;stroke-width:0.03527777"
       d="M 7.6551582,294.9989 V 294.76678 C 7.8810136,294.66695 8.1908063,294.66501 8.4440437,294.76678 V 294.9989 Z"
       sodipodi:nodetypes="ccccc" />
    <path
       inkscape:connector-curvature="0"
       id="path1441"
       style="fill:#000000;fill-opacity:1;fill-rule:nonzero;stroke:none;stroke-width:0.03527777"
       d="M 6.0518623,294.52183 C 6.0518623,294.56464 6.0865486,294.59927 6.1293215,294.59927 H 7.2135921 C 7.2563504,294.59927 7.2910403,294.56464 7.2910403,294.52183 7.2910403,294.47905 7.2563504,294.44439 7.2135921,294.44439 H 6.1293215 C 6.0865486,294.44439 6.0518623,294.47905 6.0518623,294.52183 Z"
       sodipodi:nodetypes="ssssscs" />
    <path
       inkscape:connector-curvature="0"
       id="path1443"
       style="fill:#000000;fill-opacity:1;fill-rule:nonzero;stroke:none;stroke-width:0.03527777"
       d="M 5.9279526,294.72317 C 5.9279526,294.76598 5.9626242,294.80067 6.0053934,294.80067 H 7.3375055 C 7.3802784,294.80067 7.4149354,294.76598 7.4149354,294.72317 7.4149354,294.68043 7.3802784,294.6457 7.3375055,294.6457 H 6.0053934 C 5.9626242,294.6457 5.9279526,294.68043 5.9279526,294.72317 Z"
       sodipodi:nodetypes="ssssscs" />
    <path
       inkscape:connector-curvature="0"
       id="path1445"
       style="fill:#000000;fill-opacity:1;fill-rule:nonzero;stroke:none;stroke-width:0.03527777"
       d="M 5.8195178,294.92457 C 5.8195178,294.96734 5.8542077,295.002 5.896977,295.002 H 7.4459366 C 7.4887095,295.002 7.5233665,294.96734 7.5233665,294.92457 7.5233665,294.88175 7.4887095,294.8471 7.4459366,294.8471 H 5.896977 C 5.8542077,294.8471 5.8195178,294.88175 5.8195178,294.92457 Z"
       sodipodi:nodetypes="ssssscs" />
    <path
       inkscape:connector-curvature="0"
       id="path1447"
       style="fill:#000000;fill-opacity:1;fill-rule:nonzero;stroke:none;stroke-width:0.03527777"
       d="M 23.445591,295.16676 H 24.171085 V 293.85017 H 23.445591 Z"
       sodipodi:nodetypes="ccccc" />
    <path
       inkscape:connector-curvature="0"
       id="path1449"
       style="fill:#000000;fill-opacity:1;fill-rule:nonzero;stroke:none;stroke-width:0.03527777"
       d="M 26.127926,293.62855 C 26.362372,293.86307 26.486304,294.15002 26.486304,294.45843 26.486304,294.7748 26.352319,295.0976 26.127926,295.32207 26.091587,295.3583 26.091587,295.41719 26.127926,295.45353 26.164118,295.48983 26.223013,295.48983 26.259315,295.45353 26.51789,295.19498 26.672201,294.82298 26.672201,294.45843 26.672201,294.09964 26.529406,293.76722 26.259315,293.49713 26.223013,293.46082 26.164118,293.46082 26.127926,293.49713 26.091587,293.53347 26.091587,293.59229 26.127926,293.62855 Z"
       sodipodi:nodetypes="cscccsccc" />
    <path
       inkscape:connector-curvature="0"
       id="path1451"
       style="fill:#000000;fill-opacity:1;fill-rule:nonzero;stroke:none;stroke-width:0.03527777"
       d="M 26.698304,293.21201 C 27.488981,294.00276 27.319205,295.11764 26.698304,295.73861 26.662002,295.77494 26.662002,295.83374 26.698304,295.87003 26.734569,295.90634 26.793391,295.90634 26.82973,295.87003 27.515266,295.18443 27.702735,293.95359 26.82973,293.08058 26.793391,293.04428 26.734533,293.04428 26.698304,293.08055 26.662002,293.11681 26.662002,293.17571 26.698304,293.21201 Z"
       sodipodi:nodetypes="ccccccc" />
    <path
       inkscape:connector-curvature="0"
       id="path1453"
       style="fill:#000000;fill-opacity:1;fill-rule:nonzero;stroke:none;stroke-width:0.03527777"
       d="M 27.230845,292.61692 C 27.745106,293.13114 28.016879,293.76144 28.016879,294.43973 28.016879,295.13351 27.723062,295.84152 27.230845,296.33377 27.194542,296.36999 27.194542,296.4289 27.230845,296.46516 27.267183,296.50146 27.326042,296.50146 27.362271,296.46516 27.888596,295.93891 28.202776,295.18169 28.202776,294.43973 28.202776,293.71106 27.912176,293.03533 27.362271,292.48549 27.326042,292.44919 27.267183,292.44919 27.230845,292.48549 27.194542,292.52176 27.194542,292.58062 27.230845,292.61692 Z"
       sodipodi:nodetypes="cscccsccc" />
    <path
       inkscape:connector-curvature="0"
       id="path1455"
       style="fill:#000000;fill-opacity:1;fill-rule:nonzero;stroke:none;stroke-width:0.03527777"
       d="M 8.434173,296.7419 H 4.9087259 C 4.8471476,296.7419 4.797224,296.69203 4.797224,296.63037 V 295.17612 C 4.797224,295.11456 4.8471476,295.06463 4.9087259,295.06463 H 8.434173 C 8.4957733,295.06463 8.5457115,295.11456 8.5457115,295.17612 V 296.63037 C 8.5457115,296.69203 8.4957733,296.7419 8.434173,296.7419 Z"
       sodipodi:nodetypes="ssssssscs" />
    <path
       inkscape:connector-curvature="0"
       id="path1457"
       style="fill:#000000;fill-opacity:1;fill-rule:nonzero;stroke:none;stroke-width:0.03527777"
       d="M 10.309636,296.64287 C 10.287372,296.66236 10.260612,296.67216 10.229464,296.67216 10.19934,296.67216 10.173201,296.66239 10.150938,296.64287 10.128601,296.62339 10.117487,296.59583 10.117487,296.5601 V 296.23079 L 9.8749977,296.62057 C 9.8460437,296.66656 9.8136899,296.68959 9.7780093,296.68959 9.7433888,296.68959 9.7116565,296.66667 9.682666,296.62093 L 9.439811,296.23079 V 296.5601 C 9.439811,296.59583 9.4286608,296.62339 9.406397,296.64287 9.3840966,296.66239 9.3574092,296.67216 9.3262253,296.67216 9.2961014,296.67216 9.2699625,296.66236 9.2476621,296.64287 9.2253982,296.62332 9.214248,296.59574 9.214248,296.56003 V 295.83742 C 9.214248,295.79732 9.2242649,295.76548 9.2443353,295.74208 9.2643691,295.71868 9.2883511,295.70698 9.3162084,295.70698 9.3585425,295.70698 9.3941866,295.73049 9.4231771,295.7775 L 9.7781921,296.3473 10.136095,295.77747 C 10.165012,295.73042 10.200035,295.70698 10.241272,295.70698 10.269057,295.70698 10.293002,295.71868 10.312999,295.74208 10.333033,295.76548 10.34305,295.79732 10.34305,295.83742 V 296.56003 C 10.34305,296.59574 10.3319,296.62332 10.309636,296.64287 Z"
       sodipodi:nodetypes="cscsccsccscscsscscccscscc" />
    <path
       inkscape:connector-curvature="0"
       id="path1459"
       style="fill:#000000;fill-opacity:1;fill-rule:nonzero;stroke:none;stroke-width:0.03527777"
       d="M 11.939173,296.22198 H 12.15004 L 12.044826,296.05126 Z M 11.822992,296.42144 11.690871,296.62243 C 11.667437,296.65812 11.636217,296.67603 11.597173,296.67603 11.565989,296.67603 11.538607,296.66517 11.51521,296.64335 11.491813,296.62166 11.480078,296.59516 11.480078,296.56391 11.480078,296.5427 11.486219,296.52204 11.498466,296.50198 L 11.894938,295.86108 C 11.946265,295.77831 11.99646,295.73696 12.04552,295.73696 12.078971,295.73696 12.109058,295.7498 12.135855,295.77546 12.152599,295.79104 12.173729,295.81951 12.199393,295.86083 L 12.59422,296.50179 C 12.606467,296.52208 12.612608,296.54299 12.612608,296.56443 12.612608,296.596 12.600617,296.62248 12.576635,296.64394 12.552653,296.66532 12.5256,296.67603 12.49555,296.67603 12.456469,296.67603 12.425249,296.65863 12.401851,296.62374 L 12.267976,296.42144 Z"
       sodipodi:nodetypes="ccccccscsccscccscsccc" />
    <path
       inkscape:connector-curvature="0"
       id="path1461"
       style="fill:#000000;fill-opacity:1;fill-rule:nonzero;stroke:none;stroke-width:0.03527777"
       d="M 14.728696,296.67413 H 13.825092 C 13.750367,296.67413 13.712968,296.63618 13.712968,296.56025 V 295.83725 C 13.712968,295.76139 13.750294,295.72348 13.824946,295.72348 H 14.727197 C 14.762842,295.72348 14.790662,295.73459 14.810733,295.75689 14.830839,295.77911 14.840783,295.80599 14.840783,295.83716 14.840783,295.86842 14.830839,295.89516 14.810769,295.91742 14.790735,295.93975 14.762915,295.95093 14.727271,295.95093 H 13.937581 V 296.44659 H 14.616207 V 296.313 H 14.276693 C 14.241012,296.313 14.213155,296.30182 14.193121,296.27956 14.173014,296.25718 14.162961,296.23049 14.162961,296.19924 14.162961,296.16806 14.173014,296.14127 14.193121,296.11896 14.213155,296.09665 14.241085,296.0855 14.276803,296.0855 H 14.840783 V 296.56033 C 14.840783,296.63618 14.803457,296.67413 14.728696,296.67413 Z"
       sodipodi:nodetypes="sssssscscsccccscscsccs" />
    <path
       inkscape:connector-curvature="0"
       id="path1463"
       style="fill:#000000;fill-opacity:1;fill-rule:nonzero;stroke:none;stroke-width:0.03527777"
       d="M 16.35593,296.313 V 296.56021 C 16.35593,296.59586 16.344744,296.62342 16.322407,296.64291 16.299997,296.66239 16.273748,296.67216 16.243661,296.67216 16.213427,296.67216 16.187215,296.66236 16.164842,296.64287 16.142432,296.62332 16.131354,296.59574 16.131354,296.56003 V 295.83716 C 16.131354,295.76139 16.16868,295.72348 16.243368,295.72348 H 17.146753 C 17.182398,295.72348 17.210328,295.73459 17.230435,295.75689 17.250469,295.77911 17.260485,295.80599 17.260485,295.83716 17.260485,295.86842 17.250469,295.89516 17.230435,295.91742 17.210328,295.93975 17.182471,295.95093 17.146827,295.95093 H 16.35593 V 296.0855 H 17.146827 C 17.182471,296.0855 17.210328,296.09665 17.230435,296.11896 17.250469,296.14127 17.260485,296.16806 17.260485,296.19924 17.260485,296.23049 17.250469,296.25718 17.230435,296.27956 17.210328,296.30182 17.182471,296.313 17.146827,296.313 Z"
       sodipodi:nodetypes="cscscsssscscsccscsccc" />
    <path
       inkscape:connector-curvature="0"
       id="path1465"
       style="fill:#000000;fill-opacity:1;fill-rule:nonzero;stroke:none;stroke-width:0.03527777"
       d="M 18.601507,296.67413 C 18.526782,296.67413 18.489456,296.63618 18.489456,296.56025 V 295.83725 C 18.489456,295.76139 18.526782,295.72348 18.601507,295.72348 H 19.504855 C 19.540573,295.72348 19.56843,295.73459 19.588537,295.75689 19.608534,295.77911 19.618587,295.80599 19.618587,295.83716 19.618587,295.86842 19.608534,295.89516 19.588537,295.91742 19.56843,295.93975 19.540609,295.95093 19.504929,295.95093 H 18.714069 V 296.0855 H 19.504929 C 19.540609,296.0855 19.56843,296.09665 19.588537,296.11896 19.608534,296.14127 19.618587,296.16806 19.618587,296.19924 19.618587,296.23049 19.608534,296.25718 19.588537,296.27956 19.56843,296.30182 19.540609,296.313 19.504929,296.313 H 18.714069 V 296.44659 H 19.504929 C 19.540609,296.44659 19.56843,296.4577 19.588537,296.48009 19.608534,296.50231 19.618587,296.52914 19.618587,296.56033 19.618587,296.59159 19.608534,296.6183 19.588537,296.64068 19.56843,296.6629 19.540573,296.67413 19.504855,296.67413 Z"
       sodipodi:nodetypes="ssssscscsccscscsccscsccs" />
    <path
       inkscape:connector-curvature="0"
       id="path1467"
       style="fill:#000000;fill-opacity:1;fill-rule:nonzero;stroke:none;stroke-width:0.03527777"
       d="M 21.899442,296.67413 H 20.99635 C 20.960705,296.67413 20.933068,296.6629 20.913582,296.64068 20.89406,296.6183 20.884336,296.59159 20.884336,296.56033 20.884336,296.52914 20.894097,296.50231 20.913582,296.48009 20.933141,296.4577 20.960705,296.44659 20.996423,296.44659 H 21.787575 V 296.313 H 20.996423 C 20.921698,296.313 20.884336,296.27506 20.884336,296.19909 V 295.83732 C 20.884336,295.76139 20.921698,295.72348 20.99635,295.72348 H 21.899442 C 21.93505,295.72348 21.96298,295.73459 21.98305,295.75689 22.003048,295.77911 22.013138,295.80599 22.013138,295.83716 22.013138,295.86842 22.003048,295.89516 21.98305,295.91742 21.96298,295.93975 21.93505,295.95093 21.899442,295.95093 H 21.109899 V 296.0855 H 21.899442 C 21.975227,296.0855 22.013138,296.12335 22.013138,296.19917 V 296.56033 C 22.013138,296.63618 21.975227,296.67413 21.899442,296.67413 Z"
       sodipodi:nodetypes="sscscsccssssssscsccsscs" />
    <path
       inkscape:connector-curvature="0"
       id="path1469"
       style="fill:#000000;fill-opacity:1;fill-rule:nonzero;stroke:none;stroke-width:0.03527777"
       d="M 23.873575,295.95093 V 296.56003 C 23.873575,296.59574 23.862462,296.62332 23.840161,296.64287 23.817934,296.66236 23.791137,296.67216 23.75999,296.67216 23.729902,296.67216 23.70369,296.66236 23.681463,296.64287 23.659126,296.62332 23.648012,296.59574 23.648012,296.56003 V 295.95093 H 23.307913 C 23.272123,295.95093 23.244266,295.93975 23.224159,295.91742 23.203979,295.89516 23.193998,295.86842 23.193998,295.83716 23.193998,295.80599 23.203979,295.77911 23.224086,295.75689 23.244192,295.73459 23.272013,295.72348 23.30773,295.72348 H 24.211079 C 24.246796,295.72348 24.27469,295.73459 24.29476,295.75689 24.314758,295.77911 24.324811,295.80599 24.324811,295.83716 24.324811,295.86842 24.314794,295.89516 24.29476,295.91742 24.274727,295.93975 24.246833,295.95093 24.211225,295.95093 Z"
       sodipodi:nodetypes="cscscscscscssssccc" />
    <path
       inkscape:connector-curvature="0"
       id="path1471"
       style="fill:#000000;fill-opacity:1;fill-rule:nonzero;stroke:none;stroke-width:0.03527777"
       d="M 24.263978,295.17079 25.843212,296.74999 V 292.26699 L 24.263978,293.84622 Z"
       sodipodi:nodetypes="ccccc" />
    <path
       inkscape:connector-curvature="0"
       id="path1473"
       style="fill:#000000;fill-opacity:1;fill-rule:nonzero;stroke:none;stroke-width:0.03527777"
       d="M 23.00514,295.15416 H 22.142005 C 22.142334,294.90432 22.145624,292.57473 22.145624,292.57473 H 19.298668 V 295.14265 H 17.002934 V 292.57473 H 14.156125 V 295.14265 H 11.860318 V 292.57473 H 9.0136176 V 295.14265 H 8.6391538 V 295.42143 H 9.2924456 V 292.85356 H 11.581526 V 295.42143 H 14.434953 V 292.85356 H 16.724106 V 295.42143 H 19.577533 V 292.85356 H 21.866394 C 21.866065,293.10336 21.862775,295.43295 21.862775,295.43295 H 23.283931 V 294.69348 H 23.35266 V 294.41469 H 23.00514 Z"
       sodipodi:nodetypes="ccccccccccccccccccccccccccccccccc" />
  </g>
</svg>
