<?xml version="1.0" encoding="UTF-8" standalone="no"?>
<!-- Created with Inkscape (http://www.inkscape.org/) -->

<svg
   xmlns:dc="http://purl.org/dc/elements/1.1/"
   xmlns:cc="http://creativecommons.org/ns#"
   xmlns:rdf="http://www.w3.org/1999/02/22-rdf-syntax-ns#"
   xmlns:svg="http://www.w3.org/2000/svg"
   xmlns="http://www.w3.org/2000/svg"
   xmlns:sodipodi="http://sodipodi.sourceforge.net/DTD/sodipodi-0.dtd"
   xmlns:inkscape="http://www.inkscape.org/namespaces/inkscape"
   width="57.0mm"
   height="9.0mm"
   viewBox="0 0 57.0 9.0"
   version="1.1"
   id="svg1029"
   inkscape:version="0.92.4 (5da689c313, 2019-01-14)"
   sodipodi:docname="mag-logo-outline.svg">
  <defs
     id="defs1023" />
  <sodipodi:namedview
     id="base"
     pagecolor="#ffffff"
     bordercolor="#666666"
     borderopacity="1.0"
     inkscape:pageopacity="0.0"
     inkscape:pageshadow="2"
     inkscape:zoom="0.175"
     inkscape:cx="-216.008"
     inkscape:cy="-166.48527"
     inkscape:document-units="mm"
     inkscape:current-layer="g1656"
     showgrid="true"
     inkscape:window-width="1920"
     inkscape:window-height="1177"
     inkscape:window-x="1912"
     inkscape:window-y="-8"
     inkscape:window-maximized="1"
     borderlayer="true">
    <inkscape:grid
       id="grid1608"
       units="mm"
       type="xygrid"
       empspacing="1"
       spacingy="2.54"
       spacingx="2.54" />
  </sodipodi:namedview>
  <metadata
     id="metadata1026">
    <rdf:RDF>
      <cc:Work
         rdf:about="">
        <dc:format>image/svg+xml</dc:format>
        <dc:type
           rdf:resource="http://purl.org/dc/dcmitype/StillImage" />
        <dc:title></dc:title>
      </cc:Work>
    </rdf:RDF>
  </metadata>
  <g
     id="g1614"
     sodipodi:insensitive="true"
     inkscape:groupmode="layer"
     inkscape:label="[fixed] BG">
    <rect
       id="rect1612"
       style="stroke:none;fill-opacity:1;fill:#FFFFFF"
       height="9.0"
       width="57.0"
       y="0"
       x="0" />
  </g>
  <g
     id="g1616"
     inkscape:groupmode="layer"
     inkscape:label="F.Cu" />
  <g
     id="g1618"
     inkscape:groupmode="layer"
     inkscape:label="B.Cu-disabled" />
  <g
     id="g1620"
     inkscape:groupmode="layer"
     inkscape:label="B.Adhes-disabled" />
  <g
     id="g1622"
     inkscape:groupmode="layer"
     inkscape:label="F.Adhes-disabled" />
  <g
     id="g1624"
     inkscape:groupmode="layer"
     inkscape:label="B.Paste-disabled" />
  <g
     id="g1626"
     inkscape:groupmode="layer"
     inkscape:label="F.Paste-disabled" />
  <g
     id="g1628"
     inkscape:groupmode="layer"
     inkscape:label="B.SilkS-disabled" />
  <g
     id="g1630"
     inkscape:groupmode="layer"
     inkscape:label="F.SilkS-disabled" />
  <g
     id="g1632"
     inkscape:groupmode="layer"
     inkscape:label="B.Mask-disabled" />
  <g
     id="g1634"
     inkscape:groupmode="layer"
     inkscape:label="F.Mask-disabled" />
  <g
     id="g1636"
     inkscape:groupmode="layer"
     inkscape:label="Dwgs.User-disabled" />
  <g
     id="g1638"
     inkscape:groupmode="layer"
     inkscape:label="Cmts.User-disabled" />
  <g
     id="g1640"
     inkscape:groupmode="layer"
     inkscape:label="Eco1.User-disabled" />
  <g
     id="g1642"
     inkscape:groupmode="layer"
     inkscape:label="Eco2.User-disabled" />
  <g
     id="g1644"
     inkscape:groupmode="layer"
     inkscape:label="Edge.Cuts" />
  <g
     id="g1646"
     inkscape:groupmode="layer"
     inkscape:label="Margin-disabled" />
  <g
     id="g1648"
     inkscape:groupmode="layer"
     inkscape:label="B.CrtYd-disabled" />
  <g
     id="g1650"
     inkscape:groupmode="layer"
     inkscape:label="F.CrtYd-disabled" />
  <g
     id="g1652"
     inkscape:groupmode="layer"
     inkscape:label="B.Fab-disabled" />
  <g
     id="g1654"
     inkscape:groupmode="layer"
     inkscape:label="F.Fab-disabled" />
  <g
     id="g1656"
     inkscape:groupmode="layer"
     inkscape:label="Drill">
    <path
       style="fill:#000000;fill-opacity:1;stroke-width:1"
       d="m 38.607094,4.9999999e-7 c -0.740247,0 -0.850134,0.02249 -1.37376,0.28026500000001 -0.517515,0.254772 -0.581181,0.268196 -0.701982,0.147395 -0.282681,-0.282681 -0.421404,-0.293772 -2.705924,-0.215563 -1.250212,0.0428 -3.173782,0.05406 -4.274618,0.02509 -1.766245,-0.04646 -2.026219,-0.03634 -2.211913,0.08533 -0.115733,0.07583 -0.234851,0.214952 -0.264747,0.309149 -0.07381,0.232567 -0.149752,0.217653 -0.58496,-0.114547 -0.483297,-0.368911 -1.056603,-0.506255 -1.798281,-0.430796 -0.985615,0.100276 -1.446085,0.368046 -2.067326,1.202431 -0.181685,0.244017 -0.363569,0.44367 -0.40422,0.44367 -0.04065,0 -0.09935,-0.184717 -0.130396,-0.410494 -0.116336,-0.845848 -0.473102,-1.109207 -1.504318,-1.110165 -0.525993,-5.11e-4 -0.960147,0.139604 -1.152912,0.372036 -0.104554,0.126065 -0.274897,0.839588 -0.612359,2.564142 -0.100839,0.515317 -0.236949,0.58614 -0.243624,0.126762 -0.0026,-0.174301 -0.03634,-0.866593 -0.0751,-1.538484 -0.06911,-1.198076 -0.07509,-1.225621 -0.309482,-1.427239 -0.236182,-0.203154 -0.252941,-0.204832 -1.424925,-0.149869 -1.170527,0.05489 -1.18897,0.05878 -1.411557,0.301061 -0.168463,0.183372 -0.239227,0.370062 -0.279606,0.7378 -0.05869,0.534545 -0.167826,0.872484 -0.281751,0.872484 -0.03969,0 -0.144306,-0.294722 -0.232564,-0.654941 -0.111679,-0.455804 -0.230764,-0.726624 -0.391344,-0.890641 l -0.230586,-0.235535 -1.123039,0.05216 c -1.240249,0.05771 -1.566375,0.140547 -1.674656,0.425349 -0.0428,0.112574 -0.007,1.470214 0.08698,3.303757 0.244742,4.772735 0.220036,4.502723 0.433934,4.730334 0.160644,0.171012 0.267468,0.199058 0.758265,0.199058 0.652836,0 0.98781,-0.100544 1.184443,-0.355695 l 0.137158,-0.178095 0.269042,0.191629 c 0.285795,0.203508 0.377272,0.216457 1.333982,0.189979 0.543476,-0.01504 0.640715,-0.04412 0.895758,-0.26805 l 0.286207,-0.251215 0.188163,0.200213 c 0.207423,0.220793 0.760456,0.289817 2.372183,0.29611 l 0.802831,0.0033 0.253526,-0.294295 c 0.33299,-0.386445 0.596123,-0.386164 0.971849,0.0015 l 0.286702,0.29578 h 0.860435 c 0.661716,0 0.884669,-0.02928 0.965576,-0.126762 0.143856,-0.173341 0.250048,-0.159527 0.487246,0.06338 0.19227,0.180683 0.268173,0.19008 1.5266,0.188164 0.728346,-0.0011 1.836053,-0.03569 2.461478,-0.07692 1.018473,-0.06713 1.157368,-0.09524 1.331011,-0.268876 0.116869,-0.116869 0.197701,-0.304343 0.203514,-0.472225 0.0053,-0.153169 0.03383,-0.772989 0.06338,-1.377226 l 0.05364,-1.098611 0.795405,-0.02443 c 0.492685,-0.01517 0.83029,0.01056 0.887342,0.06751 0.05442,0.05432 0.10921,0.623645 0.134187,1.39175 0.03741,1.150807 0.06271,1.327114 0.220187,1.538155 0.17044,0.228418 0.21102,0.239405 0.971849,0.261284 0.436687,0.01254 1.554494,-0.01764 2.484089,-0.06701 2.243991,-0.119169 2.143718,-0.119124 2.577511,0 0.209158,0.05743 0.685409,0.107863 1.058337,0.112239 0.588339,0.0069 0.750468,-0.0259 1.225375,-0.248575 0.585698,-0.274635 1.266737,-0.892653 1.437308,-1.304436 0.166198,-0.401237 0.232231,-0.288516 0.232231,0.396464 0,0.596002 0.01801,0.661847 0.241807,0.885029 0.226919,0.22631 0.287686,0.241868 0.99017,0.253526 0.70174,0.01164 0.762315,-0.0014 0.96855,-0.20764 l 0.220017,-0.219855 0.172318,-2.811396 0.172321,-2.811395 0.662696,-0.04225 c 0.78948,-0.05034 0.943253,-0.180116 1.028297,-0.868359 0.09645,-0.78051 0.02929,-1.162807 -0.238999,-1.362369 -0.214064,-0.159216 -0.466772,-0.191821 -2.493004,-0.322354 -1.593368,-0.102651 -2.333168,-0.120154 -2.522053,-0.05958 -0.207372,0.0665 -0.368396,0.05158 -0.71832,-0.06635 C 39.553732,0.0479205 39.1582,2.65e-5 38.607087,2.65e-5 Z M 38.606136,0.1871745 c 0.873505,-4.16e-4 1.802222,0.277491 2.238155,0.795568 0.190498,0.226393 0.215067,0.331629 0.215067,0.918371 0,1.056238 -0.05336,1.0939 -0.954352,0.672273 -0.375078,-0.175519 -0.739606,-0.273719 -1.142516,-0.3075 -0.556358,-0.04664 -0.604977,-0.03643 -0.810918,0.169512 -0.228315,0.228316 -0.280567,0.545069 -0.135018,0.817027 0.08715,0.162845 0.397174,0.284946 0.96855,0.381444 0.78627,0.132791 1.541934,0.693934 1.900285,1.411062 0.737689,1.47624 -0.07469,3.141007 -1.745136,3.5761 -0.527803,0.137477 -0.697725,0.141722 -1.343716,0.03367 -0.869695,-0.145465 -0.854143,-0.127028 -0.86638,-1.021365 -0.01223,-0.893315 -0.131993,-1.154054 -0.590734,-1.285619 -0.288376,-0.08271 -0.365991,-0.305354 -0.10646,-0.305354 0.08774,0 0.407429,0.116041 0.710399,0.257817 0.375077,0.175522 0.739605,0.273554 1.142515,0.307334 0.556361,0.04664 0.604811,0.0366 0.810755,-0.169347 0.455136,-0.455136 0.156041,-1.013638 -0.619784,-1.157206 -0.558475,-0.103347 -1.222248,-0.399891 -1.588002,-0.709246 -0.286722,-0.242512 -0.738258,-1.095172 -0.81455,-1.538154 -0.04962,-0.288115 0.06238,-0.45605 0.304362,-0.45605 0.08578,0 0.249367,-0.09322 0.363454,-0.20731 0.18358,-0.183579 0.207308,-0.280746 0.207308,-0.845086 0,-0.5339 0.02875,-0.666502 0.176448,-0.81422 0.354824,-0.354828 1.00087,-0.523408 1.680268,-0.523721 z m -13.622223,0.108606 c 0.951283,0 1.589986,0.347138 1.982154,1.077155 0.510061,0.949459 0.358658,1.289085 -0.574557,1.289085 -0.525647,0 -0.569801,-0.01567 -0.836173,-0.29809 -0.262526,-0.27836 -0.305783,-0.294485 -0.649329,-0.241972 -0.533684,0.08158 -0.631635,0.154874 -0.804317,0.602454 -0.125834,0.326135 -0.154539,0.634604 -0.151521,1.627779 0.0033,1.081804 0.02702,1.28417 0.202192,1.727145 0.26427,0.668279 0.496459,0.892621 0.924146,0.892621 0.555195,0 0.602505,-0.04537 0.601463,-0.579345 -6.14e-4,-0.262284 -0.0245,-0.619621 -0.05331,-0.793919 l -0.05249,-0.316907 H 25.04432 c -0.631133,0 -0.712025,-0.07228 -0.772625,-0.691253 -0.07262,-0.741749 -0.03146,-0.764701 1.534358,-0.853504 1.17657,-0.06673 1.346777,-0.05966 1.467182,0.06074 0.111191,0.111188 0.158887,0.540484 0.259633,2.337355 0.08744,1.559576 0.09736,2.242465 0.034,2.342968 -0.05069,0.0804 -0.250134,0.164012 -0.460505,0.193116 -0.669167,0.09258 -2.479221,0.147154 -2.69569,0.08121 -0.330709,-0.100748 -0.70479,-0.311373 -0.857797,-0.482953 -0.09351,-0.104863 -0.320038,-1.105197 -0.686137,-3.02993 -0.613722,-3.226603 -0.612969,-3.020322 -0.01156,-3.900103 0.529078,-0.773957 1.079054,-1.043648 2.128725,-1.043648 z m -7.172831,0.0041 c 0.369369,0.01786 0.373947,0.461951 0.517617,3.296 0.08588,1.694133 0.178881,3.41177 0.206647,3.816916 0.04566,0.66619 0.03409,0.753058 -0.121315,0.908467 -0.142001,0.142 -0.281062,0.171823 -0.800851,0.171823 -0.82877,0 -0.889181,-0.07902 -0.900708,-1.180809 -0.0046,-0.442832 -0.03584,-0.900215 -0.06949,-1.016414 -0.05651,-0.195145 -0.06523,-0.198372 -0.113886,-0.04225 -0.02897,0.09296 -0.09582,0.492265 -0.148551,0.887339 -0.122149,0.915272 -0.225524,1.248012 -0.420398,1.352303 -0.0857,0.04587 -0.50402,0.0931 -0.929595,0.104976 -0.965707,0.02696 -0.971683,0.02094 -1.296845,-1.314009 -0.132408,-0.543614 -0.275168,-0.988355 -0.317236,-0.988355 -0.04453,0 -0.05361,0.45349 -0.02162,1.085242 0.05437,1.07432 0.05291,1.086582 -0.145252,1.225374 -0.260664,0.182575 -1.277434,0.196177 -1.45414,0.01948 h -1.66e-4 c -0.146251,-0.146248 -0.178827,-0.556438 -0.368239,-4.636253 -0.132102,-2.845422 -0.132904,-3.120356 -0.0096,-3.243676 0.10578,-0.10578 0.388634,-0.143944 1.315329,-0.17727 1.432702,-0.05152 1.312166,-0.16187 1.75405,1.607313 0.171231,0.685576 0.34469,1.246501 0.385403,1.246501 0.04071,0 0.07469,-0.0095 0.07543,-0.02113 6.14e-4,-0.01163 0.09257,-0.628499 0.204175,-1.370953 0.248456,-1.652854 0.246451,-1.650229 1.270931,-1.650229 0.383442,0 0.864051,-0.02196 1.068075,-0.04886 0.130285,-0.01716 0.234969,-0.03564 0.320208,-0.03152 z m 17.165805,0.08038 c 1.487144,0 1.463384,-0.01465 1.506465,0.934052 0.03936,0.866628 -0.08275,1.009645 -0.861592,1.009645 -0.294885,0 -0.942952,0.02487 -1.440112,0.05529 l -0.903845,0.0553 0.02459,0.599647 0.02443,0.599647 1.183121,0.02179 c 1.399689,0.02571 1.478898,0.06974 1.478898,0.823298 0,0.746051 -0.08786,0.799231 -1.436644,0.869844 l -1.140867,0.05975 v 0.591561 0.59156 h 1.465201 c 1.437803,0 1.468169,0.0038 1.62679,0.199552 0.126599,0.156252 0.161589,0.334887 0.161589,0.823959 0,0.938516 0.03012,0.92291 -1.908704,0.990665 -2.608896,0.09117 -3.030638,0.079 -3.184092,-0.09161 -0.102094,-0.1135 -0.147184,-0.446505 -0.193775,-1.43252 l -0.06058,-1.284793 0.302547,-0.178591 c 0.370958,-0.218871 0.515193,-0.602406 0.462984,-1.231977 -0.03999,-0.482202 -0.192003,-0.72415 -0.567958,-0.904341 -0.171235,-0.08207 -0.216718,-0.16572 -0.216718,-0.39861 v -0.294625 l 0.454069,-0.02591 c 0.848927,-0.04844 1.076964,-0.408065 1.003703,-1.58239 l -0.04324,-0.693729 0.509361,-0.05315 c 0.280176,-0.02929 1.069692,-0.05331 1.754379,-0.05331 z m 6.058209,0.01238 c 0.355616,0.0017 1.157023,0.03558 2.069965,0.08995 2.1493,0.128008 2.217831,0.137475 2.375153,0.331598 0.140378,0.173215 0.15475,0.284468 0.107451,0.833697 -0.07327,0.850731 -0.203632,0.968622 -0.998092,0.902525 -0.393152,-0.03271 -0.588448,-0.01623 -0.632826,0.05331 -0.0353,0.05531 -0.141833,1.379617 -0.236853,2.942945 -0.123867,2.037992 -0.204813,2.88105 -0.286044,2.978928 -0.08781,0.105799 -0.272632,0.1365 -0.821318,0.1365 -0.595296,0 -0.734823,-0.0269 -0.876938,-0.169017 h -1.66e-4 c -0.203648,-0.203647 -0.203437,0.09268 -6.39e-4,-3.084563 0.210537,-3.296821 0.217037,-2.98338 -0.06272,-3.015569 -0.224464,-0.02584 -0.234039,-0.04758 -0.279934,-0.637281 -0.04096,-0.526327 -0.08595,-0.658253 -0.325491,-0.956333 -0.15283,-0.190179 -0.254592,-0.368825 -0.226293,-0.397124 0.0071,-0.0071 0.07606,-0.01012 0.194602,-0.0096 z m -12.692793,0.01667 c 0.35056,7.38e-4 0.851016,0.01246 1.577934,0.03334 1.698455,0.04878 2.27366,0.09246 2.37961,0.180405 0.109136,0.09059 0.139636,0.267412 0.139636,0.807784 0,1.054468 0.05926,1.019879 -1.747116,1.019879 h -1.506462 l -0.02542,0.540723 c -0.01402,0.297396 0.005,0.570861 0.04225,0.607736 0.03726,0.03688 0.56205,0.0932 1.166285,0.125112 1.342458,0.0709 1.394394,0.102128 1.394394,0.836173 0,0.83494 -0.02986,0.852821 -1.374421,0.822803 -0.858232,-0.01916 -1.155525,0.0016 -1.225376,0.08583 -0.05553,0.06691 -0.103115,0.655865 -0.119501,1.480221 -0.03063,1.540328 -0.05607,1.608678 -0.631666,1.68588 -0.230653,0.03095 -0.363001,0.0071 -0.433436,-0.07774 -0.05577,-0.06719 -0.08537,-0.13828 -0.06569,-0.157958 0.01967,-0.01967 -0.01735,-0.92889 -0.08236,-2.020448 -0.065,-1.091561 -0.119431,-2.109483 -0.120987,-2.26209 -0.0019,-0.202837 -0.08349,-0.357983 -0.302381,-0.57687 -0.324753,-0.324753 -0.329518,-0.480853 -0.02689,-0.868359 0.206669,-0.264641 0.19917,-0.683999 -0.0213,-1.196489 -0.206282,-0.479523 -0.168044,-0.776401 0.124453,-0.968052 0.106316,-0.06966 0.274187,-0.09914 0.858455,-0.09788 z m -7.753362,0.04044 c 0.3988,-0.0041 0.803515,0.04926 0.943457,0.162909 0.157377,0.127797 0.281394,0.663286 0.912594,3.941369 l 0.730537,3.793477 -0.204503,0.165551 c -0.171596,0.13895 -0.304729,0.160503 -0.829077,0.134025 -0.601993,-0.03041 -0.634329,-0.04297 -0.888989,-0.346287 -0.237473,-0.282847 -0.305195,-0.314767 -0.669468,-0.314761 -0.360123,3e-6 -0.421442,0.02787 -0.548478,0.249234 -0.07864,0.13703 -0.230736,0.289146 -0.338036,0.338034 -0.210793,0.09605 -0.802793,0.121192 -0.886348,0.03763 -0.02821,-0.02821 -0.03255,-0.227859 -0.0097,-0.44367 0.02281,-0.215811 0.0064,-1.000966 -0.03647,-1.74464 l -0.07791,-1.352137 0.37088,-1.943698 c 0.471336,-2.470543 0.428728,-2.300294 0.623582,-2.495149 0.11627,-0.11627 0.509172,-0.177804 0.907972,-0.18189 z m 4.526822,1.899956 c 0.140831,-0.0055 0.19036,0.05211 0.307498,0.245275 0.162956,0.268715 0.19137,0.279737 0.824949,0.320537 0.601525,0.03873 0.65835,0.05824 0.683168,0.232894 0.01488,0.104789 -0.02316,0.207 -0.08451,0.227282 -0.06136,0.02028 -0.605955,0.07702 -1.210187,0.126102 -0.604237,0.04909 -1.184179,0.112808 -1.288758,0.141619 -0.230225,0.06342 -0.239178,-0.02473 -0.06305,-0.617804 0.147618,-0.497086 0.225594,-0.574826 0.653785,-0.651971 0.0731,-0.01317 0.13016,-0.0221 0.177106,-0.02393 z m 13.663978,0.155814 c 0.06289,0.0023 0.131667,0.007 0.20665,0.01403 0.357823,0.03341 0.715906,0.138219 1.051901,0.307829 0.668618,0.337523 0.916867,0.334142 1.20623,-0.01667 0.178131,-0.215957 0.249492,-0.25331 0.330441,-0.173143 0.08086,0.08007 0.08187,0.355806 0.0051,1.271919 -0.05391,0.643396 -0.09804,1.234438 -0.09804,1.31335 0,0.267301 -0.147433,0.145356 -0.325986,-0.269702 -0.331255,-0.770028 -1.347198,-1.462753 -2.336033,-1.592788 -0.402265,-0.05289 -0.633816,-0.231768 -0.633816,-0.489721 0,-0.279237 0.153349,-0.381456 0.593539,-0.365103 z m -3.615876,0.09276 c 0.46023,-0.006 0.484246,0.0933 0.485923,0.454563 0.0013,0.228572 -0.03436,0.271195 -0.262932,0.316907 -0.145249,0.02905 -0.602777,0.05282 -1.016745,0.05282 -0.816086,0 -0.868343,-0.0305 -0.817025,-0.478662 l 0.0274,-0.239662 0.96244,-0.07064 c 0.265685,-0.01954 0.467528,-0.03334 0.62094,-0.03532 z m -5.7243,0.105965 h 0.760578 0.760577 v 0.379134 c 0,0.432458 0.03876,0.417443 -0.887342,0.345957 l -0.633813,-0.04902 v -0.338034 z m -8.811669,1.338604 c -0.08839,0.0022 -0.179304,0.158116 -0.28456,0.467933 -0.218764,0.643925 -0.271128,0.686467 -0.843765,0.686467 -0.609289,0 -0.633848,0.105738 -0.113228,0.48873 0.207346,0.152531 0.376994,0.323662 0.37699,0.380289 -9e-6,0.05663 -0.09089,0.397552 -0.202031,0.757771 -0.245838,0.796736 -0.18083,0.826406 0.512168,0.233224 0.271023,-0.231985 0.513491,-0.422129 0.538743,-0.422543 0.02526,-3.2e-4 0.270655,0.18932 0.54551,0.421717 0.417501,0.353014 0.718324,0.518519 0.718324,0.395145 0,-0.01511 -0.09507,-0.307031 -0.211272,-0.648671 -0.116198,-0.341638 -0.211272,-0.670263 -0.211272,-0.730371 0,-0.06011 0.169641,-0.23403 0.376988,-0.386561 0.520619,-0.382992 0.49623,-0.48873 -0.113062,-0.48873 -0.295489,0 -0.531199,-0.04279 -0.58199,-0.105637 -0.04695,-0.0581 -0.154061,-0.3256 -0.238009,-0.59453 -0.09517,-0.304868 -0.18114,-0.456414 -0.269534,-0.454233 z m 15.714302,0.661213 c 0.07625,0.0053 0.205408,0.08367 0.417095,0.23702 0.403581,0.292352 1.163615,0.594201 1.495903,0.594201 0.5209,0 0.82622,0.552845 0.424192,0.768005 -0.281844,0.150838 -1.027317,0.03538 -1.648577,-0.255341 -0.718397,-0.336166 -1.004039,-0.338653 -1.192528,-0.01023 -0.07857,0.136899 -0.219378,0.269488 -0.312947,0.294625 -0.09357,0.02515 -0.542138,0.04623 -0.996772,0.04687 -0.896391,0.0012 -0.942947,-0.02377 -0.89097,-0.477671 l 0.0274,-0.239497 0.929595,-0.05265 c 0.511277,-0.02895 0.997992,-0.05748 1.081446,-0.06338 0.229328,-0.01625 0.56647,-0.397663 0.56647,-0.640747 0,-0.138734 0.02344,-0.206467 0.0997,-0.201203 z m -15.7181,0.02377 c 0.06229,-0.0084 0.117572,0.07407 0.164064,0.247913 0.09138,0.341665 0.233611,0.47503 0.506723,0.47503 0.297424,0 0.303326,0.05178 0.03417,0.301228 -0.201489,0.186732 -0.204859,0.207476 -0.09408,0.575549 0.06322,0.210049 0.09488,0.401937 0.07048,0.42634 -0.0244,0.0244 -0.156089,-0.04966 -0.292643,-0.164561 -0.285217,-0.239993 -0.505467,-0.265838 -0.661709,-0.07758 -0.05997,0.07226 -0.178597,0.168667 -0.26376,0.214242 -0.124688,0.06672 -0.154987,0.05191 -0.154987,-0.07642 0,-0.08766 0.04411,-0.285637 0.09788,-0.439874 0.09022,-0.258799 0.08044,-0.294297 -0.126761,-0.459515 -0.312503,-0.249182 -0.285092,-0.38392 0.07807,-0.38392 0.2749,0 0.314726,-0.03117 0.436242,-0.340509 0.07472,-0.190219 0.144032,-0.289514 0.206319,-0.297926 z m 3.945825,0.81587 c 0.07203,-4.15e-4 0.164981,0.003 0.285051,0.0087 l 0.52818,0.02509 v 0.549306 0.549306 l -0.304199,0.02558 c -0.242075,0.02026 -0.329183,-0.01431 -0.425681,-0.169017 -0.191609,-0.307196 -0.326477,-0.652531 -0.326477,-0.836339 0,-0.115312 0.02702,-0.151451 0.243126,-0.152676 z"
       id="path1861"
       inkscape:connector-curvature="0" />
  </g>
</svg>
