<?xml version="1.0" encoding="UTF-8" standalone="no"?>
<!-- Created with Inkscape (http://www.inkscape.org/) -->

<svg
   xmlns:dc="http://purl.org/dc/elements/1.1/"
   xmlns:cc="http://creativecommons.org/ns#"
   xmlns:rdf="http://www.w3.org/1999/02/22-rdf-syntax-ns#"
   xmlns:svg="http://www.w3.org/2000/svg"
   xmlns="http://www.w3.org/2000/svg"
   xmlns:sodipodi="http://sodipodi.sourceforge.net/DTD/sodipodi-0.dtd"
   xmlns:inkscape="http://www.inkscape.org/namespaces/inkscape"
   width="57.0mm"
   height="9.0mm"
   viewBox="0 0 57.0 9.0"
   version="1.1"
   id="svg1894"
   inkscape:version="0.92.4 (5da689c313, 2019-01-14)"
   sodipodi:docname="mag-logo-fill.svg">
  <defs
     id="defs1888" />
  <sodipodi:namedview
     id="base"
     pagecolor="#ffffff"
     bordercolor="#666666"
     borderopacity="1.0"
     inkscape:pageopacity="0.0"
     inkscape:pageshadow="2"
     inkscape:zoom="3.959798"
     inkscape:cx="89.370768"
     inkscape:cy="14.454893"
     inkscape:document-units="mm"
     inkscape:current-layer="g2488"
     showgrid="true"
     inkscape:window-width="1858"
     inkscape:window-height="1177"
     inkscape:window-x="54"
     inkscape:window-y="-8"
     inkscape:window-maximized="1"
     borderlayer="true">
    <inkscape:grid
       id="grid2440"
       units="mm"
       type="xygrid"
       empspacing="1"
       spacingy="2.54"
       spacingx="2.54" />
  </sodipodi:namedview>
  <metadata
     id="metadata1891">
    <rdf:RDF>
      <cc:Work
         rdf:about="">
        <dc:format>image/svg+xml</dc:format>
        <dc:type
           rdf:resource="http://purl.org/dc/dcmitype/StillImage" />
        <dc:title></dc:title>
      </cc:Work>
    </rdf:RDF>
  </metadata>
  <g
     id="g2446"
     sodipodi:insensitive="true"
     inkscape:groupmode="layer"
     inkscape:label="[fixed] BG">
    <rect
       id="rect2444"
       style="stroke:none;fill-opacity:1;fill:#FFFFFF"
       height="9.0"
       width="57.0"
       y="0"
       x="0" />
  </g>
  <g
     id="g2448"
     inkscape:groupmode="layer"
     inkscape:label="F.Cu" />
  <g
     id="g2450"
     inkscape:groupmode="layer"
     inkscape:label="B.Cu-disabled" />
  <g
     id="g2452"
     inkscape:groupmode="layer"
     inkscape:label="B.Adhes-disabled" />
  <g
     id="g2454"
     inkscape:groupmode="layer"
     inkscape:label="F.Adhes-disabled" />
  <g
     id="g2456"
     inkscape:groupmode="layer"
     inkscape:label="B.Paste-disabled" />
  <g
     id="g2458"
     inkscape:groupmode="layer"
     inkscape:label="F.Paste-disabled" />
  <g
     id="g2460"
     inkscape:groupmode="layer"
     inkscape:label="B.SilkS-disabled" />
  <g
     id="g2462"
     inkscape:groupmode="layer"
     inkscape:label="F.SilkS-disabled" />
  <g
     id="g2464"
     inkscape:groupmode="layer"
     inkscape:label="B.Mask-disabled" />
  <g
     id="g2466"
     inkscape:groupmode="layer"
     inkscape:label="F.Mask-disabled" />
  <g
     id="g2468"
     inkscape:groupmode="layer"
     inkscape:label="Dwgs.User-disabled" />
  <g
     id="g2470"
     inkscape:groupmode="layer"
     inkscape:label="Cmts.User-disabled" />
  <g
     id="g2472"
     inkscape:groupmode="layer"
     inkscape:label="Eco1.User-disabled" />
  <g
     id="g2474"
     inkscape:groupmode="layer"
     inkscape:label="Eco2.User-disabled" />
  <g
     id="g2476"
     inkscape:groupmode="layer"
     inkscape:label="Edge.Cuts" />
  <g
     id="g2478"
     inkscape:groupmode="layer"
     inkscape:label="Margin-disabled" />
  <g
     id="g2480"
     inkscape:groupmode="layer"
     inkscape:label="B.CrtYd-disabled" />
  <g
     id="g2482"
     inkscape:groupmode="layer"
     inkscape:label="F.CrtYd-disabled" />
  <g
     id="g2484"
     inkscape:groupmode="layer"
     inkscape:label="B.Fab-disabled" />
  <g
     id="g2486"
     inkscape:groupmode="layer"
     inkscape:label="F.Fab-disabled" />
  <g
     id="g2488"
     inkscape:groupmode="layer"
     inkscape:label="Drill">
    <path
       style="fill:#000000;stroke-width:0.99999988"
       d="M 24.485816,8.9264038 C 24.277435,8.8703238 23.973605,8.7457616 23.810639,8.6496086 23.518887,8.4774707 23.512132,8.4772217 23.37084,8.63335 c -0.122584,0.1354531 -0.259776,0.15856 -0.941414,0.15856 -0.573626,0 -0.843017,-0.03411 -0.958357,-0.1213501 -0.144912,-0.1096057 -0.08753,-0.1216038 0.59295,-0.123979 0.625681,-0.0022 0.789013,-0.03065 0.963541,-0.1679329 l 0.210152,-0.165305 0.421832,0.2188541 c 0.555024,0.2879579 0.858607,0.3050709 3.086746,0.174009 2.41476,-0.1420392 2.231461,0.0027 2.305376,-1.820895 0.02989,-0.737457 0.05778,-1.3501291 0.06199,-1.3614932 0.0042,-0.011369 0.37958,-0.020661 0.83417,-0.020661 0.679587,0 0.826525,0.02204 0.826525,0.123979 0,0.1004792 -0.133162,0.1239782 -0.702546,0.1239782 h -0.702547 l -0.0042,0.8471889 c -0.0023,0.465954 -0.03271,1.103539 -0.0675,1.4168559 -0.08827,0.7949661 -0.154283,0.8368221 -1.429817,0.9065551 -2.196486,0.1200809 -2.515597,0.1400961 -2.75505,0.1727999 -0.136377,0.018629 -0.418451,-0.01202 -0.626832,-0.06811 z m -12.39095,-0.1216282 -0.206631,-0.1726739 0.729568,-0.0028 c 0.704446,-0.0027 0.738412,-0.011589 0.986429,-0.2596108 0.237725,-0.2377252 0.264722,-0.2461112 0.362376,-0.1125611 0.111424,0.1523809 0.05297,0.343568 -0.158772,0.5192979 -0.06293,0.05222 -0.427596,0.1188072 -0.810375,0.1479622 -0.628989,0.04791 -0.715848,0.0364 -0.902595,-0.1196621 z m 2.490193,-0.06147 c -0.376338,-0.158238 -0.357974,-0.2432701 0.0456,-0.211138 0.204076,0.016251 0.609257,0.004 0.900403,-0.02715 0.435021,-0.04659 0.569203,-0.09891 0.752956,-0.2935941 0.220214,-0.233317 0.225368,-0.2343809 0.340336,-0.07024 0.104111,0.1486389 0.09647,0.1882341 -0.07063,0.3661021 -0.10305,0.109691 -0.302293,0.217175 -0.442765,0.2388529 -0.597361,0.09219 -1.303025,0.09088 -1.525902,-0.0028 z m 16.912502,0.0045 c -0.125012,-0.06954 -0.227295,-0.1383281 -0.227295,-0.152859 0,-0.014531 0.660188,-0.03487 1.467083,-0.0452 0.806896,-0.010329 1.894811,-0.05388 2.417589,-0.09677 1.293899,-0.1061591 1.287628,-0.106321 1.942335,0.05038 1.411162,0.337744 2.808411,-0.190382 3.415158,-1.2908431 0.206727,-0.37494 0.425239,-0.5658279 0.313053,-0.2734789 -0.02759,0.07191 -0.05017,0.258853 -0.05017,0.4154379 0,0.2263809 -0.07471,0.359405 -0.364704,0.6494031 -0.600572,0.600573 -1.108937,0.8135948 -2.032219,0.8515721 -0.625744,0.025739 -0.89345,-0.00191 -1.318243,-0.1360332 -0.31249,-0.09868 -0.568978,-0.138657 -0.619895,-0.09662 -0.151283,0.124914 -0.613379,0.1603809 -2.690408,0.206493 -1.721961,0.03823 -2.059002,0.02604 -2.252283,-0.08148 z m 10.000965,-0.0031 C 41.373513,8.6768856 41.27123,8.5991837 41.27123,8.5720367 c 0,-0.02715 0.294899,-0.02363 0.655333,0.0078 0.758391,0.06615 1.081469,-0.04528 1.230739,-0.4245229 0.05005,-0.1271561 0.148563,-1.2354211 0.218919,-2.462812 0.07036,-1.227391 0.148904,-2.4268862 0.174548,-2.6655451 l 0.04663,-0.433927 h 0.568013 c 0.480832,0 0.603498,-0.03053 0.799248,-0.198902 0.217194,-0.186822 0.233786,-0.248314 0.27323,-1.0124939 l 0.04199,-0.81359006 0.14981,0.27450798 C 45.644507,1.2361775 45.550326,2.3446634 45.274963,2.6637004 45.099216,2.8673185 45.043299,2.8813123 44.459867,2.8676775 l -0.626407,-0.014639 -0.0024,0.2625961 c -0.0013,0.1444281 -0.07313,1.3901211 -0.159642,2.768206 -0.157802,2.5138811 -0.176665,2.6228831 -0.499223,2.8848431 -0.181354,0.1472819 -1.389947,0.1299639 -1.673715,-0.023979 z m -23.718646,-0.0284 c -0.432093,-0.03272 -0.681892,-0.09238 -0.774229,-0.1849229 -0.149607,-0.1499409 -0.273023,-0.14845 1.889924,-0.022839 l 0.808397,0.04695 0.299259,-0.2992588 c 0.248218,-0.248218 0.3489,-0.2950112 0.590308,-0.274352 0.327887,0.02806 0.473831,0.2315369 0.166073,0.2315408 -0.121337,1.1e-6 -0.278452,0.1072791 -0.423674,0.2892841 L 20.10512,8.791987 19.261455,8.778298 C 18.797439,8.770798 18.13073,8.742876 17.77988,8.7163056 Z m 6.367209,-0.3678859 c -0.167386,-0.06142 -0.427742,-0.189688 -0.578568,-0.2850449 l -0.274229,-0.173378 -0.5538,-2.9132332 -0.5538,-2.913232 0.257614,-0.4833339 c 0.294289,-0.552142 0.7577,-1.061752 1.155613,-1.270819 0.345216,-0.18137901 1.579525,-0.25488701 1.992327,-0.11865001 0.67347,0.222265 1.274939,0.91824301 1.406573,1.62758801 0.07959,0.4289 -0.08605,0.5583239 -0.783336,0.6120529 -0.341554,0.02632 -0.620454,0.01343 -0.637875,-0.02948 -0.01703,-0.04193 -0.132086,-0.189426 -0.255689,-0.327762 -0.218569,-0.2446219 -0.23699,-0.2494419 -0.671591,-0.1757529 -0.421396,0.07145 -0.457342,0.09696 -0.630848,0.4477039 -0.402048,0.8127471 -0.405701,2.387292 -0.008,3.4502341 0.239001,0.638787 0.464314,0.848029 0.911447,0.8464349 0.559151,-0.00201 0.583411,-0.04125 0.541778,-0.876622 l -0.03658,-0.733838 -0.56901,-0.04133 c -0.50374,-0.03659 -0.580952,-0.06503 -0.6731,-0.247958 -0.05725,-0.113647 -0.104635,-0.3824438 -0.105306,-0.5973249 -0.0018,-0.5652119 0.110568,-0.6122721 1.618112,-0.6778961 1.103631,-0.04804 1.260522,-0.03848 1.361311,0.08296 0.164616,0.198348 0.396287,4.4374109 0.252011,4.6112509 -0.16551,0.1994272 -2.720066,0.3506953 -3.165056,0.1874182 z m -12.282641,-0.07255 c -0.06631,-0.0799 -0.157299,-1.334153 -0.279577,-3.8538309 -0.164068,-3.380832 -0.169062,-3.747599 -0.05261,-3.86405401 0.09905,-0.09905 0.392884,-0.13912601 1.276486,-0.17410501 0.98781,-0.0391 1.163109,-0.02701 1.257504,0.08672 0.06033,0.07269 0.267243,0.74705002 0.459813,1.49858012 0.192572,0.7515299 0.36991,1.3861989 0.394086,1.4103749 0.02418,0.02418 0.131943,-0.598524 0.23948,-1.383777 0.245641,-1.79371003 0.249812,-1.79967103 1.259202,-1.79967103 0.382122,0 0.858032,-0.02151 1.057578,-0.04779 0.671959,-0.08852 0.636138,-0.23403803 0.81557,3.31315703 0.08736,1.7271169 0.178868,3.410304 0.203343,3.7404159 0.06152,0.829846 -0.03948,0.92887 -0.947434,0.92887 -0.635921,0 -0.66659,-0.0087 -0.743873,-0.2120119 -0.04433,-0.1166062 -0.08431,-0.6652131 -0.08885,-1.219126 -0.0045,-0.5539121 -0.03802,-1.100097 -0.07441,-1.213744 -0.0364,-0.1136481 -0.07091,-0.1508422 -0.07669,-0.08265 -0.05564,0.6560421 -0.338575,2.4115329 -0.410246,2.545452 -0.120509,0.2251729 -0.246607,0.2576881 -1.10116,0.2839371 -0.953858,0.0293 -0.961464,0.020529 -1.306329,-1.5069481 -0.14882,-0.6591541 -0.288217,-1.217059 -0.30977,-1.239788 -0.02155,-0.02273 -0.01483,0.5537721 0.01495,1.2811141 0.03419,0.8350768 0.02374,1.3681318 -0.02834,1.4464209 -0.118421,0.1780159 -1.419556,0.2301529 -1.558729,0.06246 z m 25.521103,0.015539 c -0.250577,-0.03693 -0.557425,-0.105861 -0.681884,-0.1531809 -0.22493,-0.08552 -0.226288,-0.09079 -0.226288,-0.8796372 0,-0.7669379 -0.0081,-0.8017219 -0.2416,-1.0352029 -0.142025,-0.1420252 -0.329383,-0.2416001 -0.454589,-0.2416001 -0.236999,0 -0.273862,-0.09455 -0.09481,-0.2431489 0.09396,-0.07798 0.242207,-0.03794 0.72321,0.1953279 0.442068,0.2143839 0.764424,0.307872 1.196835,0.3471 0.561041,0.0509 0.602938,0.04256 0.805863,-0.160364 0.26031,-0.26031 0.279397,-0.6161749 0.04646,-0.866203 C 38.293559,5.0771907 38.206249,5.0452155 37.634509,4.9526407 37.248803,4.8901917 36.581325,4.5725707 36.252746,4.2951326 35.922221,4.0160528 35.491104,3.1561016 35.464308,2.7224347 c -0.01915,-0.3099231 -0.0066,-0.3280411 0.267203,-0.38598 0.460339,-0.09741 0.580557,-0.319803 0.580557,-1.073983 V 0.61144468 l 0.309947,-0.19304399 c 0.170471,-0.10617399 0.384335,-0.220793 0.475252,-0.254709 1.019148,-0.38018805 2.640052,-0.06728 3.219658,0.62154799 0.186315,0.22142302 0.210426,0.32433902 0.210426,0.89819602 0,0.356466 -0.02257,0.7069519 -0.05017,0.7788579 -0.07438,0.1938429 -0.30907,0.1603901 -0.873445,-0.1245059 -0.376,-0.1898041 -0.662099,-0.2670781 -1.115894,-0.301399 -0.558432,-0.04223 -0.627597,-0.02986 -0.814447,0.1456739 -0.253984,0.238605 -0.274826,0.6709461 -0.0435,0.9022761 0.08838,0.08838 0.302246,0.1841349 0.475251,0.2127851 1.136709,0.1882367 1.816503,0.6268609 2.243273,1.4474269 0.26217,0.504086 0.276138,0.572974 0.244009,1.203525 -0.02712,0.5322539 -0.078,0.74323 -0.249176,1.0331569 -0.420159,0.711644 -1.058043,1.1585261 -1.874785,1.3134182 -0.243792,0.04623 -0.484677,0.07953 -0.535294,0.07398 -0.05062,-0.0055 -0.297054,-0.0403 -0.547632,-0.07722 z M 18.664486,8.1644816 c 0.125371,-0.2917158 0.135373,-0.647368 0.05674,-2.0173879 l -0.07827,-1.363767 0.365031,-1.9010101 c 0.200768,-1.0455549 0.385511,-2.0032459 0.410542,-2.12820091 0.07575,-0.37817499 0.311635,-0.47535499 1.15381,-0.47535499 0.630221,0 0.776847,0.02525 0.893182,0.15379498 0.165437,0.18280701 1.57594,7.37049212 1.495878,7.62274612 -0.04501,0.1417979 -0.135296,0.158106 -0.875355,0.158106 H 21.26087 l -0.120871,-0.289284 c -0.11901,-0.284833 -0.128467,-0.289283 -0.614567,-0.289283 -0.486101,0 -0.495557,0.0044 -0.614568,0.289283 -0.10337,0.2473999 -0.160373,0.289416 -0.393709,0.2901939 -0.150061,5.027e-4 -0.41855,0.024979 -0.596641,0.05439 -0.296249,0.04893 -0.318035,0.04006 -0.256026,-0.104225 z M 19.9507,6.7681327 c 0.293372,-0.2493941 0.553212,-0.4539591 0.577423,-0.4545891 0.02421,-6.614e-4 0.295712,0.207771 0.603337,0.4631132 0.307626,0.255342 0.579331,0.444246 0.60379,0.4197869 0.02446,-0.024461 -0.06062,-0.367165 -0.189062,-0.761569 l -0.233533,-0.7170989 0.207098,-0.177941 c 0.113904,-0.09787 0.314386,-0.2560021 0.445516,-0.3514112 0.362896,-0.264038 0.216239,-0.3831899 -0.430991,-0.3501599 l -0.543079,0.02772 -0.173645,-0.5785681 c -0.225662,-0.75188 -0.358353,-0.7526719 -0.583191,-0.0035 l -0.172589,0.575087 -0.566575,0.0035 c -0.324915,0.00201 -0.579371,0.04114 -0.596575,0.09177 -0.0165,0.04856 0.177182,0.230976 0.430406,0.4053779 0.335012,0.2307321 0.44571,0.3530071 0.40645,0.4489572 -0.117555,0.287297 -0.449839,1.280668 -0.449839,1.344803 0,0.1404768 0.146303,0.05572 0.665059,-0.385269 z m -0.03061,-0.667549 c 0.09183,-0.2695109 0.163083,-0.3638489 0.249701,-0.3306101 0.06666,0.02558 0.136758,0.04651 0.155769,0.04651 0.01901,0 0.03457,0.04883 0.03457,0.1085152 0,0.107696 -0.415524,0.5527048 -0.516085,0.5527048 -0.02885,0 0.0054,-0.169703 0.07605,-0.3771199 z M 19.652714,5.2818708 C 19.504306,5.1696197 19.52174,5.1603228 19.885192,5.1578918 l 0.392917,-0.00259 0.09948,-0.371937 c 0.05471,-0.204565 0.127273,-0.3719362 0.161243,-0.3719362 0.111278,0 0.16483,0.5338181 0.07678,0.7653962 -0.07556,0.1987328 -0.129909,0.2264349 -0.444275,0.2264349 -0.197001,0 -0.430382,-0.05461 -0.518624,-0.12135 z m 1.423735,0.06625 c -0.121459,-0.1214599 -0.04147,-0.192723 0.213519,-0.190227 0.254091,0.00249 0.259943,0.0092 0.108182,0.123979 -0.178172,0.1347621 -0.240377,0.1475722 -0.321701,0.06625 z m 6.576437,2.800292 c 0.02461,-0.09412 -0.0054,-1.038539 -0.06659,-2.0987138 -0.06124,-1.0601751 -0.112849,-2.0533771 -0.114693,-2.2071161 -0.0025,-0.209908 -0.0754,-0.3474741 -0.292636,-0.552354 -0.343589,-0.3240471 -0.358467,-0.467133 -0.08265,-0.7949201 0.254722,-0.302719 0.267974,-0.7095919 0.03951,-1.2130779 -0.213528,-0.470572 -0.206212,-0.63765 0.03864,-0.88250401 l 0.202132,-0.202132 2.17413,0.05035 c 1.653712,0.0383 2.218645,0.07815 2.360099,0.16646801 0.16855,0.10524199 0.185968,0.18025999 0.185968,0.800961 0,1.0477359 0.06442,1.0113019 -1.729055,0.977849 l -1.494396,-0.02787 v 0.614855 0.6148559 l 0.681884,0.05308 c 0.375036,0.0292 0.893091,0.05331 1.151232,0.05358 0.625356,6.614e-4 0.729114,0.1110631 0.729114,0.7758009 0,0.8331301 -0.01478,0.8414621 -1.434479,0.8089382 l -1.199588,-0.02748 -0.02607,1.4505001 c -0.03012,1.6759481 -0.04088,1.701828 -0.735155,1.7685379 -0.405429,0.03896 -0.429376,0.03094 -0.387393,-0.1296 z m 3.605046,0.012549 C 31.150104,8.0389998 31.109405,7.7390617 31.063176,6.7256647 l -0.05844,-1.2811151 0.258191,-0.09668 c 0.312843,-0.1171462 0.503259,-0.518387 0.503259,-1.0604543 0,-0.5698548 -0.18072,-0.9284448 -0.510742,-1.0134309 -0.249713,-0.06431 -0.276749,-0.101914 -0.299874,-0.4171389 L 30.93016,2.5103844 h 0.504425 c 0.421556,0 0.536853,-0.03243 0.701821,-0.197397 0.108569,-0.108568 0.22194,-0.3282189 0.251936,-0.4881129 0.06258,-0.333607 0.0172,-1.19308099 -0.07335,-1.389132 -0.0517,-0.111935 0.02543,-0.14047801 0.500906,-0.18538101 0.309108,-0.02919 1.106066,-0.05334 1.77102,-0.05366 1.444846,-7.03e-4 1.422761,-0.01446 1.464874,0.91287701 0.04335,0.9545319 0.05133,0.9498429 -1.71798,1.0097 -0.784178,0.02653 -1.4417,0.06416 -1.461159,0.08362 -0.01946,0.01946 -0.01051,0.3030389 0.0199,0.6301761 l 0.05528,0.5947957 1.159431,-0.015859 c 1.112532,-0.015219 1.165529,-0.0083 1.310187,0.1703099 0.106734,0.1318123 0.150756,0.3245721 0.150756,0.6601251 0,0.7003219 -0.06385,0.7359862 -1.435339,0.8017621 -0.623238,0.02989 -1.146808,0.07643 -1.163489,0.103419 -0.01668,0.02699 -0.0098,0.305094 0.01534,0.6180069 l 0.04567,0.5689341 1.384077,-0.03996 c 1.339807,-0.03868 1.600279,-0.0064 1.751708,0.217371 0.0334,0.04934 0.06129,0.3957069 0.06199,0.7696949 0.0011,0.6156362 -0.01633,0.6912012 -0.184703,0.79859 -0.143247,0.09136 -0.698632,0.1319681 -2.417588,0.176751 -2.114747,0.0551 -2.238759,0.05007 -2.367935,-0.09604 z m 9.921403,-0.03945 c -0.19177,-0.19177 -0.192217,-0.07675 0.01206,-3.090228 0.04314,-0.636425 0.08805,-1.5476702 0.09981,-2.024988 l 0.02138,-0.8678531 h -0.24796 -0.247957 l 0.02785,-0.4682839 c 0.03181,-0.534835 -0.131731,-0.96796801 -0.464215,-1.229499 -0.114818,-0.09032 -0.183512,-0.189467 -0.152648,-0.220331 0.03086,-0.03086 1.041035,0.0013 2.244823,0.07153 2.66573,0.15546401 2.559132,0.108086 2.477465,1.101118 -0.07257,0.882461 -0.169143,0.9703979 -1.027819,0.9359109 l -0.625877,-0.02514 -0.168317,2.863104 c -0.121028,2.058692 -0.199342,2.9004861 -0.278741,2.996156 -0.08542,0.102926 -0.267208,0.133052 -0.802849,0.133052 -0.594448,0 -0.717127,-0.024699 -0.866976,-0.174549 z M 24.513162,6.2110126 C 24.40445,6.0775787 24.162144,5.4966836 24.162144,5.3694968 c 0,-0.0627 0.172399,-0.09511 0.49582,-0.09322 0.429112,0.00249 0.495834,0.02381 0.495916,0.1582899 8.2e-5,0.135223 -0.04805,0.149965 -0.37084,0.1135811 -0.36559,-0.04121 -0.370189,-0.03868 -0.319177,0.175219 0.02847,0.119366 0.08682,0.2853029 0.129673,0.3687501 0.09433,0.1836909 0.03905,0.265476 -0.08037,0.1188979 z m 8.740766,-0.5120079 v -0.365369 l 1.081838,-0.02723 c 1.068387,-0.02689 1.084316,-0.03011 1.281115,-0.259135 0.113248,-0.1317901 0.199277,-0.337261 0.199277,-0.4759529 0,-0.2233592 0.01402,-0.2352972 0.165305,-0.1408139 0.187923,0.1173588 0.213486,0.4191727 0.06077,0.717523 -0.142021,0.2774598 -0.603704,0.4083259 -1.651834,0.4682188 -0.869081,0.04966 -0.888515,0.05512 -0.888515,0.24945 0,0.1215012 -0.04816,0.198678 -0.123979,0.198678 -0.09151,0 -0.123979,-0.0957 -0.123979,-0.3653679 z M 37.575505,5.4485488 C 37.246053,5.3455877 36.477379,4.9385617 36.477379,4.8670737 c 0,-0.018259 0.164781,0.0397 0.366181,0.1287841 0.201398,0.08909 0.598506,0.2090018 0.88246,0.266473 0.283953,0.05747 0.531405,0.1498608 0.549886,0.2053098 0.04334,0.130012 -0.248785,0.1220491 -0.700401,-0.01909 z m 3.135898,-0.6446282 -0.179369,-0.433926 0.203883,0.247958 c 0.164441,0.1999911 0.286218,0.6198942 0.179779,0.6198942 -0.01371,0 -0.105637,-0.195267 -0.204293,-0.4339262 z M 24.05042,3.1508687 c 0.0272,-0.1477409 0.117159,-0.4266941 0.199917,-0.619895 0.140599,-0.328231 0.171797,-0.3512731 0.475606,-0.3512731 0.18818,0 0.368481,0.05222 0.428032,0.123979 0.08701,0.104843 0.06944,0.123979 -0.113859,0.123979 -0.270664,0 -0.537048,0.258375 -0.60219,0.5840861 -0.04222,0.2110841 -0.23141,0.4077449 -0.392261,0.4077449 -0.02458,0 -0.02244,-0.1208789 0.0048,-0.2686209 z M 18.533485,2.6301576 c -0.0046,-0.406858 -0.03245,-1.1014029 -0.06199,-1.5434339 -0.05331,-0.79781301 -0.05252,-0.80250902 0.10803,-0.64182901 0.146249,0.14636199 0.162079,0.284256 0.165305,1.43996301 0.0026,0.9162999 -0.02568,1.30739 -0.09975,1.3815699 -0.08266,0.08279 -0.104971,-0.04439 -0.111598,-0.63627 z m 10.603724,0.190101 c 0.01579,-0.218219 0.06455,-0.348143 0.128732,-0.343009 0.05682,0.0045 0.400865,0.01384 0.764536,0.02066 0.52714,0.0099 0.661221,0.03754 0.661221,0.136377 0,0.09918 -0.123979,0.1239791 -0.619894,0.1239791 -0.606119,0 -0.619895,0.0046 -0.619895,0.2066319 0,0.1534541 -0.04376,0.2066311 -0.170058,0.2066311 -0.148952,0 -0.166902,-0.04359 -0.144642,-0.351273 z m 4.034067,-0.020669 v -0.371937 h 0.991831 c 0.826525,0 0.991831,0.02066 0.991831,0.1239791 0,0.0961 -0.108922,0.1239789 -0.48438,0.1239789 -0.266408,0 -0.656942,0.023651 -0.867852,0.05256 -0.333234,0.04567 -0.383473,0.07816 -0.383473,0.2479579 0,0.118585 -0.04874,0.1953969 -0.123979,0.1953969 -0.09184,0 -0.123978,-0.09643 -0.123978,-0.3719369 z m 6.653532,0.105687 c -0.411091,-0.214118 -0.594876,-0.259384 -1.074483,-0.264645 -0.523793,-0.0057 -0.586293,0.01126 -0.660157,0.1796219 -0.105949,0.2414961 -0.188915,0.234964 -0.306983,-0.02417 -0.08188,-0.1797139 -0.07042,-0.2354559 0.07915,-0.3850299 0.16404,-0.164039 0.209426,-0.169171 0.731304,-0.08269 0.306025,0.05071 0.787225,0.210585 1.069334,0.3552789 0.58451,0.2997951 0.892572,0.2845832 1.045766,-0.05164 0.08813,-0.193434 0.397185,-0.292315 0.397185,-0.12708 0,0.1509191 -0.177152,0.5402161 -0.273791,0.6016651 -0.188915,0.1201219 -0.515501,0.05486 -1.007325,-0.201313 z M 25.620001,2.8822457 c -0.03644,-0.09497 0.01709,-0.123979 0.228783,-0.123979 0.151997,0 0.392589,-0.023249 0.534648,-0.05166 0.224459,-0.04489 0.258289,-0.02865 0.258289,0.123979 0,0.1592119 -0.04555,0.175637 -0.487072,0.175637 -0.356707,0 -0.499806,-0.03318 -0.534648,-0.123979 z m -10.90612,-1.405094 c -0.08065,-0.318212 -0.165574,-0.652955 -0.188728,-0.74387301 -0.03845,-0.150975 -0.02778,-0.14887501 0.123044,0.02422 0.171205,0.196487 0.293752,0.75310001 0.242029,1.09930801 -0.01998,0.133759 -0.07774,0.0094 -0.176345,-0.37966 z m 7.355783,-0.01932 c -0.02067,-0.03484 -0.06356,-0.2679031 -0.09531,-0.5179271 -0.05543,-0.436597 -0.05232,-0.44719099 0.07855,-0.267673 0.169372,0.23231999 0.256153,0.72421 0.14039,0.795756 -0.04733,0.02925 -0.102965,0.02468 -0.123638,-0.01016 z"
       id="path1694"
       inkscape:connector-curvature="0" />
  </g>
</svg>
