G04 #@! TF.GenerationSoftware,KiCad,Pcbnew,5.1.3-ffb9f22~84~ubuntu18.04.1*
G04 #@! TF.CreationDate,2019-10-26T21:40:40-04:00*
G04 #@! TF.ProjectId,swadge-banana,73776164-6765-42d6-9261-6e616e612e6b,rev?*
G04 #@! TF.SameCoordinates,Original*
G04 #@! TF.FileFunction,Soldermask,Top*
G04 #@! TF.FilePolarity,Negative*
%FSLAX46Y46*%
G04 Gerber Fmt 4.6, Leading zero omitted, Abs format (unit mm)*
G04 Created by KiCad (PCBNEW 5.1.3-ffb9f22~84~ubuntu18.04.1) date 2019-10-26 21:40:40*
%MOMM*%
%LPD*%
G04 APERTURE LIST*
%ADD10C,0.100000*%
G04 APERTURE END LIST*
D10*
G36*
X146466000Y-188598689D02*
G01*
X146455443Y-188611553D01*
X146443893Y-188633161D01*
X146423207Y-188683103D01*
X146382058Y-188744686D01*
X146329686Y-188797058D01*
X146268103Y-188838207D01*
X146199675Y-188866550D01*
X146199674Y-188866550D01*
X146199672Y-188866551D01*
X146127034Y-188881000D01*
X146052966Y-188881000D01*
X145980328Y-188866551D01*
X145980326Y-188866550D01*
X145980325Y-188866550D01*
X145911897Y-188838207D01*
X145850314Y-188797058D01*
X145797942Y-188744686D01*
X145756793Y-188683103D01*
X145736107Y-188633161D01*
X145724557Y-188611553D01*
X145709011Y-188592611D01*
X145690069Y-188577066D01*
X145668459Y-188565515D01*
X145645010Y-188558402D01*
X145620624Y-188556000D01*
X145559376Y-188556000D01*
X145534990Y-188558402D01*
X145511541Y-188565515D01*
X145489930Y-188577066D01*
X145470988Y-188592611D01*
X145455443Y-188611553D01*
X145443893Y-188633161D01*
X145423207Y-188683103D01*
X145382058Y-188744686D01*
X145329686Y-188797058D01*
X145268103Y-188838207D01*
X145199675Y-188866550D01*
X145199674Y-188866550D01*
X145199672Y-188866551D01*
X145127034Y-188881000D01*
X145052966Y-188881000D01*
X144980328Y-188866551D01*
X144980326Y-188866550D01*
X144980325Y-188866550D01*
X144911897Y-188838207D01*
X144850314Y-188797058D01*
X144797942Y-188744686D01*
X144756793Y-188683103D01*
X144736107Y-188633161D01*
X144724557Y-188611553D01*
X144709011Y-188592611D01*
X144690069Y-188577066D01*
X144668459Y-188565515D01*
X144645010Y-188558402D01*
X144620624Y-188556000D01*
X144559376Y-188556000D01*
X144534990Y-188558402D01*
X144511541Y-188565515D01*
X144489930Y-188577066D01*
X144470988Y-188592611D01*
X144455443Y-188611553D01*
X144443893Y-188633161D01*
X144423207Y-188683103D01*
X144382058Y-188744686D01*
X144329686Y-188797058D01*
X144268103Y-188838207D01*
X144199675Y-188866550D01*
X144199674Y-188866550D01*
X144199672Y-188866551D01*
X144127034Y-188881000D01*
X144052966Y-188881000D01*
X143980328Y-188866551D01*
X143980326Y-188866550D01*
X143980325Y-188866550D01*
X143911897Y-188838207D01*
X143850314Y-188797058D01*
X143797942Y-188744686D01*
X143756793Y-188683103D01*
X143736107Y-188633161D01*
X143724557Y-188611553D01*
X143709011Y-188592611D01*
X143690069Y-188577066D01*
X143668459Y-188565515D01*
X143645010Y-188558402D01*
X143620624Y-188556000D01*
X143559376Y-188556000D01*
X143534990Y-188558402D01*
X143511541Y-188565515D01*
X143489930Y-188577066D01*
X143470988Y-188592611D01*
X143455443Y-188611553D01*
X143443893Y-188633161D01*
X143423207Y-188683103D01*
X143382058Y-188744686D01*
X143329686Y-188797058D01*
X143268103Y-188838207D01*
X143199675Y-188866550D01*
X143199674Y-188866550D01*
X143199672Y-188866551D01*
X143127034Y-188881000D01*
X143052966Y-188881000D01*
X142980328Y-188866551D01*
X142980326Y-188866550D01*
X142980325Y-188866550D01*
X142911897Y-188838207D01*
X142850314Y-188797058D01*
X142797942Y-188744686D01*
X142756793Y-188683103D01*
X142736107Y-188633161D01*
X142724557Y-188611553D01*
X142709011Y-188592611D01*
X142690069Y-188577066D01*
X142668459Y-188565515D01*
X142645010Y-188558402D01*
X142620624Y-188556000D01*
X142559376Y-188556000D01*
X142534990Y-188558402D01*
X142511541Y-188565515D01*
X142489930Y-188577066D01*
X142470988Y-188592611D01*
X142455443Y-188611553D01*
X142443893Y-188633161D01*
X142423207Y-188683103D01*
X142382058Y-188744686D01*
X142329686Y-188797058D01*
X142268103Y-188838207D01*
X142199675Y-188866550D01*
X142199674Y-188866550D01*
X142199672Y-188866551D01*
X142127034Y-188881000D01*
X142052966Y-188881000D01*
X141980328Y-188866551D01*
X141980326Y-188866550D01*
X141980325Y-188866550D01*
X141911897Y-188838207D01*
X141850314Y-188797058D01*
X141797942Y-188744686D01*
X141756793Y-188683103D01*
X141736107Y-188633161D01*
X141724557Y-188611553D01*
X141709011Y-188592611D01*
X141690069Y-188577066D01*
X141668459Y-188565515D01*
X141645010Y-188558402D01*
X141620624Y-188556000D01*
X141559376Y-188556000D01*
X141534990Y-188558402D01*
X141511541Y-188565515D01*
X141489930Y-188577066D01*
X141470988Y-188592611D01*
X141455443Y-188611553D01*
X141443893Y-188633161D01*
X141423207Y-188683103D01*
X141382058Y-188744686D01*
X141329686Y-188797058D01*
X141268103Y-188838207D01*
X141199675Y-188866550D01*
X141199674Y-188866550D01*
X141199672Y-188866551D01*
X141127034Y-188881000D01*
X141052966Y-188881000D01*
X140980328Y-188866551D01*
X140980326Y-188866550D01*
X140980325Y-188866550D01*
X140911897Y-188838207D01*
X140850314Y-188797058D01*
X140797942Y-188744686D01*
X140756793Y-188683103D01*
X140736107Y-188633161D01*
X140724557Y-188611553D01*
X140709011Y-188592611D01*
X140690069Y-188577066D01*
X140668459Y-188565515D01*
X140645010Y-188558402D01*
X140620624Y-188556000D01*
X140559376Y-188556000D01*
X140534990Y-188558402D01*
X140511541Y-188565515D01*
X140489930Y-188577066D01*
X140470988Y-188592611D01*
X140455443Y-188611553D01*
X140443893Y-188633161D01*
X140423207Y-188683103D01*
X140382058Y-188744686D01*
X140329686Y-188797058D01*
X140268103Y-188838207D01*
X140199675Y-188866550D01*
X140199674Y-188866550D01*
X140199672Y-188866551D01*
X140127034Y-188881000D01*
X140052966Y-188881000D01*
X139980328Y-188866551D01*
X139980326Y-188866550D01*
X139980325Y-188866550D01*
X139911897Y-188838207D01*
X139850314Y-188797058D01*
X139797942Y-188744686D01*
X139756793Y-188683103D01*
X139736107Y-188633161D01*
X139724557Y-188611553D01*
X139709011Y-188592611D01*
X139690069Y-188577066D01*
X139668459Y-188565515D01*
X139645010Y-188558402D01*
X139620624Y-188556000D01*
X139559376Y-188556000D01*
X139534990Y-188558402D01*
X139511541Y-188565515D01*
X139489930Y-188577066D01*
X139470988Y-188592611D01*
X139455443Y-188611553D01*
X139443893Y-188633161D01*
X139423207Y-188683103D01*
X139382058Y-188744686D01*
X139329686Y-188797058D01*
X139268103Y-188838207D01*
X139199675Y-188866550D01*
X139199674Y-188866550D01*
X139199672Y-188866551D01*
X139127034Y-188881000D01*
X139052966Y-188881000D01*
X138980328Y-188866551D01*
X138980326Y-188866550D01*
X138980325Y-188866550D01*
X138911897Y-188838207D01*
X138850314Y-188797058D01*
X138797942Y-188744686D01*
X138756793Y-188683103D01*
X138736107Y-188633161D01*
X138724557Y-188611553D01*
X138709011Y-188592611D01*
X138690069Y-188577066D01*
X138668459Y-188565515D01*
X138645010Y-188558402D01*
X138620624Y-188556000D01*
X138559376Y-188556000D01*
X138534990Y-188558402D01*
X138511541Y-188565515D01*
X138489930Y-188577066D01*
X138470988Y-188592611D01*
X138455443Y-188611553D01*
X138443893Y-188633161D01*
X138423207Y-188683103D01*
X138382058Y-188744686D01*
X138329686Y-188797058D01*
X138268103Y-188838207D01*
X138199675Y-188866550D01*
X138199674Y-188866550D01*
X138199672Y-188866551D01*
X138127034Y-188881000D01*
X138052966Y-188881000D01*
X137980328Y-188866551D01*
X137980326Y-188866550D01*
X137980325Y-188866550D01*
X137911897Y-188838207D01*
X137850314Y-188797058D01*
X137797942Y-188744686D01*
X137756793Y-188683103D01*
X137736107Y-188633161D01*
X137724557Y-188611553D01*
X137709011Y-188592611D01*
X137690069Y-188577066D01*
X137668459Y-188565515D01*
X137645010Y-188558402D01*
X137620624Y-188556000D01*
X137559376Y-188556000D01*
X137534990Y-188558402D01*
X137511541Y-188565515D01*
X137489930Y-188577066D01*
X137470988Y-188592611D01*
X137455443Y-188611553D01*
X137443893Y-188633161D01*
X137423207Y-188683103D01*
X137382058Y-188744686D01*
X137329686Y-188797058D01*
X137268103Y-188838207D01*
X137199675Y-188866550D01*
X137199674Y-188866550D01*
X137199672Y-188866551D01*
X137127034Y-188881000D01*
X137052966Y-188881000D01*
X136980328Y-188866551D01*
X136980326Y-188866550D01*
X136980325Y-188866550D01*
X136911897Y-188838207D01*
X136850314Y-188797058D01*
X136797942Y-188744686D01*
X136756793Y-188683103D01*
X136736107Y-188633161D01*
X136724557Y-188611553D01*
X136709011Y-188592611D01*
X136690069Y-188577066D01*
X136668459Y-188565515D01*
X136645010Y-188558402D01*
X136620624Y-188556000D01*
X136559376Y-188556000D01*
X136534990Y-188558402D01*
X136511541Y-188565515D01*
X136489930Y-188577066D01*
X136470988Y-188592611D01*
X136455443Y-188611553D01*
X136443893Y-188633161D01*
X136423207Y-188683103D01*
X136382058Y-188744686D01*
X136329686Y-188797058D01*
X136268103Y-188838207D01*
X136199675Y-188866550D01*
X136199674Y-188866550D01*
X136199672Y-188866551D01*
X136127034Y-188881000D01*
X136052966Y-188881000D01*
X135980328Y-188866551D01*
X135980326Y-188866550D01*
X135980325Y-188866550D01*
X135911897Y-188838207D01*
X135850314Y-188797058D01*
X135797942Y-188744686D01*
X135756793Y-188683103D01*
X135736107Y-188633161D01*
X135724557Y-188611553D01*
X135714000Y-188598690D01*
X135714000Y-183854000D01*
X146466000Y-183854000D01*
X146466000Y-188598689D01*
X146466000Y-188598689D01*
G37*
G36*
X155466000Y-188598689D02*
G01*
X155455443Y-188611553D01*
X155443893Y-188633161D01*
X155423207Y-188683103D01*
X155382058Y-188744686D01*
X155329686Y-188797058D01*
X155268103Y-188838207D01*
X155199675Y-188866550D01*
X155199674Y-188866550D01*
X155199672Y-188866551D01*
X155127034Y-188881000D01*
X155052966Y-188881000D01*
X154980328Y-188866551D01*
X154980326Y-188866550D01*
X154980325Y-188866550D01*
X154911897Y-188838207D01*
X154850314Y-188797058D01*
X154797942Y-188744686D01*
X154756793Y-188683103D01*
X154736107Y-188633161D01*
X154724557Y-188611553D01*
X154714000Y-188598690D01*
X154714000Y-187680999D01*
X154711598Y-187656613D01*
X154704485Y-187633164D01*
X154692934Y-187611553D01*
X154677389Y-187592611D01*
X154658447Y-187577066D01*
X154636836Y-187565515D01*
X154613387Y-187558402D01*
X154589001Y-187556000D01*
X153590999Y-187556000D01*
X153566613Y-187558402D01*
X153543164Y-187565515D01*
X153521553Y-187577066D01*
X153502611Y-187592611D01*
X153487066Y-187611553D01*
X153475515Y-187633164D01*
X153468402Y-187656613D01*
X153466000Y-187680999D01*
X153466000Y-188598689D01*
X153455443Y-188611553D01*
X153443893Y-188633161D01*
X153423207Y-188683103D01*
X153382058Y-188744686D01*
X153329686Y-188797058D01*
X153268103Y-188838207D01*
X153199675Y-188866550D01*
X153199674Y-188866550D01*
X153199672Y-188866551D01*
X153127034Y-188881000D01*
X153052966Y-188881000D01*
X152980328Y-188866551D01*
X152980326Y-188866550D01*
X152980325Y-188866550D01*
X152911897Y-188838207D01*
X152850314Y-188797058D01*
X152797942Y-188744686D01*
X152756793Y-188683103D01*
X152736107Y-188633161D01*
X152724557Y-188611553D01*
X152709011Y-188592611D01*
X152690069Y-188577066D01*
X152668459Y-188565515D01*
X152645010Y-188558402D01*
X152620624Y-188556000D01*
X152559376Y-188556000D01*
X152534990Y-188558402D01*
X152511541Y-188565515D01*
X152489930Y-188577066D01*
X152470988Y-188592611D01*
X152455443Y-188611553D01*
X152443893Y-188633161D01*
X152423207Y-188683103D01*
X152382058Y-188744686D01*
X152329686Y-188797058D01*
X152268103Y-188838207D01*
X152199675Y-188866550D01*
X152199674Y-188866550D01*
X152199672Y-188866551D01*
X152127034Y-188881000D01*
X152052966Y-188881000D01*
X151980328Y-188866551D01*
X151980326Y-188866550D01*
X151980325Y-188866550D01*
X151911897Y-188838207D01*
X151850314Y-188797058D01*
X151797942Y-188744686D01*
X151756793Y-188683103D01*
X151736107Y-188633161D01*
X151724557Y-188611553D01*
X151709011Y-188592611D01*
X151690069Y-188577066D01*
X151668459Y-188565515D01*
X151645010Y-188558402D01*
X151620624Y-188556000D01*
X151559376Y-188556000D01*
X151534990Y-188558402D01*
X151511541Y-188565515D01*
X151489930Y-188577066D01*
X151470988Y-188592611D01*
X151455443Y-188611553D01*
X151443893Y-188633161D01*
X151423207Y-188683103D01*
X151382058Y-188744686D01*
X151329686Y-188797058D01*
X151268103Y-188838207D01*
X151199675Y-188866550D01*
X151199674Y-188866550D01*
X151199672Y-188866551D01*
X151127034Y-188881000D01*
X151052966Y-188881000D01*
X150980328Y-188866551D01*
X150980326Y-188866550D01*
X150980325Y-188866550D01*
X150911897Y-188838207D01*
X150850314Y-188797058D01*
X150797942Y-188744686D01*
X150756793Y-188683103D01*
X150736107Y-188633161D01*
X150724557Y-188611553D01*
X150709011Y-188592611D01*
X150690069Y-188577066D01*
X150668459Y-188565515D01*
X150645010Y-188558402D01*
X150620624Y-188556000D01*
X150559376Y-188556000D01*
X150534990Y-188558402D01*
X150511541Y-188565515D01*
X150489930Y-188577066D01*
X150470988Y-188592611D01*
X150455443Y-188611553D01*
X150443893Y-188633161D01*
X150423207Y-188683103D01*
X150382058Y-188744686D01*
X150329686Y-188797058D01*
X150268103Y-188838207D01*
X150199675Y-188866550D01*
X150199674Y-188866550D01*
X150199672Y-188866551D01*
X150127034Y-188881000D01*
X150052966Y-188881000D01*
X149980328Y-188866551D01*
X149980326Y-188866550D01*
X149980325Y-188866550D01*
X149911897Y-188838207D01*
X149850314Y-188797058D01*
X149797942Y-188744686D01*
X149756793Y-188683103D01*
X149736107Y-188633161D01*
X149724557Y-188611553D01*
X149709011Y-188592611D01*
X149690069Y-188577066D01*
X149668459Y-188565515D01*
X149645010Y-188558402D01*
X149620624Y-188556000D01*
X149559376Y-188556000D01*
X149534990Y-188558402D01*
X149511541Y-188565515D01*
X149489930Y-188577066D01*
X149470988Y-188592611D01*
X149455443Y-188611553D01*
X149443893Y-188633161D01*
X149423207Y-188683103D01*
X149382058Y-188744686D01*
X149329686Y-188797058D01*
X149268103Y-188838207D01*
X149199675Y-188866550D01*
X149199674Y-188866550D01*
X149199672Y-188866551D01*
X149127034Y-188881000D01*
X149052966Y-188881000D01*
X148980328Y-188866551D01*
X148980326Y-188866550D01*
X148980325Y-188866550D01*
X148911897Y-188838207D01*
X148850314Y-188797058D01*
X148797942Y-188744686D01*
X148756793Y-188683103D01*
X148736107Y-188633161D01*
X148724557Y-188611553D01*
X148714000Y-188598690D01*
X148714000Y-183854000D01*
X155466000Y-183854000D01*
X155466000Y-188598689D01*
X155466000Y-188598689D01*
G37*
G36*
X132666127Y-177203283D02*
G01*
X131957775Y-178047464D01*
X130730571Y-177017719D01*
X131438923Y-176173538D01*
X132666127Y-177203283D01*
X132666127Y-177203283D01*
G37*
G36*
X142482685Y-174573250D02*
G01*
X142631189Y-174634762D01*
X142631190Y-174634763D01*
X142764835Y-174724061D01*
X142878499Y-174837725D01*
X142918642Y-174897804D01*
X142967798Y-174971371D01*
X143029310Y-175119875D01*
X143060668Y-175277522D01*
X143060668Y-175438262D01*
X143029310Y-175595909D01*
X142967798Y-175744413D01*
X142967797Y-175744414D01*
X142878499Y-175878059D01*
X142764835Y-175991723D01*
X142664601Y-176058696D01*
X142631189Y-176081022D01*
X142482685Y-176142534D01*
X142325038Y-176173892D01*
X142164298Y-176173892D01*
X142006651Y-176142534D01*
X141932398Y-176111777D01*
X141858147Y-176081022D01*
X141824735Y-176058697D01*
X141724501Y-175991723D01*
X141610837Y-175878059D01*
X141521539Y-175744414D01*
X141521538Y-175744413D01*
X141460026Y-175595909D01*
X141428668Y-175438262D01*
X141428668Y-175277522D01*
X141460026Y-175119875D01*
X141490783Y-175045622D01*
X141521538Y-174971371D01*
X141570694Y-174897804D01*
X141610837Y-174837725D01*
X141724501Y-174724061D01*
X141858146Y-174634763D01*
X141858147Y-174634762D01*
X141932398Y-174604007D01*
X142006651Y-174573250D01*
X142164298Y-174541892D01*
X142325038Y-174541892D01*
X142482685Y-174573250D01*
X142482685Y-174573250D01*
G37*
G36*
X134723047Y-174751941D02*
G01*
X134014695Y-175596122D01*
X132787491Y-174566377D01*
X133495843Y-173722196D01*
X134723047Y-174751941D01*
X134723047Y-174751941D01*
G37*
G36*
X128912509Y-174053623D02*
G01*
X128204157Y-174897804D01*
X126976953Y-173868059D01*
X127685305Y-173023878D01*
X128912509Y-174053623D01*
X128912509Y-174053623D01*
G37*
G36*
X130969429Y-171602281D02*
G01*
X130261077Y-172446462D01*
X129033873Y-171416717D01*
X129742225Y-170572536D01*
X130969429Y-171602281D01*
X130969429Y-171602281D01*
G37*
G36*
X123730197Y-167045360D02*
G01*
X123764392Y-167054924D01*
X123796065Y-167070975D01*
X123824006Y-167092904D01*
X123851144Y-167124538D01*
X123883469Y-167170703D01*
X124121042Y-167509992D01*
X124239001Y-167678456D01*
X124259453Y-167714788D01*
X124270499Y-167748533D01*
X124274749Y-167783785D01*
X124272040Y-167819196D01*
X124262476Y-167853390D01*
X124246423Y-167885068D01*
X124224496Y-167913007D01*
X124192862Y-167940145D01*
X123700381Y-168284983D01*
X123664049Y-168305435D01*
X123630304Y-168316481D01*
X123595051Y-168320731D01*
X123559639Y-168318022D01*
X123525444Y-168308458D01*
X123493771Y-168292407D01*
X123465830Y-168270478D01*
X123438692Y-168238844D01*
X123174065Y-167860917D01*
X123083157Y-167731087D01*
X123083156Y-167731085D01*
X123050835Y-167684926D01*
X123030383Y-167648594D01*
X123019337Y-167614849D01*
X123015087Y-167579597D01*
X123017796Y-167544186D01*
X123027360Y-167509992D01*
X123043413Y-167478314D01*
X123065340Y-167450375D01*
X123096974Y-167423237D01*
X123589455Y-167078399D01*
X123625787Y-167057947D01*
X123659532Y-167046901D01*
X123694785Y-167042651D01*
X123730197Y-167045360D01*
X123730197Y-167045360D01*
G37*
G36*
X125020361Y-166141978D02*
G01*
X125054556Y-166151542D01*
X125086229Y-166167593D01*
X125114170Y-166189522D01*
X125141308Y-166221156D01*
X125173633Y-166267321D01*
X125411206Y-166606610D01*
X125529165Y-166775074D01*
X125549617Y-166811406D01*
X125560663Y-166845151D01*
X125564913Y-166880403D01*
X125562204Y-166915814D01*
X125552640Y-166950008D01*
X125536587Y-166981686D01*
X125514660Y-167009625D01*
X125483026Y-167036763D01*
X124990545Y-167381601D01*
X124954213Y-167402053D01*
X124920468Y-167413099D01*
X124885215Y-167417349D01*
X124849803Y-167414640D01*
X124815608Y-167405076D01*
X124783935Y-167389025D01*
X124755994Y-167367096D01*
X124728856Y-167335462D01*
X124548859Y-167078399D01*
X124373321Y-166827705D01*
X124373320Y-166827703D01*
X124340999Y-166781544D01*
X124320547Y-166745212D01*
X124309501Y-166711467D01*
X124305251Y-166676215D01*
X124307960Y-166640804D01*
X124317524Y-166606610D01*
X124333577Y-166574932D01*
X124355504Y-166546993D01*
X124387138Y-166519855D01*
X124879619Y-166175017D01*
X124915951Y-166154565D01*
X124949696Y-166143519D01*
X124984949Y-166139269D01*
X125020361Y-166141978D01*
X125020361Y-166141978D01*
G37*
G36*
X134453186Y-160835408D02*
G01*
X134487937Y-160842715D01*
X134520593Y-160856661D01*
X134554990Y-160880191D01*
X134598166Y-160916420D01*
X134598169Y-160916422D01*
X134955304Y-161216094D01*
X135073010Y-161314861D01*
X135102160Y-161344655D01*
X135121562Y-161374390D01*
X135134794Y-161407347D01*
X135141342Y-161442249D01*
X135140954Y-161477758D01*
X135133647Y-161512509D01*
X135119701Y-161545166D01*
X135096173Y-161579559D01*
X135059941Y-161622739D01*
X135059940Y-161622740D01*
X134745938Y-161996953D01*
X134745934Y-161996957D01*
X134709710Y-162040127D01*
X134679917Y-162069278D01*
X134650182Y-162088680D01*
X134617225Y-162101912D01*
X134582323Y-162108460D01*
X134546814Y-162108072D01*
X134512063Y-162100765D01*
X134479407Y-162086819D01*
X134445010Y-162063289D01*
X134401834Y-162027060D01*
X134401831Y-162027058D01*
X133970165Y-161664847D01*
X133926990Y-161628619D01*
X133897840Y-161598825D01*
X133878438Y-161569090D01*
X133865206Y-161536133D01*
X133858658Y-161501231D01*
X133859046Y-161465722D01*
X133866353Y-161430971D01*
X133880299Y-161398314D01*
X133903827Y-161363921D01*
X133975392Y-161278633D01*
X134254062Y-160946527D01*
X134254066Y-160946523D01*
X134290290Y-160903353D01*
X134320083Y-160874202D01*
X134349818Y-160854800D01*
X134382775Y-160841568D01*
X134417677Y-160835020D01*
X134453186Y-160835408D01*
X134453186Y-160835408D01*
G37*
G36*
X135465576Y-159628888D02*
G01*
X135500327Y-159636195D01*
X135532983Y-159650141D01*
X135567380Y-159673671D01*
X135610556Y-159709900D01*
X135610559Y-159709902D01*
X135967694Y-160009574D01*
X136085400Y-160108341D01*
X136114550Y-160138135D01*
X136133952Y-160167870D01*
X136147184Y-160200827D01*
X136153732Y-160235729D01*
X136153344Y-160271238D01*
X136146037Y-160305989D01*
X136132091Y-160338646D01*
X136108563Y-160373039D01*
X136072331Y-160416219D01*
X136072330Y-160416220D01*
X135758328Y-160790433D01*
X135758324Y-160790437D01*
X135722100Y-160833607D01*
X135692307Y-160862758D01*
X135662572Y-160882160D01*
X135629615Y-160895392D01*
X135594713Y-160901940D01*
X135559204Y-160901552D01*
X135524453Y-160894245D01*
X135491797Y-160880299D01*
X135457400Y-160856769D01*
X135414224Y-160820540D01*
X135414221Y-160820538D01*
X134982555Y-160458327D01*
X134939380Y-160422099D01*
X134910230Y-160392305D01*
X134890828Y-160362570D01*
X134877596Y-160329613D01*
X134871048Y-160294711D01*
X134871436Y-160259202D01*
X134878743Y-160224451D01*
X134892689Y-160191794D01*
X134916217Y-160157401D01*
X134987782Y-160072113D01*
X135266452Y-159740007D01*
X135266456Y-159740003D01*
X135302680Y-159696833D01*
X135332473Y-159667682D01*
X135362208Y-159648280D01*
X135395165Y-159635048D01*
X135430067Y-159628500D01*
X135465576Y-159628888D01*
X135465576Y-159628888D01*
G37*
G36*
X118201170Y-158663720D02*
G01*
X117165629Y-159040626D01*
X116617712Y-157535239D01*
X116617712Y-157535238D01*
X117653253Y-157158332D01*
X118201170Y-158663720D01*
X118201170Y-158663720D01*
G37*
G36*
X121195806Y-157535238D02*
G01*
X121208187Y-157569256D01*
X120172646Y-157946162D01*
X119624729Y-156440775D01*
X119624729Y-156440774D01*
X120660270Y-156063868D01*
X121195806Y-157535238D01*
X121195806Y-157535238D01*
G37*
G36*
X116524612Y-154057414D02*
G01*
X116525271Y-154059226D01*
X115489730Y-154436132D01*
X114941813Y-152930745D01*
X114941813Y-152930744D01*
X115977354Y-152553838D01*
X116524612Y-154057414D01*
X116524612Y-154057414D01*
G37*
G36*
X125261708Y-153186816D02*
G01*
X125295453Y-153197862D01*
X125326404Y-153215284D01*
X125353350Y-153238401D01*
X125375279Y-153266342D01*
X125391330Y-153298015D01*
X125402556Y-153338153D01*
X125506957Y-153930237D01*
X125510137Y-153971801D01*
X125505887Y-154007050D01*
X125494839Y-154040803D01*
X125477419Y-154071750D01*
X125454301Y-154098697D01*
X125426364Y-154120623D01*
X125394686Y-154136676D01*
X125354550Y-154147902D01*
X125299045Y-154157689D01*
X124744106Y-154255540D01*
X124744103Y-154255540D01*
X124688605Y-154265326D01*
X124647041Y-154268506D01*
X124611788Y-154264256D01*
X124578043Y-154253210D01*
X124547092Y-154235788D01*
X124520146Y-154212671D01*
X124498217Y-154184730D01*
X124482166Y-154153057D01*
X124470940Y-154112919D01*
X124366539Y-153520835D01*
X124363359Y-153479271D01*
X124367609Y-153444022D01*
X124378657Y-153410269D01*
X124396077Y-153379322D01*
X124419195Y-153352375D01*
X124447132Y-153330449D01*
X124478810Y-153314396D01*
X124518946Y-153303170D01*
X124886269Y-153238401D01*
X125129390Y-153195532D01*
X125129393Y-153195532D01*
X125184891Y-153185746D01*
X125226455Y-153182566D01*
X125261708Y-153186816D01*
X125261708Y-153186816D01*
G37*
G36*
X119519907Y-152930744D02*
G01*
X119532288Y-152964762D01*
X118496747Y-153341668D01*
X117948830Y-151836281D01*
X117948830Y-151836280D01*
X118984371Y-151459374D01*
X119519907Y-152930744D01*
X119519907Y-152930744D01*
G37*
G36*
X124988212Y-151635744D02*
G01*
X125021957Y-151646790D01*
X125052908Y-151664212D01*
X125079854Y-151687329D01*
X125101783Y-151715270D01*
X125117834Y-151746943D01*
X125129060Y-151787081D01*
X125233461Y-152379165D01*
X125236641Y-152420729D01*
X125232391Y-152455978D01*
X125221343Y-152489731D01*
X125203923Y-152520678D01*
X125180805Y-152547625D01*
X125152868Y-152569551D01*
X125121190Y-152585604D01*
X125081054Y-152596830D01*
X125025549Y-152606617D01*
X124470610Y-152704468D01*
X124470607Y-152704468D01*
X124415109Y-152714254D01*
X124373545Y-152717434D01*
X124338292Y-152713184D01*
X124304547Y-152702138D01*
X124273596Y-152684716D01*
X124246650Y-152661599D01*
X124224721Y-152633658D01*
X124208670Y-152601985D01*
X124197444Y-152561847D01*
X124093043Y-151969763D01*
X124089863Y-151928199D01*
X124094113Y-151892950D01*
X124105161Y-151859197D01*
X124122581Y-151828250D01*
X124145699Y-151801303D01*
X124173636Y-151779377D01*
X124205314Y-151763324D01*
X124245450Y-151752098D01*
X124612773Y-151687329D01*
X124855894Y-151644460D01*
X124855897Y-151644460D01*
X124911395Y-151634674D01*
X124952959Y-151631494D01*
X124988212Y-151635744D01*
X124988212Y-151635744D01*
G37*
G36*
X121017635Y-148588339D02*
G01*
X121609719Y-148692740D01*
X121649855Y-148703966D01*
X121681533Y-148720019D01*
X121709470Y-148741945D01*
X121732588Y-148768892D01*
X121750008Y-148799839D01*
X121761056Y-148833592D01*
X121765306Y-148868841D01*
X121762126Y-148910405D01*
X121752340Y-148965903D01*
X121752340Y-148965906D01*
X121675986Y-149398932D01*
X121644702Y-149576350D01*
X121633476Y-149616488D01*
X121617425Y-149648161D01*
X121595496Y-149676102D01*
X121568550Y-149699219D01*
X121537599Y-149716641D01*
X121503854Y-149727687D01*
X121468601Y-149731937D01*
X121427037Y-149728757D01*
X120834953Y-149624356D01*
X120794817Y-149613130D01*
X120763139Y-149597077D01*
X120735202Y-149575151D01*
X120712084Y-149548204D01*
X120694664Y-149517257D01*
X120683616Y-149483504D01*
X120679366Y-149448255D01*
X120682546Y-149406691D01*
X120692391Y-149350860D01*
X120790183Y-148796251D01*
X120799970Y-148740746D01*
X120811196Y-148700608D01*
X120827247Y-148668935D01*
X120849176Y-148640994D01*
X120876122Y-148617877D01*
X120907073Y-148600455D01*
X120940818Y-148589409D01*
X120976071Y-148585159D01*
X121017635Y-148588339D01*
X121017635Y-148588339D01*
G37*
G36*
X119466563Y-148314843D02*
G01*
X120058647Y-148419244D01*
X120098783Y-148430470D01*
X120130461Y-148446523D01*
X120158398Y-148468449D01*
X120181516Y-148495396D01*
X120198936Y-148526343D01*
X120209984Y-148560096D01*
X120214234Y-148595345D01*
X120211054Y-148636909D01*
X120201268Y-148692407D01*
X120201268Y-148692410D01*
X120135347Y-149066264D01*
X120093630Y-149302854D01*
X120082404Y-149342992D01*
X120066353Y-149374665D01*
X120044424Y-149402606D01*
X120017478Y-149425723D01*
X119986527Y-149443145D01*
X119952782Y-149454191D01*
X119917529Y-149458441D01*
X119875965Y-149455261D01*
X119283881Y-149350860D01*
X119243745Y-149339634D01*
X119212067Y-149323581D01*
X119184130Y-149301655D01*
X119161012Y-149274708D01*
X119143592Y-149243761D01*
X119132544Y-149210008D01*
X119128294Y-149174759D01*
X119131474Y-149133195D01*
X119143276Y-149066264D01*
X119239111Y-148522755D01*
X119248898Y-148467250D01*
X119260124Y-148427112D01*
X119276175Y-148395439D01*
X119298104Y-148367498D01*
X119325050Y-148344381D01*
X119356001Y-148326959D01*
X119389746Y-148315913D01*
X119424999Y-148311663D01*
X119466563Y-148314843D01*
X119466563Y-148314843D01*
G37*
G36*
X115145174Y-148187311D02*
G01*
X115179763Y-148195376D01*
X115212103Y-148210029D01*
X115240966Y-148230713D01*
X115265244Y-148256634D01*
X115283998Y-148286791D01*
X115298677Y-148325793D01*
X115387859Y-148658624D01*
X115457704Y-148919287D01*
X115473696Y-148978972D01*
X115480486Y-149020103D01*
X115479325Y-149055589D01*
X115471261Y-149090174D01*
X115456604Y-149122520D01*
X115435921Y-149151384D01*
X115410003Y-149175659D01*
X115379845Y-149194413D01*
X115340843Y-149209092D01*
X114760109Y-149364700D01*
X114718979Y-149371490D01*
X114683492Y-149370329D01*
X114648903Y-149362264D01*
X114616563Y-149347611D01*
X114587700Y-149326927D01*
X114563422Y-149301006D01*
X114544668Y-149270849D01*
X114529989Y-149231847D01*
X114405940Y-148768892D01*
X114369556Y-148633104D01*
X114369556Y-148633103D01*
X114354970Y-148578668D01*
X114348180Y-148537537D01*
X114349341Y-148502051D01*
X114357405Y-148467466D01*
X114372062Y-148435120D01*
X114392745Y-148406256D01*
X114418663Y-148381981D01*
X114448821Y-148363227D01*
X114487823Y-148348548D01*
X115068557Y-148192940D01*
X115109687Y-148186150D01*
X115145174Y-148187311D01*
X115145174Y-148187311D01*
G37*
G36*
X116666508Y-147779671D02*
G01*
X116701097Y-147787736D01*
X116733437Y-147802389D01*
X116762300Y-147823073D01*
X116786578Y-147848994D01*
X116805332Y-147879151D01*
X116820011Y-147918153D01*
X116857972Y-148059826D01*
X116961920Y-148447762D01*
X116995030Y-148571332D01*
X117001820Y-148612463D01*
X117000659Y-148647949D01*
X116992595Y-148682534D01*
X116977938Y-148714880D01*
X116957255Y-148743744D01*
X116931337Y-148768019D01*
X116901179Y-148786773D01*
X116862177Y-148801452D01*
X116281443Y-148957060D01*
X116240313Y-148963850D01*
X116204826Y-148962689D01*
X116170237Y-148954624D01*
X116137897Y-148939971D01*
X116109034Y-148919287D01*
X116084756Y-148893366D01*
X116066002Y-148863209D01*
X116051323Y-148824207D01*
X115892622Y-148231927D01*
X115890890Y-148225464D01*
X115890890Y-148225463D01*
X115876304Y-148171028D01*
X115869514Y-148129897D01*
X115870675Y-148094411D01*
X115878739Y-148059826D01*
X115893396Y-148027480D01*
X115914079Y-147998616D01*
X115939997Y-147974341D01*
X115970155Y-147955587D01*
X116009157Y-147940908D01*
X116589891Y-147785300D01*
X116631021Y-147778510D01*
X116666508Y-147779671D01*
X116666508Y-147779671D01*
G37*
G36*
X121520835Y-146216539D02*
G01*
X122112919Y-146320940D01*
X122153055Y-146332166D01*
X122184733Y-146348219D01*
X122212670Y-146370145D01*
X122235788Y-146397092D01*
X122253208Y-146428039D01*
X122264256Y-146461792D01*
X122268506Y-146497041D01*
X122265326Y-146538605D01*
X122255540Y-146594103D01*
X122255540Y-146594106D01*
X122179186Y-147027132D01*
X122147902Y-147204550D01*
X122136676Y-147244688D01*
X122120625Y-147276361D01*
X122098696Y-147304302D01*
X122071750Y-147327419D01*
X122040799Y-147344841D01*
X122007054Y-147355887D01*
X121971801Y-147360137D01*
X121930237Y-147356957D01*
X121338153Y-147252556D01*
X121298017Y-147241330D01*
X121266339Y-147225277D01*
X121238402Y-147203351D01*
X121215284Y-147176404D01*
X121197864Y-147145457D01*
X121186816Y-147111704D01*
X121182566Y-147076455D01*
X121185746Y-147034891D01*
X121195591Y-146979060D01*
X121293383Y-146424451D01*
X121303170Y-146368946D01*
X121314396Y-146328808D01*
X121330447Y-146297135D01*
X121352376Y-146269194D01*
X121379322Y-146246077D01*
X121410273Y-146228655D01*
X121444018Y-146217609D01*
X121479271Y-146213359D01*
X121520835Y-146216539D01*
X121520835Y-146216539D01*
G37*
G36*
X119969763Y-145943043D02*
G01*
X120561847Y-146047444D01*
X120601983Y-146058670D01*
X120633661Y-146074723D01*
X120661598Y-146096649D01*
X120684716Y-146123596D01*
X120702136Y-146154543D01*
X120713184Y-146188296D01*
X120717434Y-146223545D01*
X120714254Y-146265109D01*
X120704468Y-146320607D01*
X120704468Y-146320610D01*
X120686158Y-146424451D01*
X120596830Y-146931054D01*
X120585604Y-146971192D01*
X120569553Y-147002865D01*
X120547624Y-147030806D01*
X120520678Y-147053923D01*
X120489727Y-147071345D01*
X120455982Y-147082391D01*
X120420729Y-147086641D01*
X120379165Y-147083461D01*
X119787081Y-146979060D01*
X119746945Y-146967834D01*
X119715267Y-146951781D01*
X119687330Y-146929855D01*
X119664212Y-146902908D01*
X119646792Y-146871961D01*
X119635744Y-146838208D01*
X119631494Y-146802959D01*
X119634674Y-146761395D01*
X119664172Y-146594106D01*
X119742311Y-146150955D01*
X119752098Y-146095450D01*
X119763324Y-146055312D01*
X119779375Y-146023639D01*
X119801304Y-145995698D01*
X119828250Y-145972581D01*
X119859201Y-145955159D01*
X119892946Y-145944113D01*
X119928199Y-145939863D01*
X119969763Y-145943043D01*
X119969763Y-145943043D01*
G37*
G36*
X140156641Y-145373798D02*
G01*
X137664162Y-145591862D01*
X137664161Y-145591862D01*
X137454813Y-143199002D01*
X139947292Y-142980938D01*
X139947293Y-142980938D01*
X140156641Y-145373798D01*
X140156641Y-145373798D01*
G37*
G36*
X145137615Y-144938020D02*
G01*
X142645136Y-145156084D01*
X142645135Y-145156084D01*
X142435787Y-142763224D01*
X143109759Y-142704259D01*
X144928266Y-142545160D01*
X144928267Y-142545160D01*
X145137615Y-144938020D01*
X145137615Y-144938020D01*
G37*
G36*
X118983115Y-143542874D02*
G01*
X117986604Y-143647611D01*
X117766885Y-141557126D01*
X118763396Y-141452389D01*
X118983115Y-143542874D01*
X118983115Y-143542874D01*
G37*
G36*
X119952271Y-141363528D02*
G01*
X120001027Y-141383350D01*
X120043694Y-141400697D01*
X120048318Y-141403743D01*
X120126107Y-141454986D01*
X120196345Y-141524312D01*
X120251709Y-141606007D01*
X120290072Y-141696934D01*
X120304974Y-141769374D01*
X120304975Y-141769387D01*
X120304976Y-141769390D01*
X120403236Y-142704259D01*
X120425102Y-142912302D01*
X120425586Y-142986257D01*
X120409684Y-143069025D01*
X120406966Y-143083173D01*
X120369797Y-143174596D01*
X120369770Y-143174637D01*
X120315508Y-143257009D01*
X120246182Y-143327247D01*
X120164487Y-143382611D01*
X120073560Y-143420974D01*
X119976896Y-143440860D01*
X119878210Y-143441506D01*
X119781295Y-143422886D01*
X119689874Y-143385718D01*
X119607459Y-143331428D01*
X119537221Y-143262102D01*
X119481857Y-143180407D01*
X119443494Y-143089480D01*
X119428592Y-143017040D01*
X119425357Y-142986257D01*
X119308465Y-141874121D01*
X119308465Y-141874120D01*
X119308464Y-141874111D01*
X119307980Y-141800157D01*
X119326600Y-141703241D01*
X119363768Y-141611820D01*
X119418058Y-141529405D01*
X119487384Y-141459167D01*
X119569079Y-141403803D01*
X119660006Y-141365440D01*
X119756670Y-141345554D01*
X119855355Y-141344908D01*
X119952271Y-141363528D01*
X119952271Y-141363528D01*
G37*
G36*
X121444054Y-141206736D02*
G01*
X121508318Y-141232863D01*
X121535477Y-141243905D01*
X121540101Y-141246951D01*
X121617890Y-141298194D01*
X121688128Y-141367520D01*
X121743492Y-141449215D01*
X121781855Y-141540142D01*
X121796757Y-141612582D01*
X121796758Y-141612595D01*
X121796759Y-141612598D01*
X121912105Y-142710029D01*
X121916885Y-142755510D01*
X121917369Y-142829465D01*
X121898749Y-142926381D01*
X121863265Y-143013661D01*
X121861580Y-143017804D01*
X121857753Y-143023613D01*
X121807291Y-143100217D01*
X121737965Y-143170455D01*
X121656270Y-143225819D01*
X121565343Y-143264182D01*
X121468679Y-143284068D01*
X121369993Y-143284714D01*
X121273078Y-143266094D01*
X121181657Y-143228926D01*
X121099242Y-143174636D01*
X121029004Y-143105310D01*
X120973640Y-143023615D01*
X120935277Y-142932688D01*
X120920375Y-142860248D01*
X120920020Y-142856868D01*
X120800248Y-141717329D01*
X120800248Y-141717328D01*
X120800247Y-141717319D01*
X120799763Y-141643365D01*
X120818383Y-141546449D01*
X120855551Y-141455028D01*
X120855579Y-141454986D01*
X120862153Y-141445006D01*
X120909841Y-141372613D01*
X120979167Y-141302375D01*
X121060862Y-141247011D01*
X121151789Y-141208648D01*
X121248453Y-141188762D01*
X121347138Y-141188116D01*
X121444054Y-141206736D01*
X121444054Y-141206736D01*
G37*
G36*
X122935837Y-141049943D02*
G01*
X122984593Y-141069765D01*
X123027260Y-141087112D01*
X123031884Y-141090158D01*
X123109673Y-141141401D01*
X123179911Y-141210727D01*
X123235275Y-141292422D01*
X123273638Y-141383349D01*
X123288540Y-141455789D01*
X123288541Y-141455802D01*
X123288542Y-141455805D01*
X123387408Y-142396442D01*
X123408668Y-142598717D01*
X123409152Y-142672672D01*
X123390532Y-142769588D01*
X123355048Y-142856868D01*
X123353363Y-142861011D01*
X123349536Y-142866820D01*
X123299074Y-142943424D01*
X123229748Y-143013662D01*
X123148053Y-143069026D01*
X123057126Y-143107389D01*
X122960462Y-143127275D01*
X122861776Y-143127921D01*
X122764861Y-143109301D01*
X122673440Y-143072133D01*
X122591025Y-143017843D01*
X122520787Y-142948517D01*
X122465423Y-142866822D01*
X122427060Y-142775895D01*
X122412158Y-142703455D01*
X122408923Y-142672672D01*
X122292031Y-141560536D01*
X122292031Y-141560535D01*
X122292030Y-141560526D01*
X122291546Y-141486572D01*
X122310166Y-141389656D01*
X122347334Y-141298235D01*
X122347362Y-141298193D01*
X122353936Y-141288213D01*
X122401624Y-141215820D01*
X122470950Y-141145582D01*
X122552645Y-141090218D01*
X122643572Y-141051855D01*
X122740236Y-141031969D01*
X122838921Y-141031323D01*
X122935837Y-141049943D01*
X122935837Y-141049943D01*
G37*
G36*
X124427619Y-140893150D02*
G01*
X124476375Y-140912972D01*
X124519042Y-140930319D01*
X124523666Y-140933365D01*
X124601455Y-140984608D01*
X124671693Y-141053934D01*
X124727057Y-141135629D01*
X124765420Y-141226556D01*
X124780322Y-141298996D01*
X124780323Y-141299009D01*
X124780324Y-141299012D01*
X124879190Y-142239649D01*
X124900450Y-142441924D01*
X124900934Y-142515879D01*
X124885019Y-142598717D01*
X124882314Y-142612795D01*
X124845145Y-142704218D01*
X124845118Y-142704259D01*
X124790856Y-142786631D01*
X124721530Y-142856869D01*
X124639835Y-142912233D01*
X124548908Y-142950596D01*
X124452244Y-142970482D01*
X124353558Y-142971128D01*
X124256643Y-142952508D01*
X124165222Y-142915340D01*
X124082807Y-142861050D01*
X124012569Y-142791724D01*
X123957205Y-142710029D01*
X123918842Y-142619102D01*
X123903940Y-142546662D01*
X123900705Y-142515879D01*
X123783813Y-141403743D01*
X123783813Y-141403742D01*
X123783812Y-141403733D01*
X123783328Y-141329779D01*
X123801948Y-141232863D01*
X123839116Y-141141442D01*
X123839144Y-141141400D01*
X123845718Y-141131420D01*
X123893406Y-141059027D01*
X123962732Y-140988789D01*
X124044427Y-140933425D01*
X124135354Y-140895062D01*
X124232018Y-140875176D01*
X124330703Y-140874530D01*
X124427619Y-140893150D01*
X124427619Y-140893150D01*
G37*
G36*
X125919402Y-140736358D02*
G01*
X126010823Y-140773526D01*
X126093238Y-140827816D01*
X126163476Y-140897142D01*
X126218840Y-140978837D01*
X126257203Y-141069764D01*
X126272105Y-141142204D01*
X126272106Y-141142217D01*
X126272107Y-141142220D01*
X126387453Y-142239651D01*
X126392233Y-142285132D01*
X126392717Y-142359087D01*
X126374097Y-142456003D01*
X126338613Y-142543283D01*
X126336928Y-142547426D01*
X126333101Y-142553235D01*
X126282639Y-142629839D01*
X126213313Y-142700077D01*
X126131618Y-142755441D01*
X126040691Y-142793804D01*
X125944027Y-142813690D01*
X125845341Y-142814336D01*
X125748426Y-142795716D01*
X125657005Y-142758548D01*
X125574590Y-142704258D01*
X125504352Y-142634932D01*
X125448988Y-142553237D01*
X125410625Y-142462310D01*
X125395723Y-142389870D01*
X125395368Y-142386490D01*
X125275596Y-141246951D01*
X125275596Y-141246950D01*
X125275595Y-141246941D01*
X125275111Y-141172987D01*
X125293731Y-141076071D01*
X125330899Y-140984650D01*
X125330927Y-140984608D01*
X125337501Y-140974628D01*
X125385189Y-140902235D01*
X125454515Y-140831997D01*
X125536210Y-140776633D01*
X125627137Y-140738270D01*
X125723801Y-140718384D01*
X125822486Y-140717738D01*
X125919402Y-140736358D01*
X125919402Y-140736358D01*
G37*
G36*
X127411185Y-140579565D02*
G01*
X127502606Y-140616733D01*
X127585021Y-140671023D01*
X127655259Y-140740349D01*
X127710623Y-140822044D01*
X127748986Y-140912971D01*
X127763888Y-140985411D01*
X127763889Y-140985424D01*
X127763890Y-140985427D01*
X127879236Y-142082858D01*
X127884016Y-142128339D01*
X127884500Y-142202294D01*
X127865880Y-142299210D01*
X127830396Y-142386490D01*
X127828711Y-142390633D01*
X127824884Y-142396442D01*
X127774422Y-142473046D01*
X127705096Y-142543284D01*
X127623401Y-142598648D01*
X127532474Y-142637011D01*
X127435810Y-142656897D01*
X127337124Y-142657543D01*
X127240209Y-142638923D01*
X127148788Y-142601755D01*
X127066373Y-142547465D01*
X126996135Y-142478139D01*
X126940771Y-142396444D01*
X126902408Y-142305517D01*
X126887506Y-142233077D01*
X126887151Y-142229697D01*
X126767379Y-141090158D01*
X126767379Y-141090157D01*
X126767378Y-141090148D01*
X126766894Y-141016194D01*
X126785514Y-140919278D01*
X126822682Y-140827857D01*
X126822710Y-140827815D01*
X126829284Y-140817835D01*
X126876972Y-140745442D01*
X126946298Y-140675204D01*
X127027993Y-140619840D01*
X127118920Y-140581477D01*
X127215584Y-140561591D01*
X127314269Y-140560945D01*
X127411185Y-140579565D01*
X127411185Y-140579565D01*
G37*
G36*
X128902968Y-140422772D02*
G01*
X128994389Y-140459940D01*
X129076804Y-140514230D01*
X129147042Y-140583556D01*
X129202406Y-140665251D01*
X129240769Y-140756178D01*
X129255671Y-140828618D01*
X129255672Y-140828631D01*
X129255673Y-140828634D01*
X129354550Y-141769374D01*
X129375799Y-141971546D01*
X129376283Y-142045501D01*
X129357663Y-142142417D01*
X129322179Y-142229697D01*
X129320494Y-142233840D01*
X129316667Y-142239649D01*
X129266205Y-142316253D01*
X129196879Y-142386491D01*
X129115184Y-142441855D01*
X129024257Y-142480218D01*
X128927593Y-142500104D01*
X128828907Y-142500750D01*
X128731992Y-142482130D01*
X128640571Y-142444962D01*
X128558156Y-142390672D01*
X128487918Y-142321346D01*
X128432554Y-142239651D01*
X128394191Y-142148724D01*
X128379289Y-142076284D01*
X128376054Y-142045501D01*
X128259162Y-140933365D01*
X128259162Y-140933364D01*
X128259161Y-140933355D01*
X128258677Y-140859401D01*
X128277297Y-140762485D01*
X128314465Y-140671064D01*
X128314493Y-140671022D01*
X128321067Y-140661042D01*
X128368755Y-140588649D01*
X128438081Y-140518411D01*
X128519776Y-140463047D01*
X128610703Y-140424684D01*
X128707367Y-140404798D01*
X128806052Y-140404152D01*
X128902968Y-140422772D01*
X128902968Y-140422772D01*
G37*
G36*
X130394751Y-140265979D02*
G01*
X130486172Y-140303147D01*
X130568587Y-140357437D01*
X130638825Y-140426763D01*
X130694189Y-140508458D01*
X130732552Y-140599385D01*
X130747454Y-140671825D01*
X130747455Y-140671838D01*
X130747456Y-140671841D01*
X130857341Y-141717319D01*
X130867582Y-141814753D01*
X130868066Y-141888708D01*
X130849446Y-141985624D01*
X130812278Y-142077045D01*
X130757988Y-142159460D01*
X130688662Y-142229698D01*
X130606967Y-142285062D01*
X130516040Y-142323425D01*
X130419376Y-142343311D01*
X130320690Y-142343957D01*
X130223775Y-142325337D01*
X130132354Y-142288169D01*
X130127744Y-142285132D01*
X130122332Y-142281567D01*
X130049939Y-142233879D01*
X129979701Y-142164553D01*
X129924337Y-142082858D01*
X129885974Y-141991931D01*
X129871072Y-141919491D01*
X129867837Y-141888708D01*
X129750945Y-140776572D01*
X129750945Y-140776571D01*
X129750944Y-140776562D01*
X129750460Y-140702608D01*
X129769080Y-140605692D01*
X129806248Y-140514271D01*
X129806276Y-140514229D01*
X129812850Y-140504249D01*
X129860538Y-140431856D01*
X129929864Y-140361618D01*
X130011559Y-140306254D01*
X130102486Y-140267891D01*
X130199150Y-140248005D01*
X130297835Y-140247359D01*
X130394751Y-140265979D01*
X130394751Y-140265979D01*
G37*
G36*
X126280136Y-133756517D02*
G01*
X121902250Y-134216651D01*
X121442116Y-129838765D01*
X125820002Y-129378631D01*
X126280136Y-133756517D01*
X126280136Y-133756517D01*
G37*
G36*
X138910314Y-131128214D02*
G01*
X136417835Y-131346278D01*
X136417834Y-131346278D01*
X136208486Y-128953418D01*
X138700965Y-128735354D01*
X138700966Y-128735354D01*
X138910314Y-131128214D01*
X138910314Y-131128214D01*
G37*
G36*
X143891287Y-130692436D02*
G01*
X141398808Y-130910500D01*
X141398807Y-130910500D01*
X141189459Y-128517640D01*
X143681938Y-128299576D01*
X143681939Y-128299576D01*
X143891287Y-130692436D01*
X143891287Y-130692436D01*
G37*
G36*
X116578976Y-123618927D02*
G01*
X116643240Y-123645054D01*
X116670399Y-123656096D01*
X116675023Y-123659142D01*
X116752812Y-123710385D01*
X116823050Y-123779711D01*
X116878414Y-123861406D01*
X116916777Y-123952333D01*
X116931679Y-124024773D01*
X116931680Y-124024786D01*
X116931681Y-124024789D01*
X117047027Y-125122220D01*
X117051807Y-125167701D01*
X117052291Y-125241656D01*
X117033671Y-125338572D01*
X116998187Y-125425852D01*
X116996502Y-125429995D01*
X116992675Y-125435804D01*
X116942213Y-125512408D01*
X116872887Y-125582646D01*
X116791192Y-125638010D01*
X116700265Y-125676373D01*
X116603601Y-125696259D01*
X116504915Y-125696905D01*
X116408000Y-125678285D01*
X116316579Y-125641117D01*
X116234164Y-125586827D01*
X116163926Y-125517501D01*
X116108562Y-125435806D01*
X116070199Y-125344879D01*
X116055297Y-125272439D01*
X116054942Y-125269059D01*
X115935170Y-124129520D01*
X115935170Y-124129519D01*
X115935169Y-124129510D01*
X115934685Y-124055556D01*
X115953305Y-123958640D01*
X115990473Y-123867219D01*
X116044763Y-123784804D01*
X116114089Y-123714566D01*
X116195784Y-123659202D01*
X116286711Y-123620839D01*
X116383375Y-123600953D01*
X116482060Y-123600307D01*
X116578976Y-123618927D01*
X116578976Y-123618927D01*
G37*
G36*
X118070759Y-123462134D02*
G01*
X118119515Y-123481956D01*
X118162182Y-123499303D01*
X118166806Y-123502349D01*
X118244595Y-123553592D01*
X118314833Y-123622918D01*
X118370197Y-123704613D01*
X118408560Y-123795540D01*
X118423462Y-123867980D01*
X118423463Y-123867993D01*
X118423464Y-123867996D01*
X118522330Y-124808633D01*
X118543590Y-125010908D01*
X118544074Y-125084863D01*
X118525454Y-125181779D01*
X118489970Y-125269059D01*
X118488285Y-125273202D01*
X118484458Y-125279011D01*
X118433996Y-125355615D01*
X118364670Y-125425853D01*
X118282975Y-125481217D01*
X118192048Y-125519580D01*
X118095384Y-125539466D01*
X117996698Y-125540112D01*
X117899783Y-125521492D01*
X117808362Y-125484324D01*
X117725947Y-125430034D01*
X117655709Y-125360708D01*
X117600345Y-125279013D01*
X117561982Y-125188086D01*
X117547080Y-125115646D01*
X117543845Y-125084863D01*
X117426953Y-123972727D01*
X117426953Y-123972726D01*
X117426952Y-123972717D01*
X117426468Y-123898763D01*
X117445088Y-123801847D01*
X117482256Y-123710426D01*
X117482284Y-123710384D01*
X117488858Y-123700404D01*
X117536546Y-123628011D01*
X117605872Y-123557773D01*
X117687567Y-123502409D01*
X117778494Y-123464046D01*
X117875158Y-123444160D01*
X117973843Y-123443514D01*
X118070759Y-123462134D01*
X118070759Y-123462134D01*
G37*
G36*
X119562541Y-123305341D02*
G01*
X119611297Y-123325163D01*
X119653964Y-123342510D01*
X119658588Y-123345556D01*
X119736377Y-123396799D01*
X119806615Y-123466125D01*
X119861979Y-123547820D01*
X119900342Y-123638747D01*
X119915244Y-123711187D01*
X119915245Y-123711200D01*
X119915246Y-123711203D01*
X120013506Y-124646072D01*
X120035372Y-124854115D01*
X120035856Y-124928070D01*
X120019941Y-125010908D01*
X120017236Y-125024986D01*
X119980067Y-125116409D01*
X119980040Y-125116450D01*
X119925778Y-125198822D01*
X119856452Y-125269060D01*
X119774757Y-125324424D01*
X119683830Y-125362787D01*
X119587166Y-125382673D01*
X119488480Y-125383319D01*
X119391565Y-125364699D01*
X119300144Y-125327531D01*
X119217729Y-125273241D01*
X119147491Y-125203915D01*
X119092127Y-125122220D01*
X119053764Y-125031293D01*
X119038862Y-124958853D01*
X119035627Y-124928070D01*
X118918735Y-123815934D01*
X118918735Y-123815933D01*
X118918734Y-123815924D01*
X118918250Y-123741970D01*
X118936870Y-123645054D01*
X118974038Y-123553633D01*
X118974066Y-123553591D01*
X118980640Y-123543611D01*
X119028328Y-123471218D01*
X119097654Y-123400980D01*
X119179349Y-123345616D01*
X119270276Y-123307253D01*
X119366940Y-123287367D01*
X119465625Y-123286721D01*
X119562541Y-123305341D01*
X119562541Y-123305341D01*
G37*
G36*
X121054324Y-123148549D02*
G01*
X121118588Y-123174676D01*
X121145747Y-123185718D01*
X121155767Y-123192319D01*
X121228160Y-123240007D01*
X121298398Y-123309333D01*
X121353762Y-123391028D01*
X121392125Y-123481955D01*
X121407027Y-123554395D01*
X121407028Y-123554408D01*
X121407029Y-123554411D01*
X121522375Y-124651842D01*
X121527155Y-124697323D01*
X121527639Y-124771278D01*
X121509019Y-124868194D01*
X121473535Y-124955474D01*
X121471850Y-124959617D01*
X121468023Y-124965426D01*
X121417561Y-125042030D01*
X121348235Y-125112268D01*
X121266540Y-125167632D01*
X121175613Y-125205995D01*
X121078949Y-125225881D01*
X120980263Y-125226527D01*
X120883348Y-125207907D01*
X120791927Y-125170739D01*
X120709512Y-125116449D01*
X120639274Y-125047123D01*
X120583910Y-124965428D01*
X120545547Y-124874501D01*
X120530645Y-124802061D01*
X120530290Y-124798681D01*
X120410518Y-123659142D01*
X120410518Y-123659141D01*
X120410517Y-123659132D01*
X120410033Y-123585178D01*
X120428653Y-123488262D01*
X120465821Y-123396841D01*
X120465849Y-123396799D01*
X120481463Y-123373096D01*
X120520111Y-123314426D01*
X120589437Y-123244188D01*
X120671132Y-123188824D01*
X120762059Y-123150461D01*
X120858723Y-123130575D01*
X120957408Y-123129929D01*
X121054324Y-123148549D01*
X121054324Y-123148549D01*
G37*
G36*
X122546107Y-122991756D02*
G01*
X122594863Y-123011578D01*
X122637530Y-123028925D01*
X122642154Y-123031971D01*
X122719943Y-123083214D01*
X122790181Y-123152540D01*
X122845545Y-123234235D01*
X122883908Y-123325162D01*
X122898810Y-123397602D01*
X122898811Y-123397615D01*
X122898812Y-123397618D01*
X122997678Y-124338255D01*
X123018938Y-124540530D01*
X123019422Y-124614485D01*
X123000802Y-124711401D01*
X122965318Y-124798681D01*
X122963633Y-124802824D01*
X122959806Y-124808633D01*
X122909344Y-124885237D01*
X122840018Y-124955475D01*
X122758323Y-125010839D01*
X122667396Y-125049202D01*
X122570732Y-125069088D01*
X122472046Y-125069734D01*
X122375131Y-125051114D01*
X122283710Y-125013946D01*
X122201295Y-124959656D01*
X122131057Y-124890330D01*
X122075693Y-124808635D01*
X122037330Y-124717708D01*
X122022428Y-124645268D01*
X122019193Y-124614485D01*
X121902301Y-123502349D01*
X121902301Y-123502348D01*
X121902300Y-123502339D01*
X121901816Y-123428385D01*
X121920436Y-123331469D01*
X121957604Y-123240048D01*
X121957632Y-123240006D01*
X121964206Y-123230026D01*
X122011894Y-123157633D01*
X122081220Y-123087395D01*
X122162915Y-123032031D01*
X122253842Y-122993668D01*
X122350506Y-122973782D01*
X122449191Y-122973136D01*
X122546107Y-122991756D01*
X122546107Y-122991756D01*
G37*
G36*
X133454716Y-123373095D02*
G01*
X133528969Y-123403852D01*
X133603220Y-123434607D01*
X133617517Y-123444160D01*
X133736866Y-123523906D01*
X133850530Y-123637570D01*
X133901977Y-123714567D01*
X133939829Y-123771216D01*
X134001341Y-123919720D01*
X134032699Y-124077367D01*
X134032699Y-124238107D01*
X134001341Y-124395754D01*
X133981952Y-124442562D01*
X133939829Y-124544258D01*
X133939828Y-124544259D01*
X133850530Y-124677904D01*
X133736866Y-124791568D01*
X133643362Y-124854045D01*
X133603220Y-124880867D01*
X133454716Y-124942379D01*
X133297069Y-124973737D01*
X133136329Y-124973737D01*
X132978682Y-124942379D01*
X132830178Y-124880867D01*
X132790036Y-124854045D01*
X132696532Y-124791568D01*
X132582868Y-124677904D01*
X132493570Y-124544259D01*
X132493569Y-124544258D01*
X132451446Y-124442562D01*
X132432057Y-124395754D01*
X132400699Y-124238107D01*
X132400699Y-124077367D01*
X132432057Y-123919720D01*
X132493569Y-123771216D01*
X132531421Y-123714567D01*
X132582868Y-123637570D01*
X132696532Y-123523906D01*
X132815881Y-123444160D01*
X132830178Y-123434607D01*
X132904429Y-123403852D01*
X132978682Y-123373095D01*
X133136329Y-123341737D01*
X133297069Y-123341737D01*
X133454716Y-123373095D01*
X133454716Y-123373095D01*
G37*
G36*
X124037890Y-122834963D02*
G01*
X124086646Y-122854785D01*
X124129313Y-122872132D01*
X124133937Y-122875178D01*
X124211726Y-122926421D01*
X124281964Y-122995747D01*
X124337328Y-123077442D01*
X124375691Y-123168369D01*
X124390593Y-123240809D01*
X124390594Y-123240822D01*
X124390595Y-123240825D01*
X124495721Y-124241023D01*
X124510721Y-124383737D01*
X124511205Y-124457692D01*
X124495290Y-124540530D01*
X124492585Y-124554608D01*
X124455416Y-124646031D01*
X124455389Y-124646072D01*
X124401127Y-124728444D01*
X124331801Y-124798682D01*
X124250106Y-124854046D01*
X124159179Y-124892409D01*
X124062515Y-124912295D01*
X123963829Y-124912941D01*
X123866914Y-124894321D01*
X123775493Y-124857153D01*
X123693078Y-124802863D01*
X123622840Y-124733537D01*
X123567476Y-124651842D01*
X123529113Y-124560915D01*
X123514211Y-124488475D01*
X123510976Y-124457692D01*
X123394084Y-123345556D01*
X123394084Y-123345555D01*
X123394083Y-123345546D01*
X123393599Y-123271592D01*
X123412219Y-123174676D01*
X123449387Y-123083255D01*
X123449415Y-123083213D01*
X123455989Y-123073233D01*
X123503677Y-123000840D01*
X123573003Y-122930602D01*
X123654698Y-122875238D01*
X123745625Y-122836875D01*
X123842289Y-122816989D01*
X123940974Y-122816343D01*
X124037890Y-122834963D01*
X124037890Y-122834963D01*
G37*
G36*
X125529673Y-122678171D02*
G01*
X125621094Y-122715339D01*
X125703509Y-122769629D01*
X125773747Y-122838955D01*
X125829111Y-122920650D01*
X125867474Y-123011577D01*
X125882376Y-123084017D01*
X125882377Y-123084030D01*
X125882378Y-123084033D01*
X125997724Y-124181464D01*
X126002504Y-124226945D01*
X126002988Y-124300900D01*
X125984368Y-124397816D01*
X125948884Y-124485096D01*
X125947199Y-124489239D01*
X125943372Y-124495048D01*
X125892910Y-124571652D01*
X125823584Y-124641890D01*
X125741889Y-124697254D01*
X125650962Y-124735617D01*
X125554298Y-124755503D01*
X125455612Y-124756149D01*
X125358697Y-124737529D01*
X125267276Y-124700361D01*
X125184861Y-124646071D01*
X125114623Y-124576745D01*
X125059259Y-124495050D01*
X125020896Y-124404123D01*
X125005994Y-124331683D01*
X125005639Y-124328303D01*
X124885867Y-123188764D01*
X124885867Y-123188763D01*
X124885866Y-123188754D01*
X124885382Y-123114800D01*
X124904002Y-123017884D01*
X124941170Y-122926463D01*
X124941198Y-122926421D01*
X124947772Y-122916441D01*
X124995460Y-122844048D01*
X125064786Y-122773810D01*
X125146481Y-122718446D01*
X125237408Y-122680083D01*
X125334072Y-122660197D01*
X125432757Y-122659551D01*
X125529673Y-122678171D01*
X125529673Y-122678171D01*
G37*
G36*
X127021456Y-122521378D02*
G01*
X127112877Y-122558546D01*
X127195292Y-122612836D01*
X127265530Y-122682162D01*
X127320894Y-122763857D01*
X127359257Y-122854784D01*
X127374159Y-122927224D01*
X127374160Y-122927237D01*
X127374161Y-122927240D01*
X127484046Y-123972717D01*
X127494287Y-124070152D01*
X127494771Y-124144107D01*
X127476151Y-124241023D01*
X127440667Y-124328303D01*
X127438982Y-124332446D01*
X127435155Y-124338255D01*
X127384693Y-124414859D01*
X127315367Y-124485097D01*
X127233672Y-124540461D01*
X127142745Y-124578824D01*
X127046081Y-124598710D01*
X126947395Y-124599356D01*
X126850480Y-124580736D01*
X126759059Y-124543568D01*
X126676644Y-124489278D01*
X126606406Y-124419952D01*
X126551042Y-124338257D01*
X126512679Y-124247330D01*
X126497777Y-124174890D01*
X126494542Y-124144107D01*
X126377650Y-123031971D01*
X126377650Y-123031970D01*
X126377649Y-123031961D01*
X126377165Y-122958007D01*
X126395785Y-122861091D01*
X126432953Y-122769670D01*
X126432981Y-122769628D01*
X126439555Y-122759648D01*
X126487243Y-122687255D01*
X126556569Y-122617017D01*
X126638264Y-122561653D01*
X126729191Y-122523290D01*
X126825855Y-122503404D01*
X126924540Y-122502758D01*
X127021456Y-122521378D01*
X127021456Y-122521378D01*
G37*
G36*
X128513238Y-122364585D02*
G01*
X128604659Y-122401753D01*
X128687074Y-122456043D01*
X128757312Y-122525369D01*
X128812676Y-122607064D01*
X128851039Y-122697991D01*
X128865941Y-122770431D01*
X128865942Y-122770444D01*
X128865943Y-122770447D01*
X128980609Y-123861408D01*
X128986069Y-123913359D01*
X128986553Y-123987314D01*
X128967933Y-124084230D01*
X128930765Y-124175651D01*
X128876475Y-124258066D01*
X128807149Y-124328304D01*
X128725454Y-124383668D01*
X128634527Y-124422031D01*
X128537863Y-124441917D01*
X128439177Y-124442563D01*
X128342262Y-124423943D01*
X128250841Y-124386775D01*
X128168426Y-124332485D01*
X128098188Y-124263159D01*
X128042824Y-124181464D01*
X128004461Y-124090537D01*
X127989559Y-124018097D01*
X127986324Y-123987314D01*
X127869432Y-122875178D01*
X127869432Y-122875177D01*
X127869431Y-122875168D01*
X127868947Y-122801214D01*
X127887567Y-122704298D01*
X127924735Y-122612877D01*
X127924763Y-122612835D01*
X127931337Y-122602855D01*
X127979025Y-122530462D01*
X128048351Y-122460224D01*
X128130046Y-122404860D01*
X128220973Y-122366497D01*
X128317637Y-122346611D01*
X128416322Y-122345965D01*
X128513238Y-122364585D01*
X128513238Y-122364585D01*
G37*
G36*
X111722582Y-123301445D02*
G01*
X110622092Y-123359119D01*
X110538250Y-121759315D01*
X111638740Y-121701641D01*
X111722582Y-123301445D01*
X111722582Y-123301445D01*
G37*
G36*
X114918196Y-123133970D02*
G01*
X113817706Y-123191644D01*
X113733864Y-121591840D01*
X114834354Y-121534166D01*
X114918196Y-123133970D01*
X114918196Y-123133970D01*
G37*
G36*
X120732049Y-118392559D02*
G01*
X120772415Y-118402904D01*
X121337387Y-118608537D01*
X121374965Y-118626562D01*
X121403369Y-118647868D01*
X121427075Y-118674313D01*
X121445165Y-118704870D01*
X121456945Y-118738369D01*
X121461964Y-118773524D01*
X121460028Y-118808984D01*
X121449683Y-118849350D01*
X121380607Y-119039135D01*
X121258931Y-119373438D01*
X121218398Y-119484800D01*
X121200373Y-119522378D01*
X121179067Y-119550782D01*
X121152622Y-119574488D01*
X121122065Y-119592578D01*
X121088566Y-119604358D01*
X121053411Y-119609377D01*
X121017951Y-119607441D01*
X120977585Y-119597096D01*
X120412613Y-119391463D01*
X120375035Y-119373438D01*
X120346631Y-119352132D01*
X120322925Y-119325687D01*
X120304835Y-119295130D01*
X120293055Y-119261631D01*
X120288036Y-119226476D01*
X120289972Y-119191016D01*
X120300317Y-119150650D01*
X120407584Y-118855936D01*
X120512324Y-118568165D01*
X120512325Y-118568162D01*
X120531602Y-118515200D01*
X120549627Y-118477622D01*
X120570933Y-118449218D01*
X120597378Y-118425512D01*
X120627935Y-118407422D01*
X120661434Y-118395642D01*
X120696589Y-118390623D01*
X120732049Y-118392559D01*
X120732049Y-118392559D01*
G37*
G36*
X119252033Y-117853877D02*
G01*
X119292399Y-117864222D01*
X119857371Y-118069855D01*
X119894949Y-118087880D01*
X119923353Y-118109186D01*
X119947059Y-118135631D01*
X119965149Y-118166188D01*
X119976929Y-118199687D01*
X119981948Y-118234842D01*
X119980012Y-118270302D01*
X119969667Y-118310668D01*
X119950388Y-118363636D01*
X119778915Y-118834756D01*
X119738382Y-118946118D01*
X119720357Y-118983696D01*
X119699051Y-119012100D01*
X119672606Y-119035806D01*
X119642049Y-119053896D01*
X119608550Y-119065676D01*
X119573395Y-119070695D01*
X119537935Y-119068759D01*
X119497569Y-119058414D01*
X118932597Y-118852781D01*
X118895019Y-118834756D01*
X118866615Y-118813450D01*
X118842909Y-118787005D01*
X118824819Y-118756448D01*
X118813039Y-118722949D01*
X118808020Y-118687794D01*
X118809956Y-118652334D01*
X118820301Y-118611968D01*
X118993659Y-118135671D01*
X119032308Y-118029483D01*
X119032309Y-118029480D01*
X119051586Y-117976518D01*
X119069611Y-117938940D01*
X119090917Y-117910536D01*
X119117362Y-117886830D01*
X119147919Y-117868740D01*
X119181418Y-117856960D01*
X119216573Y-117851941D01*
X119252033Y-117853877D01*
X119252033Y-117853877D01*
G37*
G36*
X111466136Y-118408160D02*
G01*
X110365646Y-118465834D01*
X110281804Y-116866030D01*
X111382294Y-116808356D01*
X111466136Y-118408160D01*
X111466136Y-118408160D01*
G37*
G36*
X114661750Y-118240685D02*
G01*
X113561260Y-118298359D01*
X113477418Y-116698555D01*
X114577908Y-116640881D01*
X114661750Y-118240685D01*
X114661750Y-118240685D01*
G37*
G36*
X126813667Y-116383738D02*
G01*
X126774051Y-116608414D01*
X126772182Y-116632847D01*
X126775115Y-116657175D01*
X126782738Y-116680463D01*
X126794758Y-116701817D01*
X126810713Y-116720415D01*
X126829989Y-116735543D01*
X126851847Y-116746620D01*
X126875445Y-116753220D01*
X126899878Y-116755089D01*
X126924206Y-116752156D01*
X126947494Y-116744533D01*
X126968848Y-116732513D01*
X126993777Y-116709418D01*
X127034563Y-116659719D01*
X127072382Y-116628682D01*
X127118464Y-116590863D01*
X127187009Y-116554225D01*
X127214185Y-116539699D01*
X127318049Y-116508193D01*
X127398997Y-116500220D01*
X127453131Y-116500220D01*
X127534079Y-116508193D01*
X127637943Y-116539699D01*
X127665119Y-116554225D01*
X127733664Y-116590863D01*
X127817565Y-116659719D01*
X127886421Y-116743620D01*
X127921023Y-116808356D01*
X127937585Y-116839341D01*
X127969091Y-116943205D01*
X127979730Y-117051220D01*
X127969091Y-117159235D01*
X127937585Y-117263099D01*
X127923059Y-117290275D01*
X127886421Y-117358820D01*
X127817565Y-117442721D01*
X127733664Y-117511577D01*
X127665119Y-117548215D01*
X127637943Y-117562741D01*
X127534079Y-117594247D01*
X127453131Y-117602220D01*
X127398997Y-117602220D01*
X127318049Y-117594247D01*
X127214185Y-117562741D01*
X127187009Y-117548215D01*
X127118464Y-117511577D01*
X127034563Y-117442721D01*
X126965707Y-117358820D01*
X126932365Y-117296441D01*
X126914543Y-117263099D01*
X126904559Y-117230186D01*
X126895183Y-117207550D01*
X126881569Y-117187175D01*
X126864242Y-117169848D01*
X126843868Y-117156235D01*
X126821229Y-117146857D01*
X126797196Y-117142077D01*
X126772692Y-117142077D01*
X126748658Y-117146858D01*
X126726020Y-117156235D01*
X126705645Y-117169849D01*
X126688318Y-117187176D01*
X126674705Y-117207550D01*
X126665327Y-117230189D01*
X126661845Y-117244762D01*
X126622307Y-117468996D01*
X125537049Y-117277636D01*
X125728409Y-116192378D01*
X126813667Y-116383738D01*
X126813667Y-116383738D01*
G37*
G36*
X116892328Y-114493141D02*
G01*
X116925285Y-114506373D01*
X116955020Y-114525775D01*
X116984814Y-114554925D01*
X117021042Y-114598100D01*
X117358910Y-115000755D01*
X117419484Y-115072945D01*
X117443014Y-115107342D01*
X117456960Y-115139998D01*
X117464267Y-115174749D01*
X117464655Y-115210258D01*
X117458107Y-115245160D01*
X117444875Y-115278117D01*
X117425473Y-115307852D01*
X117396322Y-115337645D01*
X117353152Y-115373869D01*
X117353148Y-115373873D01*
X116978935Y-115687875D01*
X116935754Y-115724108D01*
X116901361Y-115747636D01*
X116868704Y-115761582D01*
X116833953Y-115768889D01*
X116798444Y-115769277D01*
X116763542Y-115762729D01*
X116730585Y-115749497D01*
X116700850Y-115730095D01*
X116671056Y-115700945D01*
X116334245Y-115299549D01*
X116272617Y-115226104D01*
X116272615Y-115226101D01*
X116236386Y-115182925D01*
X116212856Y-115148528D01*
X116198910Y-115115872D01*
X116191603Y-115081121D01*
X116191215Y-115045612D01*
X116197763Y-115010710D01*
X116210995Y-114977753D01*
X116230397Y-114948018D01*
X116259548Y-114918225D01*
X116302718Y-114882001D01*
X116302722Y-114881997D01*
X116676935Y-114567995D01*
X116676936Y-114567994D01*
X116720116Y-114531762D01*
X116754509Y-114508234D01*
X116787166Y-114494288D01*
X116821917Y-114486981D01*
X116857426Y-114486593D01*
X116892328Y-114493141D01*
X116892328Y-114493141D01*
G37*
G36*
X118098848Y-113480751D02*
G01*
X118131805Y-113493983D01*
X118161540Y-113513385D01*
X118191334Y-113542535D01*
X118227562Y-113585710D01*
X118565430Y-113988365D01*
X118626004Y-114060555D01*
X118649534Y-114094952D01*
X118663480Y-114127608D01*
X118670787Y-114162359D01*
X118671175Y-114197868D01*
X118664627Y-114232770D01*
X118651395Y-114265727D01*
X118631993Y-114295462D01*
X118602842Y-114325255D01*
X118559672Y-114361479D01*
X118559668Y-114361483D01*
X118185455Y-114675485D01*
X118142274Y-114711718D01*
X118107881Y-114735246D01*
X118075224Y-114749192D01*
X118040473Y-114756499D01*
X118004964Y-114756887D01*
X117970062Y-114750339D01*
X117937105Y-114737107D01*
X117907370Y-114717705D01*
X117877576Y-114688555D01*
X117540765Y-114287159D01*
X117479137Y-114213714D01*
X117479135Y-114213711D01*
X117442906Y-114170535D01*
X117419376Y-114136138D01*
X117405430Y-114103482D01*
X117398123Y-114068731D01*
X117397735Y-114033222D01*
X117404283Y-113998320D01*
X117417515Y-113965363D01*
X117436917Y-113935628D01*
X117466068Y-113905835D01*
X117509238Y-113869611D01*
X117509242Y-113869607D01*
X117883455Y-113555605D01*
X117883456Y-113555604D01*
X117926636Y-113519372D01*
X117961029Y-113495844D01*
X117993686Y-113481898D01*
X118028437Y-113474591D01*
X118063946Y-113474203D01*
X118098848Y-113480751D01*
X118098848Y-113480751D01*
G37*
G36*
X111942091Y-111928085D02*
G01*
X111976069Y-111938393D01*
X112007390Y-111955134D01*
X112034839Y-111977661D01*
X112057366Y-112005110D01*
X112074107Y-112036431D01*
X112084415Y-112070409D01*
X112088500Y-112111890D01*
X112088500Y-112788110D01*
X112084415Y-112829591D01*
X112074107Y-112863569D01*
X112057366Y-112894890D01*
X112034839Y-112922339D01*
X112007390Y-112944866D01*
X111976069Y-112961607D01*
X111942091Y-112971915D01*
X111900610Y-112976000D01*
X111299390Y-112976000D01*
X111257909Y-112971915D01*
X111223931Y-112961607D01*
X111192610Y-112944866D01*
X111165161Y-112922339D01*
X111142634Y-112894890D01*
X111125893Y-112863569D01*
X111115585Y-112829591D01*
X111111500Y-112788110D01*
X111111500Y-112111890D01*
X111115585Y-112070409D01*
X111125893Y-112036431D01*
X111142634Y-112005110D01*
X111165161Y-111977661D01*
X111192610Y-111955134D01*
X111223931Y-111938393D01*
X111257909Y-111928085D01*
X111299390Y-111924000D01*
X111900610Y-111924000D01*
X111942091Y-111928085D01*
X111942091Y-111928085D01*
G37*
G36*
X113517091Y-111928085D02*
G01*
X113551069Y-111938393D01*
X113582390Y-111955134D01*
X113609839Y-111977661D01*
X113632366Y-112005110D01*
X113649107Y-112036431D01*
X113659415Y-112070409D01*
X113663500Y-112111890D01*
X113663500Y-112788110D01*
X113659415Y-112829591D01*
X113649107Y-112863569D01*
X113632366Y-112894890D01*
X113609839Y-112922339D01*
X113582390Y-112944866D01*
X113551069Y-112961607D01*
X113517091Y-112971915D01*
X113475610Y-112976000D01*
X112874390Y-112976000D01*
X112832909Y-112971915D01*
X112798931Y-112961607D01*
X112767610Y-112944866D01*
X112740161Y-112922339D01*
X112717634Y-112894890D01*
X112700893Y-112863569D01*
X112690585Y-112829591D01*
X112686500Y-112788110D01*
X112686500Y-112111890D01*
X112690585Y-112070409D01*
X112700893Y-112036431D01*
X112717634Y-112005110D01*
X112740161Y-111977661D01*
X112767610Y-111955134D01*
X112798931Y-111938393D01*
X112832909Y-111928085D01*
X112874390Y-111924000D01*
X113475610Y-111924000D01*
X113517091Y-111928085D01*
X113517091Y-111928085D01*
G37*
G36*
X116917715Y-108410059D02*
G01*
X116552707Y-110480125D01*
X113497833Y-109941469D01*
X113862841Y-107871403D01*
X116917715Y-108410059D01*
X116917715Y-108410059D01*
G37*
G36*
X111379562Y-107656349D02*
G01*
X111414313Y-107663656D01*
X111446970Y-107677602D01*
X111476275Y-107697649D01*
X111501114Y-107723036D01*
X111520516Y-107752771D01*
X111533748Y-107785728D01*
X111541435Y-107826702D01*
X111593833Y-108425616D01*
X111593378Y-108467304D01*
X111586071Y-108502055D01*
X111572125Y-108534712D01*
X111552078Y-108564017D01*
X111526691Y-108588856D01*
X111496956Y-108608258D01*
X111463999Y-108621490D01*
X111423025Y-108629177D01*
X111139057Y-108654021D01*
X110805533Y-108683201D01*
X110805529Y-108683201D01*
X110749396Y-108688112D01*
X110707708Y-108687657D01*
X110672957Y-108680350D01*
X110640300Y-108666404D01*
X110610995Y-108646357D01*
X110586156Y-108620970D01*
X110566754Y-108591235D01*
X110553522Y-108558278D01*
X110545835Y-108517304D01*
X110493437Y-107918390D01*
X110493892Y-107876702D01*
X110501199Y-107841951D01*
X110515145Y-107809294D01*
X110535192Y-107779989D01*
X110560579Y-107755150D01*
X110590314Y-107735748D01*
X110623271Y-107722516D01*
X110664245Y-107714829D01*
X110962157Y-107688765D01*
X111281737Y-107660805D01*
X111281741Y-107660805D01*
X111337874Y-107655894D01*
X111379562Y-107656349D01*
X111379562Y-107656349D01*
G37*
G36*
X116423148Y-92786827D02*
G01*
X116353341Y-93182720D01*
X116336324Y-93279230D01*
X116266517Y-93675123D01*
X116249499Y-93771634D01*
X116249500Y-93771634D01*
X116179693Y-94167527D01*
X116162676Y-94264038D01*
X116115572Y-94531174D01*
X116100136Y-94618721D01*
X116092869Y-94659931D01*
X116071165Y-94783022D01*
X116071163Y-94783027D01*
X116006044Y-95152335D01*
X115989026Y-95248846D01*
X115989027Y-95248846D01*
X115919220Y-95644739D01*
X115902202Y-95741250D01*
X115902203Y-95741250D01*
X115832396Y-96137143D01*
X115815378Y-96233654D01*
X115815379Y-96233654D01*
X115745572Y-96629547D01*
X115728554Y-96726058D01*
X115728555Y-96726058D01*
X115658748Y-97121951D01*
X115641731Y-97218461D01*
X115571924Y-97614354D01*
X115554906Y-97710865D01*
X115554907Y-97710865D01*
X115485100Y-98106758D01*
X115468082Y-98203269D01*
X115468083Y-98203269D01*
X115398276Y-98599162D01*
X115381259Y-98695673D01*
X115311452Y-99091566D01*
X115224813Y-99582924D01*
X115224628Y-99583970D01*
X115207611Y-99680481D01*
X115137804Y-100076374D01*
X115116100Y-100199465D01*
X115116098Y-100199470D01*
X115050979Y-100568778D01*
X115033961Y-100665289D01*
X115033962Y-100665289D01*
X114964155Y-101061182D01*
X114947138Y-101157692D01*
X114877331Y-101553585D01*
X114860313Y-101650096D01*
X114860314Y-101650096D01*
X114790507Y-102045989D01*
X114773489Y-102142500D01*
X114773490Y-102142500D01*
X114703683Y-102538393D01*
X114686665Y-102634904D01*
X114686666Y-102634904D01*
X114616859Y-103030797D01*
X114599841Y-103127308D01*
X114599842Y-103127308D01*
X114530035Y-103523201D01*
X114513017Y-103619712D01*
X114513018Y-103619712D01*
X114443211Y-104015605D01*
X114426193Y-104112116D01*
X114426194Y-104112116D01*
X114356387Y-104508009D01*
X114339369Y-104604520D01*
X114339370Y-104604520D01*
X114269563Y-105000413D01*
X114252546Y-105096923D01*
X114212903Y-105321750D01*
X114183489Y-105488566D01*
X114182739Y-105492816D01*
X114161035Y-105615907D01*
X114161033Y-105615912D01*
X114095914Y-105985220D01*
X114078896Y-106081731D01*
X114078897Y-106081731D01*
X114009090Y-106477624D01*
X113992072Y-106574135D01*
X113992073Y-106574135D01*
X113922266Y-106970028D01*
X113905249Y-107066539D01*
X113835442Y-107462432D01*
X112454741Y-107218977D01*
X112524548Y-106823084D01*
X112541566Y-106726573D01*
X112541565Y-106726573D01*
X112611372Y-106330680D01*
X112628390Y-106234169D01*
X112628389Y-106234169D01*
X112698196Y-105838276D01*
X112806724Y-105222781D01*
X112806726Y-105222776D01*
X112871845Y-104853468D01*
X112893430Y-104731057D01*
X112958669Y-104361065D01*
X112975687Y-104264554D01*
X112975686Y-104264554D01*
X113045493Y-103868661D01*
X113062511Y-103772150D01*
X113062510Y-103772150D01*
X113132317Y-103376257D01*
X113149335Y-103279746D01*
X113149334Y-103279746D01*
X113219141Y-102883853D01*
X113236159Y-102787342D01*
X113236158Y-102787342D01*
X113305965Y-102391449D01*
X113322983Y-102294938D01*
X113322982Y-102294938D01*
X113392789Y-101899045D01*
X113409807Y-101802534D01*
X113409806Y-101802534D01*
X113479613Y-101406641D01*
X113496631Y-101310130D01*
X113496630Y-101310130D01*
X113566437Y-100914237D01*
X113588143Y-100791137D01*
X113647322Y-100455519D01*
X113653261Y-100421834D01*
X113670279Y-100325323D01*
X113670278Y-100325323D01*
X113740085Y-99929430D01*
X113761789Y-99806339D01*
X113761791Y-99806334D01*
X113826910Y-99437026D01*
X113843928Y-99340515D01*
X113843927Y-99340515D01*
X113913734Y-98944622D01*
X113930752Y-98848111D01*
X113930751Y-98848111D01*
X114000558Y-98452218D01*
X114017576Y-98355707D01*
X114017575Y-98355707D01*
X114087382Y-97959814D01*
X114104400Y-97863303D01*
X114104399Y-97863303D01*
X114174206Y-97467410D01*
X114191224Y-97370899D01*
X114191223Y-97370899D01*
X114261030Y-96975006D01*
X114282736Y-96851906D01*
X114364872Y-96386092D01*
X114364871Y-96386092D01*
X114434678Y-95990199D01*
X114451696Y-95893688D01*
X114451695Y-95893688D01*
X114521502Y-95497795D01*
X114543587Y-95372546D01*
X114608326Y-95005391D01*
X114655442Y-94738184D01*
X114685535Y-94567515D01*
X114716854Y-94389896D01*
X114716856Y-94389891D01*
X114781975Y-94020583D01*
X114798993Y-93924072D01*
X114798992Y-93924072D01*
X114868799Y-93528179D01*
X114885817Y-93431668D01*
X114885816Y-93431668D01*
X114955623Y-93035775D01*
X114974911Y-92926389D01*
X115042447Y-92543372D01*
X116423148Y-92786827D01*
X116423148Y-92786827D01*
G37*
G36*
X111242292Y-106087343D02*
G01*
X111277043Y-106094650D01*
X111309700Y-106108596D01*
X111339005Y-106128643D01*
X111363844Y-106154030D01*
X111383246Y-106183765D01*
X111396478Y-106216722D01*
X111404165Y-106257696D01*
X111412909Y-106357642D01*
X111445187Y-106726573D01*
X111456563Y-106856610D01*
X111456108Y-106898298D01*
X111448801Y-106933049D01*
X111434855Y-106965706D01*
X111414808Y-106995011D01*
X111389421Y-107019850D01*
X111359686Y-107039252D01*
X111326729Y-107052484D01*
X111285755Y-107060171D01*
X111001787Y-107085015D01*
X110668263Y-107114195D01*
X110668259Y-107114195D01*
X110612126Y-107119106D01*
X110570438Y-107118651D01*
X110535687Y-107111344D01*
X110503030Y-107097398D01*
X110473725Y-107077351D01*
X110448886Y-107051964D01*
X110429484Y-107022229D01*
X110416252Y-106989272D01*
X110408565Y-106948298D01*
X110375830Y-106574135D01*
X110361078Y-106405521D01*
X110361078Y-106405518D01*
X110356167Y-106349384D01*
X110356622Y-106307696D01*
X110363929Y-106272945D01*
X110377875Y-106240288D01*
X110397922Y-106210983D01*
X110423309Y-106186144D01*
X110453044Y-106166742D01*
X110486001Y-106153510D01*
X110526975Y-106145823D01*
X110824887Y-106119759D01*
X111144467Y-106091799D01*
X111144471Y-106091799D01*
X111200604Y-106086888D01*
X111242292Y-106087343D01*
X111242292Y-106087343D01*
G37*
G36*
X111415109Y-104435746D02*
G01*
X111470607Y-104445532D01*
X111470610Y-104445532D01*
X111872175Y-104516339D01*
X112081054Y-104553170D01*
X112121192Y-104564396D01*
X112152865Y-104580447D01*
X112180806Y-104602376D01*
X112203923Y-104629322D01*
X112221345Y-104660273D01*
X112232391Y-104694018D01*
X112236641Y-104729271D01*
X112233461Y-104770835D01*
X112129060Y-105362919D01*
X112117834Y-105403055D01*
X112101781Y-105434733D01*
X112079855Y-105462670D01*
X112052908Y-105485788D01*
X112021961Y-105503208D01*
X111988208Y-105514256D01*
X111952959Y-105518506D01*
X111911395Y-105515326D01*
X111855897Y-105505540D01*
X111855894Y-105505540D01*
X111300955Y-105407689D01*
X111245450Y-105397902D01*
X111205312Y-105386676D01*
X111173639Y-105370625D01*
X111145698Y-105348696D01*
X111122581Y-105321750D01*
X111105159Y-105290799D01*
X111094113Y-105257054D01*
X111089863Y-105221801D01*
X111093043Y-105180237D01*
X111197444Y-104588153D01*
X111208670Y-104548017D01*
X111224723Y-104516339D01*
X111246649Y-104488402D01*
X111273596Y-104465284D01*
X111304543Y-104447864D01*
X111338296Y-104436816D01*
X111373545Y-104432566D01*
X111415109Y-104435746D01*
X111415109Y-104435746D01*
G37*
G36*
X111688605Y-102884674D02*
G01*
X111744103Y-102894460D01*
X111744106Y-102894460D01*
X112145671Y-102965267D01*
X112354550Y-103002098D01*
X112394688Y-103013324D01*
X112426361Y-103029375D01*
X112454302Y-103051304D01*
X112477419Y-103078250D01*
X112494841Y-103109201D01*
X112505887Y-103142946D01*
X112510137Y-103178199D01*
X112506957Y-103219763D01*
X112402556Y-103811847D01*
X112391330Y-103851983D01*
X112375277Y-103883661D01*
X112353351Y-103911598D01*
X112326404Y-103934716D01*
X112295457Y-103952136D01*
X112261704Y-103963184D01*
X112226455Y-103967434D01*
X112184891Y-103964254D01*
X112129393Y-103954468D01*
X112129390Y-103954468D01*
X111574451Y-103856617D01*
X111518946Y-103846830D01*
X111478808Y-103835604D01*
X111447135Y-103819553D01*
X111419194Y-103797624D01*
X111396077Y-103770678D01*
X111378655Y-103739727D01*
X111367609Y-103705982D01*
X111363359Y-103670729D01*
X111366539Y-103629165D01*
X111470940Y-103037081D01*
X111482166Y-102996945D01*
X111498219Y-102965267D01*
X111520145Y-102937330D01*
X111547092Y-102914212D01*
X111578039Y-102896792D01*
X111611792Y-102885744D01*
X111647041Y-102881494D01*
X111688605Y-102884674D01*
X111688605Y-102884674D01*
G37*
G36*
X111123075Y-99453618D02*
G01*
X111123079Y-99453618D01*
X111685207Y-99492926D01*
X111741437Y-99496858D01*
X111782519Y-99503825D01*
X111815704Y-99516481D01*
X111845777Y-99535364D01*
X111871587Y-99559750D01*
X111892147Y-99588708D01*
X111906660Y-99621113D01*
X111914573Y-99655732D01*
X111915755Y-99697394D01*
X111911824Y-99753613D01*
X111911824Y-99753619D01*
X111882506Y-100172885D01*
X111873816Y-100297160D01*
X111866849Y-100338240D01*
X111854194Y-100371424D01*
X111835309Y-100401500D01*
X111810924Y-100427309D01*
X111781966Y-100447869D01*
X111749560Y-100462382D01*
X111714944Y-100470294D01*
X111673277Y-100471477D01*
X111617059Y-100467546D01*
X111617055Y-100467546D01*
X111054927Y-100428238D01*
X110998697Y-100424306D01*
X110957615Y-100417339D01*
X110924430Y-100404683D01*
X110894357Y-100385800D01*
X110868547Y-100361414D01*
X110847987Y-100332456D01*
X110833474Y-100300051D01*
X110825561Y-100265432D01*
X110824379Y-100223770D01*
X110828310Y-100167551D01*
X110828310Y-100167545D01*
X110862386Y-99680235D01*
X110866318Y-99624004D01*
X110873285Y-99582924D01*
X110885940Y-99549740D01*
X110904825Y-99519664D01*
X110929210Y-99493855D01*
X110958168Y-99473295D01*
X110990574Y-99458782D01*
X111025190Y-99450870D01*
X111066857Y-99449687D01*
X111123075Y-99453618D01*
X111123075Y-99453618D01*
G37*
G36*
X111232941Y-97882454D02*
G01*
X111232945Y-97882454D01*
X111795073Y-97921762D01*
X111851303Y-97925694D01*
X111892385Y-97932661D01*
X111925570Y-97945317D01*
X111955643Y-97964200D01*
X111981453Y-97988586D01*
X112002013Y-98017544D01*
X112016526Y-98049949D01*
X112024439Y-98084568D01*
X112025621Y-98126230D01*
X112021690Y-98182449D01*
X112021690Y-98182455D01*
X111992551Y-98599162D01*
X111983682Y-98725996D01*
X111976715Y-98767076D01*
X111964060Y-98800260D01*
X111945175Y-98830336D01*
X111920790Y-98856145D01*
X111891832Y-98876705D01*
X111859426Y-98891218D01*
X111824810Y-98899130D01*
X111783143Y-98900313D01*
X111726925Y-98896382D01*
X111726921Y-98896382D01*
X111164793Y-98857074D01*
X111108563Y-98853142D01*
X111067481Y-98846175D01*
X111034296Y-98833519D01*
X111004223Y-98814636D01*
X110978413Y-98790250D01*
X110957853Y-98761292D01*
X110943340Y-98728887D01*
X110935427Y-98694268D01*
X110934245Y-98652606D01*
X110938176Y-98596387D01*
X110938176Y-98596381D01*
X110972252Y-98109071D01*
X110976184Y-98052840D01*
X110983151Y-98011760D01*
X110995806Y-97978576D01*
X111014691Y-97948500D01*
X111039076Y-97922691D01*
X111068034Y-97902131D01*
X111100440Y-97887618D01*
X111135056Y-97879706D01*
X111176723Y-97878523D01*
X111232941Y-97882454D01*
X111232941Y-97882454D01*
G37*
G36*
X111890109Y-95210746D02*
G01*
X111945607Y-95220532D01*
X111945610Y-95220532D01*
X112347175Y-95291339D01*
X112556054Y-95328170D01*
X112596192Y-95339396D01*
X112627865Y-95355447D01*
X112655806Y-95377376D01*
X112678923Y-95404322D01*
X112696345Y-95435273D01*
X112707391Y-95469018D01*
X112711641Y-95504271D01*
X112708461Y-95545835D01*
X112604060Y-96137919D01*
X112592834Y-96178055D01*
X112576781Y-96209733D01*
X112554855Y-96237670D01*
X112527908Y-96260788D01*
X112496961Y-96278208D01*
X112463208Y-96289256D01*
X112427959Y-96293506D01*
X112386395Y-96290326D01*
X112330897Y-96280540D01*
X112330894Y-96280540D01*
X111775955Y-96182689D01*
X111720450Y-96172902D01*
X111680312Y-96161676D01*
X111648639Y-96145625D01*
X111620698Y-96123696D01*
X111597581Y-96096750D01*
X111580159Y-96065799D01*
X111569113Y-96032054D01*
X111564863Y-95996801D01*
X111568043Y-95955237D01*
X111672444Y-95363153D01*
X111683670Y-95323017D01*
X111699723Y-95291339D01*
X111721649Y-95263402D01*
X111748596Y-95240284D01*
X111779543Y-95222864D01*
X111813296Y-95211816D01*
X111848545Y-95207566D01*
X111890109Y-95210746D01*
X111890109Y-95210746D01*
G37*
G36*
X112163605Y-93659674D02*
G01*
X112219103Y-93669460D01*
X112219106Y-93669460D01*
X112620671Y-93740267D01*
X112829550Y-93777098D01*
X112869688Y-93788324D01*
X112901361Y-93804375D01*
X112929302Y-93826304D01*
X112952419Y-93853250D01*
X112969841Y-93884201D01*
X112980887Y-93917946D01*
X112985137Y-93953199D01*
X112981957Y-93994763D01*
X112877556Y-94586847D01*
X112866330Y-94626983D01*
X112850277Y-94658661D01*
X112828351Y-94686598D01*
X112801404Y-94709716D01*
X112770457Y-94727136D01*
X112736704Y-94738184D01*
X112701455Y-94742434D01*
X112659891Y-94739254D01*
X112604393Y-94729468D01*
X112604390Y-94729468D01*
X112049451Y-94631617D01*
X111993946Y-94621830D01*
X111953808Y-94610604D01*
X111922135Y-94594553D01*
X111894194Y-94572624D01*
X111871077Y-94545678D01*
X111853655Y-94514727D01*
X111842609Y-94480982D01*
X111838359Y-94445729D01*
X111841539Y-94404165D01*
X111945940Y-93812081D01*
X111957166Y-93771945D01*
X111973219Y-93740267D01*
X111995145Y-93712330D01*
X112022092Y-93689212D01*
X112053039Y-93671792D01*
X112086792Y-93660744D01*
X112122041Y-93656494D01*
X112163605Y-93659674D01*
X112163605Y-93659674D01*
G37*
G36*
X113389643Y-92104980D02*
G01*
X113430009Y-92115325D01*
X113572397Y-92167150D01*
X114012494Y-92327332D01*
X114012497Y-92327333D01*
X114065459Y-92346610D01*
X114103037Y-92364635D01*
X114131441Y-92385941D01*
X114155147Y-92412386D01*
X114173237Y-92442943D01*
X114185017Y-92476442D01*
X114190036Y-92511597D01*
X114188100Y-92547057D01*
X114177755Y-92587423D01*
X113972122Y-93152395D01*
X113954097Y-93189973D01*
X113932791Y-93218377D01*
X113906346Y-93242083D01*
X113875789Y-93260173D01*
X113842290Y-93271953D01*
X113807135Y-93276972D01*
X113771675Y-93275036D01*
X113731309Y-93264691D01*
X113277258Y-93099430D01*
X113148824Y-93052684D01*
X113148821Y-93052683D01*
X113095859Y-93033406D01*
X113058281Y-93015381D01*
X113029877Y-92994075D01*
X113006171Y-92967630D01*
X112988081Y-92937073D01*
X112976301Y-92903574D01*
X112971282Y-92868419D01*
X112973218Y-92832959D01*
X112983563Y-92792593D01*
X113189196Y-92227621D01*
X113207221Y-92190043D01*
X113228527Y-92161639D01*
X113254972Y-92137933D01*
X113285529Y-92119843D01*
X113319028Y-92108063D01*
X113354183Y-92103044D01*
X113389643Y-92104980D01*
X113389643Y-92104980D01*
G37*
G36*
X120008652Y-90880481D02*
G01*
X119643644Y-92950547D01*
X116588770Y-92411891D01*
X116953778Y-90341825D01*
X120008652Y-90880481D01*
X120008652Y-90880481D01*
G37*
G36*
X123895835Y-91116539D02*
G01*
X124487919Y-91220940D01*
X124528055Y-91232166D01*
X124559733Y-91248219D01*
X124587670Y-91270145D01*
X124610788Y-91297092D01*
X124628208Y-91328039D01*
X124639256Y-91361792D01*
X124643506Y-91397041D01*
X124640326Y-91438605D01*
X124630540Y-91494103D01*
X124630540Y-91494106D01*
X124554186Y-91927132D01*
X124522902Y-92104550D01*
X124511676Y-92144688D01*
X124495625Y-92176361D01*
X124473696Y-92204302D01*
X124446750Y-92227419D01*
X124415799Y-92244841D01*
X124382054Y-92255887D01*
X124346801Y-92260137D01*
X124305237Y-92256957D01*
X123713153Y-92152556D01*
X123673017Y-92141330D01*
X123641339Y-92125277D01*
X123613402Y-92103351D01*
X123590284Y-92076404D01*
X123572864Y-92045457D01*
X123561816Y-92011704D01*
X123557566Y-91976455D01*
X123560746Y-91934891D01*
X123570591Y-91879060D01*
X123668383Y-91324451D01*
X123678170Y-91268946D01*
X123689396Y-91228808D01*
X123705447Y-91197135D01*
X123727376Y-91169194D01*
X123754322Y-91146077D01*
X123785273Y-91128655D01*
X123819018Y-91117609D01*
X123854271Y-91113359D01*
X123895835Y-91116539D01*
X123895835Y-91116539D01*
G37*
G36*
X122344763Y-90843043D02*
G01*
X122936847Y-90947444D01*
X122976983Y-90958670D01*
X123008661Y-90974723D01*
X123036598Y-90996649D01*
X123059716Y-91023596D01*
X123077136Y-91054543D01*
X123088184Y-91088296D01*
X123092434Y-91123545D01*
X123089254Y-91165109D01*
X123079468Y-91220607D01*
X123079468Y-91220610D01*
X123032388Y-91487614D01*
X122971830Y-91831054D01*
X122960604Y-91871192D01*
X122944553Y-91902865D01*
X122922624Y-91930806D01*
X122895678Y-91953923D01*
X122864727Y-91971345D01*
X122830982Y-91982391D01*
X122795729Y-91986641D01*
X122754165Y-91983461D01*
X122162081Y-91879060D01*
X122121945Y-91867834D01*
X122090267Y-91851781D01*
X122062330Y-91829855D01*
X122039212Y-91802908D01*
X122021792Y-91771961D01*
X122010744Y-91738208D01*
X122006494Y-91702959D01*
X122009674Y-91661395D01*
X122034037Y-91523228D01*
X122117311Y-91050955D01*
X122127098Y-90995450D01*
X122138324Y-90955312D01*
X122154375Y-90923639D01*
X122176304Y-90895698D01*
X122203250Y-90872581D01*
X122234201Y-90855159D01*
X122267946Y-90844113D01*
X122303199Y-90839863D01*
X122344763Y-90843043D01*
X122344763Y-90843043D01*
G37*
G36*
X113928325Y-90624964D02*
G01*
X113968691Y-90635309D01*
X114111079Y-90687134D01*
X114551176Y-90847316D01*
X114551179Y-90847317D01*
X114604141Y-90866594D01*
X114641719Y-90884619D01*
X114670123Y-90905925D01*
X114693829Y-90932370D01*
X114711919Y-90962927D01*
X114723699Y-90996426D01*
X114728718Y-91031581D01*
X114726782Y-91067041D01*
X114716437Y-91107407D01*
X114510804Y-91672379D01*
X114492779Y-91709957D01*
X114471473Y-91738361D01*
X114445028Y-91762067D01*
X114414471Y-91780157D01*
X114380972Y-91791937D01*
X114345817Y-91796956D01*
X114310357Y-91795020D01*
X114269991Y-91784675D01*
X113778794Y-91605894D01*
X113687506Y-91572668D01*
X113687503Y-91572667D01*
X113634541Y-91553390D01*
X113596963Y-91535365D01*
X113568559Y-91514059D01*
X113544853Y-91487614D01*
X113526763Y-91457057D01*
X113514983Y-91423558D01*
X113509964Y-91388403D01*
X113511900Y-91352943D01*
X113522245Y-91312577D01*
X113727878Y-90747605D01*
X113745903Y-90710027D01*
X113767209Y-90681623D01*
X113793654Y-90657917D01*
X113824211Y-90639827D01*
X113857710Y-90628047D01*
X113892865Y-90623028D01*
X113928325Y-90624964D01*
X113928325Y-90624964D01*
G37*
G36*
X131862245Y-87751831D02*
G01*
X131822629Y-87976507D01*
X131820760Y-88000940D01*
X131823693Y-88025268D01*
X131831316Y-88048556D01*
X131843336Y-88069910D01*
X131859291Y-88088508D01*
X131878567Y-88103636D01*
X131900425Y-88114713D01*
X131924023Y-88121313D01*
X131948456Y-88123182D01*
X131972784Y-88120249D01*
X131996072Y-88112626D01*
X132017426Y-88100606D01*
X132042355Y-88077511D01*
X132083141Y-88027812D01*
X132120960Y-87996775D01*
X132167042Y-87958956D01*
X132236483Y-87921839D01*
X132262763Y-87907792D01*
X132366627Y-87876286D01*
X132447575Y-87868313D01*
X132501709Y-87868313D01*
X132582657Y-87876286D01*
X132686521Y-87907792D01*
X132712801Y-87921839D01*
X132782242Y-87958956D01*
X132866143Y-88027812D01*
X132934999Y-88111713D01*
X132971637Y-88180258D01*
X132986163Y-88207434D01*
X133017669Y-88311298D01*
X133028308Y-88419313D01*
X133017669Y-88527328D01*
X132986163Y-88631192D01*
X132971637Y-88658368D01*
X132934999Y-88726913D01*
X132866143Y-88810814D01*
X132782242Y-88879670D01*
X132713697Y-88916308D01*
X132686521Y-88930834D01*
X132582657Y-88962340D01*
X132501709Y-88970313D01*
X132447575Y-88970313D01*
X132366627Y-88962340D01*
X132262763Y-88930834D01*
X132235587Y-88916308D01*
X132167042Y-88879670D01*
X132083141Y-88810814D01*
X132014285Y-88726913D01*
X131980943Y-88664534D01*
X131963121Y-88631192D01*
X131953137Y-88598279D01*
X131943761Y-88575643D01*
X131930147Y-88555268D01*
X131912820Y-88537941D01*
X131892446Y-88524328D01*
X131869807Y-88514950D01*
X131845774Y-88510170D01*
X131821270Y-88510170D01*
X131797236Y-88514951D01*
X131774598Y-88524328D01*
X131754223Y-88537942D01*
X131736896Y-88555269D01*
X131723283Y-88575643D01*
X131713905Y-88598282D01*
X131710423Y-88612855D01*
X131670885Y-88837089D01*
X130585627Y-88645729D01*
X130776987Y-87560471D01*
X131862245Y-87751831D01*
X131862245Y-87751831D01*
G37*
G36*
X123820776Y-86939120D02*
G01*
X124401510Y-87094728D01*
X124440512Y-87109407D01*
X124470669Y-87128161D01*
X124496590Y-87152439D01*
X124517274Y-87181302D01*
X124531927Y-87213642D01*
X124539992Y-87248231D01*
X124541153Y-87283718D01*
X124534363Y-87324848D01*
X124519777Y-87379283D01*
X124519777Y-87379284D01*
X124483159Y-87515943D01*
X124359344Y-87978027D01*
X124344665Y-88017029D01*
X124325911Y-88047187D01*
X124301636Y-88073105D01*
X124272772Y-88093788D01*
X124240426Y-88108445D01*
X124205841Y-88116509D01*
X124170355Y-88117670D01*
X124129224Y-88110880D01*
X123548490Y-87955272D01*
X123509488Y-87940593D01*
X123479331Y-87921839D01*
X123453410Y-87897561D01*
X123432726Y-87868698D01*
X123418073Y-87836358D01*
X123410008Y-87801769D01*
X123408847Y-87766282D01*
X123415637Y-87725152D01*
X123590656Y-87071973D01*
X123605335Y-87032971D01*
X123624089Y-87002813D01*
X123648364Y-86976895D01*
X123677228Y-86956212D01*
X123709574Y-86941555D01*
X123744159Y-86933491D01*
X123779645Y-86932330D01*
X123820776Y-86939120D01*
X123820776Y-86939120D01*
G37*
G36*
X122299442Y-86531480D02*
G01*
X122880176Y-86687088D01*
X122919178Y-86701767D01*
X122949335Y-86720521D01*
X122975256Y-86744799D01*
X122995940Y-86773662D01*
X123010593Y-86806002D01*
X123018658Y-86840591D01*
X123019819Y-86876078D01*
X123013029Y-86917208D01*
X122838010Y-87570387D01*
X122823331Y-87609389D01*
X122804577Y-87639547D01*
X122780302Y-87665465D01*
X122751438Y-87686148D01*
X122719092Y-87700805D01*
X122684507Y-87708869D01*
X122649021Y-87710030D01*
X122607890Y-87703240D01*
X122027156Y-87547632D01*
X121988154Y-87532953D01*
X121957997Y-87514199D01*
X121932076Y-87489921D01*
X121911392Y-87461058D01*
X121896739Y-87428718D01*
X121888674Y-87394129D01*
X121887513Y-87358642D01*
X121894303Y-87317512D01*
X121927414Y-87193942D01*
X121977773Y-87005997D01*
X122069322Y-86664333D01*
X122084001Y-86625331D01*
X122102755Y-86595173D01*
X122127030Y-86569255D01*
X122155894Y-86548572D01*
X122188240Y-86533915D01*
X122222825Y-86525851D01*
X122258311Y-86524690D01*
X122299442Y-86531480D01*
X122299442Y-86531480D01*
G37*
G36*
X118250914Y-83549532D02*
G01*
X117836286Y-85096945D01*
X116771836Y-84811726D01*
X117186464Y-83264313D01*
X118250914Y-83549532D01*
X118250914Y-83549532D01*
G37*
G36*
X123222689Y-82951084D02*
G01*
X123368441Y-82976784D01*
X123715093Y-83037908D01*
X124230148Y-83128726D01*
X124699901Y-83211556D01*
X124643639Y-83530633D01*
X124634435Y-83582828D01*
X124632612Y-83593169D01*
X124630743Y-83617602D01*
X124633676Y-83641930D01*
X124635646Y-83647948D01*
X124608020Y-83804621D01*
X124562092Y-84065093D01*
X124540386Y-84188193D01*
X124536392Y-84210845D01*
X124475268Y-84557497D01*
X124462838Y-84627992D01*
X124458928Y-84632974D01*
X124447851Y-84654832D01*
X124441253Y-84678427D01*
X124373964Y-85060040D01*
X124373963Y-85060040D01*
X124027311Y-84998916D01*
X123881559Y-84973216D01*
X123534907Y-84912092D01*
X123019852Y-84821274D01*
X122550099Y-84738444D01*
X122617388Y-84356831D01*
X122619257Y-84332398D01*
X122619185Y-84331799D01*
X122994363Y-84331799D01*
X122997296Y-84356127D01*
X123004919Y-84379415D01*
X123016939Y-84400768D01*
X123032894Y-84419367D01*
X123052170Y-84434495D01*
X123074028Y-84445572D01*
X123097626Y-84452172D01*
X123477272Y-84519114D01*
X123600373Y-84540820D01*
X123947025Y-84601944D01*
X123947025Y-84601945D01*
X123957366Y-84603768D01*
X123981799Y-84605637D01*
X124006127Y-84602704D01*
X124029415Y-84595081D01*
X124050768Y-84583061D01*
X124069367Y-84567106D01*
X124084495Y-84547830D01*
X124095572Y-84525972D01*
X124102172Y-84502374D01*
X124186826Y-84022279D01*
X124203499Y-83927721D01*
X124251944Y-83652975D01*
X124251945Y-83652975D01*
X124253768Y-83642634D01*
X124255637Y-83618201D01*
X124252704Y-83593873D01*
X124245081Y-83570585D01*
X124233061Y-83549232D01*
X124217106Y-83530633D01*
X124197830Y-83515505D01*
X124175972Y-83504428D01*
X124152374Y-83497828D01*
X123772728Y-83430886D01*
X123649627Y-83409180D01*
X123302975Y-83348056D01*
X123302975Y-83348055D01*
X123292634Y-83346232D01*
X123268201Y-83344363D01*
X123243873Y-83347296D01*
X123220585Y-83354919D01*
X123199232Y-83366939D01*
X123180633Y-83382894D01*
X123165505Y-83402170D01*
X123154428Y-83424028D01*
X123147828Y-83447626D01*
X123117751Y-83618201D01*
X123084880Y-83804621D01*
X123063174Y-83927721D01*
X123059180Y-83950373D01*
X122998056Y-84297025D01*
X122998055Y-84297025D01*
X122996232Y-84307366D01*
X122994363Y-84331799D01*
X122619185Y-84331799D01*
X122616324Y-84308070D01*
X122614354Y-84302052D01*
X122709614Y-83761807D01*
X122717261Y-83718441D01*
X122774732Y-83392503D01*
X122787162Y-83322008D01*
X122791072Y-83317026D01*
X122802149Y-83295168D01*
X122808747Y-83271573D01*
X122876036Y-82889960D01*
X122876037Y-82889960D01*
X123222689Y-82951084D01*
X123222689Y-82951084D01*
G37*
G36*
X115159951Y-82721311D02*
G01*
X114745323Y-84268724D01*
X113680873Y-83983505D01*
X114095501Y-82436092D01*
X115159951Y-82721311D01*
X115159951Y-82721311D01*
G37*
G36*
X153330337Y-80430303D02*
G01*
X152508804Y-82687445D01*
X150157693Y-81831711D01*
X150979226Y-79574569D01*
X153330337Y-80430303D01*
X153330337Y-80430303D01*
G37*
G36*
X141569371Y-81021454D02*
G01*
X141717875Y-81082966D01*
X141717876Y-81082967D01*
X141851521Y-81172265D01*
X141965185Y-81285929D01*
X142032159Y-81386163D01*
X142054484Y-81419575D01*
X142115996Y-81568079D01*
X142147354Y-81725726D01*
X142147354Y-81886466D01*
X142115996Y-82044113D01*
X142085239Y-82118366D01*
X142054484Y-82192617D01*
X142054483Y-82192618D01*
X141965185Y-82326263D01*
X141851521Y-82439927D01*
X141751287Y-82506901D01*
X141717875Y-82529226D01*
X141643624Y-82559981D01*
X141569371Y-82590738D01*
X141411724Y-82622096D01*
X141250984Y-82622096D01*
X141093337Y-82590738D01*
X141019084Y-82559981D01*
X140944833Y-82529226D01*
X140911421Y-82506900D01*
X140811187Y-82439927D01*
X140697523Y-82326263D01*
X140608225Y-82192618D01*
X140608224Y-82192617D01*
X140577469Y-82118366D01*
X140546712Y-82044113D01*
X140515354Y-81886466D01*
X140515354Y-81725726D01*
X140546712Y-81568079D01*
X140608224Y-81419575D01*
X140630550Y-81386163D01*
X140697523Y-81285929D01*
X140811187Y-81172265D01*
X140944832Y-81082967D01*
X140944833Y-81082966D01*
X141093337Y-81021454D01*
X141250984Y-80990096D01*
X141411724Y-80990096D01*
X141569371Y-81021454D01*
X141569371Y-81021454D01*
G37*
G36*
X148631874Y-78720202D02*
G01*
X147810341Y-80977344D01*
X145459230Y-80121610D01*
X146280763Y-77864468D01*
X148631874Y-78720202D01*
X148631874Y-78720202D01*
G37*
G36*
X123430978Y-79467609D02*
G01*
X123464731Y-79478657D01*
X123495678Y-79496077D01*
X123522625Y-79519195D01*
X123544551Y-79547132D01*
X123560604Y-79578810D01*
X123571830Y-79618946D01*
X123581617Y-79674451D01*
X123679410Y-80229060D01*
X123689254Y-80284891D01*
X123692434Y-80326455D01*
X123688184Y-80361708D01*
X123677138Y-80395453D01*
X123659716Y-80426404D01*
X123636599Y-80453350D01*
X123608658Y-80475279D01*
X123576985Y-80491330D01*
X123536847Y-80502556D01*
X122944763Y-80606957D01*
X122903199Y-80610137D01*
X122867950Y-80605887D01*
X122834197Y-80594839D01*
X122803250Y-80577419D01*
X122776303Y-80554301D01*
X122754377Y-80526364D01*
X122738324Y-80494686D01*
X122727098Y-80454550D01*
X122691536Y-80252868D01*
X122619460Y-79844106D01*
X122619460Y-79844103D01*
X122609674Y-79788605D01*
X122606494Y-79747041D01*
X122610744Y-79711788D01*
X122621790Y-79678043D01*
X122639212Y-79647092D01*
X122662329Y-79620146D01*
X122690270Y-79598217D01*
X122721943Y-79582166D01*
X122762081Y-79570940D01*
X123354165Y-79466539D01*
X123395729Y-79463359D01*
X123430978Y-79467609D01*
X123430978Y-79467609D01*
G37*
G36*
X119519127Y-78816495D02*
G01*
X119104499Y-80363908D01*
X118040049Y-80078689D01*
X118454677Y-78531276D01*
X119519127Y-78816495D01*
X119519127Y-78816495D01*
G37*
G36*
X124982050Y-79194113D02*
G01*
X125015803Y-79205161D01*
X125046750Y-79222581D01*
X125073697Y-79245699D01*
X125095623Y-79273636D01*
X125111676Y-79305314D01*
X125122902Y-79345450D01*
X125132689Y-79400955D01*
X125210829Y-79844106D01*
X125240326Y-80011395D01*
X125243506Y-80052959D01*
X125239256Y-80088212D01*
X125228210Y-80121957D01*
X125210788Y-80152908D01*
X125187671Y-80179854D01*
X125159730Y-80201783D01*
X125128057Y-80217834D01*
X125087919Y-80229060D01*
X124495835Y-80333461D01*
X124454271Y-80336641D01*
X124419022Y-80332391D01*
X124385269Y-80321343D01*
X124354322Y-80303923D01*
X124327375Y-80280805D01*
X124305449Y-80252868D01*
X124289396Y-80221190D01*
X124278170Y-80181054D01*
X124193933Y-79703321D01*
X124170532Y-79570610D01*
X124170532Y-79570607D01*
X124160746Y-79515109D01*
X124157566Y-79473545D01*
X124161816Y-79438292D01*
X124172862Y-79404547D01*
X124190284Y-79373596D01*
X124213401Y-79346650D01*
X124241342Y-79324721D01*
X124273015Y-79308670D01*
X124313153Y-79297444D01*
X124905237Y-79193043D01*
X124946801Y-79189863D01*
X124982050Y-79194113D01*
X124982050Y-79194113D01*
G37*
G36*
X116428164Y-77988274D02*
G01*
X116013536Y-79535687D01*
X114949086Y-79250468D01*
X115363714Y-77703055D01*
X116428164Y-77988274D01*
X116428164Y-77988274D01*
G37*
G36*
X128089643Y-71679980D02*
G01*
X128130009Y-71690325D01*
X128272397Y-71742150D01*
X128712494Y-71902332D01*
X128712497Y-71902333D01*
X128765459Y-71921610D01*
X128803037Y-71939635D01*
X128831441Y-71960941D01*
X128855147Y-71987386D01*
X128873237Y-72017943D01*
X128885017Y-72051442D01*
X128890036Y-72086597D01*
X128888100Y-72122057D01*
X128877755Y-72162423D01*
X128672122Y-72727395D01*
X128654097Y-72764973D01*
X128632791Y-72793377D01*
X128606346Y-72817083D01*
X128575789Y-72835173D01*
X128542290Y-72846953D01*
X128507135Y-72851972D01*
X128471675Y-72850036D01*
X128431309Y-72839691D01*
X127977258Y-72674430D01*
X127848824Y-72627684D01*
X127848821Y-72627683D01*
X127795859Y-72608406D01*
X127758281Y-72590381D01*
X127729877Y-72569075D01*
X127706171Y-72542630D01*
X127688081Y-72512073D01*
X127676301Y-72478574D01*
X127671282Y-72443419D01*
X127673218Y-72407959D01*
X127683563Y-72367593D01*
X127889196Y-71802621D01*
X127907221Y-71765043D01*
X127928527Y-71736639D01*
X127954972Y-71712933D01*
X127985529Y-71694843D01*
X128019028Y-71683063D01*
X128054183Y-71678044D01*
X128089643Y-71679980D01*
X128089643Y-71679980D01*
G37*
G36*
X128628325Y-70199964D02*
G01*
X128668691Y-70210309D01*
X128811079Y-70262134D01*
X129251176Y-70422316D01*
X129251179Y-70422317D01*
X129304141Y-70441594D01*
X129341719Y-70459619D01*
X129370123Y-70480925D01*
X129393829Y-70507370D01*
X129411919Y-70537927D01*
X129423699Y-70571426D01*
X129428718Y-70606581D01*
X129426782Y-70642041D01*
X129416437Y-70682407D01*
X129210804Y-71247379D01*
X129192779Y-71284957D01*
X129171473Y-71313361D01*
X129145028Y-71337067D01*
X129114471Y-71355157D01*
X129080972Y-71366937D01*
X129045817Y-71371956D01*
X129010357Y-71370020D01*
X128969991Y-71359675D01*
X128515940Y-71194414D01*
X128387506Y-71147668D01*
X128387503Y-71147667D01*
X128334541Y-71128390D01*
X128296963Y-71110365D01*
X128268559Y-71089059D01*
X128244853Y-71062614D01*
X128226763Y-71032057D01*
X128214983Y-70998558D01*
X128209964Y-70963403D01*
X128211900Y-70927943D01*
X128222245Y-70887577D01*
X128427878Y-70322605D01*
X128445903Y-70285027D01*
X128467209Y-70256623D01*
X128493654Y-70232917D01*
X128524211Y-70214827D01*
X128557710Y-70203047D01*
X128592865Y-70198028D01*
X128628325Y-70199964D01*
X128628325Y-70199964D01*
G37*
G36*
X158221225Y-66992698D02*
G01*
X157399692Y-69249840D01*
X155048581Y-68394106D01*
X155870114Y-66136964D01*
X158221225Y-66992698D01*
X158221225Y-66992698D01*
G37*
G36*
X153522762Y-65282598D02*
G01*
X152701229Y-67539740D01*
X150350118Y-66684006D01*
X151171651Y-64426864D01*
X153522762Y-65282598D01*
X153522762Y-65282598D01*
G37*
G36*
X122447057Y-65561900D02*
G01*
X122487423Y-65572245D01*
X123052395Y-65777878D01*
X123089973Y-65795903D01*
X123118377Y-65817209D01*
X123142083Y-65843654D01*
X123160173Y-65874211D01*
X123171953Y-65907710D01*
X123176972Y-65942865D01*
X123175036Y-65978325D01*
X123164691Y-66018691D01*
X123095615Y-66208476D01*
X122973939Y-66542779D01*
X122933406Y-66654141D01*
X122915381Y-66691719D01*
X122894075Y-66720123D01*
X122867630Y-66743829D01*
X122837073Y-66761919D01*
X122803574Y-66773699D01*
X122768419Y-66778718D01*
X122732959Y-66776782D01*
X122692593Y-66766437D01*
X122127621Y-66560804D01*
X122090043Y-66542779D01*
X122061639Y-66521473D01*
X122037933Y-66495028D01*
X122019843Y-66464471D01*
X122008063Y-66430972D01*
X122003044Y-66395817D01*
X122004980Y-66360357D01*
X122015325Y-66319991D01*
X122122592Y-66025277D01*
X122227332Y-65737506D01*
X122227333Y-65737503D01*
X122246610Y-65684541D01*
X122264635Y-65646963D01*
X122285941Y-65618559D01*
X122312386Y-65594853D01*
X122342943Y-65576763D01*
X122376442Y-65564983D01*
X122411597Y-65559964D01*
X122447057Y-65561900D01*
X122447057Y-65561900D01*
G37*
G36*
X120967041Y-65023218D02*
G01*
X121007407Y-65033563D01*
X121572379Y-65239196D01*
X121609957Y-65257221D01*
X121638361Y-65278527D01*
X121662067Y-65304972D01*
X121680157Y-65335529D01*
X121691937Y-65369028D01*
X121696956Y-65404183D01*
X121695020Y-65439643D01*
X121684675Y-65480009D01*
X121665396Y-65532977D01*
X121493923Y-66004097D01*
X121453390Y-66115459D01*
X121435365Y-66153037D01*
X121414059Y-66181441D01*
X121387614Y-66205147D01*
X121357057Y-66223237D01*
X121323558Y-66235017D01*
X121288403Y-66240036D01*
X121252943Y-66238100D01*
X121212577Y-66227755D01*
X120647605Y-66022122D01*
X120610027Y-66004097D01*
X120581623Y-65982791D01*
X120557917Y-65956346D01*
X120539827Y-65925789D01*
X120528047Y-65892290D01*
X120523028Y-65857135D01*
X120524964Y-65821675D01*
X120535309Y-65781309D01*
X120708667Y-65305012D01*
X120747316Y-65198824D01*
X120747317Y-65198821D01*
X120766594Y-65145859D01*
X120784619Y-65108281D01*
X120805925Y-65079877D01*
X120832370Y-65056171D01*
X120862927Y-65038081D01*
X120896426Y-65026301D01*
X120931581Y-65021282D01*
X120967041Y-65023218D01*
X120967041Y-65023218D01*
G37*
G36*
X130988758Y-64558100D02*
G01*
X129266900Y-65763758D01*
X128061242Y-64041900D01*
X129783100Y-62836242D01*
X130988758Y-64558100D01*
X130988758Y-64558100D01*
G37*
G36*
X133927324Y-60421507D02*
G01*
X134118593Y-60500733D01*
X134118595Y-60500734D01*
X134283308Y-60610792D01*
X134290733Y-60615753D01*
X134437125Y-60762145D01*
X134552145Y-60934285D01*
X134631371Y-61125554D01*
X134671760Y-61328602D01*
X134671760Y-61535634D01*
X134631371Y-61738682D01*
X134552145Y-61929951D01*
X134552144Y-61929953D01*
X134437125Y-62102091D01*
X134290733Y-62248483D01*
X134118595Y-62363502D01*
X134118594Y-62363503D01*
X134118593Y-62363503D01*
X133927324Y-62442729D01*
X133724276Y-62483118D01*
X133517244Y-62483118D01*
X133314196Y-62442729D01*
X133122927Y-62363503D01*
X133122926Y-62363503D01*
X133122925Y-62363502D01*
X132950787Y-62248483D01*
X132804395Y-62102091D01*
X132689376Y-61929953D01*
X132689375Y-61929951D01*
X132610149Y-61738682D01*
X132569760Y-61535634D01*
X132569760Y-61328602D01*
X132610149Y-61125554D01*
X132689375Y-60934285D01*
X132804395Y-60762145D01*
X132950787Y-60615753D01*
X132958212Y-60610792D01*
X133122925Y-60500734D01*
X133122927Y-60500733D01*
X133314196Y-60421507D01*
X133517244Y-60381118D01*
X133724276Y-60381118D01*
X133927324Y-60421507D01*
X133927324Y-60421507D01*
G37*
G36*
X136057120Y-58930208D02*
G01*
X136248389Y-59009434D01*
X136248391Y-59009435D01*
X136420529Y-59124454D01*
X136566921Y-59270846D01*
X136681941Y-59442986D01*
X136761167Y-59634255D01*
X136801556Y-59837303D01*
X136801556Y-60044335D01*
X136761167Y-60247383D01*
X136689042Y-60421508D01*
X136681940Y-60438654D01*
X136566921Y-60610792D01*
X136420529Y-60757184D01*
X136248391Y-60872203D01*
X136248390Y-60872204D01*
X136248389Y-60872204D01*
X136057120Y-60951430D01*
X135854072Y-60991819D01*
X135647040Y-60991819D01*
X135443992Y-60951430D01*
X135252723Y-60872204D01*
X135252722Y-60872204D01*
X135252721Y-60872203D01*
X135080583Y-60757184D01*
X134934191Y-60610792D01*
X134819172Y-60438654D01*
X134812070Y-60421508D01*
X134739945Y-60247383D01*
X134699556Y-60044335D01*
X134699556Y-59837303D01*
X134739945Y-59634255D01*
X134819171Y-59442986D01*
X134934191Y-59270846D01*
X135080583Y-59124454D01*
X135252721Y-59009435D01*
X135252723Y-59009434D01*
X135443992Y-58930208D01*
X135647040Y-58889819D01*
X135854072Y-58889819D01*
X136057120Y-58930208D01*
X136057120Y-58930208D01*
G37*
G36*
X148596094Y-56324922D02*
G01*
X147495093Y-58231911D01*
X146194322Y-57480910D01*
X147295323Y-55573921D01*
X148596094Y-56324922D01*
X148596094Y-56324922D01*
G37*
G36*
X144655678Y-54049922D02*
G01*
X143554677Y-55956911D01*
X142253906Y-55205910D01*
X143354907Y-53298921D01*
X144655678Y-54049922D01*
X144655678Y-54049922D01*
G37*
G36*
X131550472Y-52186454D02*
G01*
X130586365Y-53465868D01*
X130586364Y-53465868D01*
X129706268Y-52802668D01*
X130670375Y-51523254D01*
X130670376Y-51523254D01*
X131550472Y-52186454D01*
X131550472Y-52186454D01*
G37*
G36*
X128994838Y-50260646D02*
G01*
X128030731Y-51540060D01*
X128030730Y-51540060D01*
X127150634Y-50876860D01*
X128114741Y-49597446D01*
X128114742Y-49597446D01*
X128994838Y-50260646D01*
X128994838Y-50260646D01*
G37*
G36*
X153146094Y-48444090D02*
G01*
X152045093Y-50351079D01*
X150744322Y-49600078D01*
X151845323Y-47693089D01*
X153146094Y-48444090D01*
X153146094Y-48444090D01*
G37*
G36*
X134237856Y-48076078D02*
G01*
X134499366Y-48273140D01*
X133535259Y-49552554D01*
X133535258Y-49552554D01*
X132655162Y-48889354D01*
X133619269Y-47609940D01*
X133619270Y-47609940D01*
X134237856Y-48076078D01*
X134237856Y-48076078D01*
G37*
G36*
X149205678Y-46169090D02*
G01*
X148104677Y-48076079D01*
X146803906Y-47325078D01*
X147904907Y-45418089D01*
X149205678Y-46169090D01*
X149205678Y-46169090D01*
G37*
G36*
X131707197Y-46169090D02*
G01*
X131943732Y-46347332D01*
X130979625Y-47626746D01*
X130979624Y-47626746D01*
X130099528Y-46963546D01*
X131063635Y-45684132D01*
X131063636Y-45684132D01*
X131707197Y-46169090D01*
X131707197Y-46169090D01*
G37*
G36*
X170544229Y-41288448D02*
G01*
X169338571Y-43010306D01*
X166142239Y-40772210D01*
X167347897Y-39050352D01*
X170544229Y-41288448D01*
X170544229Y-41288448D01*
G37*
G36*
X159629562Y-41143849D02*
G01*
X159664313Y-41151156D01*
X159696970Y-41165102D01*
X159726275Y-41185149D01*
X159751114Y-41210536D01*
X159770516Y-41240271D01*
X159783748Y-41273228D01*
X159791435Y-41314202D01*
X159843833Y-41913116D01*
X159843378Y-41954804D01*
X159836071Y-41989555D01*
X159822125Y-42022212D01*
X159802078Y-42051517D01*
X159776691Y-42076356D01*
X159746956Y-42095758D01*
X159713999Y-42108990D01*
X159673025Y-42116677D01*
X159389057Y-42141521D01*
X159055533Y-42170701D01*
X159055529Y-42170701D01*
X158999396Y-42175612D01*
X158957708Y-42175157D01*
X158922957Y-42167850D01*
X158890300Y-42153904D01*
X158860995Y-42133857D01*
X158836156Y-42108470D01*
X158816754Y-42078735D01*
X158803522Y-42045778D01*
X158795835Y-42004804D01*
X158743437Y-41405890D01*
X158743892Y-41364202D01*
X158751199Y-41329451D01*
X158765145Y-41296794D01*
X158785192Y-41267489D01*
X158810579Y-41242650D01*
X158840314Y-41223248D01*
X158873271Y-41210016D01*
X158914245Y-41202329D01*
X159212157Y-41176265D01*
X159531737Y-41148305D01*
X159531741Y-41148305D01*
X159587874Y-41143394D01*
X159629562Y-41143849D01*
X159629562Y-41143849D01*
G37*
G36*
X159492292Y-39574843D02*
G01*
X159527043Y-39582150D01*
X159559700Y-39596096D01*
X159589005Y-39616143D01*
X159613844Y-39641530D01*
X159633246Y-39671265D01*
X159646478Y-39704222D01*
X159654165Y-39745196D01*
X159706563Y-40344110D01*
X159706108Y-40385798D01*
X159698801Y-40420549D01*
X159684855Y-40453206D01*
X159664808Y-40482511D01*
X159639421Y-40507350D01*
X159609686Y-40526752D01*
X159576729Y-40539984D01*
X159535755Y-40547671D01*
X159251787Y-40572515D01*
X158918263Y-40601695D01*
X158918259Y-40601695D01*
X158862126Y-40606606D01*
X158820438Y-40606151D01*
X158785687Y-40598844D01*
X158753030Y-40584898D01*
X158723725Y-40564851D01*
X158698886Y-40539464D01*
X158679484Y-40509729D01*
X158666252Y-40476772D01*
X158658565Y-40435798D01*
X158606167Y-39836884D01*
X158606622Y-39795196D01*
X158613929Y-39760445D01*
X158627875Y-39727788D01*
X158647922Y-39698483D01*
X158673309Y-39673644D01*
X158703044Y-39654242D01*
X158736001Y-39641010D01*
X158776975Y-39633323D01*
X159074887Y-39607259D01*
X159394467Y-39579299D01*
X159394471Y-39579299D01*
X159450604Y-39574388D01*
X159492292Y-39574843D01*
X159492292Y-39574843D01*
G37*
G36*
X143416638Y-38362250D02*
G01*
X143449873Y-38374758D01*
X143480028Y-38393510D01*
X143505947Y-38417786D01*
X143530224Y-38451664D01*
X143558400Y-38500465D01*
X143558405Y-38500473D01*
X143792024Y-38905114D01*
X143830834Y-38972335D01*
X143848035Y-39010299D01*
X143856100Y-39044886D01*
X143857261Y-39080372D01*
X143851476Y-39115415D01*
X143838969Y-39148646D01*
X143820218Y-39178800D01*
X143795940Y-39204721D01*
X143762062Y-39228998D01*
X143713261Y-39257173D01*
X143713253Y-39257179D01*
X143225247Y-39538929D01*
X143225244Y-39538930D01*
X143176439Y-39567108D01*
X143138475Y-39584309D01*
X143103888Y-39592374D01*
X143068402Y-39593535D01*
X143033362Y-39587750D01*
X143000127Y-39575242D01*
X142969972Y-39556490D01*
X142944053Y-39532214D01*
X142919776Y-39498336D01*
X142891600Y-39449535D01*
X142891595Y-39449527D01*
X142647345Y-39026473D01*
X142647344Y-39026470D01*
X142619166Y-38977665D01*
X142601965Y-38939701D01*
X142593900Y-38905114D01*
X142592739Y-38869628D01*
X142598524Y-38834585D01*
X142611031Y-38801354D01*
X142629782Y-38771200D01*
X142654060Y-38745279D01*
X142687938Y-38721002D01*
X142736739Y-38692827D01*
X142736747Y-38692821D01*
X143224753Y-38411071D01*
X143224756Y-38411070D01*
X143273561Y-38382892D01*
X143311525Y-38365691D01*
X143346112Y-38357626D01*
X143381598Y-38356465D01*
X143416638Y-38362250D01*
X143416638Y-38362250D01*
G37*
G36*
X175099785Y-36787403D02*
G01*
X173894127Y-38509261D01*
X172581845Y-37590391D01*
X173787503Y-35868533D01*
X175099785Y-36787403D01*
X175099785Y-36787403D01*
G37*
G36*
X142629138Y-36998260D02*
G01*
X142662373Y-37010768D01*
X142692528Y-37029520D01*
X142718447Y-37053796D01*
X142742724Y-37087674D01*
X142770900Y-37136475D01*
X142770905Y-37136483D01*
X143004524Y-37541124D01*
X143043334Y-37608345D01*
X143060535Y-37646309D01*
X143068600Y-37680896D01*
X143069761Y-37716382D01*
X143063976Y-37751425D01*
X143051469Y-37784656D01*
X143032718Y-37814810D01*
X143008440Y-37840731D01*
X142974562Y-37865008D01*
X142925761Y-37893183D01*
X142925753Y-37893189D01*
X142437747Y-38174939D01*
X142437744Y-38174940D01*
X142388939Y-38203118D01*
X142350975Y-38220319D01*
X142316388Y-38228384D01*
X142280902Y-38229545D01*
X142245862Y-38223760D01*
X142212627Y-38211252D01*
X142182472Y-38192500D01*
X142156553Y-38168224D01*
X142132276Y-38134346D01*
X142104100Y-38085545D01*
X142104095Y-38085537D01*
X141859845Y-37662483D01*
X141859844Y-37662480D01*
X141831666Y-37613675D01*
X141814465Y-37575711D01*
X141806400Y-37541124D01*
X141805239Y-37505638D01*
X141811024Y-37470595D01*
X141823531Y-37437364D01*
X141842282Y-37407210D01*
X141866560Y-37381289D01*
X141900438Y-37357012D01*
X141949239Y-37328837D01*
X141949247Y-37328831D01*
X142437253Y-37047081D01*
X142437256Y-37047080D01*
X142486061Y-37018902D01*
X142524025Y-37001701D01*
X142558612Y-36993636D01*
X142594098Y-36992475D01*
X142629138Y-36998260D01*
X142629138Y-36998260D01*
G37*
G36*
X173215736Y-35468177D02*
G01*
X172010078Y-37190035D01*
X170697796Y-36271165D01*
X171903454Y-34549307D01*
X173215736Y-35468177D01*
X173215736Y-35468177D01*
G37*
G36*
X165977198Y-35117009D02*
G01*
X166125702Y-35178521D01*
X166125703Y-35178522D01*
X166259348Y-35267820D01*
X166373012Y-35381484D01*
X166430938Y-35468177D01*
X166462311Y-35515130D01*
X166523823Y-35663634D01*
X166555181Y-35821281D01*
X166555181Y-35982021D01*
X166523823Y-36139668D01*
X166493066Y-36213921D01*
X166462311Y-36288172D01*
X166462310Y-36288173D01*
X166373012Y-36421818D01*
X166259348Y-36535482D01*
X166159114Y-36602455D01*
X166125702Y-36624781D01*
X165977198Y-36686293D01*
X165819551Y-36717651D01*
X165658811Y-36717651D01*
X165501164Y-36686293D01*
X165352660Y-36624781D01*
X165319248Y-36602455D01*
X165219014Y-36535482D01*
X165105350Y-36421818D01*
X165016052Y-36288173D01*
X165016051Y-36288172D01*
X164985296Y-36213921D01*
X164954539Y-36139668D01*
X164923181Y-35982021D01*
X164923181Y-35821281D01*
X164954539Y-35663634D01*
X165016051Y-35515130D01*
X165047424Y-35468177D01*
X165105350Y-35381484D01*
X165219014Y-35267820D01*
X165352659Y-35178522D01*
X165352660Y-35178521D01*
X165426911Y-35147766D01*
X165501164Y-35117009D01*
X165658811Y-35085651D01*
X165819551Y-35085651D01*
X165977198Y-35117009D01*
X165977198Y-35117009D01*
G37*
G36*
X171331686Y-34148951D02*
G01*
X170126028Y-35870809D01*
X168813746Y-34951939D01*
X170019404Y-33230081D01*
X171331686Y-34148951D01*
X171331686Y-34148951D01*
G37*
G36*
X155981000Y-34931000D02*
G01*
X154379000Y-34931000D01*
X154379000Y-33829000D01*
X155981000Y-33829000D01*
X155981000Y-34931000D01*
X155981000Y-34931000D01*
G37*
G36*
X160881000Y-34931000D02*
G01*
X159279000Y-34931000D01*
X159279000Y-33829000D01*
X160881000Y-33829000D01*
X160881000Y-34931000D01*
X160881000Y-34931000D01*
G37*
G36*
X166788435Y-33297739D02*
G01*
X167380519Y-33402140D01*
X167420655Y-33413366D01*
X167452333Y-33429419D01*
X167480270Y-33451345D01*
X167503388Y-33478292D01*
X167520808Y-33509239D01*
X167531856Y-33542992D01*
X167536106Y-33578241D01*
X167532926Y-33619805D01*
X167523140Y-33675303D01*
X167523140Y-33675306D01*
X167446786Y-34108332D01*
X167415502Y-34285750D01*
X167404276Y-34325888D01*
X167388225Y-34357561D01*
X167366296Y-34385502D01*
X167339350Y-34408619D01*
X167308399Y-34426041D01*
X167274654Y-34437087D01*
X167239401Y-34441337D01*
X167197837Y-34438157D01*
X166605753Y-34333756D01*
X166565617Y-34322530D01*
X166533939Y-34306477D01*
X166506002Y-34284551D01*
X166482884Y-34257604D01*
X166465464Y-34226657D01*
X166454416Y-34192904D01*
X166450166Y-34157655D01*
X166453346Y-34116091D01*
X166463191Y-34060260D01*
X166560983Y-33505651D01*
X166570770Y-33450146D01*
X166581996Y-33410008D01*
X166598047Y-33378335D01*
X166619976Y-33350394D01*
X166646922Y-33327277D01*
X166677873Y-33309855D01*
X166711618Y-33298809D01*
X166746871Y-33294559D01*
X166788435Y-33297739D01*
X166788435Y-33297739D01*
G37*
G36*
X165237363Y-33024243D02*
G01*
X165829447Y-33128644D01*
X165869583Y-33139870D01*
X165901261Y-33155923D01*
X165929198Y-33177849D01*
X165952316Y-33204796D01*
X165969736Y-33235743D01*
X165980784Y-33269496D01*
X165985034Y-33304745D01*
X165981854Y-33346309D01*
X165972068Y-33401807D01*
X165972068Y-33401810D01*
X165953758Y-33505651D01*
X165864430Y-34012254D01*
X165853204Y-34052392D01*
X165837153Y-34084065D01*
X165815224Y-34112006D01*
X165788278Y-34135123D01*
X165757327Y-34152545D01*
X165723582Y-34163591D01*
X165688329Y-34167841D01*
X165646765Y-34164661D01*
X165054681Y-34060260D01*
X165014545Y-34049034D01*
X164982867Y-34032981D01*
X164954930Y-34011055D01*
X164931812Y-33984108D01*
X164914392Y-33953161D01*
X164903344Y-33919408D01*
X164899094Y-33884159D01*
X164902274Y-33842595D01*
X164931772Y-33675306D01*
X165009911Y-33232155D01*
X165019698Y-33176650D01*
X165030924Y-33136512D01*
X165046975Y-33104839D01*
X165068904Y-33076898D01*
X165095850Y-33053781D01*
X165126801Y-33036359D01*
X165160546Y-33025313D01*
X165195799Y-33021063D01*
X165237363Y-33024243D01*
X165237363Y-33024243D01*
G37*
G36*
X179280020Y-25390953D02*
G01*
X178688251Y-25887506D01*
X178671114Y-25905021D01*
X178657724Y-25925543D01*
X178648594Y-25948283D01*
X178644076Y-25972367D01*
X178644343Y-25996869D01*
X178649385Y-26020849D01*
X178659009Y-26043384D01*
X178672844Y-26063609D01*
X180135186Y-27806361D01*
X179175316Y-28611788D01*
X178927134Y-28820037D01*
X178852061Y-28883030D01*
X178852062Y-28883031D01*
X178576362Y-29114370D01*
X178449887Y-29220495D01*
X178434435Y-29233461D01*
X178429205Y-29237849D01*
X178354133Y-29300843D01*
X178335368Y-29316588D01*
X178335369Y-29316589D01*
X178333462Y-29318188D01*
X177931276Y-29655661D01*
X177856203Y-29718654D01*
X177856204Y-29718655D01*
X177433347Y-30073473D01*
X177358274Y-30136466D01*
X177358275Y-30136467D01*
X176935418Y-30491285D01*
X176860345Y-30554278D01*
X176860346Y-30554279D01*
X176437489Y-30909097D01*
X176341734Y-30989445D01*
X175154365Y-31985766D01*
X173692023Y-30243015D01*
X173674508Y-30225878D01*
X173653986Y-30212488D01*
X173631246Y-30203358D01*
X173607162Y-30198840D01*
X173582660Y-30199107D01*
X173558680Y-30204149D01*
X173536145Y-30213773D01*
X173515920Y-30227608D01*
X172924150Y-30724162D01*
X171637290Y-29190541D01*
X171683177Y-29152037D01*
X173586874Y-27554645D01*
X173682628Y-27474298D01*
X173682628Y-27474297D01*
X174660867Y-26653458D01*
X175947728Y-28187079D01*
X175376508Y-28666389D01*
X174917397Y-29051629D01*
X174917394Y-29051632D01*
X174915479Y-29053239D01*
X174898342Y-29070755D01*
X174884952Y-29091277D01*
X174875823Y-29114017D01*
X174871306Y-29138101D01*
X174871574Y-29162604D01*
X174876618Y-29186583D01*
X174886242Y-29209118D01*
X174900075Y-29229339D01*
X174946999Y-29285260D01*
X175135693Y-29510137D01*
X175329458Y-29741057D01*
X175346973Y-29758194D01*
X175367495Y-29771585D01*
X175390235Y-29780714D01*
X175414319Y-29785232D01*
X175438821Y-29784965D01*
X175462801Y-29779923D01*
X175485336Y-29770299D01*
X175505561Y-29756464D01*
X175916072Y-29412005D01*
X175982807Y-29356007D01*
X176376633Y-29025549D01*
X176384982Y-29018543D01*
X176480736Y-28938195D01*
X176869734Y-28611788D01*
X176918574Y-28570806D01*
X176978665Y-28520383D01*
X177375194Y-28187657D01*
X177394848Y-28171165D01*
X177476594Y-28102572D01*
X177476594Y-28102571D01*
X177878768Y-27765108D01*
X177895905Y-27747593D01*
X177909295Y-27727071D01*
X177918425Y-27704331D01*
X177922943Y-27680247D01*
X177922676Y-27655745D01*
X177917634Y-27631765D01*
X177908010Y-27609230D01*
X177894175Y-27589005D01*
X177464792Y-27077285D01*
X177447277Y-27060148D01*
X177426755Y-27046758D01*
X177404015Y-27037628D01*
X177379932Y-27033110D01*
X177355429Y-27033377D01*
X177331449Y-27038419D01*
X177308914Y-27048043D01*
X177288681Y-27061885D01*
X177286773Y-27063486D01*
X177234682Y-27107196D01*
X176256443Y-27928035D01*
X174969582Y-26394414D01*
X175947821Y-25573575D01*
X176043576Y-25493227D01*
X177993160Y-23857332D01*
X179280020Y-25390953D01*
X179280020Y-25390953D01*
G37*
G36*
X160881000Y-31731000D02*
G01*
X159279000Y-31731000D01*
X159279000Y-30629000D01*
X160881000Y-30629000D01*
X160881000Y-31731000D01*
X160881000Y-31731000D01*
G37*
G36*
X155981000Y-31731000D02*
G01*
X154379000Y-31731000D01*
X154379000Y-30629000D01*
X155981000Y-30629000D01*
X155981000Y-31731000D01*
X155981000Y-31731000D01*
G37*
G36*
X183205978Y-28367609D02*
G01*
X183239731Y-28378657D01*
X183270678Y-28396077D01*
X183297625Y-28419195D01*
X183319551Y-28447132D01*
X183335604Y-28478810D01*
X183346830Y-28518946D01*
X183356617Y-28574451D01*
X183454410Y-29129060D01*
X183464254Y-29184891D01*
X183467434Y-29226455D01*
X183463184Y-29261708D01*
X183452138Y-29295453D01*
X183434716Y-29326404D01*
X183411599Y-29353350D01*
X183383658Y-29375279D01*
X183351985Y-29391330D01*
X183311847Y-29402556D01*
X182719763Y-29506957D01*
X182678199Y-29510137D01*
X182642950Y-29505887D01*
X182609197Y-29494839D01*
X182578250Y-29477419D01*
X182551303Y-29454301D01*
X182529377Y-29426364D01*
X182513324Y-29394686D01*
X182502098Y-29354550D01*
X182478610Y-29221343D01*
X182394460Y-28744106D01*
X182394460Y-28744103D01*
X182384674Y-28688605D01*
X182381494Y-28647041D01*
X182385744Y-28611788D01*
X182396790Y-28578043D01*
X182414212Y-28547092D01*
X182437329Y-28520146D01*
X182465270Y-28498217D01*
X182496943Y-28482166D01*
X182537081Y-28470940D01*
X183129165Y-28366539D01*
X183170729Y-28363359D01*
X183205978Y-28367609D01*
X183205978Y-28367609D01*
G37*
G36*
X184757050Y-28094113D02*
G01*
X184790803Y-28105161D01*
X184821750Y-28122581D01*
X184848697Y-28145699D01*
X184870623Y-28173636D01*
X184886676Y-28205314D01*
X184897902Y-28245450D01*
X184907689Y-28300955D01*
X184985829Y-28744106D01*
X185015326Y-28911395D01*
X185018506Y-28952959D01*
X185014256Y-28988212D01*
X185003210Y-29021957D01*
X184985788Y-29052908D01*
X184962671Y-29079854D01*
X184934730Y-29101783D01*
X184903057Y-29117834D01*
X184862919Y-29129060D01*
X184270835Y-29233461D01*
X184229271Y-29236641D01*
X184194022Y-29232391D01*
X184160269Y-29221343D01*
X184129322Y-29203923D01*
X184102375Y-29180805D01*
X184080449Y-29152868D01*
X184064396Y-29121190D01*
X184053170Y-29081054D01*
X183965416Y-28583377D01*
X183945532Y-28470610D01*
X183945532Y-28470607D01*
X183935746Y-28415109D01*
X183932566Y-28373545D01*
X183936816Y-28338292D01*
X183947862Y-28304547D01*
X183965284Y-28273596D01*
X183988401Y-28246650D01*
X184016342Y-28224721D01*
X184048015Y-28208670D01*
X184088153Y-28197444D01*
X184680237Y-28093043D01*
X184721801Y-28089863D01*
X184757050Y-28094113D01*
X184757050Y-28094113D01*
G37*
G36*
X183564736Y-23420229D02*
G01*
X184134219Y-24406602D01*
X184134219Y-24406603D01*
X183439667Y-24807603D01*
X182936114Y-23935423D01*
X182638667Y-23420230D01*
X182638667Y-23420229D01*
X183333219Y-23019229D01*
X183564736Y-23420229D01*
X183564736Y-23420229D01*
G37*
G36*
X182326187Y-23775000D02*
G01*
X182551687Y-24165577D01*
X182551687Y-24165578D01*
X181597327Y-24716578D01*
X181216868Y-24057603D01*
X181146327Y-23935423D01*
X181146327Y-23935422D01*
X182100687Y-23384422D01*
X182326187Y-23775000D01*
X182326187Y-23775000D01*
G37*
G36*
X184863774Y-22670229D02*
G01*
X185433257Y-23656602D01*
X185433257Y-23656603D01*
X184738705Y-24057603D01*
X184338205Y-23363916D01*
X183937705Y-22670230D01*
X183937705Y-22670229D01*
X184632257Y-22269229D01*
X184863774Y-22670229D01*
X184863774Y-22670229D01*
G37*
G36*
X181125208Y-21694843D02*
G01*
X181446687Y-22251661D01*
X181446687Y-22251662D01*
X180492327Y-22802662D01*
X180261793Y-22403365D01*
X180041327Y-22021507D01*
X180041327Y-22021506D01*
X180995687Y-21470506D01*
X181125208Y-21694843D01*
X181125208Y-21694843D01*
G37*
G36*
X187402007Y-21066578D02*
G01*
X188031333Y-22156602D01*
X188031333Y-22156603D01*
X187336781Y-22557603D01*
X186838667Y-21694843D01*
X186535781Y-21170230D01*
X186535781Y-21170229D01*
X187230333Y-20769229D01*
X187402007Y-21066578D01*
X187402007Y-21066578D01*
G37*
G36*
X183253702Y-21522838D02*
G01*
X183302098Y-21532465D01*
X183339864Y-21548108D01*
X183393273Y-21570231D01*
X183393274Y-21570232D01*
X183475331Y-21625060D01*
X183545114Y-21694843D01*
X183545115Y-21694845D01*
X183599943Y-21776901D01*
X183637709Y-21868077D01*
X183656962Y-21964867D01*
X183656962Y-22063557D01*
X183637709Y-22160347D01*
X183599943Y-22251523D01*
X183572714Y-22292274D01*
X183545114Y-22333581D01*
X183475331Y-22403364D01*
X183434024Y-22430964D01*
X183393273Y-22458193D01*
X183339864Y-22480316D01*
X183302098Y-22495959D01*
X183253702Y-22505585D01*
X183205307Y-22515212D01*
X183106617Y-22515212D01*
X183058222Y-22505586D01*
X183009826Y-22495959D01*
X182972060Y-22480316D01*
X182918651Y-22458193D01*
X182877900Y-22430964D01*
X182836593Y-22403364D01*
X182766810Y-22333581D01*
X182739210Y-22292274D01*
X182711981Y-22251523D01*
X182674215Y-22160347D01*
X182654962Y-22063557D01*
X182654962Y-21964867D01*
X182674215Y-21868077D01*
X182711981Y-21776901D01*
X182766809Y-21694845D01*
X182766810Y-21694843D01*
X182836593Y-21625060D01*
X182918650Y-21570232D01*
X182918651Y-21570231D01*
X182972060Y-21548108D01*
X183009826Y-21532465D01*
X183058222Y-21522838D01*
X183106617Y-21513212D01*
X183205307Y-21513212D01*
X183253702Y-21522838D01*
X183253702Y-21522838D01*
G37*
G36*
X188583632Y-20013212D02*
G01*
X188873673Y-20515577D01*
X188873673Y-20515578D01*
X187919313Y-21066578D01*
X187628894Y-20563557D01*
X187468313Y-20285423D01*
X187468313Y-20285422D01*
X188422673Y-19734422D01*
X188583632Y-20013212D01*
X188583632Y-20013212D01*
G37*
G36*
X185851778Y-20022838D02*
G01*
X185900174Y-20032465D01*
X185937940Y-20048108D01*
X185991349Y-20070231D01*
X185991350Y-20070232D01*
X186073407Y-20125060D01*
X186143190Y-20194843D01*
X186143191Y-20194845D01*
X186198019Y-20276901D01*
X186235785Y-20368077D01*
X186255038Y-20464867D01*
X186255038Y-20563557D01*
X186235785Y-20660347D01*
X186198019Y-20751523D01*
X186170790Y-20792274D01*
X186143190Y-20833581D01*
X186073407Y-20903364D01*
X186032100Y-20930964D01*
X185991349Y-20958193D01*
X185937940Y-20980316D01*
X185900174Y-20995959D01*
X185851778Y-21005586D01*
X185803383Y-21015212D01*
X185704693Y-21015212D01*
X185656298Y-21005586D01*
X185607902Y-20995959D01*
X185570136Y-20980316D01*
X185516727Y-20958193D01*
X185475976Y-20930964D01*
X185434669Y-20903364D01*
X185364886Y-20833581D01*
X185337286Y-20792274D01*
X185310057Y-20751523D01*
X185272291Y-20660347D01*
X185253038Y-20563557D01*
X185253038Y-20464867D01*
X185272291Y-20368077D01*
X185310057Y-20276901D01*
X185364885Y-20194845D01*
X185364886Y-20194843D01*
X185434669Y-20125060D01*
X185516726Y-20070232D01*
X185516727Y-20070231D01*
X185570136Y-20048108D01*
X185607902Y-20032465D01*
X185656298Y-20022838D01*
X185704693Y-20013212D01*
X185803383Y-20013212D01*
X185851778Y-20022838D01*
X185851778Y-20022838D01*
G37*
G36*
X187543173Y-18211084D02*
G01*
X187768673Y-18601661D01*
X187768673Y-18601662D01*
X186814313Y-19152662D01*
X186496193Y-18601661D01*
X186363313Y-18371507D01*
X186363313Y-18371506D01*
X187317673Y-17820506D01*
X187543173Y-18211084D01*
X187543173Y-18211084D01*
G37*
M02*
