G04 #@! TF.GenerationSoftware,KiCad,Pcbnew,5.1.3-ffb9f22~84~ubuntu18.04.1*
G04 #@! TF.CreationDate,2019-10-26T21:40:40-04:00*
G04 #@! TF.ProjectId,swadge-banana,73776164-6765-42d6-9261-6e616e612e6b,rev?*
G04 #@! TF.SameCoordinates,Original*
G04 #@! TF.FileFunction,Profile,NP*
%FSLAX46Y46*%
G04 Gerber Fmt 4.6, Leading zero omitted, Abs format (unit mm)*
G04 Created by KiCad (PCBNEW 5.1.3-ffb9f22~84~ubuntu18.04.1) date 2019-10-26 21:40:40*
%MOMM*%
%LPD*%
G04 APERTURE LIST*
%ADD10C,0.132291*%
G04 APERTURE END LIST*
D10*
X190827837Y-18988906D02*
X190616677Y-18788795D01*
X189988306Y-18268913D02*
X189573984Y-17983371D01*
X187959216Y-17225576D02*
X187567487Y-17108223D01*
X188355996Y-17366968D02*
X187959216Y-17225576D01*
X189573984Y-17983371D02*
X189163647Y-17741066D01*
X192089842Y-20513450D02*
X191889819Y-20218056D01*
X190196877Y-18429398D02*
X189988306Y-18268913D01*
X190406346Y-18602492D02*
X190196877Y-18429398D01*
X191680108Y-19939443D02*
X191465963Y-19678096D01*
X191252514Y-19432957D02*
X191039794Y-19203427D01*
X192460745Y-21147717D02*
X192280157Y-20823909D01*
X191680108Y-19939443D02*
X191680108Y-19939443D01*
X189163647Y-17741066D02*
X188757562Y-17537198D01*
X191039794Y-19203427D02*
X190827837Y-18988906D01*
X192280157Y-20823909D02*
X192089842Y-20513450D01*
X191465963Y-19678096D02*
X191252514Y-19432957D01*
X191889819Y-20218056D02*
X191680108Y-19939443D01*
X185338151Y-16640133D02*
X185338151Y-16640133D01*
X186800254Y-16926433D02*
X185338151Y-16640133D01*
X187567487Y-17108223D02*
X187181078Y-17010108D01*
X188757562Y-17537198D02*
X188355996Y-17366968D01*
X190616677Y-18788795D02*
X190406346Y-18602492D01*
X187181078Y-17010108D02*
X186800254Y-16926433D01*
X163710130Y-61522047D02*
X168381529Y-51177310D01*
X147164043Y-129658922D02*
X147105661Y-126826513D01*
X148213558Y-143507767D02*
X147658390Y-138049917D01*
X152484784Y-167734708D02*
X151538875Y-163424611D01*
X147278318Y-132476801D02*
X147164043Y-129658922D01*
X150546647Y-101166608D02*
X152314651Y-94241600D01*
X149083924Y-107986917D02*
X150546647Y-101166608D01*
X147105661Y-126826513D02*
X147305609Y-120916183D01*
X147984304Y-114603214D02*
X149083924Y-107986917D01*
X147305609Y-120916183D02*
X147984304Y-114603214D01*
X148911507Y-148812256D02*
X148213558Y-143507767D01*
X168381529Y-51177310D02*
X170510200Y-46990000D01*
X147658390Y-138049917D02*
X147278318Y-132476801D01*
X158872134Y-73831515D02*
X163710130Y-61522047D01*
X156535216Y-80474740D02*
X158872134Y-73831515D01*
X152314651Y-94241600D02*
X154330115Y-87311206D01*
X150606482Y-158808773D02*
X149719920Y-153925290D01*
X154330115Y-87311206D02*
X156535216Y-80474740D01*
X149719920Y-153925290D02*
X148911507Y-148812256D01*
X151538875Y-163424611D02*
X150606482Y-158808773D01*
X147105661Y-126826513D02*
X147105661Y-126826513D01*
X191209226Y-29183453D02*
X191585940Y-29048234D01*
X174064376Y-41082065D02*
X175374238Y-39560068D01*
X191959363Y-28925191D02*
X192321307Y-28819360D01*
X190837406Y-29325815D02*
X191209226Y-29183453D01*
X189021524Y-30117649D02*
X189562822Y-29865986D01*
X192321307Y-28819360D02*
X192663585Y-28735776D01*
X190141202Y-29611825D02*
X190837406Y-29325815D01*
X175374238Y-39560068D02*
X176516571Y-38579152D01*
X187733140Y-30846468D02*
X189021524Y-30117649D01*
X184448559Y-32848035D02*
X186285945Y-31705492D01*
X189021524Y-30117649D02*
X189021524Y-30117649D01*
X178862379Y-36717291D02*
X180038639Y-35845014D01*
X172423756Y-43591814D02*
X174064376Y-41082065D01*
X189562822Y-29865986D02*
X190141202Y-29611825D01*
X177683820Y-37630115D02*
X178862379Y-36717291D01*
X186285945Y-31705492D02*
X187733140Y-30846468D01*
X182329838Y-34239432D02*
X184448559Y-32848035D01*
X180038639Y-35845014D02*
X182329838Y-34239432D01*
X175374238Y-39560068D02*
X175374238Y-39560068D01*
X192978011Y-28679472D02*
X193122221Y-28663124D01*
X192663585Y-28735776D02*
X192978011Y-28679472D01*
X176516571Y-38579152D02*
X177683820Y-37630115D01*
X191585940Y-29048234D02*
X191959363Y-28925191D01*
X193679336Y-28632046D02*
X193758352Y-28563330D01*
X193122221Y-28663124D02*
X193256397Y-28655485D01*
X193590077Y-28667791D02*
X193679336Y-28632046D01*
X193490556Y-28668848D02*
X193490556Y-28668848D01*
X193934135Y-28176506D02*
X193972371Y-27993059D01*
X193490556Y-28668848D02*
X193590077Y-28667791D01*
X193827145Y-28463357D02*
X193885732Y-28333844D01*
X193727452Y-24742579D02*
X193552994Y-24012885D01*
X194026271Y-27303217D02*
X194011724Y-26744228D01*
X192631587Y-21483159D02*
X192460745Y-21147717D01*
X192792664Y-21828518D02*
X192631587Y-21483159D01*
X194000459Y-27785218D02*
X194026271Y-27303217D01*
X193256397Y-28655485D02*
X193379516Y-28657183D01*
X193758352Y-28563330D02*
X193827145Y-28463357D01*
X193552994Y-24012885D02*
X193338942Y-23274828D01*
X194011724Y-26744228D02*
X193956969Y-26121975D01*
X193972371Y-27993059D02*
X194000459Y-27785218D01*
X193085448Y-22542130D02*
X192792664Y-21828518D01*
X193338942Y-23274828D02*
X193085448Y-22542130D01*
X193379516Y-28657183D02*
X193490556Y-28668848D01*
X193862161Y-25450184D02*
X193727452Y-24742579D01*
X193885732Y-28333844D02*
X193934135Y-28176506D01*
X193956969Y-26121975D02*
X193862161Y-25450184D01*
X155741719Y-181107313D02*
X154280118Y-175261072D01*
X152484784Y-167734724D02*
X152484784Y-167734724D01*
X153409464Y-171693407D02*
X152484784Y-167734724D01*
X155386689Y-189507124D02*
X155741689Y-189152113D01*
X155386689Y-189507124D02*
X155386689Y-189507124D01*
X154280118Y-175261072D02*
X153409464Y-171693407D01*
X155741689Y-189152113D02*
X155741689Y-189152113D01*
X155741689Y-189152113D02*
X155741719Y-181107313D01*
X152484784Y-167734724D02*
X152484784Y-167734708D01*
X155741719Y-181107313D02*
X155741719Y-181107313D01*
X148366628Y-181478341D02*
X148417269Y-181556254D01*
X148536295Y-181942111D02*
X148541688Y-182057127D01*
X148541688Y-182057127D02*
X148541688Y-182057127D01*
X148520461Y-181834517D02*
X148536295Y-181942111D01*
X148494881Y-181734342D02*
X148520461Y-181834517D01*
X146663119Y-181834517D02*
X146688791Y-181734342D01*
X147503174Y-181111034D02*
X147592125Y-181107324D01*
X146641687Y-189152113D02*
X146641687Y-189152113D01*
X146286687Y-189507124D02*
X146641687Y-189152113D01*
X148460252Y-181641588D02*
X148494881Y-181734342D01*
X135441697Y-189152113D02*
X135796691Y-189507124D01*
X148101403Y-181240890D02*
X148175717Y-181289122D01*
X147940936Y-181166687D02*
X148022911Y-181200078D01*
X147592125Y-181107324D02*
X147681073Y-181111034D01*
X146874948Y-181407848D02*
X146938875Y-181344775D01*
X146641687Y-189152113D02*
X146641687Y-182057127D01*
X147008366Y-181289122D02*
X147082724Y-181240890D01*
X146641687Y-182057127D02*
X146647186Y-181942111D01*
X146641687Y-182057127D02*
X146641687Y-182057127D01*
X146286687Y-189507124D02*
X146286687Y-189507124D01*
X148417269Y-181556254D02*
X148460252Y-181641588D01*
X147161254Y-181200078D02*
X147243260Y-181166687D01*
X148245156Y-181344775D02*
X148309025Y-181407848D01*
X148309025Y-181407848D02*
X148366628Y-181478341D01*
X147243260Y-181166687D02*
X147328046Y-181140716D01*
X146647186Y-181942111D02*
X146663119Y-181834517D01*
X147681073Y-181111034D02*
X147769321Y-181122165D01*
X147082724Y-181240890D02*
X147161254Y-181200078D01*
X135796691Y-189507124D02*
X135796691Y-189507124D01*
X146723506Y-181641588D02*
X146766567Y-181556254D01*
X148896692Y-189507124D02*
X148896692Y-189507124D01*
X146766567Y-181556254D02*
X146817280Y-181478341D01*
X148175717Y-181289122D02*
X148245156Y-181344775D01*
X146817280Y-181478341D02*
X146874948Y-181407848D01*
X147328046Y-181140716D02*
X147414916Y-181122165D01*
X146688791Y-181734342D02*
X146723506Y-181641588D01*
X148022911Y-181200078D02*
X148101403Y-181240890D01*
X147769321Y-181122165D02*
X147856174Y-181140716D01*
X135796691Y-189507124D02*
X146286687Y-189507124D01*
X146938875Y-181344775D02*
X147008366Y-181289122D01*
X147414916Y-181122165D02*
X147503174Y-181111034D01*
X148896692Y-189507124D02*
X155386689Y-189507124D01*
X148541688Y-189152113D02*
X148896692Y-189507124D01*
X148541688Y-189152113D02*
X148541688Y-189152113D01*
X147856174Y-181140716D02*
X147940936Y-181166687D01*
X148541688Y-182057127D02*
X148541688Y-189152113D01*
X135441697Y-181107343D02*
X135441697Y-189152113D01*
X135441697Y-181107343D02*
X135441697Y-181107343D01*
X131764327Y-178944139D02*
X133562427Y-180081499D01*
X128411047Y-176372622D02*
X130047250Y-177704700D01*
X109279307Y-107437215D02*
X109041627Y-116826171D01*
X116194464Y-70149157D02*
X114761742Y-74587881D01*
X117802835Y-65830757D02*
X116194464Y-70149157D01*
X131389340Y-43507735D02*
X128634203Y-46706478D01*
X115030759Y-156597227D02*
X115708051Y-158304813D01*
X123726062Y-53786893D02*
X121564211Y-57630687D01*
X148352594Y-31686195D02*
X144520191Y-33431085D01*
X121564211Y-57630687D02*
X119591276Y-61651621D01*
X118215078Y-163513524D02*
X119209632Y-165246951D01*
X123986199Y-171914927D02*
X125380669Y-173468297D01*
X111341130Y-142729579D02*
X112993870Y-150104537D01*
X110078048Y-97923528D02*
X109279307Y-107437215D01*
X128634203Y-46706478D02*
X126081251Y-50139177D01*
X150568108Y-30886100D02*
X149479748Y-31257939D01*
X121437948Y-168652962D02*
X122672008Y-170306669D01*
X122672008Y-170306669D02*
X123986199Y-171914927D01*
X140912087Y-35504622D02*
X137523859Y-37887868D01*
X116464436Y-160033017D02*
X117300062Y-161772400D01*
X115708051Y-158304813D02*
X116464436Y-160033017D01*
X148352594Y-31686195D02*
X148352594Y-31686195D01*
X109329626Y-125938889D02*
X110107921Y-134623861D01*
X133562427Y-180081499D02*
X135441697Y-181107343D01*
X112993870Y-150104537D02*
X115030759Y-156597227D01*
X114761742Y-74587881D02*
X113500244Y-79127991D01*
X126081251Y-50139177D02*
X123726062Y-53786893D01*
X125380669Y-173468297D02*
X126855569Y-174957341D01*
X115030759Y-156597227D02*
X115030759Y-156597227D01*
X134351084Y-40561885D02*
X131389340Y-43507735D01*
X130047250Y-177704700D02*
X131764327Y-178944139D01*
X126855569Y-174957341D02*
X128411047Y-176372622D01*
X119209632Y-165246951D02*
X120283873Y-166963243D01*
X149479748Y-31257939D02*
X148352594Y-31686195D01*
X109041627Y-116826171D02*
X109329626Y-125938889D01*
X119591276Y-61651621D02*
X117802835Y-65830757D01*
X117300062Y-161772400D02*
X118215078Y-163513524D01*
X135441697Y-189152113D02*
X135441697Y-189152113D01*
X120283873Y-166963243D02*
X121437948Y-168652962D01*
X110107921Y-134623861D02*
X111341130Y-142729579D01*
X111473233Y-88436617D02*
X110078048Y-97923528D01*
X137523859Y-37887868D02*
X134351084Y-40561885D01*
X113500244Y-79127991D02*
X111473233Y-88436617D01*
X144520191Y-33431085D02*
X140912087Y-35504622D01*
X165563901Y-31585835D02*
X165096757Y-31295436D01*
X154537550Y-29906759D02*
X153602394Y-30081009D01*
X155434899Y-29774886D02*
X154537550Y-29906759D01*
X153602394Y-30081009D02*
X152629233Y-30300444D01*
X160674338Y-29802423D02*
X160036107Y-29716292D01*
X161276341Y-29908464D02*
X160674338Y-29802423D01*
X163749870Y-30639036D02*
X163326038Y-30475567D01*
X157116966Y-29627037D02*
X156294639Y-29682582D01*
X159361452Y-29652879D02*
X158650175Y-29614994D01*
X164492607Y-30972348D02*
X164138660Y-30805566D01*
X161842315Y-30031607D02*
X161276341Y-29908464D01*
X165096757Y-31295436D02*
X164811906Y-31136574D01*
X162866966Y-30317967D02*
X162372458Y-30169045D01*
X164811906Y-31136574D02*
X164492607Y-30972348D01*
X157902079Y-29605444D02*
X157116966Y-29627037D01*
X158650175Y-29614994D02*
X157902079Y-29605444D01*
X164138660Y-30805566D02*
X163749870Y-30639036D01*
X151617870Y-30567871D02*
X150568108Y-30886100D01*
X162372458Y-30169045D02*
X161842315Y-30031607D01*
X160036107Y-29716292D02*
X159361452Y-29652879D01*
X156294639Y-29682582D02*
X155434899Y-29774886D01*
X163326038Y-30475567D02*
X162866966Y-30317967D01*
X152629233Y-30300444D02*
X151617870Y-30567871D01*
X166159097Y-32036232D02*
X165895619Y-31821078D01*
X173583312Y-27120812D02*
X172365174Y-28026791D01*
X180758392Y-18530391D02*
X180595712Y-18858515D01*
X178057544Y-23107797D02*
X177062489Y-24145855D01*
X168050648Y-30908220D02*
X166159097Y-32036232D01*
X170032551Y-29639563D02*
X168050648Y-30908220D01*
X174793495Y-26164143D02*
X173583312Y-27120812D01*
X180102403Y-20019321D02*
X179882786Y-20522800D01*
X175963847Y-25168564D02*
X174793495Y-26164143D01*
X179609379Y-21032750D02*
X179286166Y-21547697D01*
X178917133Y-22066168D02*
X178506264Y-22586693D01*
X177062489Y-24145855D02*
X175963847Y-25168564D01*
X178506264Y-22586693D02*
X178057544Y-23107797D01*
X179286166Y-21547697D02*
X178917133Y-22066168D01*
X180432213Y-19215331D02*
X180267806Y-19601908D01*
X180267806Y-19601908D02*
X180102403Y-20019321D01*
X180102403Y-20019321D02*
X180102403Y-20019321D01*
X180595712Y-18858515D02*
X180432213Y-19215331D01*
X166159097Y-32036232D02*
X166159097Y-32036232D01*
X179882786Y-20522800D02*
X179609379Y-21032750D01*
X172365174Y-28026791D02*
X171170962Y-28870301D01*
X171170962Y-28870301D02*
X170032551Y-29639563D01*
X165895619Y-31821078D02*
X165563901Y-31585835D01*
X181562578Y-17282622D02*
X181402676Y-17483368D01*
X181722189Y-17104137D02*
X181562578Y-17282622D01*
X185338151Y-16640133D02*
X184645755Y-16476144D01*
X182518957Y-16508105D02*
X182359481Y-16591365D01*
X182200155Y-16691526D02*
X182040890Y-16809661D01*
X183483868Y-16303467D02*
X183321650Y-16307823D01*
X181881597Y-16946840D02*
X181722189Y-17104137D01*
X182838707Y-16388005D02*
X182678669Y-16440676D01*
X182999157Y-16349020D02*
X182838707Y-16388005D01*
X183160109Y-16322650D02*
X182999157Y-16349020D01*
X183975467Y-16342509D02*
X183810688Y-16321882D01*
X184308200Y-16401245D02*
X183975467Y-16342509D01*
X184645755Y-16476144D02*
X184308200Y-16401245D01*
X182678669Y-16440676D02*
X182518957Y-16508105D01*
X180920340Y-18229886D02*
X180758392Y-18530391D01*
X183321650Y-16307823D02*
X183160109Y-16322650D01*
X181081645Y-17955928D02*
X180920340Y-18229886D01*
X183810688Y-16321882D02*
X183646851Y-16308511D01*
X182040890Y-16809661D02*
X181881597Y-16946840D01*
X182359481Y-16591365D02*
X182200155Y-16691526D01*
X181242394Y-17707446D02*
X181081645Y-17955928D01*
X183646851Y-16308511D02*
X183483868Y-16303467D01*
X181402676Y-17483368D02*
X181242394Y-17707446D01*
X170510200Y-46990000D02*
X172423756Y-43591814D01*
M02*
