G04 #@! TF.GenerationSoftware,KiCad,Pcbnew,5.1.3-ffb9f22~84~ubuntu18.04.1*
G04 #@! TF.CreationDate,2019-10-26T21:40:40-04:00*
G04 #@! TF.ProjectId,swadge-banana,73776164-6765-42d6-9261-6e616e612e6b,rev?*
G04 #@! TF.SameCoordinates,Original*
G04 #@! TF.FileFunction,Legend,Top*
G04 #@! TF.FilePolarity,Positive*
%FSLAX46Y46*%
G04 Gerber Fmt 4.6, Leading zero omitted, Abs format (unit mm)*
G04 Created by KiCad (PCBNEW 5.1.3-ffb9f22~84~ubuntu18.04.1) date 2019-10-26 21:40:40*
%MOMM*%
%LPD*%
G04 APERTURE LIST*
%ADD10C,0.400000*%
%ADD11C,0.120000*%
%ADD12C,0.150000*%
%ADD13C,0.254000*%
G04 APERTURE END LIST*
D10*
X125296240Y-82944827D02*
G75*
G03X125296240Y-82944827I-200001J0D01*
G01*
D11*
X129821604Y-169857203D02*
X129082398Y-170738154D01*
X135413728Y-174549553D02*
X129821604Y-169857203D01*
X131878396Y-178762797D02*
X126286272Y-174070447D01*
X119410781Y-150879567D02*
X118330135Y-151272890D01*
X121907528Y-157739323D02*
X119410781Y-150879567D01*
X116739219Y-159620433D02*
X114242472Y-152760677D01*
X115155205Y-116211078D02*
X114006781Y-116271265D01*
X115537257Y-123501074D02*
X115155205Y-116211078D01*
X110044795Y-123788922D02*
X109662743Y-116498926D01*
X120200986Y-78586123D02*
X119090171Y-78288481D01*
X118311607Y-85637382D02*
X120200986Y-78586123D01*
X112999014Y-84213877D02*
X114888393Y-77162618D01*
X135217872Y-48314972D02*
X134299442Y-47622884D01*
X130824623Y-54145011D02*
X135217872Y-48314972D01*
X126432128Y-50835028D02*
X130825377Y-45004989D01*
X161280000Y-35530000D02*
X161280000Y-34380000D01*
X153980000Y-35530000D02*
X161280000Y-35530000D01*
X153980000Y-30030000D02*
X161280000Y-30030000D01*
D12*
X135771404Y-89754284D02*
X134786597Y-89580636D01*
X135255553Y-89663326D02*
X135354780Y-89100578D01*
X135870632Y-89191537D02*
X134885824Y-89017889D01*
X135054036Y-88612366D02*
X135015409Y-88557202D01*
X134985052Y-88455142D01*
X135026397Y-88220664D01*
X135089830Y-88135141D01*
X135144995Y-88096515D01*
X135247055Y-88066157D01*
X135340846Y-88082695D01*
X135473264Y-88154397D01*
X135936784Y-88816372D01*
X136044280Y-88206729D01*
X165743131Y-35462250D02*
X165687966Y-35500877D01*
X165539010Y-35522966D01*
X165445219Y-35506428D01*
X165312801Y-35434725D01*
X165235548Y-35324396D01*
X165205190Y-35222336D01*
X165191370Y-35026484D01*
X165216177Y-34885798D01*
X165296149Y-34706484D01*
X165359582Y-34620962D01*
X165469911Y-34543709D01*
X165618867Y-34521620D01*
X165712658Y-34538158D01*
X165845076Y-34609860D01*
X165883703Y-34665025D01*
X166686479Y-35048344D02*
X166570714Y-35704883D01*
X166518153Y-34631835D02*
X166159640Y-35293924D01*
X166769283Y-35401420D01*
X166223227Y-32739491D02*
X165660479Y-32640264D01*
X165941853Y-32689878D02*
X166115501Y-31705070D01*
X165996903Y-31829219D01*
X165886574Y-31906472D01*
X165784514Y-31936830D01*
X167183113Y-32231794D02*
X167067348Y-32888333D01*
X166761053Y-32157374D02*
X166670094Y-32673225D01*
X166700452Y-32775285D01*
X166785974Y-32838719D01*
X166926661Y-32863526D01*
X167028721Y-32833168D01*
X167083886Y-32794541D01*
X114517397Y-112491436D02*
X115314622Y-112632009D01*
X115416682Y-112601651D01*
X115471847Y-112563024D01*
X115535280Y-112477502D01*
X115568356Y-112289919D01*
X115537998Y-112187859D01*
X115499372Y-112132695D01*
X115413849Y-112069261D01*
X114616624Y-111928689D01*
X115102004Y-111095555D02*
X115758542Y-111211321D01*
X114685494Y-111263881D02*
X115347583Y-111622394D01*
X115455080Y-111012751D01*
X167714406Y-33410014D02*
X168377529Y-33874338D01*
X168482856Y-33889957D01*
X168549177Y-33878263D01*
X168642810Y-33827561D01*
X168752063Y-33671532D01*
X168767682Y-33566205D01*
X168755988Y-33499884D01*
X168705287Y-33406251D01*
X168042164Y-32941927D01*
X169434892Y-32696351D02*
X169107134Y-33164438D01*
X169271013Y-32930395D02*
X168451861Y-32356818D01*
X168514256Y-32516772D01*
X168537645Y-32649413D01*
X168522025Y-32754741D01*
X162352263Y-39919310D02*
X162742335Y-40192441D01*
X162110369Y-40098727D02*
X162956996Y-39470767D01*
X162656471Y-40481111D01*
X162929521Y-40672303D02*
X163503098Y-39853151D01*
X163815156Y-40071657D01*
X163865857Y-40165290D01*
X163877551Y-40231611D01*
X163861932Y-40336938D01*
X163779992Y-40453960D01*
X163686359Y-40504661D01*
X163620038Y-40516355D01*
X163514711Y-40500736D01*
X163202653Y-40282231D01*
X164177753Y-41546325D02*
X163709666Y-41218567D01*
X163943709Y-41382446D02*
X164517286Y-40563294D01*
X164357332Y-40625689D01*
X164224691Y-40649077D01*
X164119364Y-40633458D01*
X164957898Y-42092588D02*
X164489811Y-41764830D01*
X164723854Y-41928709D02*
X165297431Y-41109557D01*
X165137477Y-41171952D01*
X165004836Y-41195340D01*
X164899508Y-41179721D01*
X165738043Y-42638851D02*
X165269956Y-42311093D01*
X165503999Y-42474972D02*
X166077576Y-41655820D01*
X165917622Y-41718216D01*
X165784981Y-41741604D01*
X165679653Y-41725985D01*
X166584670Y-42010891D02*
X167130771Y-42393276D01*
X166206129Y-42966609D01*
X167087758Y-43118875D02*
X167711874Y-43555886D01*
X168379003Y-43267297D02*
X168886097Y-43622368D01*
X168394541Y-43743234D01*
X168511563Y-43825173D01*
X168562264Y-43918807D01*
X168573958Y-43985127D01*
X168558339Y-44090455D01*
X168421773Y-44285491D01*
X168328139Y-44336192D01*
X168261819Y-44347886D01*
X168156491Y-44332267D01*
X167922448Y-44168388D01*
X167871747Y-44074755D01*
X167860053Y-44008434D01*
X169159148Y-43813560D02*
X169666242Y-44168631D01*
X169174686Y-44289497D01*
X169291707Y-44371436D01*
X169342409Y-44465070D01*
X169354103Y-44531390D01*
X169338484Y-44636718D01*
X169201918Y-44831754D01*
X169108284Y-44882456D01*
X169041964Y-44894150D01*
X168936636Y-44878531D01*
X168702593Y-44714652D01*
X168651891Y-44621018D01*
X168640197Y-44554698D01*
X127529653Y-86468827D02*
X128326878Y-86609400D01*
X128428938Y-86579042D01*
X128484103Y-86540415D01*
X128547536Y-86454893D01*
X128580612Y-86267310D01*
X128550254Y-86165250D01*
X128511628Y-86110086D01*
X128426105Y-86046652D01*
X127628880Y-85906080D01*
X127794259Y-84968168D02*
X127711570Y-85437124D01*
X128172257Y-85566709D01*
X128133630Y-85511544D01*
X128103273Y-85409484D01*
X128144617Y-85175006D01*
X128208051Y-85089484D01*
X128263215Y-85050857D01*
X128365276Y-85020500D01*
X128599754Y-85061844D01*
X128685276Y-85125278D01*
X128723903Y-85180443D01*
X128754260Y-85282503D01*
X128712915Y-85516981D01*
X128649482Y-85602503D01*
X128594317Y-85641130D01*
X126926044Y-86580560D02*
X126862611Y-86666082D01*
X126752281Y-86743335D01*
X126586788Y-86859215D01*
X126523354Y-86944737D01*
X126506816Y-87038529D01*
X126749563Y-87032978D02*
X126686130Y-87118500D01*
X126575801Y-87195753D01*
X126379949Y-87209573D01*
X126051680Y-87151690D01*
X125872366Y-87071719D01*
X125795113Y-86961390D01*
X125764755Y-86859330D01*
X125797831Y-86671747D01*
X125861265Y-86586225D01*
X125971594Y-86508972D01*
X126167445Y-86495152D01*
X126495715Y-86553035D01*
X126675028Y-86633006D01*
X126752281Y-86743335D01*
X126782639Y-86845395D01*
X126749563Y-87032978D01*
X126898405Y-86188857D02*
X125913597Y-86015209D01*
X126674914Y-85810974D01*
X126029362Y-85358670D01*
X127014170Y-85532318D01*
X126807217Y-85060644D02*
X126889907Y-84591688D01*
X127072053Y-85204049D02*
X126145128Y-84702132D01*
X127187818Y-84547511D01*
X126335314Y-83623533D02*
X126302238Y-83811115D01*
X126332596Y-83913175D01*
X126371222Y-83968340D01*
X126495371Y-84086938D01*
X126674685Y-84166910D01*
X127049849Y-84233061D01*
X127151910Y-84202704D01*
X127207074Y-84164077D01*
X127270508Y-84078555D01*
X127303584Y-83890972D01*
X127273226Y-83788912D01*
X127234599Y-83733747D01*
X127149077Y-83670314D01*
X126914599Y-83628969D01*
X126812539Y-83659327D01*
X126757374Y-83697953D01*
X126693941Y-83783476D01*
X126660865Y-83971058D01*
X126691223Y-84073118D01*
X126729849Y-84128283D01*
X126815371Y-84191716D01*
X127419349Y-83234434D02*
X127452425Y-83046851D01*
X127422067Y-82944791D01*
X127383441Y-82889627D01*
X127259292Y-82771028D01*
X127079978Y-82691057D01*
X126704813Y-82624905D01*
X126602753Y-82655263D01*
X126547589Y-82693890D01*
X126484155Y-82779412D01*
X126451079Y-82966994D01*
X126481437Y-83069054D01*
X126520064Y-83124219D01*
X126605586Y-83187653D01*
X126840064Y-83228997D01*
X126942124Y-83198640D01*
X126997289Y-83160013D01*
X127060722Y-83074491D01*
X127093798Y-82886908D01*
X127063440Y-82784848D01*
X127024814Y-82729684D01*
X126939291Y-82666250D01*
X127038519Y-82103503D02*
X126975085Y-82189025D01*
X126919921Y-82227652D01*
X126817861Y-82258009D01*
X126770965Y-82249740D01*
X126685443Y-82186307D01*
X126646816Y-82131142D01*
X126616458Y-82029082D01*
X126649534Y-81841500D01*
X126712968Y-81755977D01*
X126768132Y-81717351D01*
X126870193Y-81686993D01*
X126917088Y-81695262D01*
X127002610Y-81758696D01*
X127041237Y-81813860D01*
X127071595Y-81915920D01*
X127038519Y-82103503D01*
X127068877Y-82205563D01*
X127107503Y-82260728D01*
X127193026Y-82324161D01*
X127380608Y-82357237D01*
X127482668Y-82326879D01*
X127537833Y-82288253D01*
X127601266Y-82202730D01*
X127634342Y-82015148D01*
X127603984Y-81913088D01*
X127565358Y-81857923D01*
X127479835Y-81794490D01*
X127292253Y-81761414D01*
X127190193Y-81791771D01*
X127135028Y-81830398D01*
X127071595Y-81915920D01*
X127832797Y-80889653D02*
X127733570Y-81452401D01*
X127783183Y-81171027D02*
X126798376Y-80997379D01*
X126922524Y-81115977D01*
X126999778Y-81226306D01*
X127030135Y-81328366D01*
X141678095Y-181847380D02*
X141678095Y-182656904D01*
X141725714Y-182752142D01*
X141773333Y-182799761D01*
X141868571Y-182847380D01*
X142059047Y-182847380D01*
X142154285Y-182799761D01*
X142201904Y-182752142D01*
X142249523Y-182656904D01*
X142249523Y-181847380D01*
X142630476Y-181847380D02*
X143249523Y-181847380D01*
X142916190Y-182228333D01*
X143059047Y-182228333D01*
X143154285Y-182275952D01*
X143201904Y-182323571D01*
X143249523Y-182418809D01*
X143249523Y-182656904D01*
X143201904Y-182752142D01*
X143154285Y-182799761D01*
X143059047Y-182847380D01*
X142773333Y-182847380D01*
X142678095Y-182799761D01*
X142630476Y-182752142D01*
X131382997Y-118562036D02*
X132180222Y-118702609D01*
X132282282Y-118672251D01*
X132337447Y-118633624D01*
X132400880Y-118548102D01*
X132433956Y-118360519D01*
X132403598Y-118258459D01*
X132364972Y-118203295D01*
X132279449Y-118139861D01*
X131482224Y-117999289D01*
X131639334Y-117108272D02*
X131606259Y-117295855D01*
X131636616Y-117397915D01*
X131675243Y-117453080D01*
X131799392Y-117571678D01*
X131978705Y-117651649D01*
X132353870Y-117717801D01*
X132455930Y-117687443D01*
X132511095Y-117648816D01*
X132574528Y-117563294D01*
X132607604Y-117375712D01*
X132577247Y-117273652D01*
X132538620Y-117218487D01*
X132453098Y-117155053D01*
X132218620Y-117113709D01*
X132116559Y-117144066D01*
X132061395Y-117182693D01*
X131997961Y-117268215D01*
X131964886Y-117455798D01*
X131995243Y-117557858D01*
X132033870Y-117613022D01*
X132119392Y-117676456D01*
X114180954Y-145241235D02*
X113375865Y-145325853D01*
X113286126Y-145383166D01*
X113243745Y-145435502D01*
X113206342Y-145535196D01*
X113226252Y-145724629D01*
X113283566Y-145814368D01*
X113335901Y-145856748D01*
X113435595Y-145894151D01*
X114240684Y-145809533D01*
X114190766Y-146245712D02*
X114243102Y-146288092D01*
X114300415Y-146377831D01*
X114325303Y-146614622D01*
X114287900Y-146714316D01*
X114245519Y-146766652D01*
X114155780Y-146823965D01*
X114061064Y-146833920D01*
X113914012Y-146801495D01*
X113285983Y-146292927D01*
X113350691Y-146908583D01*
X185267680Y-25338481D02*
X185415207Y-25308292D01*
X185621404Y-25189244D01*
X185680073Y-25100386D01*
X185697503Y-25035337D01*
X185691123Y-24929049D01*
X185643504Y-24846570D01*
X185554646Y-24787901D01*
X185489597Y-24770472D01*
X185383309Y-24776851D01*
X185194542Y-24830850D01*
X185088254Y-24837230D01*
X185023205Y-24819800D01*
X184934347Y-24761131D01*
X184886728Y-24678652D01*
X184880348Y-24572364D01*
X184897778Y-24507315D01*
X184956447Y-24418457D01*
X185162643Y-24299409D01*
X185310171Y-24269220D01*
X185575036Y-24061314D02*
X186281233Y-24808292D01*
X186089047Y-24094464D01*
X186611147Y-24617816D01*
X186317344Y-23632743D01*
X187600891Y-24046387D02*
X187106019Y-24332102D01*
X187353455Y-24189244D02*
X186853455Y-23323219D01*
X186842405Y-23494556D01*
X186807545Y-23624654D01*
X186748876Y-23713512D01*
X185971826Y-26798153D02*
X186119353Y-26767963D01*
X186325550Y-26648916D01*
X186384219Y-26560057D01*
X186401648Y-26495009D01*
X186395269Y-26388720D01*
X186347650Y-26306242D01*
X186258791Y-26247573D01*
X186193742Y-26230143D01*
X186087454Y-26236523D01*
X185898688Y-26290521D01*
X185792399Y-26296901D01*
X185727351Y-26279471D01*
X185638492Y-26220802D01*
X185590873Y-26138324D01*
X185584494Y-26032036D01*
X185601923Y-25966987D01*
X185660592Y-25878128D01*
X185866789Y-25759081D01*
X186014316Y-25728892D01*
X186279182Y-25520986D02*
X186985378Y-26267963D01*
X186793193Y-25554136D01*
X187315293Y-26077487D01*
X187021489Y-25092414D01*
X187692826Y-25969490D02*
X188352655Y-25588537D01*
X188446184Y-25369581D02*
X188593711Y-25339392D01*
X188799908Y-25220344D01*
X188858577Y-25131486D01*
X188876007Y-25066437D01*
X188869627Y-24960149D01*
X188822008Y-24877670D01*
X188733150Y-24819001D01*
X188668101Y-24801572D01*
X188561813Y-24807951D01*
X188373046Y-24861950D01*
X188266758Y-24868330D01*
X188201709Y-24850900D01*
X188112851Y-24792231D01*
X188065232Y-24709752D01*
X188058852Y-24603464D01*
X188076282Y-24538415D01*
X188134951Y-24449557D01*
X188341147Y-24330509D01*
X188488675Y-24300320D01*
X189336019Y-24910821D02*
X188836019Y-24044795D01*
X189165933Y-23854319D01*
X189272221Y-23847939D01*
X189337270Y-23865369D01*
X189426129Y-23924038D01*
X189497557Y-24047756D01*
X189503937Y-24154044D01*
X189486507Y-24219093D01*
X189427838Y-24307951D01*
X189097924Y-24498427D01*
X190202044Y-24410821D02*
X189702044Y-23544795D01*
X189908241Y-23425747D01*
X190055768Y-23395558D01*
X190185866Y-23430418D01*
X190274724Y-23489087D01*
X190411202Y-23630235D01*
X190482630Y-23753952D01*
X190536629Y-23942719D01*
X190543009Y-24049007D01*
X190508149Y-24179105D01*
X190408241Y-24291773D01*
X190202044Y-24410821D01*
X190444352Y-23116224D02*
X190939223Y-22830509D01*
X191191788Y-23839392D02*
X190691788Y-22973367D01*
D13*
X143663458Y-76360198D02*
X143782339Y-76210395D01*
X143885760Y-75926249D01*
X143870299Y-75791907D01*
X143834154Y-75714394D01*
X143741180Y-75616197D01*
X143627522Y-75574829D01*
X143493180Y-75590290D01*
X143415667Y-75626435D01*
X143317469Y-75719409D01*
X143177904Y-75926041D01*
X143079707Y-76019015D01*
X143002194Y-76055160D01*
X142867852Y-76070621D01*
X142754194Y-76029252D01*
X142661220Y-75931055D01*
X142625075Y-75853542D01*
X142609614Y-75719200D01*
X142713034Y-75435055D01*
X142831915Y-75285252D01*
X143054217Y-74851304D02*
X143018072Y-74773791D01*
X143002611Y-74639448D01*
X143106032Y-74355303D01*
X143204229Y-74262329D01*
X143281742Y-74226184D01*
X143416084Y-74210723D01*
X143529742Y-74252092D01*
X143679545Y-74370973D01*
X144113285Y-75301130D01*
X144382177Y-74562353D01*
X133254147Y-141103521D02*
X133209714Y-141289530D01*
X133236068Y-141590760D01*
X133306856Y-141705981D01*
X133372373Y-141760957D01*
X133498136Y-141810661D01*
X133618628Y-141800119D01*
X133733849Y-141729331D01*
X133788824Y-141663815D01*
X133838529Y-141538052D01*
X133877691Y-141291797D01*
X133927396Y-141166034D01*
X133982371Y-141100517D01*
X134097592Y-141029729D01*
X134218084Y-141019187D01*
X134343847Y-141068892D01*
X134409364Y-141123867D01*
X134480152Y-141239088D01*
X134506506Y-141540318D01*
X134462073Y-141726327D01*
X133362568Y-143036666D02*
X133299318Y-142313713D01*
X133330943Y-142675189D02*
X134596111Y-142564501D01*
X134404831Y-142459822D01*
X134273797Y-142349871D01*
X134203009Y-142234650D01*
D12*
X142284626Y-54357105D02*
X142397294Y-54257197D01*
X142516342Y-54051000D01*
X142522721Y-53944712D01*
X142505292Y-53879663D01*
X142446623Y-53790805D01*
X142364144Y-53743186D01*
X142257856Y-53736806D01*
X142192807Y-53754236D01*
X142103949Y-53812905D01*
X141967471Y-53954053D01*
X141878613Y-54012722D01*
X141813564Y-54030152D01*
X141707276Y-54023772D01*
X141624797Y-53976153D01*
X141566128Y-53887295D01*
X141548698Y-53822246D01*
X141555078Y-53715958D01*
X141674126Y-53509761D01*
X141786794Y-53409853D01*
X141912221Y-53097368D02*
X142221745Y-52561257D01*
X142384993Y-53040408D01*
X142456421Y-52916691D01*
X142545280Y-52858021D01*
X142610328Y-52840592D01*
X142716617Y-52846971D01*
X142922813Y-52966019D01*
X142981482Y-53054877D01*
X142998912Y-53119926D01*
X142992532Y-53226214D01*
X142849675Y-53473650D01*
X142760817Y-53532319D01*
X142695768Y-53549749D01*
X130261855Y-72325427D02*
X129700376Y-72475791D01*
X130066415Y-72862395D02*
X129126722Y-72520374D01*
X129257016Y-72162396D01*
X129334336Y-72089188D01*
X129395370Y-72060728D01*
X129501152Y-72048554D01*
X129635393Y-72097414D01*
X129708601Y-72174735D01*
X129737062Y-72235768D01*
X129749236Y-72341550D01*
X129618942Y-72699528D01*
X129436169Y-71670176D02*
X129664183Y-71043715D01*
X130457295Y-71788460D01*
X127403325Y-71817096D02*
X127207885Y-72354063D01*
X127305605Y-72085579D02*
X126365912Y-71743559D01*
X126467581Y-71881914D01*
X126524502Y-72003982D01*
X126536676Y-72109763D01*
X126675359Y-70893361D02*
X126707933Y-70803866D01*
X126785253Y-70730659D01*
X126846287Y-70702198D01*
X126952068Y-70690024D01*
X127147344Y-70710424D01*
X127371080Y-70791857D01*
X127533783Y-70901751D01*
X127606991Y-70979071D01*
X127635451Y-71040105D01*
X127647625Y-71145887D01*
X127615052Y-71235381D01*
X127537731Y-71308589D01*
X127476697Y-71337050D01*
X127370916Y-71349224D01*
X127175640Y-71328824D01*
X126951904Y-71247391D01*
X126789202Y-71137497D01*
X126715994Y-71060176D01*
X126687533Y-70999142D01*
X126675359Y-70893361D01*
X127001093Y-69998416D02*
X127033666Y-69908921D01*
X127110987Y-69835713D01*
X127172021Y-69807253D01*
X127277802Y-69795079D01*
X127473078Y-69815478D01*
X127696814Y-69896912D01*
X127859516Y-70006806D01*
X127932724Y-70084126D01*
X127961185Y-70145160D01*
X127973359Y-70250941D01*
X127940785Y-70340436D01*
X127863465Y-70413644D01*
X127802431Y-70442104D01*
X127696650Y-70454278D01*
X127501374Y-70433879D01*
X127277637Y-70352445D01*
X127114935Y-70242551D01*
X127041727Y-70165231D01*
X127013267Y-70104197D01*
X127001093Y-69998416D01*
X112916566Y-102042689D02*
X112389728Y-102288269D01*
X112817339Y-102605437D02*
X111832531Y-102431788D01*
X111898683Y-102056624D01*
X111962116Y-101971101D01*
X112017281Y-101932475D01*
X112119341Y-101902117D01*
X112260028Y-101926924D01*
X112345550Y-101990357D01*
X112384177Y-102045522D01*
X112414534Y-102147582D01*
X112348383Y-102522747D01*
X112408869Y-101082803D02*
X113065408Y-101198568D01*
X111992360Y-101251129D02*
X112654449Y-101609642D01*
X112761945Y-100999999D01*
X109558877Y-105521384D02*
X109666373Y-104911741D01*
X109983656Y-105306162D01*
X110008462Y-105165475D01*
X110071896Y-105079952D01*
X110127061Y-105041326D01*
X110229121Y-105010968D01*
X110463599Y-105052313D01*
X110549121Y-105115746D01*
X110587748Y-105170911D01*
X110618105Y-105272971D01*
X110568492Y-105554345D01*
X110505058Y-105639867D01*
X110449893Y-105678494D01*
X110733871Y-104616433D02*
X110766947Y-104428850D01*
X110736589Y-104326790D01*
X110697962Y-104271626D01*
X110573813Y-104153027D01*
X110394500Y-104073056D01*
X110019335Y-104006904D01*
X109917275Y-104037262D01*
X109862110Y-104075889D01*
X109798677Y-104161411D01*
X109765601Y-104348993D01*
X109795959Y-104451054D01*
X109834585Y-104506218D01*
X109920108Y-104569652D01*
X110154586Y-104610996D01*
X110256646Y-104580639D01*
X110311810Y-104542012D01*
X110375244Y-104456490D01*
X110408320Y-104268907D01*
X110377962Y-104166847D01*
X110339335Y-104111683D01*
X110253813Y-104048249D01*
X109939249Y-103364186D02*
X109955787Y-103270394D01*
X110019221Y-103184872D01*
X110074385Y-103146245D01*
X110176445Y-103115888D01*
X110372297Y-103102068D01*
X110606775Y-103143413D01*
X110786088Y-103223384D01*
X110871610Y-103286818D01*
X110910237Y-103341982D01*
X110940595Y-103444043D01*
X110924057Y-103537834D01*
X110860623Y-103623356D01*
X110805459Y-103661983D01*
X110703399Y-103692340D01*
X110507547Y-103706160D01*
X110273069Y-103664815D01*
X110093756Y-103584844D01*
X110008233Y-103521410D01*
X109969607Y-103466246D01*
X109939249Y-103364186D01*
X111056360Y-102787504D02*
X110071552Y-102613856D01*
X110697733Y-102627561D02*
X111122512Y-102412339D01*
X110465973Y-102296574D02*
X110774987Y-102737890D01*
X160184372Y-40623762D02*
X160629699Y-40250194D01*
X160134569Y-40054508D02*
X161130763Y-39967352D01*
X161163966Y-40346855D01*
X161124828Y-40445880D01*
X161081541Y-40497469D01*
X160990815Y-40553207D01*
X160848502Y-40565658D01*
X160749476Y-40526521D01*
X160697888Y-40483233D01*
X160642149Y-40392508D01*
X160608947Y-40013005D01*
X160267378Y-41572519D02*
X160217574Y-41003264D01*
X160242476Y-41287891D02*
X161238671Y-41200736D01*
X161088056Y-41118311D01*
X160984880Y-41031736D01*
X160929142Y-40941010D01*
X158275422Y-40145461D02*
X158333526Y-40809591D01*
X157299979Y-40469806D01*
X158383329Y-41378845D02*
X158391630Y-41473721D01*
X158352492Y-41572747D01*
X158309205Y-41624335D01*
X158218479Y-41680073D01*
X158032878Y-41744112D01*
X157795689Y-41764863D01*
X157601787Y-41734027D01*
X157502762Y-41694889D01*
X157451173Y-41651602D01*
X157395435Y-41560876D01*
X157387134Y-41466001D01*
X157426272Y-41366975D01*
X157469559Y-41315387D01*
X157560285Y-41259648D01*
X157745886Y-41195609D01*
X157983075Y-41174858D01*
X158176977Y-41205695D01*
X158276003Y-41244832D01*
X158327591Y-41288120D01*
X158383329Y-41378845D01*
X110602182Y-101789652D02*
X110302878Y-101291370D01*
X110032146Y-101749792D02*
X110101902Y-100752228D01*
X110481927Y-100778801D01*
X110573611Y-100832948D01*
X110617792Y-100883773D01*
X110658652Y-100982101D01*
X110648687Y-101124610D01*
X110594540Y-101216294D01*
X110543715Y-101260475D01*
X110445387Y-101301335D01*
X110065363Y-101274761D01*
X111526994Y-100851880D02*
X111336981Y-100838593D01*
X111238654Y-100879452D01*
X111187829Y-100923634D01*
X111082858Y-101059499D01*
X111022068Y-101246190D01*
X110995494Y-101626214D01*
X111036353Y-101724542D01*
X111080535Y-101775367D01*
X111172219Y-101829513D01*
X111362231Y-101842800D01*
X111460559Y-101801941D01*
X111511384Y-101757759D01*
X111565530Y-101666075D01*
X111582139Y-101428560D01*
X111541279Y-101330232D01*
X111497098Y-101279407D01*
X111405414Y-101225261D01*
X111215402Y-101211974D01*
X111117074Y-101252833D01*
X111066249Y-101297014D01*
X111012102Y-101388699D01*
X113254630Y-99995102D02*
X113214769Y-100565139D01*
X113234700Y-100280121D02*
X112237136Y-100210364D01*
X112373001Y-100315335D01*
X112461364Y-100416985D01*
X112502224Y-100515313D01*
X112300249Y-99307806D02*
X112306892Y-99212800D01*
X112361039Y-99121116D01*
X112411864Y-99076934D01*
X112510191Y-99036075D01*
X112703525Y-99001859D01*
X112941041Y-99018467D01*
X113127731Y-99079257D01*
X113219415Y-99133404D01*
X113263597Y-99184229D01*
X113304456Y-99282556D01*
X113297813Y-99377563D01*
X113243666Y-99469247D01*
X113192842Y-99513428D01*
X113094514Y-99554288D01*
X112901180Y-99588504D01*
X112663665Y-99571895D01*
X112476974Y-99511105D01*
X112385290Y-99456959D01*
X112341108Y-99406134D01*
X112300249Y-99307806D01*
X113350961Y-98617514D02*
X112353397Y-98547757D01*
X113390822Y-98047477D02*
X112790889Y-98435144D01*
X112393257Y-97977721D02*
X112923433Y-98587618D01*
X116675119Y-113979971D02*
X116113682Y-113829450D01*
X116237380Y-114347278D02*
X115594592Y-113581233D01*
X115886418Y-113336362D01*
X115989984Y-113311622D01*
X116057071Y-113317492D01*
X116154767Y-113359839D01*
X116246594Y-113469274D01*
X116271334Y-113572840D01*
X116265464Y-113639927D01*
X116223117Y-113737623D01*
X115931290Y-113982495D01*
X116725420Y-112632356D02*
X116360636Y-112938446D01*
X116630247Y-113333838D01*
X116636117Y-113266751D01*
X116678465Y-113169054D01*
X116860856Y-113016010D01*
X116964422Y-112991270D01*
X117031509Y-112997140D01*
X117129205Y-113039487D01*
X117282250Y-113221879D01*
X117306989Y-113325444D01*
X117301120Y-113392532D01*
X117258772Y-113490228D01*
X117076381Y-113643272D01*
X116972815Y-113668012D01*
X116905728Y-113662143D01*
X118112230Y-116507557D02*
X117674490Y-116874864D01*
X117893360Y-116691211D02*
X117250572Y-115925166D01*
X117269443Y-116095819D01*
X117257704Y-116229993D01*
X117215356Y-116327690D01*
X117943660Y-115343596D02*
X118016617Y-115282379D01*
X118120182Y-115257639D01*
X118187270Y-115263508D01*
X118284966Y-115305856D01*
X118443880Y-115421160D01*
X118596925Y-115603552D01*
X118682882Y-115780074D01*
X118707622Y-115883640D01*
X118701752Y-115950727D01*
X118659405Y-116048423D01*
X118586448Y-116109641D01*
X118482882Y-116134380D01*
X118415795Y-116128511D01*
X118318099Y-116086163D01*
X118159185Y-115970859D01*
X118006140Y-115788467D01*
X117920183Y-115611945D01*
X117895443Y-115508380D01*
X117901313Y-115441293D01*
X117943660Y-115343596D01*
X119170101Y-115619898D02*
X118527313Y-114853853D01*
X119607841Y-115252591D02*
X118912229Y-115090331D01*
X118965053Y-114486546D02*
X118894620Y-115291593D01*
X120312742Y-117754994D02*
X120162378Y-117193515D01*
X119775774Y-117559554D02*
X120117795Y-116619861D01*
X120475773Y-116750155D01*
X120548981Y-116827475D01*
X120577441Y-116888509D01*
X120589615Y-116994291D01*
X120540755Y-117128532D01*
X120463434Y-117201740D01*
X120402401Y-117230201D01*
X120296619Y-117242375D01*
X119938641Y-117112081D01*
X120967993Y-116929308D02*
X121549707Y-117141035D01*
X121106183Y-117385006D01*
X121240425Y-117433866D01*
X121313633Y-117511187D01*
X121342093Y-117572221D01*
X121354267Y-117678002D01*
X121272834Y-117901739D01*
X121195513Y-117974946D01*
X121134479Y-118003407D01*
X121028698Y-118015581D01*
X120760214Y-117917861D01*
X120687006Y-117840540D01*
X120658546Y-117779506D01*
X118842344Y-120263361D02*
X118305377Y-120067921D01*
X118573860Y-120165641D02*
X118915880Y-119225948D01*
X118777526Y-119327617D01*
X118655458Y-119384538D01*
X118549677Y-119396712D01*
X119766078Y-119535395D02*
X119855573Y-119567968D01*
X119928781Y-119645289D01*
X119957241Y-119706323D01*
X119969415Y-119812104D01*
X119949016Y-120007380D01*
X119867582Y-120231116D01*
X119757689Y-120393819D01*
X119680368Y-120467026D01*
X119619334Y-120495487D01*
X119513553Y-120507661D01*
X119424058Y-120475088D01*
X119350850Y-120397767D01*
X119322390Y-120336733D01*
X119310216Y-120230952D01*
X119330615Y-120035676D01*
X119412049Y-119811940D01*
X119521943Y-119649237D01*
X119599263Y-119576029D01*
X119660297Y-119547569D01*
X119766078Y-119535395D01*
X120140014Y-120735674D02*
X120482035Y-119795982D01*
X120676982Y-120931114D02*
X120469696Y-120247567D01*
X121019002Y-119991422D02*
X120286595Y-120332949D01*
X136341051Y-162206124D02*
X135762006Y-162155383D01*
X135973744Y-162643864D02*
X135207699Y-162001077D01*
X135452571Y-161709250D01*
X135550267Y-161666902D01*
X135617354Y-161661033D01*
X135720920Y-161685773D01*
X135830355Y-161777599D01*
X135872703Y-161875296D01*
X135878572Y-161942383D01*
X135853832Y-162045948D01*
X135608961Y-162337775D01*
X135892835Y-161332728D02*
X135886965Y-161265641D01*
X135911705Y-161162075D01*
X136064750Y-160979684D01*
X136162446Y-160937336D01*
X136229533Y-160931467D01*
X136333099Y-160956206D01*
X136406055Y-161017424D01*
X136484881Y-161145729D01*
X136555314Y-161950776D01*
X136953230Y-161476558D01*
X133813465Y-160769014D02*
X133446158Y-161206754D01*
X133629811Y-160987884D02*
X132863767Y-160345096D01*
X132911984Y-160509879D01*
X132923723Y-160644054D01*
X132898983Y-160747619D01*
X133445337Y-159652008D02*
X133506554Y-159579052D01*
X133604251Y-159536704D01*
X133671338Y-159530835D01*
X133774903Y-159555574D01*
X133951426Y-159641532D01*
X134133817Y-159794576D01*
X134249121Y-159953490D01*
X134291469Y-160051186D01*
X134297338Y-160118274D01*
X134272599Y-160221839D01*
X134211381Y-160294796D01*
X134113685Y-160337144D01*
X134046598Y-160343013D01*
X133943032Y-160318273D01*
X133766510Y-160232316D01*
X133584118Y-160079271D01*
X133468814Y-159920357D01*
X133426466Y-159822661D01*
X133420597Y-159755574D01*
X133445337Y-159652008D01*
X134701124Y-159711143D02*
X133935080Y-159068355D01*
X135068431Y-159273403D02*
X134355211Y-159234401D01*
X134302387Y-158630616D02*
X134372819Y-159435663D01*
X128240904Y-56961811D02*
X127850831Y-57234943D01*
X127277255Y-56415791D01*
X128447634Y-56758925D02*
X128591969Y-56715993D01*
X128787005Y-56579427D01*
X128837706Y-56485793D01*
X128849401Y-56419473D01*
X128833781Y-56314145D01*
X128779155Y-56236131D01*
X128685522Y-56185429D01*
X128619201Y-56173735D01*
X128513874Y-56189354D01*
X128330531Y-56259600D01*
X128225204Y-56275219D01*
X128158883Y-56263525D01*
X128065250Y-56212823D01*
X128010623Y-56134809D01*
X127995004Y-56029481D01*
X128006698Y-55963161D01*
X128057400Y-55869527D01*
X128252436Y-55732961D01*
X128396771Y-55690029D01*
X129723179Y-55923911D02*
X129255092Y-56251669D01*
X129489135Y-56087790D02*
X128915559Y-55268638D01*
X128919484Y-55440286D01*
X128896096Y-55572927D01*
X128845395Y-55666560D01*
X127788835Y-62502106D02*
X128412951Y-62065095D01*
X128319399Y-62595658D02*
X127882388Y-61971542D01*
X177743848Y-30532709D02*
X178202982Y-31079883D01*
X178258330Y-31219927D01*
X178246591Y-31354101D01*
X178167765Y-31482407D01*
X178094809Y-31543624D01*
X179152680Y-30655965D02*
X178714940Y-31023273D01*
X178933810Y-30839619D02*
X178291022Y-30073575D01*
X178309892Y-30244227D01*
X178298154Y-30378402D01*
X178255806Y-30476098D01*
X174557557Y-35063348D02*
X175077908Y-35683479D01*
X175175605Y-35725827D01*
X175242692Y-35731696D01*
X175346257Y-35706956D01*
X175492171Y-35584521D01*
X175534518Y-35486824D01*
X175540388Y-35419737D01*
X175515648Y-35316172D01*
X174995296Y-34696040D01*
X175935780Y-35150126D02*
X176075824Y-35094778D01*
X176258215Y-34941733D01*
X176300563Y-34844037D01*
X176306432Y-34776950D01*
X176281693Y-34673384D01*
X176220475Y-34600427D01*
X176122779Y-34558080D01*
X176055691Y-34552210D01*
X175952126Y-34576950D01*
X175775604Y-34662907D01*
X175672038Y-34687647D01*
X175604951Y-34681778D01*
X175507255Y-34639430D01*
X175446037Y-34566473D01*
X175421297Y-34462908D01*
X175427167Y-34395821D01*
X175469514Y-34298124D01*
X175651906Y-34145080D01*
X175791950Y-34089731D01*
X176651083Y-33928293D02*
X176791127Y-33872944D01*
X176858214Y-33878814D01*
X176955910Y-33921162D01*
X177047737Y-34030596D01*
X177072477Y-34134162D01*
X177066607Y-34201249D01*
X177024260Y-34298945D01*
X176732433Y-34543817D01*
X176089646Y-33777772D01*
X176344994Y-33563510D01*
X176448559Y-33538770D01*
X176515646Y-33544640D01*
X176613343Y-33586987D01*
X176674560Y-33659944D01*
X176699300Y-33763510D01*
X176693431Y-33830597D01*
X176651083Y-33928293D01*
X176395735Y-34142556D01*
X177377304Y-34127031D02*
X177960957Y-33637288D01*
X178000780Y-32795762D02*
X178140824Y-32740414D01*
X178207911Y-32746283D01*
X178305608Y-32788631D01*
X178397434Y-32898066D01*
X178422174Y-33001631D01*
X178416305Y-33068719D01*
X178373957Y-33166415D01*
X178082130Y-33411286D01*
X177439343Y-32645242D01*
X177694691Y-32430979D01*
X177798257Y-32406240D01*
X177865344Y-32412109D01*
X177963040Y-32454457D01*
X178024258Y-32527413D01*
X178048997Y-32630979D01*
X178043128Y-32698066D01*
X178000780Y-32795762D01*
X177745432Y-33010025D01*
X178727001Y-32994500D02*
X179310654Y-32504757D01*
X179431828Y-32278756D02*
X178789040Y-31512711D01*
X179503522Y-31845623D01*
X179299736Y-31084186D01*
X179942524Y-31850231D01*
X180307307Y-31544141D02*
X179878782Y-31033445D01*
X179664520Y-30778097D02*
X179658650Y-30845184D01*
X179725737Y-30851054D01*
X179731607Y-30783966D01*
X179664520Y-30778097D01*
X179725737Y-30851054D01*
X180969786Y-30926093D02*
X180927438Y-31023790D01*
X180781525Y-31146225D01*
X180677960Y-31170965D01*
X180610872Y-31165095D01*
X180513176Y-31122748D01*
X180329523Y-30903878D01*
X180304783Y-30800312D01*
X180310652Y-30733225D01*
X180353000Y-30635529D01*
X180498913Y-30513093D01*
X180602479Y-30488354D01*
X181328700Y-30687091D02*
X180900175Y-30176395D01*
X181022610Y-30322308D02*
X180997871Y-30218743D01*
X181003740Y-30151655D01*
X181046088Y-30053959D01*
X181119045Y-29992741D01*
X181912353Y-30197348D02*
X181808787Y-30222088D01*
X181741700Y-30216218D01*
X181644004Y-30173871D01*
X181460350Y-29955001D01*
X181435611Y-29851435D01*
X181441480Y-29784348D01*
X181483828Y-29686652D01*
X181593263Y-29594825D01*
X181696828Y-29570086D01*
X181763915Y-29575955D01*
X181861611Y-29618303D01*
X182045265Y-29837173D01*
X182070005Y-29940738D01*
X182064135Y-30007825D01*
X182021788Y-30105522D01*
X181912353Y-30197348D01*
X130663204Y-118353884D02*
X129678397Y-118180236D01*
X130147353Y-118262926D02*
X130246580Y-117700178D01*
X130762432Y-117791137D02*
X129777624Y-117617489D01*
X130936080Y-116806329D02*
X130836853Y-117369077D01*
X130886466Y-117087703D02*
X129901659Y-116914055D01*
X130025807Y-117032653D01*
X130103061Y-117142982D01*
X130133418Y-117245042D01*
X133643801Y-177372105D02*
X134286588Y-176606060D01*
X134468980Y-176759105D01*
X134547806Y-176887410D01*
X134559545Y-177021585D01*
X134534805Y-177125150D01*
X134448848Y-177301672D01*
X134357021Y-177411107D01*
X134198107Y-177526412D01*
X134100411Y-177568759D01*
X133966236Y-177580498D01*
X133826192Y-177525150D01*
X133643801Y-177372105D01*
X135380938Y-177524329D02*
X135235024Y-177401893D01*
X135131459Y-177377153D01*
X135064372Y-177383023D01*
X134899588Y-177431240D01*
X134740674Y-177546544D01*
X134495803Y-177838370D01*
X134471063Y-177941936D01*
X134476933Y-178009023D01*
X134519280Y-178106719D01*
X134665193Y-178229155D01*
X134768759Y-178253895D01*
X134835846Y-178248025D01*
X134933542Y-178205678D01*
X135086587Y-178023286D01*
X135111327Y-177919721D01*
X135105457Y-177852633D01*
X135063110Y-177754937D01*
X134917196Y-177632501D01*
X134813631Y-177607762D01*
X134746544Y-177613631D01*
X134648847Y-177655979D01*
X131237910Y-168699000D02*
X130777514Y-169618089D01*
X131382561Y-169193350D01*
X131069340Y-169862961D01*
X131894519Y-169249961D01*
X131537689Y-170193790D02*
X131616515Y-170322095D01*
X131798906Y-170475139D01*
X131902472Y-170499879D01*
X131969559Y-170494010D01*
X132067255Y-170451662D01*
X132128473Y-170378705D01*
X132153213Y-170275140D01*
X132147343Y-170208052D01*
X132104996Y-170110356D01*
X131989691Y-169951442D01*
X131947344Y-169853746D01*
X131941474Y-169786659D01*
X131966214Y-169683093D01*
X132027432Y-169610137D01*
X132125128Y-169567789D01*
X132192215Y-169561920D01*
X132295781Y-169586659D01*
X132478172Y-169739704D01*
X132556998Y-169868009D01*
X132818216Y-170149359D02*
X132885303Y-170143489D01*
X132988869Y-170168229D01*
X133171260Y-170321274D01*
X133213608Y-170418970D01*
X133219477Y-170486057D01*
X133194738Y-170589623D01*
X133133520Y-170662579D01*
X133005215Y-170741405D01*
X132200168Y-170811838D01*
X132674386Y-171209754D01*
X133479433Y-171139321D02*
X133437085Y-171041625D01*
X133431216Y-170974538D01*
X133455955Y-170870972D01*
X133486564Y-170834494D01*
X133584260Y-170792146D01*
X133651348Y-170786277D01*
X133754913Y-170811017D01*
X133900826Y-170933452D01*
X133943174Y-171031148D01*
X133949043Y-171098236D01*
X133924304Y-171201801D01*
X133893695Y-171238280D01*
X133795999Y-171280627D01*
X133728911Y-171286497D01*
X133625346Y-171261757D01*
X133479433Y-171139321D01*
X133375867Y-171114582D01*
X133308780Y-171120451D01*
X133211084Y-171162799D01*
X133088648Y-171308712D01*
X133063908Y-171412278D01*
X133069778Y-171479365D01*
X133112125Y-171577061D01*
X133258039Y-171699497D01*
X133361604Y-171724236D01*
X133428691Y-171718367D01*
X133526388Y-171676019D01*
X133648823Y-171530106D01*
X133673563Y-171426540D01*
X133667694Y-171359453D01*
X133625346Y-171261757D01*
X134133518Y-172434111D02*
X133695778Y-172066804D01*
X133914648Y-172250457D02*
X134557436Y-171484413D01*
X134392652Y-171532630D01*
X134258478Y-171544369D01*
X134154912Y-171519629D01*
X135006914Y-171985895D02*
X135074002Y-171980025D01*
X135177567Y-172004765D01*
X135359959Y-172157810D01*
X135402306Y-172255506D01*
X135408176Y-172322593D01*
X135383436Y-172426159D01*
X135322218Y-172499115D01*
X135193913Y-172577941D01*
X134388866Y-172648374D01*
X134863084Y-173046290D01*
X135783435Y-173134771D02*
X135862261Y-173263076D01*
X135868131Y-173330164D01*
X135843391Y-173433729D01*
X135751564Y-173543164D01*
X135653868Y-173585512D01*
X135586781Y-173591381D01*
X135483215Y-173566642D01*
X135191389Y-173321770D01*
X135834177Y-172555726D01*
X136089525Y-172769988D01*
X136131872Y-172867684D01*
X136137742Y-172934772D01*
X136113002Y-173038337D01*
X136051784Y-173111294D01*
X135954088Y-173153642D01*
X135887001Y-173159511D01*
X135783435Y-173134771D01*
X135528087Y-172920509D01*
X132928708Y-178733437D02*
X132490969Y-178366130D01*
X132709839Y-178549783D02*
X133352626Y-177783739D01*
X133187843Y-177831956D01*
X133053668Y-177843695D01*
X132950103Y-177818955D01*
X118470249Y-160895762D02*
X119409942Y-160553742D01*
X119491375Y-160777478D01*
X119495488Y-160928007D01*
X119438567Y-161050075D01*
X119365359Y-161127395D01*
X119202656Y-161237289D01*
X119068415Y-161286149D01*
X118873139Y-161306549D01*
X118767358Y-161294375D01*
X118645290Y-161237454D01*
X118551682Y-161119499D01*
X118470249Y-160895762D01*
X119914829Y-161940907D02*
X119751962Y-161493435D01*
X119288202Y-161611554D01*
X119349236Y-161640015D01*
X119426557Y-161713223D01*
X119507990Y-161936959D01*
X119495816Y-162042740D01*
X119467356Y-162103774D01*
X119394148Y-162181095D01*
X119170412Y-162262528D01*
X119064630Y-162250354D01*
X119003596Y-162221894D01*
X118926276Y-162148686D01*
X118844843Y-161924949D01*
X118857016Y-161819168D01*
X118885477Y-161758134D01*
X121216439Y-150584686D02*
X120358180Y-151150442D01*
X121094536Y-151085131D01*
X120488473Y-151508420D01*
X121509599Y-151390136D01*
X120728661Y-152029101D02*
X120732774Y-152179629D01*
X120814207Y-152403366D01*
X120891527Y-152476573D01*
X120952561Y-152505034D01*
X121058343Y-152517208D01*
X121147837Y-152484635D01*
X121221045Y-152407314D01*
X121249506Y-152346280D01*
X121261680Y-152240499D01*
X121241280Y-152045223D01*
X121253454Y-151939442D01*
X121281915Y-151878408D01*
X121355123Y-151801087D01*
X121444617Y-151768514D01*
X121550398Y-151780688D01*
X121611432Y-151809149D01*
X121688753Y-151882356D01*
X121770186Y-152106093D01*
X121774299Y-152256621D01*
X121859845Y-152630886D02*
X121920879Y-152659347D01*
X121998200Y-152732555D01*
X122079633Y-152956291D01*
X122067459Y-153062072D01*
X122038998Y-153123106D01*
X121965791Y-153200427D01*
X121876296Y-153233000D01*
X121725768Y-153237113D01*
X120993360Y-152895586D01*
X121205087Y-153477300D01*
X121937494Y-153818827D02*
X121949668Y-153713046D01*
X121978129Y-153652012D01*
X122051337Y-153574691D01*
X122096084Y-153558405D01*
X122201865Y-153570579D01*
X122262899Y-153599039D01*
X122340220Y-153672247D01*
X122405366Y-153851236D01*
X122393193Y-153957017D01*
X122364732Y-154018051D01*
X122291524Y-154095372D01*
X122246777Y-154111659D01*
X122140996Y-154099485D01*
X122079962Y-154071024D01*
X122002641Y-153997816D01*
X121937494Y-153818827D01*
X121860174Y-153745619D01*
X121799140Y-153717159D01*
X121693359Y-153704985D01*
X121514369Y-153770131D01*
X121441162Y-153847452D01*
X121412701Y-153908486D01*
X121400527Y-154014267D01*
X121465674Y-154193256D01*
X121542994Y-154266464D01*
X121604028Y-154294925D01*
X121709810Y-154307099D01*
X121888799Y-154241952D01*
X121962007Y-154164631D01*
X121990467Y-154103597D01*
X122002641Y-153997816D01*
X121856554Y-155267191D02*
X121661114Y-154730224D01*
X121758834Y-154998707D02*
X122698527Y-154656687D01*
X122531711Y-154616052D01*
X122409644Y-154559131D01*
X122332323Y-154485923D01*
X122837045Y-155315722D02*
X122898079Y-155344183D01*
X122975400Y-155417391D01*
X123056833Y-155641127D01*
X123044659Y-155746908D01*
X123016199Y-155807942D01*
X122942991Y-155885263D01*
X122853496Y-155917836D01*
X122702968Y-155921949D01*
X121970561Y-155580422D01*
X122182287Y-156162136D01*
X122935094Y-156698939D02*
X122939207Y-156849467D01*
X122910746Y-156910501D01*
X122837538Y-156987822D01*
X122703297Y-157036682D01*
X122597515Y-157024508D01*
X122536482Y-156996048D01*
X122459161Y-156922840D01*
X122328868Y-156564862D01*
X123268560Y-156222841D01*
X123382567Y-156536072D01*
X123370393Y-156641853D01*
X123341932Y-156702887D01*
X123268724Y-156780208D01*
X123179230Y-156812781D01*
X123073449Y-156800607D01*
X123012415Y-156772147D01*
X122935094Y-156698939D01*
X122821087Y-156385708D01*
X117663495Y-160120164D02*
X117468055Y-159583196D01*
X117565775Y-159851680D02*
X118505468Y-159509660D01*
X118338653Y-159469025D01*
X118216585Y-159412104D01*
X118139264Y-159338896D01*
X112411592Y-124615389D02*
X112359256Y-123616760D01*
X112597025Y-123604299D01*
X112742178Y-123644376D01*
X112842270Y-123734499D01*
X112894808Y-123827115D01*
X112952331Y-124014838D01*
X112959807Y-124157499D01*
X112922222Y-124350206D01*
X112879653Y-124447806D01*
X112789530Y-124547898D01*
X112649361Y-124602928D01*
X112411592Y-124615389D01*
X113803315Y-123874871D02*
X113838205Y-124540624D01*
X113545608Y-123506901D02*
X113345222Y-124232669D01*
X113963421Y-124200271D01*
X116968179Y-116457007D02*
X115982010Y-116747112D01*
X116705286Y-116899944D01*
X116001948Y-117127542D01*
X117013038Y-117312975D01*
X116079408Y-117695696D02*
X116039331Y-117840849D01*
X116051792Y-118078618D01*
X116104330Y-118171233D01*
X116154376Y-118216295D01*
X116251976Y-118258864D01*
X116347083Y-118253880D01*
X116439699Y-118201342D01*
X116484760Y-118151296D01*
X116527330Y-118053696D01*
X116564915Y-117860989D01*
X116607484Y-117763389D01*
X116652546Y-117713343D01*
X116745161Y-117660805D01*
X116840269Y-117655821D01*
X116937868Y-117698390D01*
X116987914Y-117743452D01*
X117040452Y-117836067D01*
X117052913Y-118073836D01*
X117012836Y-118218989D01*
X116985220Y-118601912D02*
X117035266Y-118646974D01*
X117087804Y-118739589D01*
X117100265Y-118977358D01*
X117057696Y-119074958D01*
X117012634Y-119125004D01*
X116920019Y-119177542D01*
X116824911Y-119182526D01*
X116679757Y-119142449D01*
X116079206Y-118601710D01*
X116111604Y-119219909D01*
X116712156Y-119760648D02*
X116754725Y-119663048D01*
X116799787Y-119613002D01*
X116892402Y-119560464D01*
X116939956Y-119557972D01*
X117037556Y-119600541D01*
X117087602Y-119645603D01*
X117140140Y-119738218D01*
X117150109Y-119928434D01*
X117107539Y-120026033D01*
X117062478Y-120076079D01*
X116969862Y-120128617D01*
X116922309Y-120131110D01*
X116824709Y-120088540D01*
X116774663Y-120043479D01*
X116722125Y-119950863D01*
X116712156Y-119760648D01*
X116659618Y-119668033D01*
X116609572Y-119622971D01*
X116511972Y-119580402D01*
X116321757Y-119590370D01*
X116229141Y-119642909D01*
X116184080Y-119692955D01*
X116141510Y-119790554D01*
X116151479Y-119980770D01*
X116204017Y-120073385D01*
X116254063Y-120118447D01*
X116351663Y-120161016D01*
X116541878Y-120151047D01*
X116634494Y-120098509D01*
X116679555Y-120048463D01*
X116722125Y-119950863D01*
X116211292Y-121122060D02*
X116181385Y-120551415D01*
X116196339Y-120836738D02*
X117194968Y-120784402D01*
X117047322Y-120696771D01*
X116947230Y-120606648D01*
X116894692Y-120514032D01*
X117134751Y-121455139D02*
X117184797Y-121500201D01*
X117237335Y-121592816D01*
X117249796Y-121830585D01*
X117207227Y-121928185D01*
X117162165Y-121978231D01*
X117069550Y-122030769D01*
X116974442Y-122035753D01*
X116829289Y-121995676D01*
X116228737Y-121454937D01*
X116261135Y-122073136D01*
X116824102Y-122806583D02*
X116784025Y-122951736D01*
X116738963Y-123001782D01*
X116646348Y-123054320D01*
X116503687Y-123061797D01*
X116406087Y-123019228D01*
X116356041Y-122974166D01*
X116303503Y-122881551D01*
X116283565Y-122501120D01*
X117282195Y-122448784D01*
X117299640Y-122781661D01*
X117257071Y-122879261D01*
X117212009Y-122929307D01*
X117119394Y-122981845D01*
X117024286Y-122986829D01*
X116926686Y-122944260D01*
X116876640Y-122899198D01*
X116824102Y-122806583D01*
X116806657Y-122473706D01*
X110782579Y-124537048D02*
X110752672Y-123966403D01*
X110767626Y-124251725D02*
X111766255Y-124199389D01*
X111618609Y-124111758D01*
X111518517Y-124021635D01*
X111465979Y-123929020D01*
X115495933Y-86405030D02*
X114530007Y-86146211D01*
X114591631Y-85916228D01*
X114674601Y-85790563D01*
X114791244Y-85723220D01*
X114895561Y-85701873D01*
X115091872Y-85705175D01*
X115229861Y-85742149D01*
X115401522Y-85837445D01*
X115481191Y-85908091D01*
X115548534Y-86024733D01*
X115557556Y-86175047D01*
X115495933Y-86405030D01*
X114764177Y-85272278D02*
X114924398Y-84674324D01*
X115206097Y-85094897D01*
X115243071Y-84956907D01*
X115313717Y-84877239D01*
X115372038Y-84843567D01*
X115476356Y-84822220D01*
X115706338Y-84883844D01*
X115786006Y-84954490D01*
X115819678Y-85012811D01*
X115841025Y-85117128D01*
X115767077Y-85393107D01*
X115696431Y-85472775D01*
X115638110Y-85506447D01*
X119078175Y-85490296D02*
X120105725Y-85519132D01*
X119465077Y-85150276D01*
X120204322Y-85151161D01*
X119300020Y-84662359D01*
X120306223Y-84586878D02*
X120389193Y-84461214D01*
X120450817Y-84231231D01*
X120429470Y-84126914D01*
X120395798Y-84068593D01*
X120316130Y-83997947D01*
X120224137Y-83973297D01*
X120119819Y-83994644D01*
X120061498Y-84028316D01*
X119990852Y-84107984D01*
X119895557Y-84279645D01*
X119824911Y-84359314D01*
X119766590Y-84392985D01*
X119662272Y-84414332D01*
X119570279Y-84389683D01*
X119490611Y-84319037D01*
X119456939Y-84260716D01*
X119435592Y-84156398D01*
X119497216Y-83926416D01*
X119580186Y-83800751D01*
X119724781Y-83445104D02*
X119691109Y-83386783D01*
X119669762Y-83282465D01*
X119731385Y-83052483D01*
X119802031Y-82972815D01*
X119860352Y-82939143D01*
X119964670Y-82917796D01*
X120056663Y-82942445D01*
X120182328Y-83025416D01*
X120586389Y-83725270D01*
X120746610Y-83127316D01*
X120342549Y-82427462D02*
X120271903Y-82507130D01*
X120213582Y-82540802D01*
X120109264Y-82562149D01*
X120063268Y-82549824D01*
X119983600Y-82479178D01*
X119949928Y-82420857D01*
X119928581Y-82316539D01*
X119977880Y-82132554D01*
X120048526Y-82052885D01*
X120106847Y-82019214D01*
X120211164Y-81997867D01*
X120257161Y-82010191D01*
X120336829Y-82080837D01*
X120370501Y-82139158D01*
X120391848Y-82243476D01*
X120342549Y-82427462D01*
X120363896Y-82531780D01*
X120397568Y-82590101D01*
X120477236Y-82660747D01*
X120661222Y-82710046D01*
X120765540Y-82688699D01*
X120823861Y-82655027D01*
X120894507Y-82575359D01*
X120943805Y-82391373D01*
X120922458Y-82287055D01*
X120888787Y-82228734D01*
X120809118Y-82158088D01*
X120625133Y-82108789D01*
X120520815Y-82130136D01*
X120462494Y-82163808D01*
X120391848Y-82243476D01*
X121239599Y-81287457D02*
X121091702Y-81839415D01*
X121165650Y-81563436D02*
X120199725Y-81304617D01*
X120313064Y-81433584D01*
X120380408Y-81550227D01*
X120401755Y-81654544D01*
X120464263Y-80685316D02*
X120430592Y-80626995D01*
X120409245Y-80522677D01*
X120470868Y-80292695D01*
X120541514Y-80213027D01*
X120599835Y-80179355D01*
X120704153Y-80158008D01*
X120796146Y-80182657D01*
X120921811Y-80265628D01*
X121325872Y-80965482D01*
X121486093Y-80367528D01*
X121177327Y-79496013D02*
X121260298Y-79370348D01*
X121318619Y-79336676D01*
X121422937Y-79315329D01*
X121560926Y-79352303D01*
X121640594Y-79422949D01*
X121674266Y-79481270D01*
X121695613Y-79585588D01*
X121597015Y-79953560D01*
X120631090Y-79694741D01*
X120717363Y-79372766D01*
X120788009Y-79293097D01*
X120846330Y-79259426D01*
X120950647Y-79238079D01*
X121042640Y-79262728D01*
X121122309Y-79333374D01*
X121155980Y-79391695D01*
X121177327Y-79496013D01*
X121091054Y-79817988D01*
X114310914Y-84716105D02*
X114163018Y-85268063D01*
X114236966Y-84992084D02*
X113271040Y-84733265D01*
X113384380Y-84862232D01*
X113451724Y-84978875D01*
X113473071Y-85083192D01*
X127842090Y-54211718D02*
X127043455Y-53609903D01*
X127186744Y-53419752D01*
X127310748Y-53334319D01*
X127444124Y-53315574D01*
X127548842Y-53334860D01*
X127729621Y-53411461D01*
X127843712Y-53497434D01*
X127967175Y-53650096D01*
X128014578Y-53745442D01*
X128033323Y-53878818D01*
X127985379Y-54021567D01*
X127842090Y-54211718D01*
X127692672Y-52906614D02*
X127683300Y-52839926D01*
X127702585Y-52735207D01*
X127845875Y-52545056D01*
X127941221Y-52497653D01*
X128007909Y-52488281D01*
X128112627Y-52507566D01*
X128188688Y-52564882D01*
X128274121Y-52688886D01*
X128386589Y-53489143D01*
X128759142Y-52994750D01*
X131590472Y-54295797D02*
X132532397Y-54707461D01*
X132076575Y-54125472D01*
X132761660Y-54403219D01*
X132106314Y-53611253D01*
X133067524Y-53918198D02*
X133191528Y-53832765D01*
X133334817Y-53642614D01*
X133354103Y-53537895D01*
X133344730Y-53471207D01*
X133297328Y-53375861D01*
X133221267Y-53318546D01*
X133116549Y-53299260D01*
X133049861Y-53308632D01*
X132954515Y-53356035D01*
X132801853Y-53479498D01*
X132706507Y-53526901D01*
X132639819Y-53536273D01*
X132535100Y-53516988D01*
X132459040Y-53459672D01*
X132411637Y-53364326D01*
X132402265Y-53297638D01*
X132421550Y-53192920D01*
X132564840Y-53002768D01*
X132688843Y-52917336D01*
X132956136Y-52641751D02*
X132946764Y-52575063D01*
X132966050Y-52470345D01*
X133109339Y-52280193D01*
X133204685Y-52232791D01*
X133271373Y-52223418D01*
X133376091Y-52242704D01*
X133452152Y-52300020D01*
X133537585Y-52424023D01*
X133650054Y-53224281D01*
X134022606Y-52729887D01*
X133910137Y-51929630D02*
X133814791Y-51977033D01*
X133748103Y-51986405D01*
X133643384Y-51967120D01*
X133605354Y-51938462D01*
X133557952Y-51843116D01*
X133548579Y-51776428D01*
X133567865Y-51671709D01*
X133682496Y-51519588D01*
X133777842Y-51472186D01*
X133844530Y-51462813D01*
X133949248Y-51482099D01*
X133987279Y-51510756D01*
X134034681Y-51606102D01*
X134044054Y-51672791D01*
X134024768Y-51777509D01*
X133910137Y-51929630D01*
X133890851Y-52034348D01*
X133900224Y-52101036D01*
X133947627Y-52196382D01*
X134099748Y-52311014D01*
X134204466Y-52330299D01*
X134271154Y-52320927D01*
X134366500Y-52273524D01*
X134481131Y-52121403D01*
X134500417Y-52016685D01*
X134491045Y-51949997D01*
X134443642Y-51854651D01*
X134291521Y-51740019D01*
X134186802Y-51720734D01*
X134120114Y-51730106D01*
X134024768Y-51777509D01*
X135168920Y-51208677D02*
X134825026Y-51665040D01*
X134996973Y-51436859D02*
X134198337Y-50835043D01*
X134255113Y-50997078D01*
X134273857Y-51130454D01*
X134254572Y-51235172D01*
X134675608Y-50359936D02*
X134666236Y-50293247D01*
X134685521Y-50188529D01*
X134828810Y-49998378D01*
X134924156Y-49950975D01*
X134990844Y-49941603D01*
X135095563Y-49960888D01*
X135171623Y-50018204D01*
X135257056Y-50142208D01*
X135369525Y-50942465D01*
X135742077Y-50448072D01*
X135782270Y-49524351D02*
X135906274Y-49438918D01*
X135972962Y-49429546D01*
X136077680Y-49448831D01*
X136191771Y-49534805D01*
X136239174Y-49630151D01*
X136248546Y-49696839D01*
X136229261Y-49801557D01*
X135999998Y-50105799D01*
X135201362Y-49503984D01*
X135401967Y-49237772D01*
X135497313Y-49190370D01*
X135564002Y-49180997D01*
X135668720Y-49200283D01*
X135744780Y-49257599D01*
X135792183Y-49352945D01*
X135801556Y-49419633D01*
X135782270Y-49524351D01*
X135581665Y-49790563D01*
X127582885Y-51970501D02*
X127238991Y-52426864D01*
X127410938Y-52198682D02*
X126612302Y-51596867D01*
X126669078Y-51758901D01*
X126687822Y-51892277D01*
X126668537Y-51996996D01*
X152386904Y-33277380D02*
X152386904Y-32277380D01*
X152625000Y-32277380D01*
X152767857Y-32325000D01*
X152863095Y-32420238D01*
X152910714Y-32515476D01*
X152958333Y-32705952D01*
X152958333Y-32848809D01*
X152910714Y-33039285D01*
X152863095Y-33134523D01*
X152767857Y-33229761D01*
X152625000Y-33277380D01*
X152386904Y-33277380D01*
X153910714Y-33277380D02*
X153339285Y-33277380D01*
X153625000Y-33277380D02*
X153625000Y-32277380D01*
X153529761Y-32420238D01*
X153434523Y-32515476D01*
X153339285Y-32563095D01*
X154320476Y-36232380D02*
X154558571Y-37232380D01*
X154749047Y-36518095D01*
X154939523Y-37232380D01*
X155177619Y-36232380D01*
X155510952Y-37184761D02*
X155653809Y-37232380D01*
X155891904Y-37232380D01*
X155987142Y-37184761D01*
X156034761Y-37137142D01*
X156082380Y-37041904D01*
X156082380Y-36946666D01*
X156034761Y-36851428D01*
X155987142Y-36803809D01*
X155891904Y-36756190D01*
X155701428Y-36708571D01*
X155606190Y-36660952D01*
X155558571Y-36613333D01*
X155510952Y-36518095D01*
X155510952Y-36422857D01*
X155558571Y-36327619D01*
X155606190Y-36280000D01*
X155701428Y-36232380D01*
X155939523Y-36232380D01*
X156082380Y-36280000D01*
X156463333Y-36327619D02*
X156510952Y-36280000D01*
X156606190Y-36232380D01*
X156844285Y-36232380D01*
X156939523Y-36280000D01*
X156987142Y-36327619D01*
X157034761Y-36422857D01*
X157034761Y-36518095D01*
X156987142Y-36660952D01*
X156415714Y-37232380D01*
X157034761Y-37232380D01*
X157606190Y-36660952D02*
X157510952Y-36613333D01*
X157463333Y-36565714D01*
X157415714Y-36470476D01*
X157415714Y-36422857D01*
X157463333Y-36327619D01*
X157510952Y-36280000D01*
X157606190Y-36232380D01*
X157796666Y-36232380D01*
X157891904Y-36280000D01*
X157939523Y-36327619D01*
X157987142Y-36422857D01*
X157987142Y-36470476D01*
X157939523Y-36565714D01*
X157891904Y-36613333D01*
X157796666Y-36660952D01*
X157606190Y-36660952D01*
X157510952Y-36708571D01*
X157463333Y-36756190D01*
X157415714Y-36851428D01*
X157415714Y-37041904D01*
X157463333Y-37137142D01*
X157510952Y-37184761D01*
X157606190Y-37232380D01*
X157796666Y-37232380D01*
X157891904Y-37184761D01*
X157939523Y-37137142D01*
X157987142Y-37041904D01*
X157987142Y-36851428D01*
X157939523Y-36756190D01*
X157891904Y-36708571D01*
X157796666Y-36660952D01*
X158939523Y-37232380D02*
X158368095Y-37232380D01*
X158653809Y-37232380D02*
X158653809Y-36232380D01*
X158558571Y-36375238D01*
X158463333Y-36470476D01*
X158368095Y-36518095D01*
X159320476Y-36327619D02*
X159368095Y-36280000D01*
X159463333Y-36232380D01*
X159701428Y-36232380D01*
X159796666Y-36280000D01*
X159844285Y-36327619D01*
X159891904Y-36422857D01*
X159891904Y-36518095D01*
X159844285Y-36660952D01*
X159272857Y-37232380D01*
X159891904Y-37232380D01*
X160653809Y-36708571D02*
X160796666Y-36756190D01*
X160844285Y-36803809D01*
X160891904Y-36899047D01*
X160891904Y-37041904D01*
X160844285Y-37137142D01*
X160796666Y-37184761D01*
X160701428Y-37232380D01*
X160320476Y-37232380D01*
X160320476Y-36232380D01*
X160653809Y-36232380D01*
X160749047Y-36280000D01*
X160796666Y-36327619D01*
X160844285Y-36422857D01*
X160844285Y-36518095D01*
X160796666Y-36613333D01*
X160749047Y-36660952D01*
X160653809Y-36708571D01*
X160320476Y-36708571D01*
X153765714Y-31632380D02*
X153194285Y-31632380D01*
X153480000Y-31632380D02*
X153480000Y-30632380D01*
X153384761Y-30775238D01*
X153289523Y-30870476D01*
X153194285Y-30918095D01*
X123105609Y-78955073D02*
X123066982Y-79010237D01*
X122934565Y-79081940D01*
X122840773Y-79098478D01*
X122691818Y-79076389D01*
X122581488Y-78999135D01*
X122518055Y-78913613D01*
X122438083Y-78734300D01*
X122413277Y-78593613D01*
X122427096Y-78397762D01*
X122457454Y-78295701D01*
X122534707Y-78185372D01*
X122667125Y-78113670D01*
X122760916Y-78097132D01*
X122909872Y-78119221D01*
X122965037Y-78157847D01*
X124060059Y-78883485D02*
X123497312Y-78982712D01*
X123778685Y-78933098D02*
X123605037Y-77948291D01*
X123536053Y-78105515D01*
X123458800Y-78215844D01*
X123373277Y-78279278D01*
X124730532Y-77749835D02*
X124542949Y-77782911D01*
X124457427Y-77846345D01*
X124418800Y-77901509D01*
X124349816Y-78058734D01*
X124335996Y-78254586D01*
X124402148Y-78629750D01*
X124465582Y-78715273D01*
X124520746Y-78753899D01*
X124622806Y-78784257D01*
X124810389Y-78751181D01*
X124895911Y-78687748D01*
X124934538Y-78632583D01*
X124964895Y-78530523D01*
X124923551Y-78296045D01*
X124860117Y-78210523D01*
X124804952Y-78171896D01*
X124702892Y-78141538D01*
X124515310Y-78174614D01*
X124429788Y-78238048D01*
X124391161Y-78293212D01*
X124360803Y-78395272D01*
X122664445Y-81114970D02*
X122703072Y-81059805D01*
X122788594Y-80996371D01*
X123023072Y-80955027D01*
X123125132Y-80985384D01*
X123180297Y-81024011D01*
X123243731Y-81109533D01*
X123260268Y-81203324D01*
X123238180Y-81352280D01*
X122774660Y-82014255D01*
X123384303Y-81906759D01*
X123789825Y-81738547D02*
X123844990Y-81777173D01*
X123806363Y-81832338D01*
X123751199Y-81793711D01*
X123789825Y-81738547D01*
X123806363Y-81832338D01*
X124071314Y-80866901D02*
X124109940Y-80811736D01*
X124195462Y-80748303D01*
X124429941Y-80706958D01*
X124532001Y-80737315D01*
X124587165Y-80775942D01*
X124650599Y-80861464D01*
X124667137Y-80955256D01*
X124645048Y-81104211D01*
X124181528Y-81766186D01*
X124791171Y-81658690D01*
X125519527Y-80853310D02*
X125635292Y-81509848D01*
X125097466Y-80927731D02*
X125188425Y-81443582D01*
X125251858Y-81529105D01*
X125353918Y-81559462D01*
X125494605Y-81534655D01*
X125580127Y-81471222D01*
X125618754Y-81416057D01*
X143438942Y-37199845D02*
X143373893Y-37182416D01*
X143261225Y-37082507D01*
X143213606Y-37000029D01*
X143183417Y-36852501D01*
X143218277Y-36722403D01*
X143276946Y-36633545D01*
X143418093Y-36497068D01*
X143541811Y-36425639D01*
X143730578Y-36371640D01*
X143836866Y-36365261D01*
X143966964Y-36400120D01*
X144079632Y-36500029D01*
X144127251Y-36582507D01*
X144157440Y-36730035D01*
X144140010Y-36795083D01*
X143832654Y-38072250D02*
X143546940Y-37577379D01*
X143689797Y-37824815D02*
X144555822Y-37324815D01*
X144384485Y-37313765D01*
X144254388Y-37278905D01*
X144165529Y-37220236D01*
X145151060Y-38355797D02*
X144912965Y-37943404D01*
X144476763Y-38140260D01*
X144541811Y-38157690D01*
X144630670Y-38216359D01*
X144749717Y-38422556D01*
X144756097Y-38528844D01*
X144738667Y-38593892D01*
X144679998Y-38682751D01*
X144473802Y-38801798D01*
X144367514Y-38808178D01*
X144302465Y-38790748D01*
X144213606Y-38732079D01*
X144094559Y-38525883D01*
X144088179Y-38419595D01*
X144105609Y-38354546D01*
X141459943Y-37682593D02*
X141507562Y-37765071D01*
X141513941Y-37871359D01*
X141496512Y-37936408D01*
X141437843Y-38025267D01*
X141296695Y-38161744D01*
X141090498Y-38280792D01*
X140901732Y-38334790D01*
X140795443Y-38341170D01*
X140730395Y-38323740D01*
X140641536Y-38265071D01*
X140593917Y-38182593D01*
X140587538Y-38076305D01*
X140604967Y-38011256D01*
X140663636Y-37922397D01*
X140804784Y-37785920D01*
X141010981Y-37666872D01*
X141199747Y-37612874D01*
X141306035Y-37606494D01*
X141371084Y-37623924D01*
X141459943Y-37682593D01*
X141057348Y-38794803D02*
X141039918Y-38859851D01*
X140974870Y-38842422D01*
X140992299Y-38777373D01*
X141057348Y-38794803D01*
X140974870Y-38842422D01*
X141474870Y-39708447D02*
X141189155Y-39213575D01*
X141332012Y-39461011D02*
X142198038Y-38961011D01*
X142026701Y-38949961D01*
X141896603Y-38915102D01*
X141807745Y-38856432D01*
X142480791Y-40117421D02*
X141903441Y-40450754D01*
X142266506Y-39746267D02*
X141812873Y-40008172D01*
X141754204Y-40097031D01*
X141760584Y-40203319D01*
X141832012Y-40327037D01*
X141920871Y-40385706D01*
X141985920Y-40403135D01*
X122871056Y-86118495D02*
X122812735Y-86152167D01*
X122662421Y-86161189D01*
X122570428Y-86136540D01*
X122444763Y-86053569D01*
X122377419Y-85936927D01*
X122356072Y-85832609D01*
X122359375Y-85636299D01*
X122396349Y-85498309D01*
X122491644Y-85326648D01*
X122562290Y-85246980D01*
X122678932Y-85179636D01*
X122829247Y-85170614D01*
X122921240Y-85195264D01*
X123046904Y-85278234D01*
X123080576Y-85336555D01*
X123766336Y-86456983D02*
X123214378Y-86309086D01*
X123490357Y-86383034D02*
X123749176Y-85417108D01*
X123620209Y-85530448D01*
X123503567Y-85597792D01*
X123399249Y-85619139D01*
X124766818Y-86034877D02*
X124594272Y-86678827D01*
X124635434Y-85605282D02*
X124220580Y-86233605D01*
X124818535Y-86393826D01*
X121353081Y-87735967D02*
X121445074Y-87760616D01*
X121524742Y-87831262D01*
X121558414Y-87889583D01*
X121579761Y-87993901D01*
X121576459Y-88190211D01*
X121514835Y-88420194D01*
X121419540Y-88591855D01*
X121348894Y-88671523D01*
X121290573Y-88705195D01*
X121186255Y-88726542D01*
X121094262Y-88701893D01*
X121014594Y-88631247D01*
X120980922Y-88572925D01*
X120959575Y-88468608D01*
X120962877Y-88272297D01*
X121024501Y-88042315D01*
X121119796Y-87870654D01*
X121190442Y-87790985D01*
X121248763Y-87757314D01*
X121353081Y-87735967D01*
X121854855Y-88807095D02*
X121888527Y-88865416D01*
X121830206Y-88899088D01*
X121796534Y-88840767D01*
X121854855Y-88807095D01*
X121830206Y-88899088D01*
X122732975Y-88105708D02*
X122824968Y-88130358D01*
X122904636Y-88201004D01*
X122938308Y-88259325D01*
X122959655Y-88363642D01*
X122956353Y-88559953D01*
X122894729Y-88789935D01*
X122799434Y-88961596D01*
X122728788Y-89041265D01*
X122670467Y-89074936D01*
X122566149Y-89096283D01*
X122474156Y-89071634D01*
X122394488Y-89000988D01*
X122360816Y-88942667D01*
X122339469Y-88838349D01*
X122342772Y-88642039D01*
X122404395Y-88412056D01*
X122499690Y-88240395D01*
X122570336Y-88160727D01*
X122628658Y-88127055D01*
X122732975Y-88105708D01*
X123716061Y-89404401D02*
X123164103Y-89256505D01*
X123440082Y-89330453D02*
X123698901Y-88364527D01*
X123569934Y-88477867D01*
X123453292Y-88545211D01*
X123348974Y-88566558D01*
X124716543Y-88982296D02*
X124543997Y-89626246D01*
X124302575Y-88871373D02*
X124167003Y-89377334D01*
X124188350Y-89481652D01*
X124268018Y-89552298D01*
X124406008Y-89589272D01*
X124510325Y-89567925D01*
X124568647Y-89534253D01*
X183846199Y-30588933D02*
X183807572Y-30644097D01*
X183675155Y-30715800D01*
X183581363Y-30732338D01*
X183432408Y-30710249D01*
X183322078Y-30632996D01*
X183258645Y-30547474D01*
X183178673Y-30368160D01*
X183153867Y-30227473D01*
X183167686Y-30031622D01*
X183198044Y-29929562D01*
X183275297Y-29819233D01*
X183407715Y-29747530D01*
X183501506Y-29730992D01*
X183650462Y-29753081D01*
X183705627Y-29791708D01*
X184017358Y-29640034D02*
X184627001Y-29532537D01*
X184364883Y-29965585D01*
X184505570Y-29940778D01*
X184607630Y-29971136D01*
X184662795Y-30009762D01*
X184726229Y-30095284D01*
X184767573Y-30329762D01*
X184737216Y-30431823D01*
X184698589Y-30486987D01*
X184613067Y-30550421D01*
X184331693Y-30600035D01*
X184229633Y-30569677D01*
X184174468Y-30531050D01*
X183366103Y-27866174D02*
X182803356Y-27965402D01*
X183084729Y-27915788D02*
X182911081Y-26930980D01*
X182842097Y-27088205D01*
X182764844Y-27198534D01*
X182679321Y-27261968D01*
X184094458Y-27060794D02*
X184210224Y-27717333D01*
X183672398Y-27135215D02*
X183763357Y-27651067D01*
X183826790Y-27736589D01*
X183928850Y-27766947D01*
X184069537Y-27742140D01*
X184155059Y-27678706D01*
X184193686Y-27623542D01*
X122060323Y-64834841D02*
X121999289Y-64863301D01*
X121848761Y-64859188D01*
X121759266Y-64826615D01*
X121641311Y-64733008D01*
X121584390Y-64610940D01*
X121572216Y-64505159D01*
X121592615Y-64309883D01*
X121641475Y-64175641D01*
X121751369Y-64012939D01*
X121828690Y-63939731D01*
X121950758Y-63882810D01*
X122101286Y-63886923D01*
X122190781Y-63919496D01*
X122308736Y-64013103D01*
X122337196Y-64074137D01*
X122695175Y-64204430D02*
X122756209Y-64175970D01*
X122861990Y-64163796D01*
X123085726Y-64245229D01*
X123158934Y-64322550D01*
X123187395Y-64383584D01*
X123199568Y-64489365D01*
X123166995Y-64578860D01*
X123073388Y-64696815D01*
X122340981Y-65038342D01*
X122922695Y-65250069D01*
X121049572Y-67611855D02*
X120512604Y-67416415D01*
X120781088Y-67514135D02*
X121123108Y-66574443D01*
X120984754Y-66676111D01*
X120862686Y-66733032D01*
X120756905Y-66745206D01*
X122083036Y-67278554D02*
X121855022Y-67905015D01*
X121680311Y-67131973D02*
X121501157Y-67624193D01*
X121513331Y-67729975D01*
X121586539Y-67807295D01*
X121720781Y-67856155D01*
X121826562Y-67843981D01*
X121887596Y-67815521D01*
X111232142Y-115882142D02*
X111184523Y-115929761D01*
X111041666Y-115977380D01*
X110946428Y-115977380D01*
X110803571Y-115929761D01*
X110708333Y-115834523D01*
X110660714Y-115739285D01*
X110613095Y-115548809D01*
X110613095Y-115405952D01*
X110660714Y-115215476D01*
X110708333Y-115120238D01*
X110803571Y-115025000D01*
X110946428Y-114977380D01*
X111041666Y-114977380D01*
X111184523Y-115025000D01*
X111232142Y-115072619D01*
X112184523Y-115977380D02*
X111613095Y-115977380D01*
X111898809Y-115977380D02*
X111898809Y-114977380D01*
X111803571Y-115120238D01*
X111708333Y-115215476D01*
X111613095Y-115263095D01*
X112517857Y-114977380D02*
X113136904Y-114977380D01*
X112803571Y-115358333D01*
X112946428Y-115358333D01*
X113041666Y-115405952D01*
X113089285Y-115453571D01*
X113136904Y-115548809D01*
X113136904Y-115786904D01*
X113089285Y-115882142D01*
X113041666Y-115929761D01*
X112946428Y-115977380D01*
X112660714Y-115977380D01*
X112565476Y-115929761D01*
X112517857Y-115882142D01*
X111744642Y-114332380D02*
X111173214Y-114332380D01*
X111458928Y-114332380D02*
X111458928Y-113332380D01*
X111363690Y-113475238D01*
X111268452Y-113570476D01*
X111173214Y-113618095D01*
X112363690Y-113332380D02*
X112458928Y-113332380D01*
X112554166Y-113380000D01*
X112601785Y-113427619D01*
X112649404Y-113522857D01*
X112697023Y-113713333D01*
X112697023Y-113951428D01*
X112649404Y-114141904D01*
X112601785Y-114237142D01*
X112554166Y-114284761D01*
X112458928Y-114332380D01*
X112363690Y-114332380D01*
X112268452Y-114284761D01*
X112220833Y-114237142D01*
X112173214Y-114141904D01*
X112125595Y-113951428D01*
X112125595Y-113713333D01*
X112173214Y-113522857D01*
X112220833Y-113427619D01*
X112268452Y-113380000D01*
X112363690Y-113332380D01*
X113554166Y-113665714D02*
X113554166Y-114332380D01*
X113125595Y-113665714D02*
X113125595Y-114189523D01*
X113173214Y-114284761D01*
X113268452Y-114332380D01*
X113411309Y-114332380D01*
X113506547Y-114284761D01*
X113554166Y-114237142D01*
X112778601Y-89778765D02*
X112807061Y-89839799D01*
X112802948Y-89990327D01*
X112770375Y-90079822D01*
X112676768Y-90197777D01*
X112554700Y-90254698D01*
X112448919Y-90266872D01*
X112253643Y-90246473D01*
X112119401Y-90197613D01*
X111956699Y-90087719D01*
X111883491Y-90010398D01*
X111826570Y-89888330D01*
X111830683Y-89737802D01*
X111863256Y-89648307D01*
X111956863Y-89530352D01*
X112017897Y-89501892D01*
X112237849Y-88619120D02*
X112074983Y-89066593D01*
X112506169Y-89274207D01*
X112477708Y-89213173D01*
X112465534Y-89107392D01*
X112546967Y-88883655D01*
X112624288Y-88810447D01*
X112685322Y-88781987D01*
X112791103Y-88769813D01*
X113014840Y-88851246D01*
X113088047Y-88928567D01*
X113116508Y-88989601D01*
X113128682Y-89095382D01*
X113047249Y-89319118D01*
X112969928Y-89392326D01*
X112908894Y-89420787D01*
X112874335Y-91772249D02*
X112678895Y-92309217D01*
X112776615Y-92040733D02*
X111836923Y-91698713D01*
X111938591Y-91837067D01*
X111995512Y-91959135D01*
X112007686Y-92064916D01*
X112541034Y-90738785D02*
X113167495Y-90966799D01*
X112394453Y-91141510D02*
X112886673Y-91320664D01*
X112992455Y-91308490D01*
X113069775Y-91235282D01*
X113118635Y-91101040D01*
X113106461Y-90995259D01*
X113078001Y-90934225D01*
X123538109Y-166446763D02*
X123526415Y-166513083D01*
X123436706Y-166634030D01*
X123358692Y-166688656D01*
X123214357Y-166731589D01*
X123081716Y-166708200D01*
X122988083Y-166657499D01*
X122839823Y-166528783D01*
X122757883Y-166411762D01*
X122687638Y-166228419D01*
X122672019Y-166123092D01*
X122695407Y-165990451D01*
X122785115Y-165869504D01*
X122863130Y-165814878D01*
X123007465Y-165771946D01*
X123073785Y-165783640D01*
X124372880Y-165978514D02*
X123904793Y-166306272D01*
X124138837Y-166142393D02*
X123565260Y-165323241D01*
X123569185Y-165494889D01*
X123545797Y-165627530D01*
X123495096Y-165721163D01*
X125233163Y-168867551D02*
X124765076Y-169195309D01*
X124999120Y-169031430D02*
X124425543Y-168212278D01*
X124429468Y-168383926D01*
X124406080Y-168516567D01*
X124355379Y-168610201D01*
X125552909Y-167829813D02*
X125935294Y-168375914D01*
X125201844Y-168075632D02*
X125502289Y-168504711D01*
X125595922Y-168555412D01*
X125701250Y-168539793D01*
X125818272Y-168457854D01*
X125868973Y-168364220D01*
X125880667Y-168297900D01*
X109613187Y-109565716D02*
X109561599Y-109522428D01*
X109501710Y-109384265D01*
X109493410Y-109289389D01*
X109528397Y-109142925D01*
X109614972Y-109039749D01*
X109705697Y-108984011D01*
X109891298Y-108919972D01*
X110033612Y-108907521D01*
X110227514Y-108938358D01*
X110326539Y-108977495D01*
X110429716Y-109064070D01*
X110489604Y-109202233D01*
X110497905Y-109297109D01*
X110462918Y-109443573D01*
X110419630Y-109495161D01*
X109601317Y-110522773D02*
X109551513Y-109953519D01*
X109576415Y-110238146D02*
X110572610Y-110150990D01*
X110421996Y-110068565D01*
X110318820Y-109981990D01*
X110263081Y-109891265D01*
X110535838Y-110823421D02*
X110587426Y-110866708D01*
X110643164Y-110957434D01*
X110663916Y-111194623D01*
X110624779Y-111293649D01*
X110581491Y-111345237D01*
X110490766Y-111400975D01*
X110395890Y-111409276D01*
X110249426Y-111374289D01*
X109630369Y-110854838D01*
X109684322Y-111471530D01*
X112899076Y-107888718D02*
X112950664Y-107932005D01*
X113006402Y-108022731D01*
X113027154Y-108259920D01*
X112988016Y-108358946D01*
X112944729Y-108410534D01*
X112854003Y-108466272D01*
X112759128Y-108474573D01*
X112612664Y-108439586D01*
X111993606Y-107920135D01*
X112047560Y-108536827D01*
X112179788Y-108955467D02*
X112136501Y-109007055D01*
X112084912Y-108963768D01*
X112128200Y-108912179D01*
X112179788Y-108955467D01*
X112084912Y-108963768D01*
X113023584Y-109311853D02*
X113075172Y-109355141D01*
X113130910Y-109445866D01*
X113151662Y-109683055D01*
X113112524Y-109782081D01*
X113069237Y-109833669D01*
X112978511Y-109889408D01*
X112883636Y-109897708D01*
X112737172Y-109862721D01*
X112118115Y-109343270D01*
X112172068Y-109959962D01*
X112910903Y-110755740D02*
X112246773Y-110813843D01*
X112873550Y-110328799D02*
X112351734Y-110374452D01*
X112261009Y-110430190D01*
X112221871Y-110529216D01*
X112234322Y-110671530D01*
X112290061Y-110762255D01*
X112341649Y-110805543D01*
X115516594Y-150467631D02*
X115482922Y-150525952D01*
X115357257Y-150608922D01*
X115265264Y-150633572D01*
X115114950Y-150624550D01*
X114998308Y-150557206D01*
X114927662Y-150477538D01*
X114832366Y-150305877D01*
X114795392Y-150167887D01*
X114792090Y-149971577D01*
X114813437Y-149867259D01*
X114880780Y-149750617D01*
X115006445Y-149667646D01*
X115098438Y-149642997D01*
X115248752Y-149652019D01*
X115307073Y-149685691D01*
X116461172Y-150313129D02*
X115909215Y-150461026D01*
X116185194Y-150387078D02*
X115926374Y-149421152D01*
X115871356Y-149583791D01*
X115804012Y-149700433D01*
X115724344Y-149771079D01*
X117381102Y-150066635D02*
X116829144Y-150214532D01*
X117105123Y-150140583D02*
X116846304Y-149174657D01*
X116791285Y-149337296D01*
X116723942Y-149453939D01*
X116644273Y-149524585D01*
X115260986Y-147673828D02*
X114709028Y-147821725D01*
X114985007Y-147747777D02*
X114726188Y-146781851D01*
X114671169Y-146944490D01*
X114603826Y-147061132D01*
X114524157Y-147131778D01*
X115916376Y-146808033D02*
X116088922Y-147451984D01*
X115502408Y-146918955D02*
X115637980Y-147424917D01*
X115708626Y-147504585D01*
X115812943Y-147525932D01*
X115950933Y-147488958D01*
X116030601Y-147418312D01*
X116064273Y-147359991D01*
X113772775Y-97126151D02*
X113811402Y-97181316D01*
X113833491Y-97330272D01*
X113816953Y-97424063D01*
X113745250Y-97556481D01*
X113634921Y-97633734D01*
X113532861Y-97664092D01*
X113337009Y-97677912D01*
X113196323Y-97653105D01*
X113017009Y-97573133D01*
X112931487Y-97509700D01*
X112854234Y-97399371D01*
X112832145Y-97250415D01*
X112848683Y-97156624D01*
X112920385Y-97024206D01*
X112975550Y-96985579D01*
X113403047Y-96480714D02*
X113339613Y-96566237D01*
X113284449Y-96604863D01*
X113182388Y-96635221D01*
X113135493Y-96626952D01*
X113049971Y-96563519D01*
X113011344Y-96508354D01*
X112980986Y-96406294D01*
X113014062Y-96218711D01*
X113077496Y-96133189D01*
X113132660Y-96094562D01*
X113234720Y-96064205D01*
X113281616Y-96072474D01*
X113367138Y-96135907D01*
X113405765Y-96191072D01*
X113436122Y-96293132D01*
X113403047Y-96480714D01*
X113433404Y-96582775D01*
X113472031Y-96637939D01*
X113557553Y-96701373D01*
X113745136Y-96734449D01*
X113847196Y-96704091D01*
X113902360Y-96665464D01*
X113965794Y-96579942D01*
X113998870Y-96392360D01*
X113968512Y-96290299D01*
X113929885Y-96235135D01*
X113844363Y-96171701D01*
X113656781Y-96138625D01*
X113554721Y-96168983D01*
X113499556Y-96207610D01*
X113436122Y-96293132D01*
X114141566Y-95292689D02*
X114042339Y-95855437D01*
X114091953Y-95574063D02*
X113107145Y-95400415D01*
X113231294Y-95519013D01*
X113308547Y-95629342D01*
X113338905Y-95731402D01*
X113633869Y-94332803D02*
X114290408Y-94448568D01*
X113559449Y-94754863D02*
X114075300Y-94845822D01*
X114177360Y-94815464D01*
X114240794Y-94729942D01*
X114265601Y-94589255D01*
X114235243Y-94487195D01*
X114196616Y-94432030D01*
X122381575Y-93198361D02*
X122326410Y-93236987D01*
X122177454Y-93259076D01*
X122083663Y-93242538D01*
X121951245Y-93170836D01*
X121873992Y-93060506D01*
X121843634Y-92958446D01*
X121829814Y-92762595D01*
X121854621Y-92621908D01*
X121934593Y-92442595D01*
X121998026Y-92357072D01*
X122108355Y-92279819D01*
X122257311Y-92257730D01*
X122351102Y-92274268D01*
X122483520Y-92345971D01*
X122522147Y-92401135D01*
X123302949Y-93457531D02*
X122740202Y-93358303D01*
X123021575Y-93407917D02*
X123195223Y-92423109D01*
X123076625Y-92547258D01*
X122966296Y-92624512D01*
X122864236Y-92654869D01*
X124086240Y-92580220D02*
X124180031Y-92596758D01*
X124265553Y-92660191D01*
X124304180Y-92715356D01*
X124334538Y-92817416D01*
X124348357Y-93013267D01*
X124307013Y-93247745D01*
X124227041Y-93427059D01*
X124163608Y-93512581D01*
X124108443Y-93551208D01*
X124006383Y-93581565D01*
X123912592Y-93565028D01*
X123827069Y-93501594D01*
X123788443Y-93446429D01*
X123758085Y-93344369D01*
X123744265Y-93148518D01*
X123785610Y-92914040D01*
X123865582Y-92734726D01*
X123929015Y-92649204D01*
X123984180Y-92610577D01*
X124086240Y-92580220D01*
X123330627Y-90558291D02*
X122767879Y-90459064D01*
X123049253Y-90508678D02*
X123222901Y-89523870D01*
X123104303Y-89648019D01*
X122993974Y-89725272D01*
X122891914Y-89755630D01*
X124290513Y-90050594D02*
X124174748Y-90707133D01*
X123868453Y-89976174D02*
X123777494Y-90492025D01*
X123807852Y-90594085D01*
X123893374Y-90657519D01*
X124034061Y-90682326D01*
X124136121Y-90651968D01*
X124191286Y-90613341D01*
X122646185Y-147381323D02*
X122591020Y-147419950D01*
X122442064Y-147442039D01*
X122348273Y-147425501D01*
X122215855Y-147353798D01*
X122138602Y-147243469D01*
X122108244Y-147141409D01*
X122094424Y-146945557D01*
X122119231Y-146804871D01*
X122199203Y-146625557D01*
X122262636Y-146540035D01*
X122372965Y-146462782D01*
X122521921Y-146440693D01*
X122615712Y-146457231D01*
X122748130Y-146528933D01*
X122786757Y-146584098D01*
X123131564Y-146548189D02*
X123788103Y-146663955D01*
X123192394Y-147574342D01*
X122558555Y-148846642D02*
X122652346Y-148863179D01*
X122737868Y-148926613D01*
X122776495Y-148981778D01*
X122806852Y-149083838D01*
X122820672Y-149279689D01*
X122779327Y-149514167D01*
X122699356Y-149693481D01*
X122635922Y-149779003D01*
X122580758Y-149817630D01*
X122478698Y-149847987D01*
X122384906Y-149831449D01*
X122299384Y-149768016D01*
X122260757Y-149712851D01*
X122230400Y-149610791D01*
X122216580Y-149414940D01*
X122257925Y-149180462D01*
X122337896Y-149001148D01*
X122401330Y-148915626D01*
X122456494Y-148876999D01*
X122558555Y-148846642D01*
X123151774Y-149869961D02*
X123190401Y-149925126D01*
X123135236Y-149963753D01*
X123096609Y-149908588D01*
X123151774Y-149869961D01*
X123135236Y-149963753D01*
X124120044Y-150137401D02*
X123557297Y-150038173D01*
X123838670Y-150087787D02*
X124012318Y-149102979D01*
X123893720Y-149227128D01*
X123783391Y-149304381D01*
X123681331Y-149334739D01*
X125079930Y-149629704D02*
X124964165Y-150286242D01*
X124657870Y-149555283D02*
X124566911Y-150071135D01*
X124597269Y-150173195D01*
X124682791Y-150236628D01*
X124823478Y-150261435D01*
X124925538Y-150231078D01*
X124980703Y-150192451D01*
X120475531Y-148381050D02*
X120420366Y-148419677D01*
X120271410Y-148441766D01*
X120177619Y-148425228D01*
X120045201Y-148353525D01*
X119967948Y-148243196D01*
X119937590Y-148141136D01*
X119923770Y-147945284D01*
X119948577Y-147804598D01*
X120028549Y-147625284D01*
X120091982Y-147539762D01*
X120202311Y-147462509D01*
X120351267Y-147440420D01*
X120445058Y-147456958D01*
X120577476Y-147528660D01*
X120616103Y-147583825D01*
X121476762Y-147638875D02*
X121289179Y-147605799D01*
X121187119Y-147636157D01*
X121131955Y-147674783D01*
X121013357Y-147798932D01*
X120933385Y-147978246D01*
X120867233Y-148353411D01*
X120897591Y-148455471D01*
X120936218Y-148510635D01*
X121021740Y-148574069D01*
X121209322Y-148607145D01*
X121311383Y-148576787D01*
X121366547Y-148538160D01*
X121429981Y-148452638D01*
X121471326Y-148218160D01*
X121440968Y-148116100D01*
X121402341Y-148060935D01*
X121316819Y-147997502D01*
X121129237Y-147964426D01*
X121027176Y-147994784D01*
X120972012Y-148033410D01*
X120908578Y-148118933D01*
X120486671Y-145575602D02*
X119923923Y-145476374D01*
X120205297Y-145525988D02*
X120378945Y-144541180D01*
X120260347Y-144665329D01*
X120150018Y-144742582D01*
X120047958Y-144772940D01*
X121269962Y-144698291D02*
X121363753Y-144714828D01*
X121449275Y-144778262D01*
X121487902Y-144833427D01*
X121518260Y-144935487D01*
X121532079Y-145131338D01*
X121490735Y-145365816D01*
X121410763Y-145545130D01*
X121347330Y-145630652D01*
X121292165Y-145669279D01*
X121190105Y-145699636D01*
X121096314Y-145683098D01*
X121010791Y-145619665D01*
X120972165Y-145564500D01*
X120941807Y-145462440D01*
X120927987Y-145266589D01*
X120969332Y-145032111D01*
X121049303Y-144852797D01*
X121112737Y-144767275D01*
X121167902Y-144728648D01*
X121269962Y-144698291D01*
X122384469Y-145233284D02*
X122268704Y-145889822D01*
X121962409Y-145158863D02*
X121871450Y-145674715D01*
X121901808Y-145776775D01*
X121987330Y-145840209D01*
X122128017Y-145865015D01*
X122230077Y-145834658D01*
X122285242Y-145796031D01*
X123011066Y-153096199D02*
X122955902Y-153057572D01*
X122884199Y-152925155D01*
X122867661Y-152831363D01*
X122889750Y-152682408D01*
X122967003Y-152572078D01*
X123052525Y-152508645D01*
X123231839Y-152428673D01*
X123372526Y-152403867D01*
X123568377Y-152417686D01*
X123670437Y-152448044D01*
X123780766Y-152525297D01*
X123852469Y-152657715D01*
X123869007Y-152751506D01*
X123846918Y-152900462D01*
X123808291Y-152955627D01*
X122999964Y-153581693D02*
X123033040Y-153769276D01*
X123096474Y-153854798D01*
X123151638Y-153893424D01*
X123308863Y-153962409D01*
X123504715Y-153976229D01*
X123879879Y-153910077D01*
X123965402Y-153846643D01*
X124004028Y-153791479D01*
X124034386Y-153689419D01*
X124001310Y-153501836D01*
X123937877Y-153416314D01*
X123882712Y-153377687D01*
X123780652Y-153347330D01*
X123546174Y-153388674D01*
X123460652Y-153452108D01*
X123422025Y-153507272D01*
X123391667Y-153609333D01*
X123424743Y-153796915D01*
X123488177Y-153882437D01*
X123543341Y-153921064D01*
X123645401Y-153951422D01*
X126536715Y-151410751D02*
X126553253Y-151504543D01*
X126522896Y-151606603D01*
X126484269Y-151661767D01*
X126398747Y-151725201D01*
X126219433Y-151805172D01*
X125984955Y-151846517D01*
X125789104Y-151832697D01*
X125687044Y-151802340D01*
X125631879Y-151763713D01*
X125568446Y-151678191D01*
X125551908Y-151584400D01*
X125582265Y-151482339D01*
X125620892Y-151427175D01*
X125706414Y-151363741D01*
X125885728Y-151283770D01*
X126120206Y-151242425D01*
X126316057Y-151256245D01*
X126418117Y-151286603D01*
X126473282Y-151325229D01*
X126536715Y-151410751D01*
X125778002Y-152318191D02*
X125739376Y-152373356D01*
X125684211Y-152334729D01*
X125722838Y-152279565D01*
X125778002Y-152318191D01*
X125684211Y-152334729D01*
X125857859Y-153319537D02*
X125758632Y-152756790D01*
X125808246Y-153038163D02*
X126793053Y-152864515D01*
X126635829Y-152795531D01*
X126525499Y-152718278D01*
X126462066Y-152632755D01*
X126663239Y-154047893D02*
X126006701Y-154163658D01*
X126588818Y-153625832D02*
X126072967Y-153716791D01*
X125987444Y-153780224D01*
X125957087Y-153882284D01*
X125981894Y-154022971D01*
X126045327Y-154108493D01*
X126100492Y-154147120D01*
M02*
