M48
; DRILL file {KiCad 5.1.3-ffb9f22~84~ubuntu18.04.1} date Sat 26 Oct 2019 09:40:43 PM EDT
; FORMAT={-:-/ absolute / inch / decimal}
; #@! TF.CreationDate,2019-10-26T21:40:43-04:00
; #@! TF.GenerationSoftware,Kicad,Pcbnew,5.1.3-ffb9f22~84~ubuntu18.04.1
; #@! TF.FileFunction,Plated,1,2,PTH
FMAT,2
INCH
T1C0.0157
T2C0.0256
T3C0.0394
T4C0.0402
%
G90
G05
T1
X4.3642Y-4.3553
X4.4154Y-4.6004
X4.471Y-3.412
X4.4902Y-3.5325
X4.5059Y-5.6969
X4.5059Y-5.751
X4.5079Y-4.5354
X4.5394Y-4.0817
X4.5463Y-3.4616
X4.5502Y-4.7431
X4.5502Y-4.8307
X4.563Y-3.9488
X4.5787Y-3.8681
X4.6004Y-3.7274
X4.6073Y-4.0187
X4.6486Y-4.0295
X4.6555Y-5.8819
X4.6673Y-3.7126
X4.671Y-2.733
X4.685Y-4.9813
X4.6919Y-3.4951
X4.6978Y-4.0039
X4.7461Y-4.4232
X4.747Y-3.1447
X4.7854Y-5.4547
X4.7874Y-4.6467
X4.8013Y-5.8338
X4.811Y-3.2687
X4.8278Y-5.0669
X4.84Y-2.8
X4.8524Y-5.4104
X4.8524Y-6.6713
X4.8593Y-3.375
X4.86Y-6.44
X4.878Y-4.94
X4.8868Y-3.2008
X4.9114Y-5.3209
X4.9281Y-3.2618
X4.929Y-6.734
X4.9419Y-2.94
X4.9439Y-4.2756
X4.9469Y-3.6713
X4.9656Y-3.3179
X4.978Y-6.458
X5.0069Y-5.6959
X5.0089Y-4.6811
X5.0167Y-5.5
X5.064Y-4.7343
X5.0719Y-5.7805
X5.0807Y-5.6407
X5.0866Y-6.5335
X5.0994Y-6.6417
X5.1024Y-5.4311
X5.1064Y-5.683
X5.1102Y-5.2037
X5.122Y-4.9518
X5.1467Y-5.7382
X5.1506Y-5.8907
X5.1555Y-4.3868
X5.1575Y-4.9852
X5.1762Y-6.0443
X5.1929Y-6.0049
X5.2175Y-5.3917
X5.2234Y-5.0768
X5.2254Y-6.0364
X5.2333Y-4.5226
X5.2352Y-6.0758
X5.2461Y-5.311
X5.252Y-5.688
X5.2557Y-6.114
X5.2589Y-5.5217
X5.2825Y-5.7303
X5.2874Y-5.3238
X5.2874Y-5.5709
X5.2972Y-3.1378
X5.3159Y-6.1594
X5.3278Y-5.5472
X5.3445Y-5.6594
X5.3553Y-4.9104
X5.3553Y-6.1791
X5.3612Y-4.6161
X5.3625Y-7.1873
X5.386Y-1.608
X5.3947Y-6.4154
X5.3996Y-7.2028
X5.4478Y-7.1319
X5.4833Y-5.2913
X5.4921Y-7.1181
X5.5266Y-7.1407
X5.54Y-1.8
X5.5433Y-6.8445
X5.5581Y-7.1841
X5.5758Y-5.0246
X5.5958Y-7.2093
X5.5984Y-5.5906
X5.6073Y-5.8366
X5.6083Y-6.7096
X5.6211Y-2.2303
X5.6752Y-7.1654
X5.6791Y-6.4793
X5.6895Y-6.5212
X5.6988Y-6.5679
X5.7037Y-6.6093
X5.7264Y-4.6929
X5.812Y-7.0472
X5.8514Y-2.4961
X5.8937Y-6.6841
X5.9016Y-2.8504
X5.9045Y-7.1939
X5.9183Y-3.3789
X5.94Y-7.1683
X5.9626Y-6.8189
X5.9754Y-7.0315
X5.9813Y-7.1969
X5.9902Y-2.3071
X6.0148Y-7.1417
X6.0384Y-7.0709
X6.1004Y-7.2008
X6.1004Y-7.2008
X6.1112Y-1.7992
X6.2126Y-1.3543
X6.2382Y-1.4528
X6.438Y-1.3583
X6.6345Y-1.3468
X6.6762Y-1.8199
X6.6978Y-1.5325
X6.8415Y-1.2618
X6.8425Y-1.3593
X6.9144Y-1.4272
X7.1476Y-1.1969
X7.2461Y-1.0167
X7.3179Y-0.9596
T2
X4.9675Y-4.5996
X5.0168Y-4.6083
X5.1663Y-3.4724
X5.2155Y-3.4811
T3
X5.0994Y-2.5315
X5.2607Y-2.4186
X5.3445Y-2.3599
T4
X5.5642Y-3.2207
X6.5252Y-1.4135
X5.2448Y-4.8881
X5.6002Y-6.9039
T0
M30
