G04 #@! TF.GenerationSoftware,KiCad,Pcbnew,5.1.3-ffb9f22~84~ubuntu18.04.1*
G04 #@! TF.CreationDate,2019-10-26T21:40:40-04:00*
G04 #@! TF.ProjectId,swadge-banana,73776164-6765-42d6-9261-6e616e612e6b,rev?*
G04 #@! TF.SameCoordinates,Original*
G04 #@! TF.FileFunction,Legend,Bot*
G04 #@! TF.FilePolarity,Positive*
%FSLAX46Y46*%
G04 Gerber Fmt 4.6, Leading zero omitted, Abs format (unit mm)*
G04 Created by KiCad (PCBNEW 5.1.3-ffb9f22~84~ubuntu18.04.1) date 2019-10-26 21:40:40*
%MOMM*%
%LPD*%
G04 APERTURE LIST*
%ADD10C,0.150000*%
%ADD11C,0.100000*%
%ADD12C,0.254000*%
G04 APERTURE END LIST*
D10*
X134413008Y-95104793D02*
X134443366Y-95206854D01*
X134410290Y-95394436D01*
X134346856Y-95479958D01*
X134244796Y-95510316D01*
X134197900Y-95502047D01*
X134112378Y-95438613D01*
X134082020Y-95336553D01*
X134106827Y-95195866D01*
X134076470Y-95093806D01*
X133990947Y-95030373D01*
X133944052Y-95022104D01*
X133841992Y-95052461D01*
X133778558Y-95137984D01*
X133753751Y-95278671D01*
X133784109Y-95380731D01*
X133671062Y-95747627D02*
X134294524Y-96050975D01*
X133792492Y-96155867D01*
X134228373Y-96426139D01*
X133538758Y-96497956D01*
X134054724Y-97410947D02*
X133538873Y-97319989D01*
X133453350Y-97256555D01*
X133422993Y-97154495D01*
X133456069Y-96966912D01*
X133519502Y-96881390D01*
X134007829Y-97402678D02*
X134071262Y-97317156D01*
X134112607Y-97082678D01*
X134082249Y-96980618D01*
X133996727Y-96917184D01*
X133902936Y-96900646D01*
X133800876Y-96931004D01*
X133737442Y-97016526D01*
X133696097Y-97251004D01*
X133632664Y-97336526D01*
X133897614Y-98301964D02*
X132912806Y-98128315D01*
X133850719Y-98293695D02*
X133914152Y-98208172D01*
X133947228Y-98020590D01*
X133916870Y-97918530D01*
X133878244Y-97863365D01*
X133792721Y-97799932D01*
X133511348Y-97750318D01*
X133409288Y-97780676D01*
X133354123Y-97819302D01*
X133290689Y-97904825D01*
X133257614Y-98092407D01*
X133287971Y-98194467D01*
X133083965Y-99077215D02*
X133881191Y-99217787D01*
X133983251Y-99187429D01*
X134038415Y-99148803D01*
X134101849Y-99063281D01*
X134126656Y-98922594D01*
X134096298Y-98820534D01*
X133693608Y-99184711D02*
X133757042Y-99099189D01*
X133790118Y-98911607D01*
X133759760Y-98809546D01*
X133721133Y-98754382D01*
X133635611Y-98690948D01*
X133354237Y-98641335D01*
X133252177Y-98671692D01*
X133197013Y-98710319D01*
X133133579Y-98795841D01*
X133100503Y-98983424D01*
X133130861Y-99085484D01*
X133544767Y-100028832D02*
X133608201Y-99943310D01*
X133641276Y-99755727D01*
X133610919Y-99653667D01*
X133525396Y-99590234D01*
X133150232Y-99524082D01*
X133048171Y-99554440D01*
X132984738Y-99639962D01*
X132951662Y-99827544D01*
X132982020Y-99929605D01*
X133067542Y-99993038D01*
X133161333Y-100009576D01*
X133337814Y-99557158D01*
X133133808Y-100439906D02*
X133001505Y-101190235D01*
X133293980Y-101725343D02*
X132309172Y-101551695D01*
X132684337Y-101617847D02*
X132620904Y-101703369D01*
X132587828Y-101890951D01*
X132618185Y-101993011D01*
X132656812Y-102048176D01*
X132742334Y-102111609D01*
X133023708Y-102161223D01*
X133125768Y-102130866D01*
X133180933Y-102092239D01*
X133244366Y-102006717D01*
X133277442Y-101819134D01*
X133247084Y-101717074D01*
X133062449Y-103038420D02*
X132546597Y-102947461D01*
X132461075Y-102884028D01*
X132430718Y-102781968D01*
X132463793Y-102594385D01*
X132527227Y-102508863D01*
X133015554Y-103030151D02*
X133078987Y-102944629D01*
X133120332Y-102710151D01*
X133089974Y-102608091D01*
X133004452Y-102544657D01*
X132910661Y-102528119D01*
X132808601Y-102558477D01*
X132745167Y-102643999D01*
X132703822Y-102878477D01*
X132640389Y-102963999D01*
X132323221Y-103391611D02*
X132979760Y-103507376D01*
X132417012Y-103408149D02*
X132361848Y-103446775D01*
X132298414Y-103532297D01*
X132273607Y-103672984D01*
X132303965Y-103775044D01*
X132389487Y-103838478D01*
X132905339Y-103929437D01*
X132748229Y-104820453D02*
X132232377Y-104729495D01*
X132146855Y-104666061D01*
X132116497Y-104564001D01*
X132149573Y-104376418D01*
X132213006Y-104290896D01*
X132701333Y-104812184D02*
X132764767Y-104726662D01*
X132806111Y-104492184D01*
X132775754Y-104390124D01*
X132690231Y-104326690D01*
X132596440Y-104310152D01*
X132494380Y-104340510D01*
X132430946Y-104426032D01*
X132389602Y-104660510D01*
X132326168Y-104746032D01*
X132009001Y-105173644D02*
X132665539Y-105289409D01*
X132102792Y-105190182D02*
X132047627Y-105228808D01*
X131984194Y-105314331D01*
X131959387Y-105455017D01*
X131989744Y-105557078D01*
X132075267Y-105620511D01*
X132591118Y-105711470D01*
X132434008Y-106602486D02*
X131918156Y-106511528D01*
X131832634Y-106448094D01*
X131802276Y-106346034D01*
X131835352Y-106158451D01*
X131898786Y-106072929D01*
X132387113Y-106594217D02*
X132450546Y-106508695D01*
X132491891Y-106274217D01*
X132461533Y-106172157D01*
X132376011Y-106108723D01*
X132282220Y-106092185D01*
X132180160Y-106122543D01*
X132116726Y-106208065D01*
X132075381Y-106442543D01*
X132011948Y-106528066D01*
X131976154Y-107005291D02*
X131843850Y-107755620D01*
X132136326Y-108290728D02*
X131479787Y-108174963D01*
X131667369Y-108208038D02*
X131565309Y-108238396D01*
X131510145Y-108277023D01*
X131446711Y-108362545D01*
X131430173Y-108456336D01*
X131915782Y-109267267D02*
X131979215Y-109181745D01*
X132012291Y-108994162D01*
X131981933Y-108892102D01*
X131896411Y-108828668D01*
X131521246Y-108762517D01*
X131419186Y-108792874D01*
X131355753Y-108878397D01*
X131322677Y-109065979D01*
X131353034Y-109168039D01*
X131438557Y-109231473D01*
X131532348Y-109248011D01*
X131708829Y-108795593D01*
X131239987Y-109534935D02*
X131855181Y-109885179D01*
X131157298Y-110003891D01*
X131372520Y-110428670D02*
X131240216Y-111179000D01*
X141744597Y-172262705D02*
X141303531Y-169761294D01*
X134246469Y-129738706D02*
X133805403Y-127237295D01*
X135276642Y-128267467D02*
X132775230Y-128708534D01*
D11*
X134407272Y-179283480D02*
X151040675Y-176350562D01*
X124509325Y-123149438D02*
X134407272Y-179283480D01*
X141142728Y-120216520D02*
X124509325Y-123149438D01*
X151040675Y-176350562D02*
X141142728Y-120216520D01*
D10*
X142842880Y-79059182D02*
X144035338Y-76816495D01*
X163114662Y-40933505D02*
X164307120Y-38690818D01*
X164832234Y-40408390D02*
X162589548Y-39215933D01*
D11*
X132738568Y-80074319D02*
X147651553Y-88003694D01*
X159498447Y-29746306D02*
X132738568Y-80074319D01*
X174411432Y-37675681D02*
X159498447Y-29746306D01*
X147651553Y-88003694D02*
X174411432Y-37675681D01*
D12*
X138037612Y-150716945D02*
X137946550Y-150548774D01*
X137876491Y-150499718D01*
X137746874Y-150461164D01*
X137568202Y-150492669D01*
X137459589Y-150573229D01*
X137410533Y-150643288D01*
X137371978Y-150772905D01*
X137455991Y-151249364D01*
X138706697Y-151028831D01*
X138633186Y-150611929D01*
X138552625Y-150503316D01*
X138482566Y-150454260D01*
X138352950Y-150415705D01*
X138233835Y-150436709D01*
X138125222Y-150517269D01*
X138076166Y-150587328D01*
X138037612Y-150716945D01*
X138111123Y-151133847D01*
X138517669Y-149956797D02*
X138391650Y-149242108D01*
X137203953Y-149819986D02*
X138454659Y-149599453D01*
X136951915Y-148390608D02*
X137077934Y-149105297D01*
X137014925Y-148747952D02*
X138265631Y-148527419D01*
X138107962Y-148678039D01*
X138009850Y-148818157D01*
X137971296Y-148947773D01*
X153963369Y-57951356D02*
X153931591Y-58139940D01*
X153956596Y-58221729D01*
X154034999Y-58331910D01*
X154195191Y-58417086D01*
X154330377Y-58420472D01*
X154412167Y-58395467D01*
X154522348Y-58317064D01*
X154749482Y-57889885D01*
X153628139Y-57293656D01*
X153429396Y-57667438D01*
X153426010Y-57802624D01*
X153451015Y-57884413D01*
X153529418Y-57994594D01*
X153636212Y-58051378D01*
X153771399Y-58054764D01*
X153853188Y-58029759D01*
X153963369Y-57951356D01*
X154162112Y-57577575D01*
X153117086Y-58254808D02*
X152776383Y-58895576D01*
X154068078Y-59171421D02*
X152946735Y-58575192D01*
X152712827Y-59272743D02*
X152631038Y-59297749D01*
X152520857Y-59376151D01*
X152378898Y-59643138D01*
X152375511Y-59778324D01*
X152400517Y-59860114D01*
X152478919Y-59970295D01*
X152585714Y-60027078D01*
X152774298Y-60058857D01*
X153755768Y-59758791D01*
X153386674Y-60452956D01*
M02*
