G04 #@! TF.GenerationSoftware,KiCad,Pcbnew,5.1.3-ffb9f22~84~ubuntu18.04.1*
G04 #@! TF.CreationDate,2019-10-26T21:40:40-04:00*
G04 #@! TF.ProjectId,swadge-banana,73776164-6765-42d6-9261-6e616e612e6b,rev?*
G04 #@! TF.SameCoordinates,Original*
G04 #@! TF.FileFunction,Paste,Top*
G04 #@! TF.FilePolarity,Positive*
%FSLAX46Y46*%
G04 Gerber Fmt 4.6, Leading zero omitted, Abs format (unit mm)*
G04 Created by KiCad (PCBNEW 5.1.3-ffb9f22~84~ubuntu18.04.1) date 2019-10-26 21:40:40*
%MOMM*%
%LPD*%
G04 APERTURE LIST*
%ADD10C,0.100000*%
%ADD11C,0.875000*%
%ADD12C,0.300000*%
%ADD13C,2.000000*%
%ADD14C,1.500000*%
%ADD15C,0.250000*%
%ADD16C,4.300000*%
%ADD17C,0.900000*%
%ADD18C,0.900000*%
%ADD19C,0.800000*%
%ADD20C,0.700000*%
%ADD21C,2.300000*%
%ADD22C,1.400000*%
%ADD23C,1.175000*%
%ADD24C,1.900000*%
%ADD25C,1.475000*%
%ADD26C,0.450000*%
%ADD27C,1.000000*%
%ADD28R,1.500000X1.000000*%
G04 APERTURE END LIST*
D10*
G36*
X166838894Y-33359492D02*
G01*
X166860193Y-33362178D01*
X167291046Y-33438150D01*
X167311979Y-33442911D01*
X167332344Y-33449700D01*
X167351945Y-33458453D01*
X167370595Y-33469085D01*
X167388112Y-33481494D01*
X167404329Y-33495560D01*
X167419089Y-33511148D01*
X167432250Y-33528108D01*
X167443685Y-33546275D01*
X167453285Y-33565477D01*
X167460956Y-33585526D01*
X167466625Y-33606231D01*
X167470237Y-33627392D01*
X167471758Y-33648805D01*
X167471173Y-33670265D01*
X167468487Y-33691563D01*
X167379492Y-34196277D01*
X167374731Y-34217209D01*
X167367942Y-34237574D01*
X167359189Y-34257176D01*
X167348557Y-34275825D01*
X167336148Y-34293343D01*
X167322082Y-34309560D01*
X167306494Y-34324320D01*
X167289535Y-34337481D01*
X167271367Y-34348916D01*
X167252166Y-34358515D01*
X167232116Y-34366187D01*
X167211411Y-34371856D01*
X167190250Y-34375468D01*
X167168837Y-34376989D01*
X167147378Y-34376404D01*
X167126079Y-34373718D01*
X166695226Y-34297746D01*
X166674293Y-34292985D01*
X166653928Y-34286196D01*
X166634327Y-34277443D01*
X166615677Y-34266811D01*
X166598160Y-34254402D01*
X166581943Y-34240336D01*
X166567183Y-34224748D01*
X166554022Y-34207788D01*
X166542587Y-34189621D01*
X166532987Y-34170419D01*
X166525316Y-34150370D01*
X166519647Y-34129665D01*
X166516035Y-34108504D01*
X166514514Y-34087091D01*
X166515099Y-34065631D01*
X166517785Y-34044333D01*
X166606780Y-33539619D01*
X166611541Y-33518687D01*
X166618330Y-33498322D01*
X166627083Y-33478720D01*
X166637715Y-33460071D01*
X166650124Y-33442553D01*
X166664190Y-33426336D01*
X166679778Y-33411576D01*
X166696737Y-33398415D01*
X166714905Y-33386980D01*
X166734106Y-33377381D01*
X166754156Y-33369709D01*
X166774861Y-33364040D01*
X166796022Y-33360428D01*
X166817435Y-33358907D01*
X166838894Y-33359492D01*
X166838894Y-33359492D01*
G37*
D11*
X166993136Y-33867948D03*
D10*
G36*
X165287822Y-33085996D02*
G01*
X165309121Y-33088682D01*
X165739974Y-33164654D01*
X165760907Y-33169415D01*
X165781272Y-33176204D01*
X165800873Y-33184957D01*
X165819523Y-33195589D01*
X165837040Y-33207998D01*
X165853257Y-33222064D01*
X165868017Y-33237652D01*
X165881178Y-33254612D01*
X165892613Y-33272779D01*
X165902213Y-33291981D01*
X165909884Y-33312030D01*
X165915553Y-33332735D01*
X165919165Y-33353896D01*
X165920686Y-33375309D01*
X165920101Y-33396769D01*
X165917415Y-33418067D01*
X165828420Y-33922781D01*
X165823659Y-33943713D01*
X165816870Y-33964078D01*
X165808117Y-33983680D01*
X165797485Y-34002329D01*
X165785076Y-34019847D01*
X165771010Y-34036064D01*
X165755422Y-34050824D01*
X165738463Y-34063985D01*
X165720295Y-34075420D01*
X165701094Y-34085019D01*
X165681044Y-34092691D01*
X165660339Y-34098360D01*
X165639178Y-34101972D01*
X165617765Y-34103493D01*
X165596306Y-34102908D01*
X165575007Y-34100222D01*
X165144154Y-34024250D01*
X165123221Y-34019489D01*
X165102856Y-34012700D01*
X165083255Y-34003947D01*
X165064605Y-33993315D01*
X165047088Y-33980906D01*
X165030871Y-33966840D01*
X165016111Y-33951252D01*
X165002950Y-33934292D01*
X164991515Y-33916125D01*
X164981915Y-33896923D01*
X164974244Y-33876874D01*
X164968575Y-33856169D01*
X164964963Y-33835008D01*
X164963442Y-33813595D01*
X164964027Y-33792135D01*
X164966713Y-33770837D01*
X165055708Y-33266123D01*
X165060469Y-33245191D01*
X165067258Y-33224826D01*
X165076011Y-33205224D01*
X165086643Y-33186575D01*
X165099052Y-33169057D01*
X165113118Y-33152840D01*
X165128706Y-33138080D01*
X165145665Y-33124919D01*
X165163833Y-33113484D01*
X165183034Y-33103885D01*
X165203084Y-33096213D01*
X165223789Y-33090544D01*
X165244950Y-33086932D01*
X165266363Y-33085411D01*
X165287822Y-33085996D01*
X165287822Y-33085996D01*
G37*
D11*
X165442064Y-33594452D03*
D12*
X113787764Y-103695931D03*
D10*
G36*
X114453936Y-103661081D02*
G01*
X114401842Y-103956523D01*
X113121592Y-103730781D01*
X113173686Y-103435339D01*
X114453936Y-103661081D01*
X114453936Y-103661081D01*
G37*
D12*
X113614116Y-104680739D03*
D10*
G36*
X114280288Y-104645889D02*
G01*
X114228194Y-104941331D01*
X112947944Y-104715589D01*
X113000038Y-104420147D01*
X114280288Y-104645889D01*
X114280288Y-104645889D01*
G37*
D12*
X114135060Y-101726315D03*
D10*
G36*
X114801232Y-101691465D02*
G01*
X114749138Y-101986907D01*
X113468888Y-101761165D01*
X113520982Y-101465723D01*
X114801232Y-101691465D01*
X114801232Y-101691465D01*
G37*
D12*
X113266819Y-106650354D03*
D10*
G36*
X113932991Y-106615504D02*
G01*
X113880897Y-106910946D01*
X112600647Y-106685204D01*
X112652741Y-106389762D01*
X113932991Y-106615504D01*
X113932991Y-106615504D01*
G37*
D12*
X113700940Y-104188335D03*
D10*
G36*
X114367112Y-104153485D02*
G01*
X114315018Y-104448927D01*
X113034768Y-104223185D01*
X113086862Y-103927743D01*
X114367112Y-104153485D01*
X114367112Y-104153485D01*
G37*
D12*
X114048236Y-102218719D03*
D10*
G36*
X114714408Y-102183869D02*
G01*
X114662314Y-102479311D01*
X113382064Y-102253569D01*
X113434158Y-101958127D01*
X114714408Y-102183869D01*
X114714408Y-102183869D01*
G37*
D12*
X114916477Y-97294680D03*
D10*
G36*
X115582649Y-97259830D02*
G01*
X115530555Y-97555272D01*
X114250305Y-97329530D01*
X114302399Y-97034088D01*
X115582649Y-97259830D01*
X115582649Y-97259830D01*
G37*
D12*
X113874588Y-103203527D03*
D10*
G36*
X114540760Y-103168677D02*
G01*
X114488666Y-103464119D01*
X113208416Y-103238377D01*
X113260510Y-102942935D01*
X114540760Y-103168677D01*
X114540760Y-103168677D01*
G37*
D12*
X113961412Y-102711123D03*
D10*
G36*
X114627584Y-102676273D02*
G01*
X114575490Y-102971715D01*
X113295240Y-102745973D01*
X113347334Y-102450531D01*
X114627584Y-102676273D01*
X114627584Y-102676273D01*
G37*
D12*
X115003301Y-96802277D03*
D10*
G36*
X115669473Y-96767427D02*
G01*
X115617379Y-97062869D01*
X114337129Y-96837127D01*
X114389223Y-96541685D01*
X115669473Y-96767427D01*
X115669473Y-96767427D01*
G37*
D12*
X115176949Y-95817469D03*
D10*
G36*
X115843121Y-95782619D02*
G01*
X115791027Y-96078061D01*
X114510777Y-95852319D01*
X114562871Y-95556877D01*
X115843121Y-95782619D01*
X115843121Y-95782619D01*
G37*
D12*
X115350597Y-94832661D03*
D10*
G36*
X116016769Y-94797811D02*
G01*
X115964675Y-95093253D01*
X114684425Y-94867511D01*
X114736519Y-94572069D01*
X116016769Y-94797811D01*
X116016769Y-94797811D01*
G37*
D12*
X115437422Y-94340257D03*
D10*
G36*
X116103594Y-94305407D02*
G01*
X116051500Y-94600849D01*
X114771250Y-94375107D01*
X114823344Y-94079665D01*
X116103594Y-94305407D01*
X116103594Y-94305407D01*
G37*
D12*
X115611070Y-93355449D03*
D10*
G36*
X116277242Y-93320599D02*
G01*
X116225148Y-93616041D01*
X114944898Y-93390299D01*
X114996992Y-93094857D01*
X116277242Y-93320599D01*
X116277242Y-93320599D01*
G37*
D12*
X114569181Y-99264296D03*
D10*
G36*
X115235353Y-99229446D02*
G01*
X115183259Y-99524888D01*
X113903009Y-99299146D01*
X113955103Y-99003704D01*
X115235353Y-99229446D01*
X115235353Y-99229446D01*
G37*
D12*
X113527292Y-105173142D03*
D10*
G36*
X114193464Y-105138292D02*
G01*
X114141370Y-105433734D01*
X112861120Y-105207992D01*
X112913214Y-104912550D01*
X114193464Y-105138292D01*
X114193464Y-105138292D01*
G37*
D12*
X115697894Y-92863046D03*
D10*
G36*
X116364066Y-92828196D02*
G01*
X116311972Y-93123638D01*
X115031722Y-92897896D01*
X115083816Y-92602454D01*
X116364066Y-92828196D01*
X116364066Y-92828196D01*
G37*
D12*
X114221884Y-101233911D03*
D10*
G36*
X114888056Y-101199061D02*
G01*
X114835962Y-101494503D01*
X113555712Y-101268761D01*
X113607806Y-100973319D01*
X114888056Y-101199061D01*
X114888056Y-101199061D01*
G37*
D13*
X118298711Y-91646186D03*
D10*
G36*
X116995148Y-90400906D02*
G01*
X119949571Y-90921851D01*
X119602274Y-92891466D01*
X116647851Y-92370521D01*
X116995148Y-90400906D01*
X116995148Y-90400906D01*
G37*
D12*
X113353643Y-106157950D03*
D10*
G36*
X114019815Y-106123100D02*
G01*
X113967721Y-106418542D01*
X112687471Y-106192800D01*
X112739565Y-105897358D01*
X114019815Y-106123100D01*
X114019815Y-106123100D01*
G37*
D12*
X114308708Y-100741508D03*
D10*
G36*
X114974880Y-100706658D02*
G01*
X114922786Y-101002100D01*
X113642536Y-100776358D01*
X113694630Y-100480916D01*
X114974880Y-100706658D01*
X114974880Y-100706658D01*
G37*
D12*
X114395532Y-100249104D03*
D10*
G36*
X115061704Y-100214254D02*
G01*
X115009610Y-100509696D01*
X113729360Y-100283954D01*
X113781454Y-99988512D01*
X115061704Y-100214254D01*
X115061704Y-100214254D01*
G37*
D12*
X114482357Y-99756700D03*
D10*
G36*
X115148529Y-99721850D02*
G01*
X115096435Y-100017292D01*
X113816185Y-99791550D01*
X113868279Y-99496108D01*
X115148529Y-99721850D01*
X115148529Y-99721850D01*
G37*
D12*
X113440467Y-105665546D03*
D10*
G36*
X114106639Y-105630696D02*
G01*
X114054545Y-105926138D01*
X112774295Y-105700396D01*
X112826389Y-105404954D01*
X114106639Y-105630696D01*
X114106639Y-105630696D01*
G37*
D12*
X113179995Y-107142758D03*
D10*
G36*
X113846167Y-107107908D02*
G01*
X113794073Y-107403350D01*
X112513823Y-107177608D01*
X112565917Y-106882166D01*
X113846167Y-107107908D01*
X113846167Y-107107908D01*
G37*
D12*
X114656005Y-98771892D03*
D10*
G36*
X115322177Y-98737042D02*
G01*
X115270083Y-99032484D01*
X113989833Y-98806742D01*
X114041927Y-98511300D01*
X115322177Y-98737042D01*
X115322177Y-98737042D01*
G37*
D12*
X114742829Y-98279488D03*
D10*
G36*
X115409001Y-98244638D02*
G01*
X115356907Y-98540080D01*
X114076657Y-98314338D01*
X114128751Y-98018896D01*
X115409001Y-98244638D01*
X115409001Y-98244638D01*
G37*
D12*
X114829653Y-97787084D03*
D10*
G36*
X115495825Y-97752234D02*
G01*
X115443731Y-98047676D01*
X114163481Y-97821934D01*
X114215575Y-97526492D01*
X115495825Y-97752234D01*
X115495825Y-97752234D01*
G37*
D12*
X115090125Y-96309873D03*
D10*
G36*
X115756297Y-96275023D02*
G01*
X115704203Y-96570465D01*
X114423953Y-96344723D01*
X114476047Y-96049281D01*
X115756297Y-96275023D01*
X115756297Y-96275023D01*
G37*
D12*
X115263773Y-95325065D03*
D10*
G36*
X115929945Y-95290215D02*
G01*
X115877851Y-95585657D01*
X114597601Y-95359915D01*
X114649695Y-95064473D01*
X115929945Y-95290215D01*
X115929945Y-95290215D01*
G37*
D12*
X115524246Y-93847853D03*
D10*
G36*
X116190418Y-93813003D02*
G01*
X116138324Y-94108445D01*
X114858074Y-93882703D01*
X114910168Y-93587261D01*
X116190418Y-93813003D01*
X116190418Y-93813003D01*
G37*
D13*
X115207774Y-109175764D03*
D10*
G36*
X113904211Y-107930484D02*
G01*
X116858634Y-108451429D01*
X116511337Y-110421044D01*
X113556914Y-109900099D01*
X113904211Y-107930484D01*
X113904211Y-107930484D01*
G37*
D14*
X173840815Y-37188897D03*
D10*
G36*
X173800027Y-35939563D02*
G01*
X175028755Y-36799927D01*
X173881603Y-38438231D01*
X172652875Y-37577867D01*
X173800027Y-35939563D01*
X173800027Y-35939563D01*
G37*
D14*
X170072716Y-34550445D03*
D10*
G36*
X170031928Y-33301111D02*
G01*
X171260656Y-34161475D01*
X170113504Y-35799779D01*
X168884776Y-34939415D01*
X170031928Y-33301111D01*
X170031928Y-33301111D01*
G37*
D14*
X171956766Y-35869671D03*
D10*
G36*
X171915978Y-34620337D02*
G01*
X173144706Y-35480701D01*
X171997554Y-37119005D01*
X170768826Y-36258641D01*
X171915978Y-34620337D01*
X171915978Y-34620337D01*
G37*
D13*
X168343234Y-41030329D03*
D10*
G36*
X167360422Y-39121382D02*
G01*
X170473199Y-41300972D01*
X169326046Y-42939276D01*
X166213269Y-40759686D01*
X167360422Y-39121382D01*
X167360422Y-39121382D01*
G37*
D15*
X124001438Y-83279806D03*
D10*
G36*
X123902214Y-83122689D02*
G01*
X124148416Y-83166101D01*
X124100662Y-83436923D01*
X123854460Y-83393511D01*
X123902214Y-83122689D01*
X123902214Y-83122689D01*
G37*
D15*
X123509034Y-83192982D03*
D10*
G36*
X123409810Y-83035865D02*
G01*
X123656012Y-83079277D01*
X123608258Y-83350099D01*
X123362056Y-83306687D01*
X123409810Y-83035865D01*
X123409810Y-83035865D01*
G37*
D15*
X123248562Y-84670194D03*
D10*
G36*
X123149338Y-84513077D02*
G01*
X123395540Y-84556489D01*
X123347786Y-84827311D01*
X123101584Y-84783899D01*
X123149338Y-84513077D01*
X123149338Y-84513077D01*
G37*
D15*
X123740966Y-84757018D03*
D10*
G36*
X123641742Y-84599901D02*
G01*
X123887944Y-84643313D01*
X123840190Y-84914135D01*
X123593988Y-84870723D01*
X123641742Y-84599901D01*
X123641742Y-84599901D01*
G37*
D15*
X124320194Y-84351438D03*
D10*
G36*
X124163077Y-84450662D02*
G01*
X124206489Y-84204460D01*
X124477311Y-84252214D01*
X124433899Y-84498416D01*
X124163077Y-84450662D01*
X124163077Y-84450662D01*
G37*
D15*
X124407018Y-83859034D03*
D10*
G36*
X124249901Y-83958258D02*
G01*
X124293313Y-83712056D01*
X124564135Y-83759810D01*
X124520723Y-84006012D01*
X124249901Y-83958258D01*
X124249901Y-83958258D01*
G37*
D15*
X122929806Y-83598562D03*
D10*
G36*
X122772689Y-83697786D02*
G01*
X122816101Y-83451584D01*
X123086923Y-83499338D01*
X123043511Y-83745540D01*
X122772689Y-83697786D01*
X122772689Y-83697786D01*
G37*
D15*
X122842982Y-84090966D03*
D10*
G36*
X122685865Y-84190190D02*
G01*
X122729277Y-83943988D01*
X123000099Y-83991742D01*
X122956687Y-84237944D01*
X122685865Y-84190190D01*
X122685865Y-84190190D01*
G37*
D15*
X123016630Y-83106158D03*
D10*
G36*
X122917406Y-82949041D02*
G01*
X123163608Y-82992453D01*
X123115854Y-83263275D01*
X122869652Y-83219863D01*
X122917406Y-82949041D01*
X122917406Y-82949041D01*
G37*
D15*
X124493842Y-83366630D03*
D10*
G36*
X124394618Y-83209513D02*
G01*
X124640820Y-83252925D01*
X124593066Y-83523747D01*
X124346864Y-83480335D01*
X124394618Y-83209513D01*
X124394618Y-83209513D01*
G37*
D15*
X124233370Y-84843842D03*
D10*
G36*
X124134146Y-84686725D02*
G01*
X124380348Y-84730137D01*
X124332594Y-85000959D01*
X124086392Y-84957547D01*
X124134146Y-84686725D01*
X124134146Y-84686725D01*
G37*
D15*
X122756158Y-84583370D03*
D10*
G36*
X122656934Y-84426253D02*
G01*
X122903136Y-84469665D01*
X122855382Y-84740487D01*
X122609180Y-84697075D01*
X122656934Y-84426253D01*
X122656934Y-84426253D01*
G37*
D16*
X123861126Y-131797641D03*
D10*
G36*
X126224084Y-133711127D02*
G01*
X121947640Y-134160599D01*
X121498168Y-129884155D01*
X125774612Y-129434683D01*
X126224084Y-133711127D01*
X126224084Y-133711127D01*
G37*
D17*
X116493488Y-124648606D03*
D18*
X116550979Y-125195593D02*
X116435997Y-124101619D01*
D17*
X117985271Y-124491813D03*
D18*
X118042762Y-125038800D02*
X117927780Y-123944826D01*
D17*
X119477053Y-124335020D03*
D18*
X119534544Y-124882007D02*
X119419562Y-123788033D01*
D17*
X120968836Y-124178228D03*
D18*
X121026327Y-124725215D02*
X120911345Y-123631241D01*
D17*
X122460619Y-124021435D03*
D18*
X122518110Y-124568422D02*
X122403128Y-123474448D01*
D17*
X123952402Y-123864642D03*
D18*
X124009893Y-124411629D02*
X123894911Y-123317655D01*
D17*
X125444185Y-123707850D03*
D18*
X125501676Y-124254837D02*
X125386694Y-123160863D01*
D17*
X126935968Y-123551057D03*
D18*
X126993459Y-124098044D02*
X126878477Y-123004070D01*
D17*
X128817480Y-141452451D03*
D18*
X128874971Y-141999438D02*
X128759989Y-140905464D01*
D17*
X127325697Y-141609244D03*
D18*
X127383188Y-142156231D02*
X127268206Y-141062257D01*
D17*
X125833914Y-141766037D03*
D18*
X125891405Y-142313024D02*
X125776423Y-141219050D01*
D17*
X124342131Y-141922829D03*
D18*
X124399622Y-142469816D02*
X124284640Y-141375842D01*
D17*
X122850349Y-142079622D03*
D18*
X122907840Y-142626609D02*
X122792858Y-141532635D01*
D17*
X121358566Y-142236415D03*
D18*
X121416057Y-142783402D02*
X121301075Y-141689428D01*
D17*
X119866783Y-142393207D03*
D18*
X119924274Y-142940194D02*
X119809292Y-141846220D01*
D17*
X118375000Y-142550000D03*
D10*
G36*
X118927063Y-143497484D02*
G01*
X118031994Y-143591560D01*
X117822937Y-141602516D01*
X118718006Y-141508440D01*
X118927063Y-143497484D01*
X118927063Y-143497484D01*
G37*
D17*
X130309263Y-141295658D03*
D18*
X130366754Y-141842645D02*
X130251772Y-140748671D01*
D17*
X128427750Y-123394264D03*
D18*
X128485241Y-123941251D02*
X128370259Y-122847277D01*
D19*
X188170993Y-20400500D03*
D10*
G36*
X188404006Y-19804090D02*
G01*
X188804006Y-20496910D01*
X187937980Y-20996910D01*
X187537980Y-20304090D01*
X188404006Y-19804090D01*
X188404006Y-19804090D01*
G37*
D19*
X181849007Y-24050500D03*
D10*
G36*
X182082020Y-23454090D02*
G01*
X182482020Y-24146910D01*
X181615994Y-24646910D01*
X181215994Y-23954090D01*
X182082020Y-23454090D01*
X182082020Y-23454090D01*
G37*
D19*
X180744007Y-22136584D03*
D10*
G36*
X180977020Y-21540174D02*
G01*
X181377020Y-22232994D01*
X180510994Y-22732994D01*
X180110994Y-22040174D01*
X180977020Y-21540174D01*
X180977020Y-21540174D01*
G37*
D19*
X187065993Y-18486584D03*
D10*
G36*
X187299006Y-17890174D02*
G01*
X187699006Y-18582994D01*
X186832980Y-19082994D01*
X186432980Y-18390174D01*
X187299006Y-17890174D01*
X187299006Y-17890174D01*
G37*
D20*
X183386443Y-23913416D03*
D10*
G36*
X183314552Y-23088897D02*
G01*
X184064552Y-24387935D01*
X183458334Y-24737935D01*
X182708334Y-23438897D01*
X183314552Y-23088897D01*
X183314552Y-23088897D01*
G37*
D20*
X184685481Y-23163416D03*
D10*
G36*
X184613590Y-22338897D02*
G01*
X185363590Y-23637935D01*
X184757372Y-23987935D01*
X184007372Y-22688897D01*
X184613590Y-22338897D01*
X184613590Y-22338897D01*
G37*
D20*
X187283557Y-21663416D03*
D10*
G36*
X187211666Y-20838897D02*
G01*
X187961666Y-22137935D01*
X187355448Y-22487935D01*
X186605448Y-21188897D01*
X187211666Y-20838897D01*
X187211666Y-20838897D01*
G37*
D21*
X156634903Y-67693402D03*
D10*
G36*
X157369211Y-69184473D02*
G01*
X155113949Y-68363624D01*
X155900595Y-66202331D01*
X158155857Y-67023180D01*
X157369211Y-69184473D01*
X157369211Y-69184473D01*
G37*
D21*
X151744015Y-81131007D03*
D10*
G36*
X152478323Y-82622078D02*
G01*
X150223061Y-81801229D01*
X151009707Y-79639936D01*
X153264969Y-80460785D01*
X152478323Y-82622078D01*
X152478323Y-82622078D01*
G37*
D21*
X151936440Y-65983302D03*
D10*
G36*
X152670748Y-67474373D02*
G01*
X150415486Y-66653524D01*
X151202132Y-64492231D01*
X153457394Y-65313080D01*
X152670748Y-67474373D01*
X152670748Y-67474373D01*
G37*
D21*
X147045552Y-79420906D03*
D10*
G36*
X147779860Y-80911977D02*
G01*
X145524598Y-80091128D01*
X146311244Y-77929835D01*
X148566506Y-78750684D01*
X147779860Y-80911977D01*
X147779860Y-80911977D01*
G37*
D21*
X142540373Y-129605038D03*
D10*
G36*
X143836036Y-130646075D02*
G01*
X141445168Y-130855249D01*
X141244710Y-128564001D01*
X143635578Y-128354827D01*
X143836036Y-130646075D01*
X143836036Y-130646075D01*
G37*
D21*
X143786701Y-143850622D03*
D10*
G36*
X145082364Y-144891659D02*
G01*
X142691496Y-145100833D01*
X142491038Y-142809585D01*
X144881906Y-142600411D01*
X145082364Y-144891659D01*
X145082364Y-144891659D01*
G37*
D21*
X137559400Y-130040816D03*
D10*
G36*
X138855063Y-131081853D02*
G01*
X136464195Y-131291027D01*
X136263737Y-128999779D01*
X138654605Y-128790605D01*
X138855063Y-131081853D01*
X138855063Y-131081853D01*
G37*
D21*
X138805727Y-144286400D03*
D10*
G36*
X140101390Y-145327437D02*
G01*
X137710522Y-145536611D01*
X137510064Y-143245363D01*
X139900932Y-143036189D01*
X140101390Y-145327437D01*
X140101390Y-145327437D01*
G37*
D22*
X151945208Y-49022084D03*
D10*
G36*
X152026426Y-50281411D02*
G01*
X150813990Y-49581411D01*
X151863990Y-47762757D01*
X153076426Y-48462757D01*
X152026426Y-50281411D01*
X152026426Y-50281411D01*
G37*
D22*
X147395208Y-56902916D03*
D10*
G36*
X147476426Y-58162243D02*
G01*
X146263990Y-57462243D01*
X147313990Y-55643589D01*
X148526426Y-56343589D01*
X147476426Y-58162243D01*
X147476426Y-58162243D01*
G37*
D22*
X148004792Y-46747084D03*
D10*
G36*
X148086010Y-48006411D02*
G01*
X146873574Y-47306411D01*
X147923574Y-45487757D01*
X149136010Y-46187757D01*
X148086010Y-48006411D01*
X148086010Y-48006411D01*
G37*
D22*
X143454792Y-54627916D03*
D10*
G36*
X143536010Y-55887243D02*
G01*
X142323574Y-55187243D01*
X143373574Y-53368589D01*
X144586010Y-54068589D01*
X143536010Y-55887243D01*
X143536010Y-55887243D01*
G37*
G36*
X128665287Y-70273367D02*
G01*
X128686639Y-70275588D01*
X128707671Y-70279891D01*
X128728179Y-70286234D01*
X129209771Y-70461519D01*
X129229559Y-70469842D01*
X129248436Y-70480065D01*
X129266220Y-70492089D01*
X129282739Y-70505798D01*
X129297836Y-70521060D01*
X129311364Y-70537728D01*
X129323193Y-70555642D01*
X129333209Y-70574629D01*
X129341316Y-70594507D01*
X129347435Y-70615083D01*
X129351508Y-70636160D01*
X129353496Y-70657535D01*
X129353379Y-70679002D01*
X129351158Y-70700354D01*
X129346855Y-70721385D01*
X129340512Y-70741894D01*
X129190878Y-71153009D01*
X129182555Y-71172797D01*
X129172332Y-71191674D01*
X129160308Y-71209458D01*
X129146599Y-71225977D01*
X129131337Y-71241074D01*
X129114669Y-71254602D01*
X129096755Y-71266431D01*
X129077768Y-71276447D01*
X129057890Y-71284554D01*
X129037314Y-71290673D01*
X129016236Y-71294746D01*
X128994862Y-71296734D01*
X128973395Y-71296617D01*
X128952043Y-71294396D01*
X128931011Y-71290093D01*
X128910503Y-71283750D01*
X128428911Y-71108465D01*
X128409123Y-71100142D01*
X128390246Y-71089919D01*
X128372462Y-71077895D01*
X128355943Y-71064186D01*
X128340846Y-71048924D01*
X128327318Y-71032256D01*
X128315489Y-71014342D01*
X128305473Y-70995355D01*
X128297366Y-70975477D01*
X128291247Y-70954901D01*
X128287174Y-70933824D01*
X128285186Y-70912449D01*
X128285303Y-70890982D01*
X128287524Y-70869630D01*
X128291827Y-70848599D01*
X128298170Y-70828090D01*
X128447804Y-70416975D01*
X128456127Y-70397187D01*
X128466350Y-70378310D01*
X128478374Y-70360526D01*
X128492083Y-70344007D01*
X128507345Y-70328910D01*
X128524013Y-70315382D01*
X128541927Y-70303553D01*
X128560914Y-70293537D01*
X128580792Y-70285430D01*
X128601368Y-70279311D01*
X128622446Y-70275238D01*
X128643820Y-70273250D01*
X128665287Y-70273367D01*
X128665287Y-70273367D01*
G37*
D11*
X128819341Y-70784992D03*
D10*
G36*
X128126605Y-71753383D02*
G01*
X128147957Y-71755604D01*
X128168989Y-71759907D01*
X128189497Y-71766250D01*
X128671089Y-71941535D01*
X128690877Y-71949858D01*
X128709754Y-71960081D01*
X128727538Y-71972105D01*
X128744057Y-71985814D01*
X128759154Y-72001076D01*
X128772682Y-72017744D01*
X128784511Y-72035658D01*
X128794527Y-72054645D01*
X128802634Y-72074523D01*
X128808753Y-72095099D01*
X128812826Y-72116176D01*
X128814814Y-72137551D01*
X128814697Y-72159018D01*
X128812476Y-72180370D01*
X128808173Y-72201401D01*
X128801830Y-72221910D01*
X128652196Y-72633025D01*
X128643873Y-72652813D01*
X128633650Y-72671690D01*
X128621626Y-72689474D01*
X128607917Y-72705993D01*
X128592655Y-72721090D01*
X128575987Y-72734618D01*
X128558073Y-72746447D01*
X128539086Y-72756463D01*
X128519208Y-72764570D01*
X128498632Y-72770689D01*
X128477554Y-72774762D01*
X128456180Y-72776750D01*
X128434713Y-72776633D01*
X128413361Y-72774412D01*
X128392329Y-72770109D01*
X128371821Y-72763766D01*
X127890229Y-72588481D01*
X127870441Y-72580158D01*
X127851564Y-72569935D01*
X127833780Y-72557911D01*
X127817261Y-72544202D01*
X127802164Y-72528940D01*
X127788636Y-72512272D01*
X127776807Y-72494358D01*
X127766791Y-72475371D01*
X127758684Y-72455493D01*
X127752565Y-72434917D01*
X127748492Y-72413840D01*
X127746504Y-72392465D01*
X127746621Y-72370998D01*
X127748842Y-72349646D01*
X127753145Y-72328615D01*
X127759488Y-72308106D01*
X127909122Y-71896991D01*
X127917445Y-71877203D01*
X127927668Y-71858326D01*
X127939692Y-71840542D01*
X127953401Y-71824023D01*
X127968663Y-71808926D01*
X127985331Y-71795398D01*
X128003245Y-71783569D01*
X128022232Y-71773553D01*
X128042110Y-71765446D01*
X128062686Y-71759327D01*
X128083764Y-71755254D01*
X128105138Y-71753266D01*
X128126605Y-71753383D01*
X128126605Y-71753383D01*
G37*
D11*
X128280659Y-72265008D03*
D10*
G36*
X111739065Y-102946427D02*
G01*
X111760363Y-102949113D01*
X112265077Y-103038108D01*
X112286009Y-103042869D01*
X112306374Y-103049658D01*
X112325976Y-103058411D01*
X112344625Y-103069043D01*
X112362143Y-103081452D01*
X112378360Y-103095518D01*
X112393120Y-103111106D01*
X112406281Y-103128065D01*
X112417716Y-103146233D01*
X112427315Y-103165434D01*
X112434987Y-103185484D01*
X112440656Y-103206189D01*
X112444268Y-103227350D01*
X112445789Y-103248763D01*
X112445204Y-103270222D01*
X112442518Y-103291521D01*
X112366546Y-103722374D01*
X112361785Y-103743307D01*
X112354996Y-103763672D01*
X112346243Y-103783273D01*
X112335611Y-103801923D01*
X112323202Y-103819440D01*
X112309136Y-103835657D01*
X112293548Y-103850417D01*
X112276588Y-103863578D01*
X112258421Y-103875013D01*
X112239219Y-103884613D01*
X112219170Y-103892284D01*
X112198465Y-103897953D01*
X112177304Y-103901565D01*
X112155891Y-103903086D01*
X112134431Y-103902501D01*
X112113133Y-103899815D01*
X111608419Y-103810820D01*
X111587487Y-103806059D01*
X111567122Y-103799270D01*
X111547520Y-103790517D01*
X111528871Y-103779885D01*
X111511353Y-103767476D01*
X111495136Y-103753410D01*
X111480376Y-103737822D01*
X111467215Y-103720863D01*
X111455780Y-103702695D01*
X111446181Y-103683494D01*
X111438509Y-103663444D01*
X111432840Y-103642739D01*
X111429228Y-103621578D01*
X111427707Y-103600165D01*
X111428292Y-103578706D01*
X111430978Y-103557407D01*
X111506950Y-103126554D01*
X111511711Y-103105621D01*
X111518500Y-103085256D01*
X111527253Y-103065655D01*
X111537885Y-103047005D01*
X111550294Y-103029488D01*
X111564360Y-103013271D01*
X111579948Y-102998511D01*
X111596908Y-102985350D01*
X111615075Y-102973915D01*
X111634277Y-102964315D01*
X111654326Y-102956644D01*
X111675031Y-102950975D01*
X111696192Y-102947363D01*
X111717605Y-102945842D01*
X111739065Y-102946427D01*
X111739065Y-102946427D01*
G37*
D11*
X111936748Y-103424464D03*
D10*
G36*
X111465569Y-104497499D02*
G01*
X111486867Y-104500185D01*
X111991581Y-104589180D01*
X112012513Y-104593941D01*
X112032878Y-104600730D01*
X112052480Y-104609483D01*
X112071129Y-104620115D01*
X112088647Y-104632524D01*
X112104864Y-104646590D01*
X112119624Y-104662178D01*
X112132785Y-104679137D01*
X112144220Y-104697305D01*
X112153819Y-104716506D01*
X112161491Y-104736556D01*
X112167160Y-104757261D01*
X112170772Y-104778422D01*
X112172293Y-104799835D01*
X112171708Y-104821294D01*
X112169022Y-104842593D01*
X112093050Y-105273446D01*
X112088289Y-105294379D01*
X112081500Y-105314744D01*
X112072747Y-105334345D01*
X112062115Y-105352995D01*
X112049706Y-105370512D01*
X112035640Y-105386729D01*
X112020052Y-105401489D01*
X112003092Y-105414650D01*
X111984925Y-105426085D01*
X111965723Y-105435685D01*
X111945674Y-105443356D01*
X111924969Y-105449025D01*
X111903808Y-105452637D01*
X111882395Y-105454158D01*
X111860935Y-105453573D01*
X111839637Y-105450887D01*
X111334923Y-105361892D01*
X111313991Y-105357131D01*
X111293626Y-105350342D01*
X111274024Y-105341589D01*
X111255375Y-105330957D01*
X111237857Y-105318548D01*
X111221640Y-105304482D01*
X111206880Y-105288894D01*
X111193719Y-105271935D01*
X111182284Y-105253767D01*
X111172685Y-105234566D01*
X111165013Y-105214516D01*
X111159344Y-105193811D01*
X111155732Y-105172650D01*
X111154211Y-105151237D01*
X111154796Y-105129778D01*
X111157482Y-105108479D01*
X111233454Y-104677626D01*
X111238215Y-104656693D01*
X111245004Y-104636328D01*
X111253757Y-104616727D01*
X111264389Y-104598077D01*
X111276798Y-104580560D01*
X111290864Y-104564343D01*
X111306452Y-104549583D01*
X111323412Y-104536422D01*
X111341579Y-104524987D01*
X111360781Y-104515387D01*
X111380830Y-104507716D01*
X111401535Y-104502047D01*
X111422696Y-104498435D01*
X111444109Y-104496914D01*
X111465569Y-104497499D01*
X111465569Y-104497499D01*
G37*
D11*
X111663252Y-104975536D03*
D10*
G36*
X159416390Y-39632796D02*
G01*
X159437589Y-39636178D01*
X159458355Y-39641620D01*
X159478487Y-39649073D01*
X159497791Y-39658462D01*
X159516083Y-39669699D01*
X159533185Y-39682674D01*
X159548933Y-39697263D01*
X159563175Y-39713325D01*
X159575774Y-39730706D01*
X159586609Y-39749239D01*
X159595575Y-39768744D01*
X159602586Y-39789034D01*
X159607575Y-39809913D01*
X159610493Y-39831181D01*
X159648623Y-40267016D01*
X159649442Y-40288467D01*
X159648155Y-40309896D01*
X159644773Y-40331095D01*
X159639330Y-40351861D01*
X159631878Y-40371993D01*
X159622489Y-40391298D01*
X159611252Y-40409589D01*
X159598277Y-40426691D01*
X159583688Y-40442439D01*
X159567626Y-40456681D01*
X159550244Y-40469280D01*
X159531712Y-40480115D01*
X159512207Y-40489081D01*
X159491917Y-40496092D01*
X159471038Y-40501081D01*
X159449770Y-40503999D01*
X158939220Y-40548666D01*
X158917769Y-40549485D01*
X158896340Y-40548198D01*
X158875141Y-40544816D01*
X158854375Y-40539374D01*
X158834243Y-40531921D01*
X158814939Y-40522532D01*
X158796647Y-40511295D01*
X158779545Y-40498320D01*
X158763797Y-40483731D01*
X158749555Y-40467669D01*
X158736956Y-40450288D01*
X158726121Y-40431755D01*
X158717155Y-40412250D01*
X158710144Y-40391960D01*
X158705155Y-40371081D01*
X158702237Y-40349813D01*
X158664107Y-39913978D01*
X158663288Y-39892527D01*
X158664575Y-39871098D01*
X158667957Y-39849899D01*
X158673400Y-39829133D01*
X158680852Y-39809001D01*
X158690241Y-39789696D01*
X158701478Y-39771405D01*
X158714453Y-39754303D01*
X158729042Y-39738555D01*
X158745104Y-39724313D01*
X158762486Y-39711714D01*
X158781018Y-39700879D01*
X158800523Y-39691913D01*
X158820813Y-39684902D01*
X158841692Y-39679913D01*
X158862960Y-39676995D01*
X159373510Y-39632328D01*
X159394961Y-39631509D01*
X159416390Y-39632796D01*
X159416390Y-39632796D01*
G37*
D11*
X159156365Y-40090497D03*
D10*
G36*
X159553660Y-41201802D02*
G01*
X159574859Y-41205184D01*
X159595625Y-41210626D01*
X159615757Y-41218079D01*
X159635061Y-41227468D01*
X159653353Y-41238705D01*
X159670455Y-41251680D01*
X159686203Y-41266269D01*
X159700445Y-41282331D01*
X159713044Y-41299712D01*
X159723879Y-41318245D01*
X159732845Y-41337750D01*
X159739856Y-41358040D01*
X159744845Y-41378919D01*
X159747763Y-41400187D01*
X159785893Y-41836022D01*
X159786712Y-41857473D01*
X159785425Y-41878902D01*
X159782043Y-41900101D01*
X159776600Y-41920867D01*
X159769148Y-41940999D01*
X159759759Y-41960304D01*
X159748522Y-41978595D01*
X159735547Y-41995697D01*
X159720958Y-42011445D01*
X159704896Y-42025687D01*
X159687514Y-42038286D01*
X159668982Y-42049121D01*
X159649477Y-42058087D01*
X159629187Y-42065098D01*
X159608308Y-42070087D01*
X159587040Y-42073005D01*
X159076490Y-42117672D01*
X159055039Y-42118491D01*
X159033610Y-42117204D01*
X159012411Y-42113822D01*
X158991645Y-42108380D01*
X158971513Y-42100927D01*
X158952209Y-42091538D01*
X158933917Y-42080301D01*
X158916815Y-42067326D01*
X158901067Y-42052737D01*
X158886825Y-42036675D01*
X158874226Y-42019294D01*
X158863391Y-42000761D01*
X158854425Y-41981256D01*
X158847414Y-41960966D01*
X158842425Y-41940087D01*
X158839507Y-41918819D01*
X158801377Y-41482984D01*
X158800558Y-41461533D01*
X158801845Y-41440104D01*
X158805227Y-41418905D01*
X158810670Y-41398139D01*
X158818122Y-41378007D01*
X158827511Y-41358702D01*
X158838748Y-41340411D01*
X158851723Y-41323309D01*
X158866312Y-41307561D01*
X158882374Y-41293319D01*
X158899756Y-41280720D01*
X158918288Y-41269885D01*
X158937793Y-41260919D01*
X158958083Y-41253908D01*
X158978962Y-41248919D01*
X159000230Y-41246001D01*
X159510780Y-41201334D01*
X159532231Y-41200515D01*
X159553660Y-41201802D01*
X159553660Y-41201802D01*
G37*
D11*
X159293635Y-41659503D03*
D10*
G36*
X111144959Y-99506273D02*
G01*
X111656211Y-99542023D01*
X111677527Y-99544569D01*
X111698490Y-99549193D01*
X111718899Y-99555849D01*
X111738558Y-99564473D01*
X111757276Y-99574983D01*
X111774874Y-99587277D01*
X111791183Y-99601236D01*
X111806045Y-99616727D01*
X111819316Y-99633600D01*
X111830870Y-99651693D01*
X111840595Y-99670831D01*
X111848398Y-99690830D01*
X111854202Y-99711497D01*
X111857953Y-99732634D01*
X111859614Y-99754037D01*
X111859169Y-99775499D01*
X111828651Y-100211933D01*
X111826105Y-100233249D01*
X111821481Y-100254212D01*
X111814825Y-100274621D01*
X111806201Y-100294280D01*
X111795691Y-100312998D01*
X111783397Y-100330596D01*
X111769438Y-100346905D01*
X111753947Y-100361767D01*
X111737074Y-100375038D01*
X111718982Y-100386592D01*
X111699844Y-100396317D01*
X111679845Y-100404120D01*
X111659177Y-100409924D01*
X111638040Y-100413675D01*
X111616637Y-100415336D01*
X111595175Y-100414891D01*
X111083923Y-100379141D01*
X111062607Y-100376595D01*
X111041644Y-100371971D01*
X111021235Y-100365315D01*
X111001576Y-100356691D01*
X110982858Y-100346181D01*
X110965260Y-100333887D01*
X110948951Y-100319928D01*
X110934089Y-100304437D01*
X110920818Y-100287564D01*
X110909264Y-100269471D01*
X110899539Y-100250333D01*
X110891736Y-100230334D01*
X110885932Y-100209667D01*
X110882181Y-100188530D01*
X110880520Y-100167127D01*
X110880965Y-100145665D01*
X110911483Y-99709231D01*
X110914029Y-99687915D01*
X110918653Y-99666952D01*
X110925309Y-99646543D01*
X110933933Y-99626884D01*
X110944443Y-99608166D01*
X110956737Y-99590568D01*
X110970696Y-99574259D01*
X110986187Y-99559397D01*
X111003060Y-99546126D01*
X111021152Y-99534572D01*
X111040290Y-99524847D01*
X111060289Y-99517044D01*
X111080957Y-99511240D01*
X111102094Y-99507489D01*
X111123497Y-99505828D01*
X111144959Y-99506273D01*
X111144959Y-99506273D01*
G37*
D11*
X111370067Y-99960582D03*
D10*
G36*
X111254825Y-97935109D02*
G01*
X111766077Y-97970859D01*
X111787393Y-97973405D01*
X111808356Y-97978029D01*
X111828765Y-97984685D01*
X111848424Y-97993309D01*
X111867142Y-98003819D01*
X111884740Y-98016113D01*
X111901049Y-98030072D01*
X111915911Y-98045563D01*
X111929182Y-98062436D01*
X111940736Y-98080529D01*
X111950461Y-98099667D01*
X111958264Y-98119666D01*
X111964068Y-98140333D01*
X111967819Y-98161470D01*
X111969480Y-98182873D01*
X111969035Y-98204335D01*
X111938517Y-98640769D01*
X111935971Y-98662085D01*
X111931347Y-98683048D01*
X111924691Y-98703457D01*
X111916067Y-98723116D01*
X111905557Y-98741834D01*
X111893263Y-98759432D01*
X111879304Y-98775741D01*
X111863813Y-98790603D01*
X111846940Y-98803874D01*
X111828848Y-98815428D01*
X111809710Y-98825153D01*
X111789711Y-98832956D01*
X111769043Y-98838760D01*
X111747906Y-98842511D01*
X111726503Y-98844172D01*
X111705041Y-98843727D01*
X111193789Y-98807977D01*
X111172473Y-98805431D01*
X111151510Y-98800807D01*
X111131101Y-98794151D01*
X111111442Y-98785527D01*
X111092724Y-98775017D01*
X111075126Y-98762723D01*
X111058817Y-98748764D01*
X111043955Y-98733273D01*
X111030684Y-98716400D01*
X111019130Y-98698307D01*
X111009405Y-98679169D01*
X111001602Y-98659170D01*
X110995798Y-98638503D01*
X110992047Y-98617366D01*
X110990386Y-98595963D01*
X110990831Y-98574501D01*
X111021349Y-98138067D01*
X111023895Y-98116751D01*
X111028519Y-98095788D01*
X111035175Y-98075379D01*
X111043799Y-98055720D01*
X111054309Y-98037002D01*
X111066603Y-98019404D01*
X111080562Y-98003095D01*
X111096053Y-97988233D01*
X111112926Y-97974962D01*
X111131018Y-97963408D01*
X111150156Y-97953683D01*
X111170155Y-97945880D01*
X111190823Y-97940076D01*
X111211960Y-97936325D01*
X111233363Y-97934664D01*
X111254825Y-97935109D01*
X111254825Y-97935109D01*
G37*
D11*
X111479933Y-98389418D03*
D10*
G36*
X116849858Y-114573108D02*
G01*
X116871126Y-114576026D01*
X116892006Y-114581015D01*
X116912296Y-114588026D01*
X116931801Y-114596992D01*
X116950333Y-114607827D01*
X116967714Y-114620426D01*
X116983776Y-114634668D01*
X116998365Y-114650416D01*
X117327794Y-115043014D01*
X117340769Y-115060116D01*
X117352006Y-115078408D01*
X117361395Y-115097712D01*
X117368848Y-115117845D01*
X117374290Y-115138610D01*
X117377672Y-115159809D01*
X117378959Y-115181238D01*
X117378140Y-115202689D01*
X117375222Y-115223957D01*
X117370233Y-115244837D01*
X117363222Y-115265126D01*
X117354256Y-115284631D01*
X117343421Y-115303164D01*
X117330822Y-115320545D01*
X117316580Y-115336607D01*
X117300832Y-115351196D01*
X116965687Y-115632416D01*
X116948585Y-115645391D01*
X116930293Y-115656628D01*
X116910989Y-115666017D01*
X116890856Y-115673470D01*
X116870091Y-115678913D01*
X116848892Y-115682294D01*
X116827463Y-115683581D01*
X116806012Y-115682762D01*
X116784744Y-115679844D01*
X116763864Y-115674855D01*
X116743574Y-115667844D01*
X116724069Y-115658878D01*
X116705537Y-115648043D01*
X116688156Y-115635444D01*
X116672094Y-115621202D01*
X116657505Y-115605454D01*
X116328076Y-115212856D01*
X116315101Y-115195754D01*
X116303864Y-115177462D01*
X116294475Y-115158158D01*
X116287022Y-115138025D01*
X116281580Y-115117260D01*
X116278198Y-115096061D01*
X116276911Y-115074632D01*
X116277730Y-115053181D01*
X116280648Y-115031913D01*
X116285637Y-115011033D01*
X116292648Y-114990744D01*
X116301614Y-114971239D01*
X116312449Y-114952706D01*
X116325048Y-114935325D01*
X116339290Y-114919263D01*
X116355038Y-114904674D01*
X116690183Y-114623454D01*
X116707285Y-114610479D01*
X116725577Y-114599242D01*
X116744881Y-114589853D01*
X116765014Y-114582400D01*
X116785779Y-114576957D01*
X116806978Y-114573576D01*
X116828407Y-114572289D01*
X116849858Y-114573108D01*
X116849858Y-114573108D01*
G37*
D11*
X116827935Y-115127935D03*
D10*
G36*
X118056378Y-113560718D02*
G01*
X118077646Y-113563636D01*
X118098526Y-113568625D01*
X118118816Y-113575636D01*
X118138321Y-113584602D01*
X118156853Y-113595437D01*
X118174234Y-113608036D01*
X118190296Y-113622278D01*
X118204885Y-113638026D01*
X118534314Y-114030624D01*
X118547289Y-114047726D01*
X118558526Y-114066018D01*
X118567915Y-114085322D01*
X118575368Y-114105455D01*
X118580810Y-114126220D01*
X118584192Y-114147419D01*
X118585479Y-114168848D01*
X118584660Y-114190299D01*
X118581742Y-114211567D01*
X118576753Y-114232447D01*
X118569742Y-114252736D01*
X118560776Y-114272241D01*
X118549941Y-114290774D01*
X118537342Y-114308155D01*
X118523100Y-114324217D01*
X118507352Y-114338806D01*
X118172207Y-114620026D01*
X118155105Y-114633001D01*
X118136813Y-114644238D01*
X118117509Y-114653627D01*
X118097376Y-114661080D01*
X118076611Y-114666523D01*
X118055412Y-114669904D01*
X118033983Y-114671191D01*
X118012532Y-114670372D01*
X117991264Y-114667454D01*
X117970384Y-114662465D01*
X117950094Y-114655454D01*
X117930589Y-114646488D01*
X117912057Y-114635653D01*
X117894676Y-114623054D01*
X117878614Y-114608812D01*
X117864025Y-114593064D01*
X117534596Y-114200466D01*
X117521621Y-114183364D01*
X117510384Y-114165072D01*
X117500995Y-114145768D01*
X117493542Y-114125635D01*
X117488100Y-114104870D01*
X117484718Y-114083671D01*
X117483431Y-114062242D01*
X117484250Y-114040791D01*
X117487168Y-114019523D01*
X117492157Y-113998643D01*
X117499168Y-113978354D01*
X117508134Y-113958849D01*
X117518969Y-113940316D01*
X117531568Y-113922935D01*
X117545810Y-113906873D01*
X117561558Y-113892284D01*
X117896703Y-113611064D01*
X117913805Y-113598089D01*
X117932097Y-113586852D01*
X117951401Y-113577463D01*
X117971534Y-113570010D01*
X117992299Y-113564567D01*
X118013498Y-113561186D01*
X118034927Y-113559899D01*
X118056378Y-113560718D01*
X118056378Y-113560718D01*
G37*
D11*
X118034455Y-114115545D03*
D10*
G36*
X119288994Y-117927280D02*
G01*
X119310346Y-117929501D01*
X119331377Y-117933804D01*
X119351886Y-117940147D01*
X119763001Y-118089781D01*
X119782789Y-118098104D01*
X119801666Y-118108327D01*
X119819450Y-118120351D01*
X119835969Y-118134060D01*
X119851066Y-118149322D01*
X119864594Y-118165990D01*
X119876423Y-118183904D01*
X119886439Y-118202891D01*
X119894546Y-118222769D01*
X119900665Y-118243345D01*
X119904738Y-118264423D01*
X119906726Y-118285797D01*
X119906609Y-118307264D01*
X119904388Y-118328616D01*
X119900085Y-118349648D01*
X119893742Y-118370156D01*
X119718457Y-118851748D01*
X119710134Y-118871536D01*
X119699911Y-118890413D01*
X119687887Y-118908197D01*
X119674178Y-118924716D01*
X119658916Y-118939813D01*
X119642248Y-118953341D01*
X119624334Y-118965170D01*
X119605347Y-118975186D01*
X119585469Y-118983293D01*
X119564893Y-118989412D01*
X119543816Y-118993485D01*
X119522441Y-118995473D01*
X119500974Y-118995356D01*
X119479622Y-118993135D01*
X119458591Y-118988832D01*
X119438082Y-118982489D01*
X119026967Y-118832855D01*
X119007179Y-118824532D01*
X118988302Y-118814309D01*
X118970518Y-118802285D01*
X118953999Y-118788576D01*
X118938902Y-118773314D01*
X118925374Y-118756646D01*
X118913545Y-118738732D01*
X118903529Y-118719745D01*
X118895422Y-118699867D01*
X118889303Y-118679291D01*
X118885230Y-118658213D01*
X118883242Y-118636839D01*
X118883359Y-118615372D01*
X118885580Y-118594020D01*
X118889883Y-118572988D01*
X118896226Y-118552480D01*
X119071511Y-118070888D01*
X119079834Y-118051100D01*
X119090057Y-118032223D01*
X119102081Y-118014439D01*
X119115790Y-117997920D01*
X119131052Y-117982823D01*
X119147720Y-117969295D01*
X119165634Y-117957466D01*
X119184621Y-117947450D01*
X119204499Y-117939343D01*
X119225075Y-117933224D01*
X119246152Y-117929151D01*
X119267527Y-117927163D01*
X119288994Y-117927280D01*
X119288994Y-117927280D01*
G37*
D11*
X119394984Y-118461318D03*
D10*
G36*
X120769010Y-118465962D02*
G01*
X120790362Y-118468183D01*
X120811393Y-118472486D01*
X120831902Y-118478829D01*
X121243017Y-118628463D01*
X121262805Y-118636786D01*
X121281682Y-118647009D01*
X121299466Y-118659033D01*
X121315985Y-118672742D01*
X121331082Y-118688004D01*
X121344610Y-118704672D01*
X121356439Y-118722586D01*
X121366455Y-118741573D01*
X121374562Y-118761451D01*
X121380681Y-118782027D01*
X121384754Y-118803105D01*
X121386742Y-118824479D01*
X121386625Y-118845946D01*
X121384404Y-118867298D01*
X121380101Y-118888330D01*
X121373758Y-118908838D01*
X121198473Y-119390430D01*
X121190150Y-119410218D01*
X121179927Y-119429095D01*
X121167903Y-119446879D01*
X121154194Y-119463398D01*
X121138932Y-119478495D01*
X121122264Y-119492023D01*
X121104350Y-119503852D01*
X121085363Y-119513868D01*
X121065485Y-119521975D01*
X121044909Y-119528094D01*
X121023832Y-119532167D01*
X121002457Y-119534155D01*
X120980990Y-119534038D01*
X120959638Y-119531817D01*
X120938607Y-119527514D01*
X120918098Y-119521171D01*
X120506983Y-119371537D01*
X120487195Y-119363214D01*
X120468318Y-119352991D01*
X120450534Y-119340967D01*
X120434015Y-119327258D01*
X120418918Y-119311996D01*
X120405390Y-119295328D01*
X120393561Y-119277414D01*
X120383545Y-119258427D01*
X120375438Y-119238549D01*
X120369319Y-119217973D01*
X120365246Y-119196895D01*
X120363258Y-119175521D01*
X120363375Y-119154054D01*
X120365596Y-119132702D01*
X120369899Y-119111670D01*
X120376242Y-119091162D01*
X120551527Y-118609570D01*
X120559850Y-118589782D01*
X120570073Y-118570905D01*
X120582097Y-118553121D01*
X120595806Y-118536602D01*
X120611068Y-118521505D01*
X120627736Y-118507977D01*
X120645650Y-118496148D01*
X120664637Y-118486132D01*
X120684515Y-118478025D01*
X120705091Y-118471906D01*
X120726168Y-118467833D01*
X120747543Y-118465845D01*
X120769010Y-118465962D01*
X120769010Y-118465962D01*
G37*
D11*
X120875000Y-119000000D03*
D10*
G36*
X135480516Y-159715483D02*
G01*
X135501715Y-159718864D01*
X135522480Y-159724307D01*
X135542613Y-159731760D01*
X135561917Y-159741149D01*
X135580209Y-159752386D01*
X135597311Y-159765361D01*
X135989909Y-160094790D01*
X136005657Y-160109379D01*
X136019899Y-160125441D01*
X136032498Y-160142822D01*
X136043333Y-160161355D01*
X136052299Y-160180860D01*
X136059310Y-160201149D01*
X136064299Y-160222029D01*
X136067217Y-160243297D01*
X136068036Y-160264748D01*
X136066749Y-160286177D01*
X136063367Y-160307376D01*
X136057925Y-160328141D01*
X136050472Y-160348274D01*
X136041083Y-160367578D01*
X136029846Y-160385870D01*
X136016871Y-160402972D01*
X135735651Y-160738117D01*
X135721062Y-160753865D01*
X135705000Y-160768107D01*
X135687619Y-160780706D01*
X135669087Y-160791541D01*
X135649582Y-160800507D01*
X135629292Y-160807518D01*
X135608412Y-160812507D01*
X135587144Y-160815425D01*
X135565693Y-160816244D01*
X135544264Y-160814957D01*
X135523065Y-160811576D01*
X135502300Y-160806133D01*
X135482167Y-160798680D01*
X135462863Y-160789291D01*
X135444571Y-160778054D01*
X135427469Y-160765079D01*
X135034871Y-160435650D01*
X135019123Y-160421061D01*
X135004881Y-160404999D01*
X134992282Y-160387618D01*
X134981447Y-160369085D01*
X134972481Y-160349580D01*
X134965470Y-160329291D01*
X134960481Y-160308411D01*
X134957563Y-160287143D01*
X134956744Y-160265692D01*
X134958031Y-160244263D01*
X134961413Y-160223064D01*
X134966855Y-160202299D01*
X134974308Y-160182166D01*
X134983697Y-160162862D01*
X134994934Y-160144570D01*
X135007909Y-160127468D01*
X135289129Y-159792323D01*
X135303718Y-159776575D01*
X135319780Y-159762333D01*
X135337161Y-159749734D01*
X135355693Y-159738899D01*
X135375198Y-159729933D01*
X135395488Y-159722922D01*
X135416368Y-159717933D01*
X135437636Y-159715015D01*
X135459087Y-159714196D01*
X135480516Y-159715483D01*
X135480516Y-159715483D01*
G37*
D11*
X135512390Y-160265220D03*
D10*
G36*
X134468126Y-160922003D02*
G01*
X134489325Y-160925384D01*
X134510090Y-160930827D01*
X134530223Y-160938280D01*
X134549527Y-160947669D01*
X134567819Y-160958906D01*
X134584921Y-160971881D01*
X134977519Y-161301310D01*
X134993267Y-161315899D01*
X135007509Y-161331961D01*
X135020108Y-161349342D01*
X135030943Y-161367875D01*
X135039909Y-161387380D01*
X135046920Y-161407669D01*
X135051909Y-161428549D01*
X135054827Y-161449817D01*
X135055646Y-161471268D01*
X135054359Y-161492697D01*
X135050977Y-161513896D01*
X135045535Y-161534661D01*
X135038082Y-161554794D01*
X135028693Y-161574098D01*
X135017456Y-161592390D01*
X135004481Y-161609492D01*
X134723261Y-161944637D01*
X134708672Y-161960385D01*
X134692610Y-161974627D01*
X134675229Y-161987226D01*
X134656697Y-161998061D01*
X134637192Y-162007027D01*
X134616902Y-162014038D01*
X134596022Y-162019027D01*
X134574754Y-162021945D01*
X134553303Y-162022764D01*
X134531874Y-162021477D01*
X134510675Y-162018096D01*
X134489910Y-162012653D01*
X134469777Y-162005200D01*
X134450473Y-161995811D01*
X134432181Y-161984574D01*
X134415079Y-161971599D01*
X134022481Y-161642170D01*
X134006733Y-161627581D01*
X133992491Y-161611519D01*
X133979892Y-161594138D01*
X133969057Y-161575605D01*
X133960091Y-161556100D01*
X133953080Y-161535811D01*
X133948091Y-161514931D01*
X133945173Y-161493663D01*
X133944354Y-161472212D01*
X133945641Y-161450783D01*
X133949023Y-161429584D01*
X133954465Y-161408819D01*
X133961918Y-161388686D01*
X133971307Y-161369382D01*
X133982544Y-161351090D01*
X133995519Y-161333988D01*
X134276739Y-160998843D01*
X134291328Y-160983095D01*
X134307390Y-160968853D01*
X134324771Y-160956254D01*
X134343303Y-160945419D01*
X134362808Y-160936453D01*
X134383098Y-160929442D01*
X134403978Y-160924453D01*
X134425246Y-160921535D01*
X134446697Y-160920716D01*
X134468126Y-160922003D01*
X134468126Y-160922003D01*
G37*
D11*
X134500000Y-161471740D03*
D23*
X174815178Y-27830688D03*
D10*
G36*
X174654581Y-26725308D02*
G01*
X175875877Y-28180793D01*
X174975775Y-28936068D01*
X173754479Y-27480583D01*
X174654581Y-26725308D01*
X174654581Y-26725308D01*
G37*
D23*
X176102132Y-26750805D03*
D10*
G36*
X175941535Y-25645425D02*
G01*
X177162831Y-27100910D01*
X176262729Y-27856185D01*
X175041433Y-26400700D01*
X175941535Y-25645425D01*
X175941535Y-25645425D01*
G37*
D24*
X173229466Y-29161259D03*
D10*
G36*
X173528496Y-27670206D02*
G01*
X174749792Y-29125691D01*
X172930436Y-30652312D01*
X171709140Y-29196827D01*
X173528496Y-27670206D01*
X173528496Y-27670206D01*
G37*
D24*
X177687844Y-25420235D03*
D10*
G36*
X177986874Y-23929182D02*
G01*
X179208170Y-25384667D01*
X177388814Y-26911288D01*
X176167518Y-25455803D01*
X177986874Y-23929182D01*
X177986874Y-23929182D01*
G37*
D25*
X175050682Y-30635513D03*
D10*
G36*
X174940713Y-29357110D02*
G01*
X176290567Y-30965804D01*
X175160651Y-31913916D01*
X173810797Y-30305222D01*
X174940713Y-29357110D01*
X174940713Y-29357110D01*
G37*
D25*
X178823451Y-27469784D03*
D10*
G36*
X178713482Y-26191381D02*
G01*
X180063336Y-27800075D01*
X178933420Y-28748187D01*
X177583566Y-27139493D01*
X178713482Y-26191381D01*
X178713482Y-26191381D01*
G37*
D26*
X176172612Y-30164049D03*
D10*
G36*
X175901449Y-29490851D02*
G01*
X176788495Y-30547992D01*
X176443775Y-30837247D01*
X175556729Y-29780106D01*
X175901449Y-29490851D01*
X175901449Y-29490851D01*
G37*
D26*
X176670541Y-29746237D03*
D10*
G36*
X176399378Y-29073039D02*
G01*
X177286424Y-30130180D01*
X176941704Y-30419435D01*
X176054658Y-29362294D01*
X176399378Y-29073039D01*
X176399378Y-29073039D01*
G37*
D26*
X177168470Y-29328425D03*
D10*
G36*
X176897307Y-28655227D02*
G01*
X177784353Y-29712368D01*
X177439633Y-30001623D01*
X176552587Y-28944482D01*
X176897307Y-28655227D01*
X176897307Y-28655227D01*
G37*
D26*
X177666399Y-28910613D03*
D10*
G36*
X177395236Y-28237415D02*
G01*
X178282282Y-29294556D01*
X177937562Y-29583811D01*
X177050516Y-28526670D01*
X177395236Y-28237415D01*
X177395236Y-28237415D01*
G37*
D26*
X178164328Y-28492801D03*
D10*
G36*
X177893165Y-27819603D02*
G01*
X178780211Y-28876744D01*
X178435491Y-29165999D01*
X177548445Y-28108858D01*
X177893165Y-27819603D01*
X177893165Y-27819603D01*
G37*
D27*
X131698349Y-177110501D03*
D10*
G36*
X132594276Y-177209569D02*
G01*
X131951489Y-177975614D01*
X130802422Y-177011433D01*
X131445209Y-176245388D01*
X132594276Y-177209569D01*
X132594276Y-177209569D01*
G37*
D27*
X133755269Y-174659159D03*
D10*
G36*
X134651196Y-174758227D02*
G01*
X134008409Y-175524272D01*
X132859342Y-174560091D01*
X133502129Y-173794046D01*
X134651196Y-174758227D01*
X134651196Y-174758227D01*
G37*
D27*
X127944731Y-173960841D03*
D10*
G36*
X128840658Y-174059909D02*
G01*
X128197871Y-174825954D01*
X127048804Y-173861773D01*
X127691591Y-173095728D01*
X128840658Y-174059909D01*
X128840658Y-174059909D01*
G37*
D27*
X130001651Y-171509499D03*
D10*
G36*
X130897578Y-171608567D02*
G01*
X130254791Y-172374612D01*
X129105724Y-171410431D01*
X129748511Y-170644386D01*
X130897578Y-171608567D01*
X130897578Y-171608567D01*
G37*
D27*
X117409441Y-158099479D03*
D10*
G36*
X118135802Y-158633238D02*
G01*
X117196110Y-158975259D01*
X116683080Y-157565720D01*
X117622772Y-157223699D01*
X118135802Y-158633238D01*
X118135802Y-158633238D01*
G37*
D27*
X120416458Y-157005015D03*
D10*
G36*
X121142819Y-157538774D02*
G01*
X120203127Y-157880795D01*
X119690097Y-156471256D01*
X120629789Y-156129235D01*
X121142819Y-157538774D01*
X121142819Y-157538774D01*
G37*
D27*
X115733542Y-153494985D03*
D10*
G36*
X116459903Y-154028744D02*
G01*
X115520211Y-154370765D01*
X115007181Y-152961226D01*
X115946873Y-152619205D01*
X116459903Y-154028744D01*
X116459903Y-154028744D01*
G37*
D27*
X118740559Y-152400521D03*
D10*
G36*
X119466920Y-152934280D02*
G01*
X118527228Y-153276301D01*
X118014198Y-151866762D01*
X118953890Y-151524741D01*
X119466920Y-152934280D01*
X119466920Y-152934280D01*
G37*
D27*
X111130416Y-122530380D03*
D10*
G36*
X111668983Y-123253184D02*
G01*
X110670353Y-123305520D01*
X110591849Y-121807576D01*
X111590479Y-121755240D01*
X111668983Y-123253184D01*
X111668983Y-123253184D01*
G37*
D27*
X114326030Y-122362905D03*
D10*
G36*
X114864597Y-123085709D02*
G01*
X113865967Y-123138045D01*
X113787463Y-121640101D01*
X114786093Y-121587765D01*
X114864597Y-123085709D01*
X114864597Y-123085709D01*
G37*
D27*
X110873970Y-117637095D03*
D10*
G36*
X111412537Y-118359899D02*
G01*
X110413907Y-118412235D01*
X110335403Y-116914291D01*
X111334033Y-116861955D01*
X111412537Y-118359899D01*
X111412537Y-118359899D01*
G37*
D27*
X114069584Y-117469620D03*
D10*
G36*
X114608151Y-118192424D02*
G01*
X113609521Y-118244760D01*
X113531017Y-116746816D01*
X114529647Y-116694480D01*
X114608151Y-118192424D01*
X114608151Y-118192424D01*
G37*
D27*
X114420412Y-83352408D03*
D10*
G36*
X114709261Y-84206262D02*
G01*
X113743335Y-83947443D01*
X114131563Y-82498554D01*
X115097489Y-82757373D01*
X114709261Y-84206262D01*
X114709261Y-84206262D01*
G37*
D27*
X117511375Y-84180629D03*
D10*
G36*
X117800224Y-85034483D02*
G01*
X116834298Y-84775664D01*
X117222526Y-83326775D01*
X118188452Y-83585594D01*
X117800224Y-85034483D01*
X117800224Y-85034483D01*
G37*
D27*
X115688625Y-78619371D03*
D10*
G36*
X115977474Y-79473225D02*
G01*
X115011548Y-79214406D01*
X115399776Y-77765517D01*
X116365702Y-78024336D01*
X115977474Y-79473225D01*
X115977474Y-79473225D01*
G37*
D27*
X118779588Y-79447592D03*
D10*
G36*
X119068437Y-80301446D02*
G01*
X118102511Y-80042627D01*
X118490739Y-78593738D01*
X119456665Y-78852557D01*
X119068437Y-80301446D01*
X119068437Y-80301446D01*
G37*
D27*
X128072736Y-50568753D03*
D10*
G36*
X128020692Y-51468637D02*
G01*
X127222057Y-50866822D01*
X128124780Y-49668869D01*
X128923415Y-50270684D01*
X128020692Y-51468637D01*
X128020692Y-51468637D01*
G37*
D27*
X130628370Y-52494561D03*
D10*
G36*
X130576326Y-53394445D02*
G01*
X129777691Y-52792630D01*
X130680414Y-51594677D01*
X131479049Y-52196492D01*
X130576326Y-53394445D01*
X130576326Y-53394445D01*
G37*
D27*
X131021630Y-46655439D03*
D10*
G36*
X130969586Y-47555323D02*
G01*
X130170951Y-46953508D01*
X131073674Y-45755555D01*
X131872309Y-46357370D01*
X130969586Y-47555323D01*
X130969586Y-47555323D01*
G37*
D27*
X133577264Y-48581247D03*
D10*
G36*
X133525220Y-49481131D02*
G01*
X132726585Y-48879316D01*
X133629308Y-47681363D01*
X134427943Y-48283178D01*
X133525220Y-49481131D01*
X133525220Y-49481131D01*
G37*
D28*
X155180000Y-31180000D03*
X155180000Y-34380000D03*
X160080000Y-31180000D03*
X160080000Y-34380000D03*
D10*
G36*
X123346578Y-79529228D02*
G01*
X123367739Y-79532840D01*
X123388444Y-79538509D01*
X123408493Y-79546180D01*
X123427695Y-79555780D01*
X123445862Y-79567215D01*
X123462822Y-79580376D01*
X123478410Y-79595136D01*
X123492476Y-79611353D01*
X123504885Y-79628870D01*
X123515517Y-79647520D01*
X123524270Y-79667121D01*
X123531059Y-79687486D01*
X123535820Y-79708419D01*
X123624815Y-80213133D01*
X123627501Y-80234432D01*
X123628086Y-80255891D01*
X123626565Y-80277304D01*
X123622953Y-80298465D01*
X123617284Y-80319170D01*
X123609612Y-80339220D01*
X123600013Y-80358421D01*
X123588578Y-80376589D01*
X123575417Y-80393548D01*
X123560657Y-80409136D01*
X123544440Y-80423202D01*
X123526922Y-80435611D01*
X123508273Y-80446243D01*
X123488671Y-80454996D01*
X123468306Y-80461785D01*
X123447374Y-80466546D01*
X123016521Y-80542518D01*
X122995223Y-80545204D01*
X122973763Y-80545789D01*
X122952350Y-80544268D01*
X122931189Y-80540656D01*
X122910484Y-80534987D01*
X122890435Y-80527316D01*
X122871233Y-80517716D01*
X122853066Y-80506281D01*
X122836106Y-80493120D01*
X122820518Y-80478360D01*
X122806452Y-80462143D01*
X122794043Y-80444626D01*
X122783411Y-80425976D01*
X122774658Y-80406375D01*
X122767869Y-80386010D01*
X122763108Y-80365077D01*
X122674113Y-79860363D01*
X122671427Y-79839064D01*
X122670842Y-79817605D01*
X122672363Y-79796192D01*
X122675975Y-79775031D01*
X122681644Y-79754326D01*
X122689316Y-79734276D01*
X122698915Y-79715075D01*
X122710350Y-79696907D01*
X122723511Y-79679948D01*
X122738271Y-79664360D01*
X122754488Y-79650294D01*
X122772006Y-79637885D01*
X122790655Y-79627253D01*
X122810257Y-79618500D01*
X122830622Y-79611711D01*
X122851554Y-79606950D01*
X123282407Y-79530978D01*
X123303705Y-79528292D01*
X123325165Y-79527707D01*
X123346578Y-79529228D01*
X123346578Y-79529228D01*
G37*
D11*
X123149464Y-80036748D03*
D10*
G36*
X124897650Y-79255732D02*
G01*
X124918811Y-79259344D01*
X124939516Y-79265013D01*
X124959565Y-79272684D01*
X124978767Y-79282284D01*
X124996934Y-79293719D01*
X125013894Y-79306880D01*
X125029482Y-79321640D01*
X125043548Y-79337857D01*
X125055957Y-79355374D01*
X125066589Y-79374024D01*
X125075342Y-79393625D01*
X125082131Y-79413990D01*
X125086892Y-79434923D01*
X125175887Y-79939637D01*
X125178573Y-79960936D01*
X125179158Y-79982395D01*
X125177637Y-80003808D01*
X125174025Y-80024969D01*
X125168356Y-80045674D01*
X125160684Y-80065724D01*
X125151085Y-80084925D01*
X125139650Y-80103093D01*
X125126489Y-80120052D01*
X125111729Y-80135640D01*
X125095512Y-80149706D01*
X125077994Y-80162115D01*
X125059345Y-80172747D01*
X125039743Y-80181500D01*
X125019378Y-80188289D01*
X124998446Y-80193050D01*
X124567593Y-80269022D01*
X124546295Y-80271708D01*
X124524835Y-80272293D01*
X124503422Y-80270772D01*
X124482261Y-80267160D01*
X124461556Y-80261491D01*
X124441507Y-80253820D01*
X124422305Y-80244220D01*
X124404138Y-80232785D01*
X124387178Y-80219624D01*
X124371590Y-80204864D01*
X124357524Y-80188647D01*
X124345115Y-80171130D01*
X124334483Y-80152480D01*
X124325730Y-80132879D01*
X124318941Y-80112514D01*
X124314180Y-80091581D01*
X124225185Y-79586867D01*
X124222499Y-79565568D01*
X124221914Y-79544109D01*
X124223435Y-79522696D01*
X124227047Y-79501535D01*
X124232716Y-79480830D01*
X124240388Y-79460780D01*
X124249987Y-79441579D01*
X124261422Y-79423411D01*
X124274583Y-79406452D01*
X124289343Y-79390864D01*
X124305560Y-79376798D01*
X124323078Y-79364389D01*
X124341727Y-79353757D01*
X124361329Y-79345004D01*
X124381694Y-79338215D01*
X124402626Y-79333454D01*
X124833479Y-79257482D01*
X124854777Y-79254796D01*
X124876237Y-79254211D01*
X124897650Y-79255732D01*
X124897650Y-79255732D01*
G37*
D11*
X124700536Y-79763252D03*
D10*
G36*
X142564351Y-37075160D02*
G01*
X142585677Y-37077614D01*
X142606661Y-37082146D01*
X142627099Y-37088713D01*
X142646795Y-37097251D01*
X142665559Y-37107679D01*
X142683211Y-37119896D01*
X142699580Y-37133784D01*
X142714509Y-37149210D01*
X142727854Y-37166025D01*
X142739487Y-37184067D01*
X142958237Y-37562953D01*
X142968045Y-37582048D01*
X142975935Y-37602013D01*
X142981830Y-37622655D01*
X142985673Y-37643775D01*
X142987427Y-37665171D01*
X142987076Y-37686635D01*
X142984622Y-37707961D01*
X142980090Y-37728945D01*
X142973523Y-37749383D01*
X142964985Y-37769079D01*
X142954557Y-37787843D01*
X142942340Y-37805495D01*
X142928452Y-37821864D01*
X142913026Y-37836793D01*
X142896211Y-37850138D01*
X142878169Y-37861771D01*
X142434331Y-38118021D01*
X142415236Y-38127829D01*
X142395271Y-38135719D01*
X142374629Y-38141614D01*
X142353509Y-38145457D01*
X142332113Y-38147211D01*
X142310649Y-38146860D01*
X142289323Y-38144406D01*
X142268339Y-38139874D01*
X142247901Y-38133307D01*
X142228205Y-38124769D01*
X142209441Y-38114341D01*
X142191789Y-38102124D01*
X142175420Y-38088236D01*
X142160491Y-38072810D01*
X142147146Y-38055995D01*
X142135513Y-38037953D01*
X141916763Y-37659067D01*
X141906955Y-37639972D01*
X141899065Y-37620007D01*
X141893170Y-37599365D01*
X141889327Y-37578245D01*
X141887573Y-37556849D01*
X141887924Y-37535385D01*
X141890378Y-37514059D01*
X141894910Y-37493075D01*
X141901477Y-37472637D01*
X141910015Y-37452941D01*
X141920443Y-37434177D01*
X141932660Y-37416525D01*
X141946548Y-37400156D01*
X141961974Y-37385227D01*
X141978789Y-37371882D01*
X141996831Y-37360249D01*
X142440669Y-37103999D01*
X142459764Y-37094191D01*
X142479729Y-37086301D01*
X142500371Y-37080406D01*
X142521491Y-37076563D01*
X142542887Y-37074809D01*
X142564351Y-37075160D01*
X142564351Y-37075160D01*
G37*
D11*
X142437500Y-37611010D03*
D10*
G36*
X143351851Y-38439150D02*
G01*
X143373177Y-38441604D01*
X143394161Y-38446136D01*
X143414599Y-38452703D01*
X143434295Y-38461241D01*
X143453059Y-38471669D01*
X143470711Y-38483886D01*
X143487080Y-38497774D01*
X143502009Y-38513200D01*
X143515354Y-38530015D01*
X143526987Y-38548057D01*
X143745737Y-38926943D01*
X143755545Y-38946038D01*
X143763435Y-38966003D01*
X143769330Y-38986645D01*
X143773173Y-39007765D01*
X143774927Y-39029161D01*
X143774576Y-39050625D01*
X143772122Y-39071951D01*
X143767590Y-39092935D01*
X143761023Y-39113373D01*
X143752485Y-39133069D01*
X143742057Y-39151833D01*
X143729840Y-39169485D01*
X143715952Y-39185854D01*
X143700526Y-39200783D01*
X143683711Y-39214128D01*
X143665669Y-39225761D01*
X143221831Y-39482011D01*
X143202736Y-39491819D01*
X143182771Y-39499709D01*
X143162129Y-39505604D01*
X143141009Y-39509447D01*
X143119613Y-39511201D01*
X143098149Y-39510850D01*
X143076823Y-39508396D01*
X143055839Y-39503864D01*
X143035401Y-39497297D01*
X143015705Y-39488759D01*
X142996941Y-39478331D01*
X142979289Y-39466114D01*
X142962920Y-39452226D01*
X142947991Y-39436800D01*
X142934646Y-39419985D01*
X142923013Y-39401943D01*
X142704263Y-39023057D01*
X142694455Y-39003962D01*
X142686565Y-38983997D01*
X142680670Y-38963355D01*
X142676827Y-38942235D01*
X142675073Y-38920839D01*
X142675424Y-38899375D01*
X142677878Y-38878049D01*
X142682410Y-38857065D01*
X142688977Y-38836627D01*
X142697515Y-38816931D01*
X142707943Y-38798167D01*
X142720160Y-38780515D01*
X142734048Y-38764146D01*
X142749474Y-38749217D01*
X142766289Y-38735872D01*
X142784331Y-38724239D01*
X143228169Y-38467989D01*
X143247264Y-38458181D01*
X143267229Y-38450291D01*
X143287871Y-38444396D01*
X143308991Y-38440553D01*
X143330387Y-38438799D01*
X143351851Y-38439150D01*
X143351851Y-38439150D01*
G37*
D11*
X143225000Y-38975000D03*
D10*
G36*
X122322999Y-86594943D02*
G01*
X122344325Y-86597397D01*
X122365308Y-86601929D01*
X122787901Y-86715162D01*
X122808339Y-86721729D01*
X122828035Y-86730267D01*
X122846800Y-86740695D01*
X122864451Y-86752912D01*
X122880821Y-86766800D01*
X122895750Y-86782226D01*
X122909095Y-86799041D01*
X122920728Y-86817083D01*
X122930536Y-86836178D01*
X122938426Y-86856143D01*
X122944321Y-86876785D01*
X122948164Y-86897905D01*
X122949918Y-86919300D01*
X122949567Y-86940765D01*
X122947113Y-86962091D01*
X122942581Y-86983075D01*
X122809936Y-87478112D01*
X122803369Y-87498550D01*
X122794831Y-87518246D01*
X122784403Y-87537010D01*
X122772186Y-87554662D01*
X122758298Y-87571031D01*
X122742872Y-87585960D01*
X122726057Y-87599305D01*
X122708015Y-87610938D01*
X122688920Y-87620747D01*
X122668955Y-87628636D01*
X122648313Y-87634531D01*
X122627193Y-87638374D01*
X122605797Y-87640128D01*
X122584333Y-87639777D01*
X122563007Y-87637323D01*
X122542024Y-87632791D01*
X122119431Y-87519558D01*
X122098993Y-87512991D01*
X122079297Y-87504453D01*
X122060532Y-87494025D01*
X122042881Y-87481808D01*
X122026511Y-87467920D01*
X122011582Y-87452494D01*
X121998237Y-87435679D01*
X121986604Y-87417637D01*
X121976796Y-87398542D01*
X121968906Y-87378577D01*
X121963011Y-87357935D01*
X121959168Y-87336815D01*
X121957414Y-87315420D01*
X121957765Y-87293955D01*
X121960219Y-87272629D01*
X121964751Y-87251645D01*
X122097396Y-86756608D01*
X122103963Y-86736170D01*
X122112501Y-86716474D01*
X122122929Y-86697710D01*
X122135146Y-86680058D01*
X122149034Y-86663689D01*
X122164460Y-86648760D01*
X122181275Y-86635415D01*
X122199317Y-86623782D01*
X122218412Y-86613973D01*
X122238377Y-86606084D01*
X122259019Y-86600189D01*
X122280139Y-86596346D01*
X122301535Y-86594592D01*
X122322999Y-86594943D01*
X122322999Y-86594943D01*
G37*
D11*
X122453666Y-87117360D03*
D10*
G36*
X123844333Y-87002583D02*
G01*
X123865659Y-87005037D01*
X123886642Y-87009569D01*
X124309235Y-87122802D01*
X124329673Y-87129369D01*
X124349369Y-87137907D01*
X124368134Y-87148335D01*
X124385785Y-87160552D01*
X124402155Y-87174440D01*
X124417084Y-87189866D01*
X124430429Y-87206681D01*
X124442062Y-87224723D01*
X124451870Y-87243818D01*
X124459760Y-87263783D01*
X124465655Y-87284425D01*
X124469498Y-87305545D01*
X124471252Y-87326940D01*
X124470901Y-87348405D01*
X124468447Y-87369731D01*
X124463915Y-87390715D01*
X124331270Y-87885752D01*
X124324703Y-87906190D01*
X124316165Y-87925886D01*
X124305737Y-87944650D01*
X124293520Y-87962302D01*
X124279632Y-87978671D01*
X124264206Y-87993600D01*
X124247391Y-88006945D01*
X124229349Y-88018578D01*
X124210254Y-88028387D01*
X124190289Y-88036276D01*
X124169647Y-88042171D01*
X124148527Y-88046014D01*
X124127131Y-88047768D01*
X124105667Y-88047417D01*
X124084341Y-88044963D01*
X124063358Y-88040431D01*
X123640765Y-87927198D01*
X123620327Y-87920631D01*
X123600631Y-87912093D01*
X123581866Y-87901665D01*
X123564215Y-87889448D01*
X123547845Y-87875560D01*
X123532916Y-87860134D01*
X123519571Y-87843319D01*
X123507938Y-87825277D01*
X123498130Y-87806182D01*
X123490240Y-87786217D01*
X123484345Y-87765575D01*
X123480502Y-87744455D01*
X123478748Y-87723060D01*
X123479099Y-87701595D01*
X123481553Y-87680269D01*
X123486085Y-87659285D01*
X123618730Y-87164248D01*
X123625297Y-87143810D01*
X123633835Y-87124114D01*
X123644263Y-87105350D01*
X123656480Y-87087698D01*
X123670368Y-87071329D01*
X123685794Y-87056400D01*
X123702609Y-87043055D01*
X123720651Y-87031422D01*
X123739746Y-87021613D01*
X123759711Y-87013724D01*
X123780353Y-87007829D01*
X123801473Y-87003986D01*
X123822869Y-87002232D01*
X123844333Y-87002583D01*
X123844333Y-87002583D01*
G37*
D11*
X123975000Y-87525000D03*
D10*
G36*
X184672650Y-28155732D02*
G01*
X184693811Y-28159344D01*
X184714516Y-28165013D01*
X184734565Y-28172684D01*
X184753767Y-28182284D01*
X184771934Y-28193719D01*
X184788894Y-28206880D01*
X184804482Y-28221640D01*
X184818548Y-28237857D01*
X184830957Y-28255374D01*
X184841589Y-28274024D01*
X184850342Y-28293625D01*
X184857131Y-28313990D01*
X184861892Y-28334923D01*
X184950887Y-28839637D01*
X184953573Y-28860936D01*
X184954158Y-28882395D01*
X184952637Y-28903808D01*
X184949025Y-28924969D01*
X184943356Y-28945674D01*
X184935684Y-28965724D01*
X184926085Y-28984925D01*
X184914650Y-29003093D01*
X184901489Y-29020052D01*
X184886729Y-29035640D01*
X184870512Y-29049706D01*
X184852994Y-29062115D01*
X184834345Y-29072747D01*
X184814743Y-29081500D01*
X184794378Y-29088289D01*
X184773446Y-29093050D01*
X184342593Y-29169022D01*
X184321295Y-29171708D01*
X184299835Y-29172293D01*
X184278422Y-29170772D01*
X184257261Y-29167160D01*
X184236556Y-29161491D01*
X184216507Y-29153820D01*
X184197305Y-29144220D01*
X184179138Y-29132785D01*
X184162178Y-29119624D01*
X184146590Y-29104864D01*
X184132524Y-29088647D01*
X184120115Y-29071130D01*
X184109483Y-29052480D01*
X184100730Y-29032879D01*
X184093941Y-29012514D01*
X184089180Y-28991581D01*
X184000185Y-28486867D01*
X183997499Y-28465568D01*
X183996914Y-28444109D01*
X183998435Y-28422696D01*
X184002047Y-28401535D01*
X184007716Y-28380830D01*
X184015388Y-28360780D01*
X184024987Y-28341579D01*
X184036422Y-28323411D01*
X184049583Y-28306452D01*
X184064343Y-28290864D01*
X184080560Y-28276798D01*
X184098078Y-28264389D01*
X184116727Y-28253757D01*
X184136329Y-28245004D01*
X184156694Y-28238215D01*
X184177626Y-28233454D01*
X184608479Y-28157482D01*
X184629777Y-28154796D01*
X184651237Y-28154211D01*
X184672650Y-28155732D01*
X184672650Y-28155732D01*
G37*
D11*
X184475536Y-28663252D03*
D10*
G36*
X183121578Y-28429228D02*
G01*
X183142739Y-28432840D01*
X183163444Y-28438509D01*
X183183493Y-28446180D01*
X183202695Y-28455780D01*
X183220862Y-28467215D01*
X183237822Y-28480376D01*
X183253410Y-28495136D01*
X183267476Y-28511353D01*
X183279885Y-28528870D01*
X183290517Y-28547520D01*
X183299270Y-28567121D01*
X183306059Y-28587486D01*
X183310820Y-28608419D01*
X183399815Y-29113133D01*
X183402501Y-29134432D01*
X183403086Y-29155891D01*
X183401565Y-29177304D01*
X183397953Y-29198465D01*
X183392284Y-29219170D01*
X183384612Y-29239220D01*
X183375013Y-29258421D01*
X183363578Y-29276589D01*
X183350417Y-29293548D01*
X183335657Y-29309136D01*
X183319440Y-29323202D01*
X183301922Y-29335611D01*
X183283273Y-29346243D01*
X183263671Y-29354996D01*
X183243306Y-29361785D01*
X183222374Y-29366546D01*
X182791521Y-29442518D01*
X182770223Y-29445204D01*
X182748763Y-29445789D01*
X182727350Y-29444268D01*
X182706189Y-29440656D01*
X182685484Y-29434987D01*
X182665435Y-29427316D01*
X182646233Y-29417716D01*
X182628066Y-29406281D01*
X182611106Y-29393120D01*
X182595518Y-29378360D01*
X182581452Y-29362143D01*
X182569043Y-29344626D01*
X182558411Y-29325976D01*
X182549658Y-29306375D01*
X182542869Y-29286010D01*
X182538108Y-29265077D01*
X182449113Y-28760363D01*
X182446427Y-28739064D01*
X182445842Y-28717605D01*
X182447363Y-28696192D01*
X182450975Y-28675031D01*
X182456644Y-28654326D01*
X182464316Y-28634276D01*
X182473915Y-28615075D01*
X182485350Y-28596907D01*
X182498511Y-28579948D01*
X182513271Y-28564360D01*
X182529488Y-28550294D01*
X182547006Y-28537885D01*
X182565655Y-28527253D01*
X182585257Y-28518500D01*
X182605622Y-28511711D01*
X182626554Y-28506950D01*
X183057407Y-28430978D01*
X183078705Y-28428292D01*
X183100165Y-28427707D01*
X183121578Y-28429228D01*
X183121578Y-28429228D01*
G37*
D11*
X182924464Y-28936748D03*
D10*
G36*
X121004002Y-65096621D02*
G01*
X121025354Y-65098842D01*
X121046385Y-65103145D01*
X121066894Y-65109488D01*
X121478009Y-65259122D01*
X121497797Y-65267445D01*
X121516674Y-65277668D01*
X121534458Y-65289692D01*
X121550977Y-65303401D01*
X121566074Y-65318663D01*
X121579602Y-65335331D01*
X121591431Y-65353245D01*
X121601447Y-65372232D01*
X121609554Y-65392110D01*
X121615673Y-65412686D01*
X121619746Y-65433764D01*
X121621734Y-65455138D01*
X121621617Y-65476605D01*
X121619396Y-65497957D01*
X121615093Y-65518989D01*
X121608750Y-65539497D01*
X121433465Y-66021089D01*
X121425142Y-66040877D01*
X121414919Y-66059754D01*
X121402895Y-66077538D01*
X121389186Y-66094057D01*
X121373924Y-66109154D01*
X121357256Y-66122682D01*
X121339342Y-66134511D01*
X121320355Y-66144527D01*
X121300477Y-66152634D01*
X121279901Y-66158753D01*
X121258824Y-66162826D01*
X121237449Y-66164814D01*
X121215982Y-66164697D01*
X121194630Y-66162476D01*
X121173599Y-66158173D01*
X121153090Y-66151830D01*
X120741975Y-66002196D01*
X120722187Y-65993873D01*
X120703310Y-65983650D01*
X120685526Y-65971626D01*
X120669007Y-65957917D01*
X120653910Y-65942655D01*
X120640382Y-65925987D01*
X120628553Y-65908073D01*
X120618537Y-65889086D01*
X120610430Y-65869208D01*
X120604311Y-65848632D01*
X120600238Y-65827554D01*
X120598250Y-65806180D01*
X120598367Y-65784713D01*
X120600588Y-65763361D01*
X120604891Y-65742329D01*
X120611234Y-65721821D01*
X120786519Y-65240229D01*
X120794842Y-65220441D01*
X120805065Y-65201564D01*
X120817089Y-65183780D01*
X120830798Y-65167261D01*
X120846060Y-65152164D01*
X120862728Y-65138636D01*
X120880642Y-65126807D01*
X120899629Y-65116791D01*
X120919507Y-65108684D01*
X120940083Y-65102565D01*
X120961160Y-65098492D01*
X120982535Y-65096504D01*
X121004002Y-65096621D01*
X121004002Y-65096621D01*
G37*
D11*
X121109992Y-65630659D03*
D10*
G36*
X122484018Y-65635303D02*
G01*
X122505370Y-65637524D01*
X122526401Y-65641827D01*
X122546910Y-65648170D01*
X122958025Y-65797804D01*
X122977813Y-65806127D01*
X122996690Y-65816350D01*
X123014474Y-65828374D01*
X123030993Y-65842083D01*
X123046090Y-65857345D01*
X123059618Y-65874013D01*
X123071447Y-65891927D01*
X123081463Y-65910914D01*
X123089570Y-65930792D01*
X123095689Y-65951368D01*
X123099762Y-65972446D01*
X123101750Y-65993820D01*
X123101633Y-66015287D01*
X123099412Y-66036639D01*
X123095109Y-66057671D01*
X123088766Y-66078179D01*
X122913481Y-66559771D01*
X122905158Y-66579559D01*
X122894935Y-66598436D01*
X122882911Y-66616220D01*
X122869202Y-66632739D01*
X122853940Y-66647836D01*
X122837272Y-66661364D01*
X122819358Y-66673193D01*
X122800371Y-66683209D01*
X122780493Y-66691316D01*
X122759917Y-66697435D01*
X122738840Y-66701508D01*
X122717465Y-66703496D01*
X122695998Y-66703379D01*
X122674646Y-66701158D01*
X122653615Y-66696855D01*
X122633106Y-66690512D01*
X122221991Y-66540878D01*
X122202203Y-66532555D01*
X122183326Y-66522332D01*
X122165542Y-66510308D01*
X122149023Y-66496599D01*
X122133926Y-66481337D01*
X122120398Y-66464669D01*
X122108569Y-66446755D01*
X122098553Y-66427768D01*
X122090446Y-66407890D01*
X122084327Y-66387314D01*
X122080254Y-66366236D01*
X122078266Y-66344862D01*
X122078383Y-66323395D01*
X122080604Y-66302043D01*
X122084907Y-66281011D01*
X122091250Y-66260503D01*
X122266535Y-65778911D01*
X122274858Y-65759123D01*
X122285081Y-65740246D01*
X122297105Y-65722462D01*
X122310814Y-65705943D01*
X122326076Y-65690846D01*
X122342744Y-65677318D01*
X122360658Y-65665489D01*
X122379645Y-65655473D01*
X122399523Y-65647366D01*
X122420099Y-65641247D01*
X122441176Y-65637174D01*
X122462551Y-65635186D01*
X122484018Y-65635303D01*
X122484018Y-65635303D01*
G37*
D11*
X122590008Y-66169341D03*
D10*
G36*
X111840191Y-111976053D02*
G01*
X111861426Y-111979203D01*
X111882250Y-111984419D01*
X111902462Y-111991651D01*
X111921868Y-112000830D01*
X111940281Y-112011866D01*
X111957524Y-112024654D01*
X111973430Y-112039070D01*
X111987846Y-112054976D01*
X112000634Y-112072219D01*
X112011670Y-112090632D01*
X112020849Y-112110038D01*
X112028081Y-112130250D01*
X112033297Y-112151074D01*
X112036447Y-112172309D01*
X112037500Y-112193750D01*
X112037500Y-112706250D01*
X112036447Y-112727691D01*
X112033297Y-112748926D01*
X112028081Y-112769750D01*
X112020849Y-112789962D01*
X112011670Y-112809368D01*
X112000634Y-112827781D01*
X111987846Y-112845024D01*
X111973430Y-112860930D01*
X111957524Y-112875346D01*
X111940281Y-112888134D01*
X111921868Y-112899170D01*
X111902462Y-112908349D01*
X111882250Y-112915581D01*
X111861426Y-112920797D01*
X111840191Y-112923947D01*
X111818750Y-112925000D01*
X111381250Y-112925000D01*
X111359809Y-112923947D01*
X111338574Y-112920797D01*
X111317750Y-112915581D01*
X111297538Y-112908349D01*
X111278132Y-112899170D01*
X111259719Y-112888134D01*
X111242476Y-112875346D01*
X111226570Y-112860930D01*
X111212154Y-112845024D01*
X111199366Y-112827781D01*
X111188330Y-112809368D01*
X111179151Y-112789962D01*
X111171919Y-112769750D01*
X111166703Y-112748926D01*
X111163553Y-112727691D01*
X111162500Y-112706250D01*
X111162500Y-112193750D01*
X111163553Y-112172309D01*
X111166703Y-112151074D01*
X111171919Y-112130250D01*
X111179151Y-112110038D01*
X111188330Y-112090632D01*
X111199366Y-112072219D01*
X111212154Y-112054976D01*
X111226570Y-112039070D01*
X111242476Y-112024654D01*
X111259719Y-112011866D01*
X111278132Y-112000830D01*
X111297538Y-111991651D01*
X111317750Y-111984419D01*
X111338574Y-111979203D01*
X111359809Y-111976053D01*
X111381250Y-111975000D01*
X111818750Y-111975000D01*
X111840191Y-111976053D01*
X111840191Y-111976053D01*
G37*
D11*
X111600000Y-112450000D03*
D10*
G36*
X113415191Y-111976053D02*
G01*
X113436426Y-111979203D01*
X113457250Y-111984419D01*
X113477462Y-111991651D01*
X113496868Y-112000830D01*
X113515281Y-112011866D01*
X113532524Y-112024654D01*
X113548430Y-112039070D01*
X113562846Y-112054976D01*
X113575634Y-112072219D01*
X113586670Y-112090632D01*
X113595849Y-112110038D01*
X113603081Y-112130250D01*
X113608297Y-112151074D01*
X113611447Y-112172309D01*
X113612500Y-112193750D01*
X113612500Y-112706250D01*
X113611447Y-112727691D01*
X113608297Y-112748926D01*
X113603081Y-112769750D01*
X113595849Y-112789962D01*
X113586670Y-112809368D01*
X113575634Y-112827781D01*
X113562846Y-112845024D01*
X113548430Y-112860930D01*
X113532524Y-112875346D01*
X113515281Y-112888134D01*
X113496868Y-112899170D01*
X113477462Y-112908349D01*
X113457250Y-112915581D01*
X113436426Y-112920797D01*
X113415191Y-112923947D01*
X113393750Y-112925000D01*
X112956250Y-112925000D01*
X112934809Y-112923947D01*
X112913574Y-112920797D01*
X112892750Y-112915581D01*
X112872538Y-112908349D01*
X112853132Y-112899170D01*
X112834719Y-112888134D01*
X112817476Y-112875346D01*
X112801570Y-112860930D01*
X112787154Y-112845024D01*
X112774366Y-112827781D01*
X112763330Y-112809368D01*
X112754151Y-112789962D01*
X112746919Y-112769750D01*
X112741703Y-112748926D01*
X112738553Y-112727691D01*
X112737500Y-112706250D01*
X112737500Y-112193750D01*
X112738553Y-112172309D01*
X112741703Y-112151074D01*
X112746919Y-112130250D01*
X112754151Y-112110038D01*
X112763330Y-112090632D01*
X112774366Y-112072219D01*
X112787154Y-112054976D01*
X112801570Y-112039070D01*
X112817476Y-112024654D01*
X112834719Y-112011866D01*
X112853132Y-112000830D01*
X112872538Y-111991651D01*
X112892750Y-111984419D01*
X112913574Y-111979203D01*
X112934809Y-111976053D01*
X112956250Y-111975000D01*
X113393750Y-111975000D01*
X113415191Y-111976053D01*
X113415191Y-111976053D01*
G37*
D11*
X113175000Y-112450000D03*
D10*
G36*
X113965287Y-90698367D02*
G01*
X113986639Y-90700588D01*
X114007671Y-90704891D01*
X114028179Y-90711234D01*
X114509771Y-90886519D01*
X114529559Y-90894842D01*
X114548436Y-90905065D01*
X114566220Y-90917089D01*
X114582739Y-90930798D01*
X114597836Y-90946060D01*
X114611364Y-90962728D01*
X114623193Y-90980642D01*
X114633209Y-90999629D01*
X114641316Y-91019507D01*
X114647435Y-91040083D01*
X114651508Y-91061160D01*
X114653496Y-91082535D01*
X114653379Y-91104002D01*
X114651158Y-91125354D01*
X114646855Y-91146385D01*
X114640512Y-91166894D01*
X114490878Y-91578009D01*
X114482555Y-91597797D01*
X114472332Y-91616674D01*
X114460308Y-91634458D01*
X114446599Y-91650977D01*
X114431337Y-91666074D01*
X114414669Y-91679602D01*
X114396755Y-91691431D01*
X114377768Y-91701447D01*
X114357890Y-91709554D01*
X114337314Y-91715673D01*
X114316236Y-91719746D01*
X114294862Y-91721734D01*
X114273395Y-91721617D01*
X114252043Y-91719396D01*
X114231011Y-91715093D01*
X114210503Y-91708750D01*
X113728911Y-91533465D01*
X113709123Y-91525142D01*
X113690246Y-91514919D01*
X113672462Y-91502895D01*
X113655943Y-91489186D01*
X113640846Y-91473924D01*
X113627318Y-91457256D01*
X113615489Y-91439342D01*
X113605473Y-91420355D01*
X113597366Y-91400477D01*
X113591247Y-91379901D01*
X113587174Y-91358824D01*
X113585186Y-91337449D01*
X113585303Y-91315982D01*
X113587524Y-91294630D01*
X113591827Y-91273599D01*
X113598170Y-91253090D01*
X113747804Y-90841975D01*
X113756127Y-90822187D01*
X113766350Y-90803310D01*
X113778374Y-90785526D01*
X113792083Y-90769007D01*
X113807345Y-90753910D01*
X113824013Y-90740382D01*
X113841927Y-90728553D01*
X113860914Y-90718537D01*
X113880792Y-90710430D01*
X113901368Y-90704311D01*
X113922446Y-90700238D01*
X113943820Y-90698250D01*
X113965287Y-90698367D01*
X113965287Y-90698367D01*
G37*
D11*
X114119341Y-91209992D03*
D10*
G36*
X113426605Y-92178383D02*
G01*
X113447957Y-92180604D01*
X113468989Y-92184907D01*
X113489497Y-92191250D01*
X113971089Y-92366535D01*
X113990877Y-92374858D01*
X114009754Y-92385081D01*
X114027538Y-92397105D01*
X114044057Y-92410814D01*
X114059154Y-92426076D01*
X114072682Y-92442744D01*
X114084511Y-92460658D01*
X114094527Y-92479645D01*
X114102634Y-92499523D01*
X114108753Y-92520099D01*
X114112826Y-92541176D01*
X114114814Y-92562551D01*
X114114697Y-92584018D01*
X114112476Y-92605370D01*
X114108173Y-92626401D01*
X114101830Y-92646910D01*
X113952196Y-93058025D01*
X113943873Y-93077813D01*
X113933650Y-93096690D01*
X113921626Y-93114474D01*
X113907917Y-93130993D01*
X113892655Y-93146090D01*
X113875987Y-93159618D01*
X113858073Y-93171447D01*
X113839086Y-93181463D01*
X113819208Y-93189570D01*
X113798632Y-93195689D01*
X113777554Y-93199762D01*
X113756180Y-93201750D01*
X113734713Y-93201633D01*
X113713361Y-93199412D01*
X113692329Y-93195109D01*
X113671821Y-93188766D01*
X113190229Y-93013481D01*
X113170441Y-93005158D01*
X113151564Y-92994935D01*
X113133780Y-92982911D01*
X113117261Y-92969202D01*
X113102164Y-92953940D01*
X113088636Y-92937272D01*
X113076807Y-92919358D01*
X113066791Y-92900371D01*
X113058684Y-92880493D01*
X113052565Y-92859917D01*
X113048492Y-92838840D01*
X113046504Y-92817465D01*
X113046621Y-92795998D01*
X113048842Y-92774646D01*
X113053145Y-92753615D01*
X113059488Y-92733106D01*
X113209122Y-92321991D01*
X113217445Y-92302203D01*
X113227668Y-92283326D01*
X113239692Y-92265542D01*
X113253401Y-92249023D01*
X113268663Y-92233926D01*
X113285331Y-92220398D01*
X113303245Y-92208569D01*
X113322232Y-92198553D01*
X113342110Y-92190446D01*
X113362686Y-92184327D01*
X113383764Y-92180254D01*
X113405138Y-92178266D01*
X113426605Y-92178383D01*
X113426605Y-92178383D01*
G37*
D11*
X113580659Y-92690008D03*
D10*
G36*
X123693816Y-167128200D02*
G01*
X123715114Y-167130886D01*
X123736047Y-167135647D01*
X123756412Y-167142436D01*
X123776014Y-167151189D01*
X123794663Y-167161821D01*
X123812181Y-167174230D01*
X123828397Y-167188296D01*
X123843157Y-167203884D01*
X123856319Y-167220844D01*
X124150276Y-167640660D01*
X124161711Y-167658827D01*
X124171311Y-167678029D01*
X124178982Y-167698078D01*
X124184651Y-167718783D01*
X124188263Y-167739944D01*
X124189784Y-167761357D01*
X124189199Y-167782817D01*
X124186513Y-167804115D01*
X124181752Y-167825048D01*
X124174963Y-167845413D01*
X124166210Y-167865014D01*
X124155578Y-167883664D01*
X124143169Y-167901181D01*
X124129103Y-167917398D01*
X124113515Y-167932158D01*
X124096556Y-167945318D01*
X123738177Y-168196258D01*
X123720009Y-168207694D01*
X123700808Y-168217293D01*
X123680758Y-168224965D01*
X123660053Y-168230634D01*
X123638892Y-168234246D01*
X123617479Y-168235767D01*
X123596020Y-168235182D01*
X123574722Y-168232496D01*
X123553789Y-168227735D01*
X123533424Y-168220946D01*
X123513822Y-168212193D01*
X123495173Y-168201561D01*
X123477655Y-168189152D01*
X123461439Y-168175086D01*
X123446679Y-168159498D01*
X123433517Y-168142538D01*
X123139560Y-167722722D01*
X123128125Y-167704555D01*
X123118525Y-167685353D01*
X123110854Y-167665304D01*
X123105185Y-167644599D01*
X123101573Y-167623438D01*
X123100052Y-167602025D01*
X123100637Y-167580565D01*
X123103323Y-167559267D01*
X123108084Y-167538334D01*
X123114873Y-167517969D01*
X123123626Y-167498368D01*
X123134258Y-167479718D01*
X123146667Y-167462201D01*
X123160733Y-167445984D01*
X123176321Y-167431224D01*
X123193280Y-167418064D01*
X123551659Y-167167124D01*
X123569827Y-167155688D01*
X123589028Y-167146089D01*
X123609078Y-167138417D01*
X123629783Y-167132748D01*
X123650944Y-167129136D01*
X123672357Y-167127615D01*
X123693816Y-167128200D01*
X123693816Y-167128200D01*
G37*
D11*
X123644918Y-167681691D03*
D10*
G36*
X124983980Y-166224818D02*
G01*
X125005278Y-166227504D01*
X125026211Y-166232265D01*
X125046576Y-166239054D01*
X125066178Y-166247807D01*
X125084827Y-166258439D01*
X125102345Y-166270848D01*
X125118561Y-166284914D01*
X125133321Y-166300502D01*
X125146483Y-166317462D01*
X125440440Y-166737278D01*
X125451875Y-166755445D01*
X125461475Y-166774647D01*
X125469146Y-166794696D01*
X125474815Y-166815401D01*
X125478427Y-166836562D01*
X125479948Y-166857975D01*
X125479363Y-166879435D01*
X125476677Y-166900733D01*
X125471916Y-166921666D01*
X125465127Y-166942031D01*
X125456374Y-166961632D01*
X125445742Y-166980282D01*
X125433333Y-166997799D01*
X125419267Y-167014016D01*
X125403679Y-167028776D01*
X125386720Y-167041936D01*
X125028341Y-167292876D01*
X125010173Y-167304312D01*
X124990972Y-167313911D01*
X124970922Y-167321583D01*
X124950217Y-167327252D01*
X124929056Y-167330864D01*
X124907643Y-167332385D01*
X124886184Y-167331800D01*
X124864886Y-167329114D01*
X124843953Y-167324353D01*
X124823588Y-167317564D01*
X124803986Y-167308811D01*
X124785337Y-167298179D01*
X124767819Y-167285770D01*
X124751603Y-167271704D01*
X124736843Y-167256116D01*
X124723681Y-167239156D01*
X124429724Y-166819340D01*
X124418289Y-166801173D01*
X124408689Y-166781971D01*
X124401018Y-166761922D01*
X124395349Y-166741217D01*
X124391737Y-166720056D01*
X124390216Y-166698643D01*
X124390801Y-166677183D01*
X124393487Y-166655885D01*
X124398248Y-166634952D01*
X124405037Y-166614587D01*
X124413790Y-166594986D01*
X124424422Y-166576336D01*
X124436831Y-166558819D01*
X124450897Y-166542602D01*
X124466485Y-166527842D01*
X124483444Y-166514682D01*
X124841823Y-166263742D01*
X124859991Y-166252306D01*
X124879192Y-166242707D01*
X124899242Y-166235035D01*
X124919947Y-166229366D01*
X124941108Y-166225754D01*
X124962521Y-166224233D01*
X124983980Y-166224818D01*
X124983980Y-166224818D01*
G37*
D11*
X124935082Y-166778309D03*
D10*
G36*
X111303660Y-107714302D02*
G01*
X111324859Y-107717684D01*
X111345625Y-107723126D01*
X111365757Y-107730579D01*
X111385061Y-107739968D01*
X111403353Y-107751205D01*
X111420455Y-107764180D01*
X111436203Y-107778769D01*
X111450445Y-107794831D01*
X111463044Y-107812212D01*
X111473879Y-107830745D01*
X111482845Y-107850250D01*
X111489856Y-107870540D01*
X111494845Y-107891419D01*
X111497763Y-107912687D01*
X111535893Y-108348522D01*
X111536712Y-108369973D01*
X111535425Y-108391402D01*
X111532043Y-108412601D01*
X111526600Y-108433367D01*
X111519148Y-108453499D01*
X111509759Y-108472804D01*
X111498522Y-108491095D01*
X111485547Y-108508197D01*
X111470958Y-108523945D01*
X111454896Y-108538187D01*
X111437514Y-108550786D01*
X111418982Y-108561621D01*
X111399477Y-108570587D01*
X111379187Y-108577598D01*
X111358308Y-108582587D01*
X111337040Y-108585505D01*
X110826490Y-108630172D01*
X110805039Y-108630991D01*
X110783610Y-108629704D01*
X110762411Y-108626322D01*
X110741645Y-108620880D01*
X110721513Y-108613427D01*
X110702209Y-108604038D01*
X110683917Y-108592801D01*
X110666815Y-108579826D01*
X110651067Y-108565237D01*
X110636825Y-108549175D01*
X110624226Y-108531794D01*
X110613391Y-108513261D01*
X110604425Y-108493756D01*
X110597414Y-108473466D01*
X110592425Y-108452587D01*
X110589507Y-108431319D01*
X110551377Y-107995484D01*
X110550558Y-107974033D01*
X110551845Y-107952604D01*
X110555227Y-107931405D01*
X110560670Y-107910639D01*
X110568122Y-107890507D01*
X110577511Y-107871202D01*
X110588748Y-107852911D01*
X110601723Y-107835809D01*
X110616312Y-107820061D01*
X110632374Y-107805819D01*
X110649756Y-107793220D01*
X110668288Y-107782385D01*
X110687793Y-107773419D01*
X110708083Y-107766408D01*
X110728962Y-107761419D01*
X110750230Y-107758501D01*
X111260780Y-107713834D01*
X111282231Y-107713015D01*
X111303660Y-107714302D01*
X111303660Y-107714302D01*
G37*
D11*
X111043635Y-108172003D03*
D10*
G36*
X111166390Y-106145296D02*
G01*
X111187589Y-106148678D01*
X111208355Y-106154120D01*
X111228487Y-106161573D01*
X111247791Y-106170962D01*
X111266083Y-106182199D01*
X111283185Y-106195174D01*
X111298933Y-106209763D01*
X111313175Y-106225825D01*
X111325774Y-106243206D01*
X111336609Y-106261739D01*
X111345575Y-106281244D01*
X111352586Y-106301534D01*
X111357575Y-106322413D01*
X111360493Y-106343681D01*
X111398623Y-106779516D01*
X111399442Y-106800967D01*
X111398155Y-106822396D01*
X111394773Y-106843595D01*
X111389330Y-106864361D01*
X111381878Y-106884493D01*
X111372489Y-106903798D01*
X111361252Y-106922089D01*
X111348277Y-106939191D01*
X111333688Y-106954939D01*
X111317626Y-106969181D01*
X111300244Y-106981780D01*
X111281712Y-106992615D01*
X111262207Y-107001581D01*
X111241917Y-107008592D01*
X111221038Y-107013581D01*
X111199770Y-107016499D01*
X110689220Y-107061166D01*
X110667769Y-107061985D01*
X110646340Y-107060698D01*
X110625141Y-107057316D01*
X110604375Y-107051874D01*
X110584243Y-107044421D01*
X110564939Y-107035032D01*
X110546647Y-107023795D01*
X110529545Y-107010820D01*
X110513797Y-106996231D01*
X110499555Y-106980169D01*
X110486956Y-106962788D01*
X110476121Y-106944255D01*
X110467155Y-106924750D01*
X110460144Y-106904460D01*
X110455155Y-106883581D01*
X110452237Y-106862313D01*
X110414107Y-106426478D01*
X110413288Y-106405027D01*
X110414575Y-106383598D01*
X110417957Y-106362399D01*
X110423400Y-106341633D01*
X110430852Y-106321501D01*
X110440241Y-106302196D01*
X110451478Y-106283905D01*
X110464453Y-106266803D01*
X110479042Y-106251055D01*
X110495104Y-106236813D01*
X110512486Y-106224214D01*
X110531018Y-106213379D01*
X110550523Y-106204413D01*
X110570813Y-106197402D01*
X110591692Y-106192413D01*
X110612960Y-106189495D01*
X111123510Y-106144828D01*
X111144961Y-106144009D01*
X111166390Y-106145296D01*
X111166390Y-106145296D01*
G37*
D11*
X110906365Y-106602997D03*
D10*
G36*
X116609194Y-147850166D02*
G01*
X116630314Y-147854009D01*
X116650956Y-147859904D01*
X116670921Y-147867794D01*
X116690016Y-147877602D01*
X116708058Y-147889235D01*
X116724873Y-147902580D01*
X116740299Y-147917509D01*
X116754187Y-147933879D01*
X116766404Y-147951530D01*
X116776832Y-147970295D01*
X116785370Y-147989991D01*
X116791937Y-148010428D01*
X116924582Y-148505465D01*
X116929114Y-148526449D01*
X116931568Y-148547775D01*
X116931919Y-148569239D01*
X116930165Y-148590635D01*
X116926322Y-148611755D01*
X116920427Y-148632397D01*
X116912538Y-148652362D01*
X116902729Y-148671457D01*
X116891096Y-148689499D01*
X116877751Y-148706314D01*
X116862822Y-148721740D01*
X116846453Y-148735628D01*
X116828801Y-148747845D01*
X116810037Y-148758273D01*
X116790341Y-148766811D01*
X116769902Y-148773378D01*
X116347309Y-148886611D01*
X116326326Y-148891143D01*
X116305000Y-148893597D01*
X116283535Y-148893948D01*
X116262140Y-148892194D01*
X116241020Y-148888351D01*
X116220378Y-148882456D01*
X116200413Y-148874566D01*
X116181318Y-148864758D01*
X116163276Y-148853125D01*
X116146461Y-148839780D01*
X116131035Y-148824851D01*
X116117147Y-148808481D01*
X116104930Y-148790830D01*
X116094502Y-148772065D01*
X116085964Y-148752369D01*
X116079397Y-148731932D01*
X115946752Y-148236895D01*
X115942220Y-148215911D01*
X115939766Y-148194585D01*
X115939415Y-148173121D01*
X115941169Y-148151725D01*
X115945012Y-148130605D01*
X115950907Y-148109963D01*
X115958796Y-148089998D01*
X115968605Y-148070903D01*
X115980238Y-148052861D01*
X115993583Y-148036046D01*
X116008512Y-148020620D01*
X116024881Y-148006732D01*
X116042533Y-147994515D01*
X116061297Y-147984087D01*
X116080993Y-147975549D01*
X116101432Y-147968982D01*
X116524025Y-147855749D01*
X116545008Y-147851217D01*
X116566334Y-147848763D01*
X116587799Y-147848412D01*
X116609194Y-147850166D01*
X116609194Y-147850166D01*
G37*
D11*
X116435667Y-148371180D03*
D10*
G36*
X115087860Y-148257806D02*
G01*
X115108980Y-148261649D01*
X115129622Y-148267544D01*
X115149587Y-148275434D01*
X115168682Y-148285242D01*
X115186724Y-148296875D01*
X115203539Y-148310220D01*
X115218965Y-148325149D01*
X115232853Y-148341519D01*
X115245070Y-148359170D01*
X115255498Y-148377935D01*
X115264036Y-148397631D01*
X115270603Y-148418068D01*
X115403248Y-148913105D01*
X115407780Y-148934089D01*
X115410234Y-148955415D01*
X115410585Y-148976879D01*
X115408831Y-148998275D01*
X115404988Y-149019395D01*
X115399093Y-149040037D01*
X115391204Y-149060002D01*
X115381395Y-149079097D01*
X115369762Y-149097139D01*
X115356417Y-149113954D01*
X115341488Y-149129380D01*
X115325119Y-149143268D01*
X115307467Y-149155485D01*
X115288703Y-149165913D01*
X115269007Y-149174451D01*
X115248568Y-149181018D01*
X114825975Y-149294251D01*
X114804992Y-149298783D01*
X114783666Y-149301237D01*
X114762201Y-149301588D01*
X114740806Y-149299834D01*
X114719686Y-149295991D01*
X114699044Y-149290096D01*
X114679079Y-149282206D01*
X114659984Y-149272398D01*
X114641942Y-149260765D01*
X114625127Y-149247420D01*
X114609701Y-149232491D01*
X114595813Y-149216121D01*
X114583596Y-149198470D01*
X114573168Y-149179705D01*
X114564630Y-149160009D01*
X114558063Y-149139572D01*
X114425418Y-148644535D01*
X114420886Y-148623551D01*
X114418432Y-148602225D01*
X114418081Y-148580761D01*
X114419835Y-148559365D01*
X114423678Y-148538245D01*
X114429573Y-148517603D01*
X114437462Y-148497638D01*
X114447271Y-148478543D01*
X114458904Y-148460501D01*
X114472249Y-148443686D01*
X114487178Y-148428260D01*
X114503547Y-148414372D01*
X114521199Y-148402155D01*
X114539963Y-148391727D01*
X114559659Y-148383189D01*
X114580098Y-148376622D01*
X115002691Y-148263389D01*
X115023674Y-148258857D01*
X115045000Y-148256403D01*
X115066465Y-148256052D01*
X115087860Y-148257806D01*
X115087860Y-148257806D01*
G37*
D11*
X114914333Y-148778820D03*
D10*
G36*
X112214065Y-93721427D02*
G01*
X112235363Y-93724113D01*
X112740077Y-93813108D01*
X112761009Y-93817869D01*
X112781374Y-93824658D01*
X112800976Y-93833411D01*
X112819625Y-93844043D01*
X112837143Y-93856452D01*
X112853360Y-93870518D01*
X112868120Y-93886106D01*
X112881281Y-93903065D01*
X112892716Y-93921233D01*
X112902315Y-93940434D01*
X112909987Y-93960484D01*
X112915656Y-93981189D01*
X112919268Y-94002350D01*
X112920789Y-94023763D01*
X112920204Y-94045222D01*
X112917518Y-94066521D01*
X112841546Y-94497374D01*
X112836785Y-94518307D01*
X112829996Y-94538672D01*
X112821243Y-94558273D01*
X112810611Y-94576923D01*
X112798202Y-94594440D01*
X112784136Y-94610657D01*
X112768548Y-94625417D01*
X112751588Y-94638578D01*
X112733421Y-94650013D01*
X112714219Y-94659613D01*
X112694170Y-94667284D01*
X112673465Y-94672953D01*
X112652304Y-94676565D01*
X112630891Y-94678086D01*
X112609431Y-94677501D01*
X112588133Y-94674815D01*
X112083419Y-94585820D01*
X112062487Y-94581059D01*
X112042122Y-94574270D01*
X112022520Y-94565517D01*
X112003871Y-94554885D01*
X111986353Y-94542476D01*
X111970136Y-94528410D01*
X111955376Y-94512822D01*
X111942215Y-94495863D01*
X111930780Y-94477695D01*
X111921181Y-94458494D01*
X111913509Y-94438444D01*
X111907840Y-94417739D01*
X111904228Y-94396578D01*
X111902707Y-94375165D01*
X111903292Y-94353706D01*
X111905978Y-94332407D01*
X111981950Y-93901554D01*
X111986711Y-93880621D01*
X111993500Y-93860256D01*
X112002253Y-93840655D01*
X112012885Y-93822005D01*
X112025294Y-93804488D01*
X112039360Y-93788271D01*
X112054948Y-93773511D01*
X112071908Y-93760350D01*
X112090075Y-93748915D01*
X112109277Y-93739315D01*
X112129326Y-93731644D01*
X112150031Y-93725975D01*
X112171192Y-93722363D01*
X112192605Y-93720842D01*
X112214065Y-93721427D01*
X112214065Y-93721427D01*
G37*
D11*
X112411748Y-94199464D03*
D10*
G36*
X111940569Y-95272499D02*
G01*
X111961867Y-95275185D01*
X112466581Y-95364180D01*
X112487513Y-95368941D01*
X112507878Y-95375730D01*
X112527480Y-95384483D01*
X112546129Y-95395115D01*
X112563647Y-95407524D01*
X112579864Y-95421590D01*
X112594624Y-95437178D01*
X112607785Y-95454137D01*
X112619220Y-95472305D01*
X112628819Y-95491506D01*
X112636491Y-95511556D01*
X112642160Y-95532261D01*
X112645772Y-95553422D01*
X112647293Y-95574835D01*
X112646708Y-95596294D01*
X112644022Y-95617593D01*
X112568050Y-96048446D01*
X112563289Y-96069379D01*
X112556500Y-96089744D01*
X112547747Y-96109345D01*
X112537115Y-96127995D01*
X112524706Y-96145512D01*
X112510640Y-96161729D01*
X112495052Y-96176489D01*
X112478092Y-96189650D01*
X112459925Y-96201085D01*
X112440723Y-96210685D01*
X112420674Y-96218356D01*
X112399969Y-96224025D01*
X112378808Y-96227637D01*
X112357395Y-96229158D01*
X112335935Y-96228573D01*
X112314637Y-96225887D01*
X111809923Y-96136892D01*
X111788991Y-96132131D01*
X111768626Y-96125342D01*
X111749024Y-96116589D01*
X111730375Y-96105957D01*
X111712857Y-96093548D01*
X111696640Y-96079482D01*
X111681880Y-96063894D01*
X111668719Y-96046935D01*
X111657284Y-96028767D01*
X111647685Y-96009566D01*
X111640013Y-95989516D01*
X111634344Y-95968811D01*
X111630732Y-95947650D01*
X111629211Y-95926237D01*
X111629796Y-95904778D01*
X111632482Y-95883479D01*
X111708454Y-95452626D01*
X111713215Y-95431693D01*
X111720004Y-95411328D01*
X111728757Y-95391727D01*
X111739389Y-95373077D01*
X111751798Y-95355560D01*
X111765864Y-95339343D01*
X111781452Y-95324583D01*
X111798412Y-95311422D01*
X111816579Y-95299987D01*
X111835781Y-95290387D01*
X111855830Y-95282716D01*
X111876535Y-95277047D01*
X111897696Y-95273435D01*
X111919109Y-95271914D01*
X111940569Y-95272499D01*
X111940569Y-95272499D01*
G37*
D11*
X112138252Y-95750536D03*
D10*
G36*
X123946294Y-91178292D02*
G01*
X123967593Y-91180978D01*
X124398446Y-91256950D01*
X124419379Y-91261711D01*
X124439744Y-91268500D01*
X124459345Y-91277253D01*
X124477995Y-91287885D01*
X124495512Y-91300294D01*
X124511729Y-91314360D01*
X124526489Y-91329948D01*
X124539650Y-91346908D01*
X124551085Y-91365075D01*
X124560685Y-91384277D01*
X124568356Y-91404326D01*
X124574025Y-91425031D01*
X124577637Y-91446192D01*
X124579158Y-91467605D01*
X124578573Y-91489065D01*
X124575887Y-91510363D01*
X124486892Y-92015077D01*
X124482131Y-92036009D01*
X124475342Y-92056374D01*
X124466589Y-92075976D01*
X124455957Y-92094625D01*
X124443548Y-92112143D01*
X124429482Y-92128360D01*
X124413894Y-92143120D01*
X124396935Y-92156281D01*
X124378767Y-92167716D01*
X124359566Y-92177315D01*
X124339516Y-92184987D01*
X124318811Y-92190656D01*
X124297650Y-92194268D01*
X124276237Y-92195789D01*
X124254778Y-92195204D01*
X124233479Y-92192518D01*
X123802626Y-92116546D01*
X123781693Y-92111785D01*
X123761328Y-92104996D01*
X123741727Y-92096243D01*
X123723077Y-92085611D01*
X123705560Y-92073202D01*
X123689343Y-92059136D01*
X123674583Y-92043548D01*
X123661422Y-92026588D01*
X123649987Y-92008421D01*
X123640387Y-91989219D01*
X123632716Y-91969170D01*
X123627047Y-91948465D01*
X123623435Y-91927304D01*
X123621914Y-91905891D01*
X123622499Y-91884431D01*
X123625185Y-91863133D01*
X123714180Y-91358419D01*
X123718941Y-91337487D01*
X123725730Y-91317122D01*
X123734483Y-91297520D01*
X123745115Y-91278871D01*
X123757524Y-91261353D01*
X123771590Y-91245136D01*
X123787178Y-91230376D01*
X123804137Y-91217215D01*
X123822305Y-91205780D01*
X123841506Y-91196181D01*
X123861556Y-91188509D01*
X123882261Y-91182840D01*
X123903422Y-91179228D01*
X123924835Y-91177707D01*
X123946294Y-91178292D01*
X123946294Y-91178292D01*
G37*
D11*
X124100536Y-91686748D03*
D10*
G36*
X122395222Y-90904796D02*
G01*
X122416521Y-90907482D01*
X122847374Y-90983454D01*
X122868307Y-90988215D01*
X122888672Y-90995004D01*
X122908273Y-91003757D01*
X122926923Y-91014389D01*
X122944440Y-91026798D01*
X122960657Y-91040864D01*
X122975417Y-91056452D01*
X122988578Y-91073412D01*
X123000013Y-91091579D01*
X123009613Y-91110781D01*
X123017284Y-91130830D01*
X123022953Y-91151535D01*
X123026565Y-91172696D01*
X123028086Y-91194109D01*
X123027501Y-91215569D01*
X123024815Y-91236867D01*
X122935820Y-91741581D01*
X122931059Y-91762513D01*
X122924270Y-91782878D01*
X122915517Y-91802480D01*
X122904885Y-91821129D01*
X122892476Y-91838647D01*
X122878410Y-91854864D01*
X122862822Y-91869624D01*
X122845863Y-91882785D01*
X122827695Y-91894220D01*
X122808494Y-91903819D01*
X122788444Y-91911491D01*
X122767739Y-91917160D01*
X122746578Y-91920772D01*
X122725165Y-91922293D01*
X122703706Y-91921708D01*
X122682407Y-91919022D01*
X122251554Y-91843050D01*
X122230621Y-91838289D01*
X122210256Y-91831500D01*
X122190655Y-91822747D01*
X122172005Y-91812115D01*
X122154488Y-91799706D01*
X122138271Y-91785640D01*
X122123511Y-91770052D01*
X122110350Y-91753092D01*
X122098915Y-91734925D01*
X122089315Y-91715723D01*
X122081644Y-91695674D01*
X122075975Y-91674969D01*
X122072363Y-91653808D01*
X122070842Y-91632395D01*
X122071427Y-91610935D01*
X122074113Y-91589637D01*
X122163108Y-91084923D01*
X122167869Y-91063991D01*
X122174658Y-91043626D01*
X122183411Y-91024024D01*
X122194043Y-91005375D01*
X122206452Y-90987857D01*
X122220518Y-90971640D01*
X122236106Y-90956880D01*
X122253065Y-90943719D01*
X122271233Y-90932284D01*
X122290434Y-90922685D01*
X122310484Y-90915013D01*
X122331189Y-90909344D01*
X122352350Y-90905732D01*
X122373763Y-90904211D01*
X122395222Y-90904796D01*
X122395222Y-90904796D01*
G37*
D11*
X122549464Y-91413252D03*
D10*
G36*
X121068094Y-148650092D02*
G01*
X121089393Y-148652778D01*
X121520246Y-148728750D01*
X121541179Y-148733511D01*
X121561544Y-148740300D01*
X121581145Y-148749053D01*
X121599795Y-148759685D01*
X121617312Y-148772094D01*
X121633529Y-148786160D01*
X121648289Y-148801748D01*
X121661450Y-148818708D01*
X121672885Y-148836875D01*
X121682485Y-148856077D01*
X121690156Y-148876126D01*
X121695825Y-148896831D01*
X121699437Y-148917992D01*
X121700958Y-148939405D01*
X121700373Y-148960865D01*
X121697687Y-148982163D01*
X121608692Y-149486877D01*
X121603931Y-149507809D01*
X121597142Y-149528174D01*
X121588389Y-149547776D01*
X121577757Y-149566425D01*
X121565348Y-149583943D01*
X121551282Y-149600160D01*
X121535694Y-149614920D01*
X121518735Y-149628081D01*
X121500567Y-149639516D01*
X121481366Y-149649115D01*
X121461316Y-149656787D01*
X121440611Y-149662456D01*
X121419450Y-149666068D01*
X121398037Y-149667589D01*
X121376578Y-149667004D01*
X121355279Y-149664318D01*
X120924426Y-149588346D01*
X120903493Y-149583585D01*
X120883128Y-149576796D01*
X120863527Y-149568043D01*
X120844877Y-149557411D01*
X120827360Y-149545002D01*
X120811143Y-149530936D01*
X120796383Y-149515348D01*
X120783222Y-149498388D01*
X120771787Y-149480221D01*
X120762187Y-149461019D01*
X120754516Y-149440970D01*
X120748847Y-149420265D01*
X120745235Y-149399104D01*
X120743714Y-149377691D01*
X120744299Y-149356231D01*
X120746985Y-149334933D01*
X120835980Y-148830219D01*
X120840741Y-148809287D01*
X120847530Y-148788922D01*
X120856283Y-148769320D01*
X120866915Y-148750671D01*
X120879324Y-148733153D01*
X120893390Y-148716936D01*
X120908978Y-148702176D01*
X120925937Y-148689015D01*
X120944105Y-148677580D01*
X120963306Y-148667981D01*
X120983356Y-148660309D01*
X121004061Y-148654640D01*
X121025222Y-148651028D01*
X121046635Y-148649507D01*
X121068094Y-148650092D01*
X121068094Y-148650092D01*
G37*
D11*
X121222336Y-149158548D03*
D10*
G36*
X119517022Y-148376596D02*
G01*
X119538321Y-148379282D01*
X119969174Y-148455254D01*
X119990107Y-148460015D01*
X120010472Y-148466804D01*
X120030073Y-148475557D01*
X120048723Y-148486189D01*
X120066240Y-148498598D01*
X120082457Y-148512664D01*
X120097217Y-148528252D01*
X120110378Y-148545212D01*
X120121813Y-148563379D01*
X120131413Y-148582581D01*
X120139084Y-148602630D01*
X120144753Y-148623335D01*
X120148365Y-148644496D01*
X120149886Y-148665909D01*
X120149301Y-148687369D01*
X120146615Y-148708667D01*
X120057620Y-149213381D01*
X120052859Y-149234313D01*
X120046070Y-149254678D01*
X120037317Y-149274280D01*
X120026685Y-149292929D01*
X120014276Y-149310447D01*
X120000210Y-149326664D01*
X119984622Y-149341424D01*
X119967663Y-149354585D01*
X119949495Y-149366020D01*
X119930294Y-149375619D01*
X119910244Y-149383291D01*
X119889539Y-149388960D01*
X119868378Y-149392572D01*
X119846965Y-149394093D01*
X119825506Y-149393508D01*
X119804207Y-149390822D01*
X119373354Y-149314850D01*
X119352421Y-149310089D01*
X119332056Y-149303300D01*
X119312455Y-149294547D01*
X119293805Y-149283915D01*
X119276288Y-149271506D01*
X119260071Y-149257440D01*
X119245311Y-149241852D01*
X119232150Y-149224892D01*
X119220715Y-149206725D01*
X119211115Y-149187523D01*
X119203444Y-149167474D01*
X119197775Y-149146769D01*
X119194163Y-149125608D01*
X119192642Y-149104195D01*
X119193227Y-149082735D01*
X119195913Y-149061437D01*
X119284908Y-148556723D01*
X119289669Y-148535791D01*
X119296458Y-148515426D01*
X119305211Y-148495824D01*
X119315843Y-148477175D01*
X119328252Y-148459657D01*
X119342318Y-148443440D01*
X119357906Y-148428680D01*
X119374865Y-148415519D01*
X119393033Y-148404084D01*
X119412234Y-148394485D01*
X119432284Y-148386813D01*
X119452989Y-148381144D01*
X119474150Y-148377532D01*
X119495563Y-148376011D01*
X119517022Y-148376596D01*
X119517022Y-148376596D01*
G37*
D11*
X119671264Y-148885052D03*
D10*
G36*
X121571294Y-146278292D02*
G01*
X121592593Y-146280978D01*
X122023446Y-146356950D01*
X122044379Y-146361711D01*
X122064744Y-146368500D01*
X122084345Y-146377253D01*
X122102995Y-146387885D01*
X122120512Y-146400294D01*
X122136729Y-146414360D01*
X122151489Y-146429948D01*
X122164650Y-146446908D01*
X122176085Y-146465075D01*
X122185685Y-146484277D01*
X122193356Y-146504326D01*
X122199025Y-146525031D01*
X122202637Y-146546192D01*
X122204158Y-146567605D01*
X122203573Y-146589065D01*
X122200887Y-146610363D01*
X122111892Y-147115077D01*
X122107131Y-147136009D01*
X122100342Y-147156374D01*
X122091589Y-147175976D01*
X122080957Y-147194625D01*
X122068548Y-147212143D01*
X122054482Y-147228360D01*
X122038894Y-147243120D01*
X122021935Y-147256281D01*
X122003767Y-147267716D01*
X121984566Y-147277315D01*
X121964516Y-147284987D01*
X121943811Y-147290656D01*
X121922650Y-147294268D01*
X121901237Y-147295789D01*
X121879778Y-147295204D01*
X121858479Y-147292518D01*
X121427626Y-147216546D01*
X121406693Y-147211785D01*
X121386328Y-147204996D01*
X121366727Y-147196243D01*
X121348077Y-147185611D01*
X121330560Y-147173202D01*
X121314343Y-147159136D01*
X121299583Y-147143548D01*
X121286422Y-147126588D01*
X121274987Y-147108421D01*
X121265387Y-147089219D01*
X121257716Y-147069170D01*
X121252047Y-147048465D01*
X121248435Y-147027304D01*
X121246914Y-147005891D01*
X121247499Y-146984431D01*
X121250185Y-146963133D01*
X121339180Y-146458419D01*
X121343941Y-146437487D01*
X121350730Y-146417122D01*
X121359483Y-146397520D01*
X121370115Y-146378871D01*
X121382524Y-146361353D01*
X121396590Y-146345136D01*
X121412178Y-146330376D01*
X121429137Y-146317215D01*
X121447305Y-146305780D01*
X121466506Y-146296181D01*
X121486556Y-146288509D01*
X121507261Y-146282840D01*
X121528422Y-146279228D01*
X121549835Y-146277707D01*
X121571294Y-146278292D01*
X121571294Y-146278292D01*
G37*
D11*
X121725536Y-146786748D03*
D10*
G36*
X120020222Y-146004796D02*
G01*
X120041521Y-146007482D01*
X120472374Y-146083454D01*
X120493307Y-146088215D01*
X120513672Y-146095004D01*
X120533273Y-146103757D01*
X120551923Y-146114389D01*
X120569440Y-146126798D01*
X120585657Y-146140864D01*
X120600417Y-146156452D01*
X120613578Y-146173412D01*
X120625013Y-146191579D01*
X120634613Y-146210781D01*
X120642284Y-146230830D01*
X120647953Y-146251535D01*
X120651565Y-146272696D01*
X120653086Y-146294109D01*
X120652501Y-146315569D01*
X120649815Y-146336867D01*
X120560820Y-146841581D01*
X120556059Y-146862513D01*
X120549270Y-146882878D01*
X120540517Y-146902480D01*
X120529885Y-146921129D01*
X120517476Y-146938647D01*
X120503410Y-146954864D01*
X120487822Y-146969624D01*
X120470863Y-146982785D01*
X120452695Y-146994220D01*
X120433494Y-147003819D01*
X120413444Y-147011491D01*
X120392739Y-147017160D01*
X120371578Y-147020772D01*
X120350165Y-147022293D01*
X120328706Y-147021708D01*
X120307407Y-147019022D01*
X119876554Y-146943050D01*
X119855621Y-146938289D01*
X119835256Y-146931500D01*
X119815655Y-146922747D01*
X119797005Y-146912115D01*
X119779488Y-146899706D01*
X119763271Y-146885640D01*
X119748511Y-146870052D01*
X119735350Y-146853092D01*
X119723915Y-146834925D01*
X119714315Y-146815723D01*
X119706644Y-146795674D01*
X119700975Y-146774969D01*
X119697363Y-146753808D01*
X119695842Y-146732395D01*
X119696427Y-146710935D01*
X119699113Y-146689637D01*
X119788108Y-146184923D01*
X119792869Y-146163991D01*
X119799658Y-146143626D01*
X119808411Y-146124024D01*
X119819043Y-146105375D01*
X119831452Y-146087857D01*
X119845518Y-146071640D01*
X119861106Y-146056880D01*
X119878065Y-146043719D01*
X119896233Y-146032284D01*
X119915434Y-146022685D01*
X119935484Y-146015013D01*
X119956189Y-146009344D01*
X119977350Y-146005732D01*
X119998763Y-146004211D01*
X120020222Y-146004796D01*
X120020222Y-146004796D01*
G37*
D11*
X120174464Y-146513252D03*
D10*
G36*
X125177304Y-153248435D02*
G01*
X125198465Y-153252047D01*
X125219170Y-153257716D01*
X125239220Y-153265388D01*
X125258421Y-153274987D01*
X125276589Y-153286422D01*
X125293548Y-153299583D01*
X125309136Y-153314343D01*
X125323202Y-153330560D01*
X125335611Y-153348078D01*
X125346243Y-153366727D01*
X125354996Y-153386329D01*
X125361785Y-153406694D01*
X125366546Y-153427626D01*
X125442518Y-153858479D01*
X125445204Y-153879777D01*
X125445789Y-153901237D01*
X125444268Y-153922650D01*
X125440656Y-153943811D01*
X125434987Y-153964516D01*
X125427316Y-153984565D01*
X125417716Y-154003767D01*
X125406281Y-154021934D01*
X125393120Y-154038894D01*
X125378360Y-154054482D01*
X125362143Y-154068548D01*
X125344626Y-154080957D01*
X125325976Y-154091589D01*
X125306375Y-154100342D01*
X125286010Y-154107131D01*
X125265077Y-154111892D01*
X124760363Y-154200887D01*
X124739064Y-154203573D01*
X124717605Y-154204158D01*
X124696192Y-154202637D01*
X124675031Y-154199025D01*
X124654326Y-154193356D01*
X124634276Y-154185684D01*
X124615075Y-154176085D01*
X124596907Y-154164650D01*
X124579948Y-154151489D01*
X124564360Y-154136729D01*
X124550294Y-154120512D01*
X124537885Y-154102994D01*
X124527253Y-154084345D01*
X124518500Y-154064743D01*
X124511711Y-154044378D01*
X124506950Y-154023446D01*
X124430978Y-153592593D01*
X124428292Y-153571295D01*
X124427707Y-153549835D01*
X124429228Y-153528422D01*
X124432840Y-153507261D01*
X124438509Y-153486556D01*
X124446180Y-153466507D01*
X124455780Y-153447305D01*
X124467215Y-153429138D01*
X124480376Y-153412178D01*
X124495136Y-153396590D01*
X124511353Y-153382524D01*
X124528870Y-153370115D01*
X124547520Y-153359483D01*
X124567121Y-153350730D01*
X124587486Y-153343941D01*
X124608419Y-153339180D01*
X125113133Y-153250185D01*
X125134432Y-153247499D01*
X125155891Y-153246914D01*
X125177304Y-153248435D01*
X125177304Y-153248435D01*
G37*
D11*
X124936748Y-153725536D03*
D10*
G36*
X124903808Y-151697363D02*
G01*
X124924969Y-151700975D01*
X124945674Y-151706644D01*
X124965724Y-151714316D01*
X124984925Y-151723915D01*
X125003093Y-151735350D01*
X125020052Y-151748511D01*
X125035640Y-151763271D01*
X125049706Y-151779488D01*
X125062115Y-151797006D01*
X125072747Y-151815655D01*
X125081500Y-151835257D01*
X125088289Y-151855622D01*
X125093050Y-151876554D01*
X125169022Y-152307407D01*
X125171708Y-152328705D01*
X125172293Y-152350165D01*
X125170772Y-152371578D01*
X125167160Y-152392739D01*
X125161491Y-152413444D01*
X125153820Y-152433493D01*
X125144220Y-152452695D01*
X125132785Y-152470862D01*
X125119624Y-152487822D01*
X125104864Y-152503410D01*
X125088647Y-152517476D01*
X125071130Y-152529885D01*
X125052480Y-152540517D01*
X125032879Y-152549270D01*
X125012514Y-152556059D01*
X124991581Y-152560820D01*
X124486867Y-152649815D01*
X124465568Y-152652501D01*
X124444109Y-152653086D01*
X124422696Y-152651565D01*
X124401535Y-152647953D01*
X124380830Y-152642284D01*
X124360780Y-152634612D01*
X124341579Y-152625013D01*
X124323411Y-152613578D01*
X124306452Y-152600417D01*
X124290864Y-152585657D01*
X124276798Y-152569440D01*
X124264389Y-152551922D01*
X124253757Y-152533273D01*
X124245004Y-152513671D01*
X124238215Y-152493306D01*
X124233454Y-152472374D01*
X124157482Y-152041521D01*
X124154796Y-152020223D01*
X124154211Y-151998763D01*
X124155732Y-151977350D01*
X124159344Y-151956189D01*
X124165013Y-151935484D01*
X124172684Y-151915435D01*
X124182284Y-151896233D01*
X124193719Y-151878066D01*
X124206880Y-151861106D01*
X124221640Y-151845518D01*
X124237857Y-151831452D01*
X124255374Y-151819043D01*
X124274024Y-151808411D01*
X124293625Y-151799658D01*
X124313990Y-151792869D01*
X124334923Y-151788108D01*
X124839637Y-151699113D01*
X124860936Y-151696427D01*
X124882395Y-151695842D01*
X124903808Y-151697363D01*
X124903808Y-151697363D01*
G37*
D11*
X124663252Y-152174464D03*
M02*
